<?xml version="1.0" encoding="UTF-8"?><svg id="a" xmlns="http://www.w3.org/2000/svg" xmlns:xlink="http://www.w3.org/1999/xlink" viewBox="0 0 900 887.11"><defs><style>.i{fill:#fff;}.j{fill:url(#c);}.k{fill:url(#f);}.l{fill:url(#g);}.m{fill:url(#b);}.n{stroke:#fff;stroke-width:4.15px;}.n,.o{fill:none;stroke-miterlimit:10;}.p{fill:url(#h);}.q{fill:url(#d);}.r{fill:url(#e);}.o{stroke:#231f20;stroke-width:8.29px;}.s{fill:#231f20;}</style><linearGradient id="b" x1="279.3" y1="227.25" x2="614.84" y2="227.25" gradientTransform="translate(-156.54 615.98) rotate(-60)" gradientUnits="userSpaceOnUse"><stop offset="0" stop-color="#c83a7d"/><stop offset=".32" stop-color="#ca3577"/><stop offset=".71" stop-color="#d12969"/><stop offset="1" stop-color="#da1c59"/></linearGradient><linearGradient id="c" x1="279.3" y1="227.25" x2="614.84" y2="227.25" gradientTransform="translate(298.66 1059.54) rotate(-120)" xlink:href="#b"/><linearGradient id="d" x1="279.3" y1="227.25" x2="614.84" y2="227.25" gradientTransform="translate(910.38 887.11) rotate(-180)" xlink:href="#b"/><linearGradient id="e" x1="279.3" y1="227.25" x2="614.84" y2="227.25" gradientTransform="translate(1066.92 271.13) rotate(120)" xlink:href="#b"/><linearGradient id="f" x1="279.3" y1="227.25" x2="614.84" y2="227.25" gradientTransform="translate(611.73 -172.43) rotate(60)" xlink:href="#b"/><linearGradient id="g" x1="279.3" y1="227.25" x2="614.84" y2="227.25" gradientTransform="matrix(1, 0, 0, 1, 0, 0)" xlink:href="#b"/><radialGradient id="h" cx="450.5" cy="444.62" fx="450.5" fy="444.62" r="69.12" gradientTransform="matrix(1, 0, 0, 1, 0, 0)" gradientUnits="userSpaceOnUse"><stop offset="0" stop-color="#d9176d"/><stop offset=".16" stop-color="#d91866"/><stop offset=".53" stop-color="#d91b5c"/><stop offset="1" stop-color="#da1c59"/></radialGradient></defs><g><g><path class="s" d="M127.78,429.54c-48.75-34.18-95-94.86-80.61-158.22,8.69-38.37,41.38-65.93,77.32-77.86,118.94-38.54,276.46,27.42,366.79,105.17,10.7,9.16,21.03,18.79,30.6,29.39-13.97-2.98-27.45-6.48-40.81-9.96-39.07-10.12-78.52-21-117.18-30.36-62.38-14.45-186.73-45.14-242.56-13.36-45.96,27.64-7.62,115.27,6.44,155.18h0Z"/><path class="i" d="M127.78,429.54c-34-27.27-62.78-62.07-74.2-105.48-11.97-46.39,7.6-90.63,49.89-113.31,35.39-19.13,75.76-22.34,114.69-20.13,109.97,8.23,223.93,62.44,303.72,137.4-77.11-22.61-153.7-48.84-232.29-64.12-49.34-9.22-129.49-22.22-172.68,5.09-48.13,32.58-7.07,118.38,10.85,160.54h0Z"/><path class="m" d="M127.78,429.54c-10.62-8.96-20.48-18.83-29.56-29.54-9.13-10.68-17.4-22.27-24.6-34.87-7.09-12.64-13.09-26.37-16.61-41.57-1.81-7.58-2.86-15.55-2.99-23.81-.12-8.24,.72-16.83,2.95-25.29,2.18-8.47,5.69-16.8,10.44-24.39,4.73-7.61,10.63-14.48,17.15-20.35,6.57-5.82,13.7-10.7,21.06-14.67,7.35-4.01,14.9-7.17,22.48-9.71,15.16-5.07,30.42-7.78,45.39-9.11,7.49-.67,14.95-.97,22.33-1.04,7.38-.01,14.72,.22,22,.65,29.09,1.91,57.29,7.24,84.58,14.73,27.31,7.49,53.73,17.18,79.23,28.58,25.47,11.48,50.09,24.54,73.58,39.3,11.73,7.42,23.23,15.15,34.36,23.39,11.15,8.21,22,16.82,32.31,26.15-13.24-4.25-26.19-8.77-39.11-13.2-12.93-4.39-25.75-8.81-38.59-13.03-25.64-8.49-51.14-16.64-76.74-23.8-25.56-7.21-51.11-13.76-76.68-18.95-25.54-5.22-51.13-9.13-76.29-10.81-12.57-.81-25.03-1.03-37.15-.35-12.12,.61-23.88,2.26-34.75,5.03-10.84,2.84-20.7,6.9-28.6,12.5-7.83,5.6-13.92,12.65-17.8,21.63-1.91,4.48-3.45,9.39-4.27,14.72-.83,5.32-1.05,10.98-.91,16.84,.16,5.87,.95,11.88,1.98,18,1.03,6.12,2.51,12.29,4.26,18.48,3.47,12.41,8.11,24.83,13.33,37.22,5.23,12.4,11.18,24.68,17.2,37.22Z"/></g><g><path class="s" d="M279.35,720.09c-53.98,25.12-129.65,34.84-177.33-9.3-28.88-26.71-36.41-68.8-28.77-105.89,26.09-122.27,161.98-225.71,274.48-265.06,13.29-4.69,26.79-8.82,40.76-11.81-9.57,10.61-19.34,20.53-29.03,30.37-28.3,28.78-57.44,57.5-84.88,86.3-43.7,46.79-132.46,139.15-132.85,203.39,.95,53.62,96.02,64.23,137.61,72.02h0Z"/><path class="i" d="M279.35,720.09c-40.62,15.81-85.15,23.33-128.45,11.52-46.16-12.83-74.68-51.9-73.18-99.86,1.13-40.21,18.53-76.78,39.91-109.39,62.12-91.12,166.04-162.71,270.86-194.33-58.14,55.48-119.15,108.69-171.67,169.11-32.65,38.12-83.98,101.03-81.93,152.09,4.15,57.97,98.99,65.31,144.46,70.87h0Z"/><path class="j" d="M279.35,720.09c-13.07,4.72-26.55,8.32-40.36,10.83-13.82,2.57-27.99,3.93-42.5,3.87-14.49-.18-29.38-1.85-44.3-6.4-7.47-2.22-14.9-5.3-22.11-9.31-7.2-4.02-14.21-9.03-20.42-15.2-6.25-6.12-11.71-13.33-15.9-21.24-4.22-7.9-7.22-16.44-9.05-25.03-1.76-8.6-2.42-17.21-2.18-25.57,.21-8.37,1.24-16.49,2.84-24.32,3.19-15.67,8.47-30.23,14.81-43.86,3.17-6.82,6.63-13.43,10.26-19.86,3.68-6.4,7.55-12.64,11.56-18.72,16.2-24.24,34.91-45.99,55.05-65.88,20.14-19.9,41.74-37.94,64.37-54.32,22.68-16.32,46.3-31.11,70.83-44.07,12.29-6.45,24.73-12.54,37.44-18.06,12.69-5.55,25.56-10.64,38.8-14.9-10.3,9.34-20.69,18.3-30.98,27.27-10.27,9-20.51,17.9-30.58,26.91-20.18,17.96-39.98,35.97-58.98,54.56-19.03,18.53-37.48,37.38-54.75,56.94-17.29,19.51-33.47,39.71-47.51,60.67-6.99,10.48-13.4,21.17-18.87,32-5.53,10.81-9.99,21.81-13.01,32.61-2.96,10.81-4.37,21.38-3.48,31.01,.93,9.58,4,18.38,9.83,26.23,2.93,3.89,6.41,7.68,10.61,11.06,4.19,3.38,8.98,6.4,14.13,9.21,5.16,2.79,10.76,5.12,16.57,7.29,5.82,2.17,11.9,3.97,18.14,5.55,12.48,3.2,25.56,5.39,38.9,7.07,13.35,1.67,26.97,2.66,40.83,3.71Z"/></g><g><path class="s" d="M606.76,734.11c-5.23,59.31-34.66,129.7-96.72,148.92-37.57,11.66-77.79-2.87-106.09-28.03-92.85-83.73-114.48-253.14-92.31-370.24,2.58-13.85,5.75-27.61,10.15-41.2,4.4,13.59,8.11,27.01,11.78,40.32,10.77,38.9,21.07,78.5,32.29,116.66,18.67,61.24,54.28,184.28,109.71,216.74,46.92,25.98,103.63-51.04,131.17-83.17h0Z"/><path class="i" d="M606.76,734.11c-6.62,43.09-22.37,85.41-54.25,117-34.19,33.56-82.28,38.73-123.07,13.45-34.26-21.09-57.22-54.44-74.78-89.26-47.86-99.36-57.89-225.15-32.87-331.73,18.98,78.09,34.56,157.53,60.61,233.23,16.69,47.34,45.5,123.25,90.75,146.99,52.27,25.39,106.05-53.07,133.61-89.67h0Z"/><path class="q" d="M606.76,734.11c-2.45,13.68-6.07,27.15-10.8,40.37-4.69,13.25-10.59,26.2-17.9,38.74-7.4,12.46-16.29,24.52-27.69,35.16-5.66,5.36-12.04,10.25-19.12,14.49-7.08,4.23-14.93,7.79-23.38,10.09-8.42,2.35-17.4,3.47-26.34,3.15-8.95-.29-17.85-1.97-26.2-4.68-8.32-2.78-16.11-6.51-23.23-10.9-7.14-4.36-13.66-9.32-19.65-14.62-11.97-10.6-21.95-22.45-30.58-34.76-4.32-6.16-8.32-12.46-12.07-18.82-3.7-6.39-7.17-12.86-10.43-19.38-12.89-26.15-22.37-53.23-29.53-80.61-7.17-27.39-11.99-55.12-14.86-82.91-2.79-27.8-3.8-55.65-2.76-83.38,.56-13.86,1.5-27.69,3.08-41.45,1.54-13.76,3.56-27.46,6.49-41.05,2.94,13.59,5.5,27.07,8.13,40.47,2.66,13.39,5.24,26.71,8.02,39.94,5.47,26.45,11.16,52.61,17.76,78.36,6.54,25.74,13.64,51.15,21.93,75.88,8.25,24.73,17.66,48.84,28.78,71.48,5.58,11.29,11.63,22.19,18.27,32.34,6.59,10.19,13.89,19.55,21.73,27.57,7.88,7.97,16.33,14.48,25.12,18.52,8.76,3.99,17.92,5.73,27.63,4.6,4.83-.59,9.86-1.71,14.88-3.66,5.02-1.94,10.04-4.58,15.04-7.64,5-3.07,9.81-6.76,14.6-10.71,4.78-3.96,9.39-8.32,13.87-12.93,9.01-9.21,17.45-19.44,25.57-30.16,8.12-10.73,15.79-22.03,23.63-33.5Z"/></g><g><path class="s" d="M782.6,457.57c48.75,34.18,95,94.86,80.61,158.22-8.69,38.37-41.38,65.93-77.32,77.86-118.94,38.54-276.46-27.42-366.79-105.17-10.7-9.16-21.03-18.79-30.6-29.39,13.97,2.98,27.45,6.48,40.81,9.96,39.07,10.12,78.52,21,117.18,30.36,62.38,14.45,186.73,45.14,242.56,13.36,45.96-27.64,7.62-115.27-6.44-155.18h0Z"/><path class="i" d="M782.6,457.57c34,27.27,62.78,62.07,74.2,105.48,11.97,46.39-7.6,90.63-49.89,113.31-35.39,19.13-75.76,22.34-114.69,20.13-109.97-8.23-223.93-62.44-303.72-137.4,77.11,22.61,153.7,48.84,232.29,64.12,49.34,9.22,129.49,22.22,172.68-5.09,48.13-32.58,7.07-118.38-10.85-160.54h0Z"/><path class="r" d="M782.6,457.57c10.62,8.96,20.48,18.83,29.56,29.54,9.13,10.68,17.4,22.27,24.6,34.87,7.09,12.64,13.09,26.37,16.61,41.57,1.81,7.58,2.86,15.55,2.99,23.81,.12,8.24-.72,16.83-2.95,25.29-2.18,8.47-5.69,16.8-10.44,24.39-4.73,7.61-10.63,14.48-17.15,20.35-6.57,5.82-13.7,10.7-21.06,14.67-7.35,4.01-14.9,7.17-22.48,9.71-15.16,5.07-30.42,7.78-45.39,9.11-7.49,.67-14.95,.97-22.33,1.04-7.38,.01-14.72-.22-22-.65-29.09-1.91-57.29-7.24-84.58-14.73-27.31-7.49-53.73-17.18-79.23-28.58-25.47-11.48-50.09-24.54-73.58-39.3-11.73-7.42-23.23-15.15-34.36-23.39-11.15-8.21-22-16.82-32.31-26.15,13.24,4.25,26.19,8.77,39.11,13.2,12.93,4.39,25.75,8.81,38.59,13.03,25.64,8.49,51.14,16.64,76.74,23.8,25.56,7.21,51.11,13.76,76.68,18.95,25.54,5.22,51.13,9.13,76.29,10.81,12.57,.81,25.03,1.03,37.15,.35,12.12-.61,23.88-2.26,34.75-5.03,10.84-2.84,20.7-6.9,28.6-12.5,7.83-5.6,13.92-12.65,17.8-21.63,1.91-4.48,3.45-9.39,4.27-14.72,.83-5.32,1.05-10.98,.91-16.84-.16-5.87-.95-11.88-1.98-18-1.03-6.12-2.51-12.29-4.26-18.48-3.47-12.41-8.11-24.83-13.33-37.22-5.23-12.4-11.18-24.68-17.2-37.22Z"/></g><g><path class="s" d="M631.03,167.02c53.98-25.12,129.65-34.84,177.33,9.3,28.88,26.71,36.41,68.8,28.77,105.89-26.09,122.27-161.98,225.71-274.48,265.06-13.29,4.69-26.79,8.82-40.76,11.81,9.57-10.61,19.34-20.53,29.03-30.37,28.3-28.78,57.44-57.5,84.88-86.3,43.7-46.79,132.46-139.15,132.85-203.39-.95-53.62-96.02-64.23-137.61-72.02h0Z"/><path class="i" d="M631.03,167.02c40.62-15.81,85.15-23.33,128.45-11.52,46.16,12.83,74.68,51.9,73.18,99.86-1.13,40.21-18.53,76.78-39.91,109.39-62.12,91.12-166.04,162.71-270.86,194.33,58.14-55.48,119.15-108.69,171.67-169.11,32.65-38.12,83.98-101.03,81.93-152.09-4.15-57.97-98.99-65.31-144.46-70.87h0Z"/><path class="k" d="M631.03,167.02c13.07-4.72,26.55-8.32,40.36-10.83,13.82-2.57,27.99-3.93,42.5-3.87,14.49,.18,29.38,1.85,44.3,6.4,7.47,2.22,14.9,5.3,22.11,9.31,7.2,4.02,14.21,9.03,20.42,15.2,6.25,6.12,11.71,13.33,15.9,21.24,4.22,7.9,7.22,16.44,9.05,25.03,1.76,8.6,2.42,17.21,2.18,25.57-.21,8.37-1.24,16.49-2.84,24.32-3.19,15.67-8.47,30.23-14.81,43.86-3.17,6.82-6.63,13.43-10.26,19.86-3.68,6.4-7.55,12.64-11.56,18.72-16.2,24.24-34.91,45.99-55.05,65.88-20.14,19.9-41.74,37.94-64.37,54.32-22.68,16.32-46.3,31.11-70.83,44.07-12.29,6.45-24.73,12.54-37.44,18.06-12.69,5.55-25.56,10.64-38.8,14.9,10.3-9.34,20.69-18.3,30.98-27.27,10.27-9,20.51-17.9,30.58-26.91,20.18-17.96,39.98-35.97,58.98-54.56,19.03-18.53,37.48-37.38,54.75-56.94,17.29-19.51,33.47-39.71,47.51-60.67,6.99-10.48,13.4-21.17,18.87-32,5.53-10.81,9.99-21.81,13.01-32.61,2.96-10.81,4.37-21.38,3.48-31.01-.93-9.58-4-18.38-9.83-26.23-2.93-3.89-6.41-7.68-10.61-11.06-4.19-3.38-8.98-6.4-14.13-9.21-5.16-2.79-10.76-5.12-16.57-7.29-5.82-2.17-11.9-3.97-18.14-5.55-12.48-3.2-25.56-5.39-38.9-7.07-13.35-1.67-26.97-2.66-40.83-3.71Z"/></g><g><path class="s" d="M303.62,153c5.23-59.31,34.66-129.7,96.72-148.92,37.57-11.66,77.79,2.87,106.09,28.03,92.85,83.73,114.48,253.14,92.31,370.24-2.58,13.85-5.75,27.61-10.15,41.2-4.4-13.59-8.11-27.01-11.78-40.32-10.77-38.9-21.07-78.5-32.29-116.66-18.67-61.24-54.28-184.28-109.71-216.74-46.92-25.98-103.63,51.04-131.17,83.17h0Z"/><path class="i" d="M303.62,153c6.62-43.09,22.37-85.41,54.25-117C392.06,2.44,440.15-2.73,480.94,22.56c34.26,21.09,57.22,54.44,74.78,89.26,47.86,99.36,57.89,225.15,32.87,331.73-18.98-78.09-34.56-157.53-60.61-233.23-16.69-47.34-45.5-123.25-90.75-146.99-52.27-25.39-106.05,53.07-133.61,89.67h0Z"/><path class="l" d="M303.62,153c2.45-13.68,6.07-27.15,10.8-40.37,4.69-13.25,10.59-26.2,17.9-38.74,7.4-12.46,16.29-24.52,27.69-35.16,5.66-5.36,12.04-10.25,19.12-14.49,7.08-4.23,14.93-7.79,23.38-10.09,8.42-2.35,17.4-3.47,26.34-3.15,8.95,.29,17.85,1.97,26.2,4.68,8.32,2.78,16.11,6.51,23.23,10.9,7.14,4.36,13.66,9.32,19.65,14.62,11.97,10.6,21.95,22.45,30.58,34.76,4.32,6.16,8.32,12.46,12.07,18.82,3.7,6.39,7.17,12.86,10.43,19.38,12.89,26.15,22.37,53.23,29.53,80.61,7.17,27.39,11.99,55.12,14.86,82.91,2.79,27.8,3.8,55.65,2.76,83.38-.56,13.86-1.5,27.69-3.08,41.45-1.54,13.76-3.56,27.46-6.49,41.05-2.94-13.59-5.5-27.07-8.13-40.47-2.66-13.39-5.24-26.71-8.02-39.94-5.47-26.45-11.16-52.61-17.76-78.36-6.54-25.74-13.64-51.15-21.93-75.88-8.25-24.73-17.66-48.84-28.78-71.48-5.58-11.29-11.63-22.19-18.27-32.34-6.59-10.19-13.89-19.55-21.73-27.57-7.88-7.97-16.33-14.48-25.12-18.52-8.76-3.99-17.92-5.73-27.63-4.6-4.83,.59-9.86,1.71-14.88,3.66-5.02,1.94-10.04,4.58-15.04,7.64-5,3.07-9.81,6.76-14.6,10.71-4.78,3.96-9.39,8.32-13.87,12.93-9.01,9.21-17.45,19.44-25.57,30.16-8.12,10.73-15.79,22.03-23.63,33.5Z"/></g></g><g><circle class="p" cx="450.5" cy="444.62" r="69.12"/><circle class="o" cx="450.5" cy="444.62" r="69.12"/><circle class="n" cx="450.5" cy="444.62" r="66.36"/></g></svg>