<?xml version="1.0" encoding="utf-8"?>
<!-- Generator: Adobe Illustrator 26.1.0, SVG Export Plug-In . SVG Version: 6.00 Build 0)  -->
<svg version="1.1" id="Layer_1" xmlns="http://www.w3.org/2000/svg" xmlns:xlink="http://www.w3.org/1999/xlink" x="0px" y="0px"
	 viewBox="0 0 287.6114502 100" style="enable-background:new 0 0 287.6114502 100;" xml:space="preserve">
<style type="text/css">
	.st0{display:none;}
	.st1{clip-path:url(#SVGID_00000052097628746266387520000010465921263576038048_);}
	.st2{clip-path:url(#SVGID_00000166636080177345441690000002361556730158820247_);fill:#231F20;}
	.st3{clip-path:url(#SVGID_00000045586713253039906640000014832432566149980059_);fill:#FFFFFF;}
	.st4{clip-path:url(#SVGID_00000096746515523584598300000002016827820987316879_);}
	
		.st5{clip-path:url(#SVGID_00000159459460896389022000000001845780800431280779_);fill:url(#SVGID_00000002381087883763589700000017300869146695717270_);}
	.st6{clip-path:url(#SVGID_00000176759683681374504470000008577300007801997745_);}
	.st7{clip-path:url(#SVGID_00000016777122444073254370000010531126134028949673_);fill:#231F20;}
	.st8{clip-path:url(#SVGID_00000063590970643668473000000003468294221673812393_);fill:#FFFFFF;}
	.st9{clip-path:url(#SVGID_00000034777419788147969210000005119384176886841502_);}
	
		.st10{clip-path:url(#SVGID_00000013900502898141673850000007031363144249246094_);fill:url(#SVGID_00000034090561539578065470000014382055138316003513_);}
	.st11{clip-path:url(#SVGID_00000171702307752236191600000015980657457559149962_);}
	.st12{clip-path:url(#SVGID_00000086691951515135262920000009447070665810086302_);fill:#231F20;}
	.st13{clip-path:url(#SVGID_00000101822020598490670420000002692939351465413519_);fill:#FFFFFF;}
	.st14{clip-path:url(#SVGID_00000096044528029421794500000011364105083247232430_);}
	
		.st15{clip-path:url(#SVGID_00000149367990315913082190000006931884808178465202_);fill:url(#SVGID_00000088124747764617809290000008701100266045063325_);}
	.st16{clip-path:url(#SVGID_00000028296236639019722740000013123763050874900864_);}
	.st17{clip-path:url(#SVGID_00000047062412061863972360000010152655555497917080_);fill:#231F20;}
	.st18{clip-path:url(#SVGID_00000075852238975481716350000011569839341905354887_);fill:#FFFFFF;}
	.st19{clip-path:url(#SVGID_00000094608810726866194520000011696046733296945570_);}
	
		.st20{clip-path:url(#SVGID_00000136404138261205352710000011976882809123092144_);fill:url(#SVGID_00000120523417336614769160000005081754883110071686_);}
	.st21{clip-path:url(#SVGID_00000035503731290199195000000017749392139014787498_);}
	.st22{clip-path:url(#SVGID_00000121240910586190607800000012664580785560318363_);fill:#231F20;}
	.st23{clip-path:url(#SVGID_00000107547796449301315730000016867208151750762142_);fill:#FFFFFF;}
	.st24{clip-path:url(#SVGID_00000026862505614606084540000004645956212163982005_);}
	
		.st25{clip-path:url(#SVGID_00000114793968856429589670000011429095355360346014_);fill:url(#SVGID_00000031907170101582149880000012812140735391094664_);}
	.st26{clip-path:url(#SVGID_00000025417297213495090180000008778462648136365964_);}
	.st27{clip-path:url(#SVGID_00000160155606200658471780000012566186876545177999_);fill:#231F20;}
	.st28{clip-path:url(#SVGID_00000026863480807252041150000015509013798625227137_);fill:#FFFFFF;}
	.st29{clip-path:url(#SVGID_00000145052429135820757820000003768574155455663285_);}
	
		.st30{clip-path:url(#SVGID_00000031924115307143916500000014405614221023360132_);fill:url(#SVGID_00000046315691377210464640000004151023844973707165_);}
	.st31{clip-path:url(#SVGID_00000096751882412094219700000007974541564795342731_);}
	
		.st32{clip-path:url(#SVGID_00000170969763569792941750000010497572599518566577_);fill:url(#SVGID_00000158004292845600076790000015588474419319656334_);}
	.st33{clip-path:url(#SVGID_00000080901745873586315550000007727285153074895491_);}
	
		.st34{clip-path:url(#SVGID_00000176728011417432563310000006156046656719477427_);fill:none;stroke:#231F20;stroke-width:0.813544;stroke-miterlimit:10;}
	
		.st35{clip-path:url(#SVGID_00000087390858022588344110000003373714661788796807_);fill:none;stroke:#FFFFFF;stroke-width:0.406821;stroke-miterlimit:10;}
	.st36{fill:#DA1C59;}
	.st37{fill:none;stroke:#231F20;}
	.st38{fill:none;stroke:#FFFFFF;stroke-width:0.5;}
</style>
<g id="Syna_Logo" xmlns:cc="http://creativecommons.org/ns#" xmlns:dc="http://purl.org/dc/elements/1.1/" xmlns:rdf="http://www.w3.org/1999/02/22-rdf-syntax-ns#" xmlns:svg="http://www.w3.org/2000/svg" class="st0">
</g>
<g id="My_Logo_fior_PHYS-12" class="st0">
</g>
<g id="My_Logo">
	<g>
		<g>
			<g>
				<defs>
					<rect id="SVGID_1_" x="9.2189026" y="0.9617835" width="98.0764313" height="98.0764313"/>
				</defs>
				<clipPath id="SVGID_00000023976908337561199580000008196084574861674421_">
					<use xlink:href="#SVGID_1_"  style="overflow:visible;"/>
				</clipPath>
			</g>
			<g>
				<defs>
					
						<rect id="SVGID_00000062170892171181334480000010498379741768284818_" x="9.2189026" y="0.9617835" width="98.0764313" height="98.0764313"/>
				</defs>
				<clipPath id="SVGID_00000159434640807977488540000017811624144851005609_">
					<use xlink:href="#SVGID_00000062170892171181334480000010498379741768284818_"  style="overflow:visible;"/>
				</clipPath>
			</g>
			<g>
				<defs>
					
						<rect id="SVGID_00000039839619055728035000000015616884848231849883_" x="9.2189026" y="0.9617835" width="98.0764313" height="98.0764313"/>
				</defs>
				<clipPath id="SVGID_00000173147906939331883820000000930123334016753080_">
					<use xlink:href="#SVGID_00000039839619055728035000000015616884848231849883_"  style="overflow:visible;"/>
				</clipPath>
			</g>
			<g>
				<defs>
					
						<rect id="SVGID_00000182511537540868611900000013467319790977960082_" x="9.2189026" y="0.9617835" width="98.0764313" height="98.0764313"/>
				</defs>
				<clipPath id="SVGID_00000106105509634086336120000011418933241700824238_">
					<use xlink:href="#SVGID_00000182511537540868611900000013467319790977960082_"  style="overflow:visible;"/>
				</clipPath>
			</g>
			<g>
				<defs>
					
						<rect id="SVGID_00000032630476412389936770000013494122234080210590_" x="9.2189026" y="0.9617835" width="98.0764313" height="98.0764313"/>
				</defs>
				<clipPath id="SVGID_00000083770207359133795290000014625160186969319871_">
					<use xlink:href="#SVGID_00000032630476412389936770000013494122234080210590_"  style="overflow:visible;"/>
				</clipPath>
			</g>
			<g>
				<defs>
					
						<rect id="SVGID_00000048496882067093296680000011107994467804499885_" x="9.2189026" y="0.9617835" width="98.0764313" height="98.0764313"/>
				</defs>
				<clipPath id="SVGID_00000155834272654889604560000014863726461029385884_">
					<use xlink:href="#SVGID_00000048496882067093296680000011107994467804499885_"  style="overflow:visible;"/>
				</clipPath>
			</g>
			<g>
				<defs>
					
						<rect id="SVGID_00000011028854980733613860000006052794154093566903_" x="9.2189026" y="0.9617835" width="98.0764313" height="98.0764313"/>
				</defs>
				<clipPath id="SVGID_00000007424405171791082290000002737635495391896219_">
					<use xlink:href="#SVGID_00000011028854980733613860000006052794154093566903_"  style="overflow:visible;"/>
				</clipPath>
			</g>
			<g>
				<defs>
					
						<rect id="SVGID_00000142893539352441090690000013566898203147121568_" x="9.2189026" y="0.9617835" width="98.0764313" height="98.0764313"/>
				</defs>
				<clipPath id="SVGID_00000081623804965593818120000018333316658595864500_">
					<use xlink:href="#SVGID_00000142893539352441090690000013566898203147121568_"  style="overflow:visible;"/>
				</clipPath>
			</g>
			<g>
				<defs>
					
						<rect id="SVGID_00000007394444233885917840000003508178181034114207_" x="9.2189026" y="0.9617835" width="98.0764313" height="98.0764313"/>
				</defs>
				<clipPath id="SVGID_00000006676316500479944290000016117119010937608356_">
					<use xlink:href="#SVGID_00000007394444233885917840000003508178181034114207_"  style="overflow:visible;"/>
				</clipPath>
			</g>
			<g>
				<defs>
					
						<rect id="SVGID_00000007405572005861917380000000896688693921362575_" x="9.2189026" y="0.9617835" width="98.0764313" height="98.0764313"/>
				</defs>
				<clipPath id="SVGID_00000090996494899447278460000017606949149419780520_">
					<use xlink:href="#SVGID_00000007405572005861917380000000896688693921362575_"  style="overflow:visible;"/>
				</clipPath>
			</g>
			<g>
				<defs>
					
						<rect id="SVGID_00000181080419337383643610000004117414422901244296_" x="9.2189026" y="0.9617835" width="98.0764313" height="98.0764313"/>
				</defs>
				<clipPath id="SVGID_00000054251892745972151900000005550569685699748000_">
					<use xlink:href="#SVGID_00000181080419337383643610000004117414422901244296_"  style="overflow:visible;"/>
				</clipPath>
			</g>
			<g>
				<defs>
					
						<rect id="SVGID_00000148636940976475900580000016118235161917938821_" x="9.2189026" y="0.9617835" width="98.0764313" height="98.0764313"/>
				</defs>
				<clipPath id="SVGID_00000157277810547960515970000014708080305635388090_">
					<use xlink:href="#SVGID_00000148636940976475900580000016118235161917938821_"  style="overflow:visible;"/>
				</clipPath>
			</g>
			<g>
				<defs>
					
						<rect id="SVGID_00000159451058197873673700000011286662076195347614_" x="9.2189026" y="0.9617835" width="98.0764313" height="98.0764313"/>
				</defs>
				<clipPath id="SVGID_00000107578927933828647440000014718765839958093230_">
					<use xlink:href="#SVGID_00000159451058197873673700000011286662076195347614_"  style="overflow:visible;"/>
				</clipPath>
			</g>
			<g>
				<defs>
					
						<rect id="SVGID_00000130624425539373697370000004232272750654491300_" x="9.2189026" y="0.9617835" width="98.0764313" height="98.0764313"/>
				</defs>
				<clipPath id="SVGID_00000052805525411856181250000010304121190767705529_">
					<use xlink:href="#SVGID_00000130624425539373697370000004232272750654491300_"  style="overflow:visible;"/>
				</clipPath>
			</g>
			<g>
				<defs>
					
						<rect id="SVGID_00000044881166497706480840000007562192198834968223_" x="9.2189026" y="0.9617835" width="98.0764313" height="98.0764313"/>
				</defs>
				<clipPath id="SVGID_00000041997300055483089800000007430889584336923314_">
					<use xlink:href="#SVGID_00000044881166497706480840000007562192198834968223_"  style="overflow:visible;"/>
				</clipPath>
			</g>
			<g>
				<defs>
					
						<rect id="SVGID_00000038394207245441262420000000850094150830757789_" x="9.2189026" y="0.9617835" width="98.0764313" height="98.0764313"/>
				</defs>
				<clipPath id="SVGID_00000173882830751590120910000006089640500015329439_">
					<use xlink:href="#SVGID_00000038394207245441262420000000850094150830757789_"  style="overflow:visible;"/>
				</clipPath>
			</g>
			<g>
				<defs>
					
						<rect id="SVGID_00000015350855597402914040000002209592989276966287_" x="9.2189026" y="0.9617835" width="98.0764313" height="98.0764313"/>
				</defs>
				<clipPath id="SVGID_00000176031306572567918130000003305791181895851409_">
					<use xlink:href="#SVGID_00000015350855597402914040000002209592989276966287_"  style="overflow:visible;"/>
				</clipPath>
				<g style="clip-path:url(#SVGID_00000176031306572567918130000003305791181895851409_);">
					<g>
						<defs>
							
								<rect id="SVGID_00000121272728909745177040000004059820629313502127_" x="9.2189026" y="0.9617835" width="98.0764313" height="98.0764313"/>
						</defs>
						<clipPath id="SVGID_00000063613217742368651470000009326682051694661532_">
							<use xlink:href="#SVGID_00000121272728909745177040000004059820629313502127_"  style="overflow:visible;"/>
						</clipPath>
						<path style="clip-path:url(#SVGID_00000063613217742368651470000009326682051694661532_);fill:#231F20;" d="
							M27.28265,48.719429c-4.0872383-2.8635368-7.7449989-7.3102226-8.0475636-12.5407372
							c-0.1992912-7.1026974,6.0279713-10.6912155,12.3407593-11.2393627
							C43.3969002,23.911974,57.232151,30.3482399,65.1872253,38.893837
							c-5.1090965-1.1319008-10.1696396-2.629818-15.2116508-3.8149757
							c-5.9844284-1.3670845-17.9085617-4.2821178-23.2499008-1.2475319
							C22.3278275,36.4622307,25.963913,44.886013,27.28265,48.719429"/>
					</g>
					<g>
						<defs>
							
								<rect id="SVGID_00000163051213654281024100000010777742959980564367_" x="9.2189026" y="0.9617835" width="98.0764313" height="98.0764313"/>
						</defs>
						<clipPath id="SVGID_00000032648063868078174470000003243013534699675542_">
							<use xlink:href="#SVGID_00000163051213654281024100000010777742959980564367_"  style="overflow:visible;"/>
						</clipPath>
						<path style="clip-path:url(#SVGID_00000032648063868078174470000003243013534699675542_);fill:#FFFFFF;" d="
							M27.28265,48.719429c-3.2849731-2.6151047-6.0589657-5.965107-7.1596775-10.1461067
							c-1.1556358-4.4730644,0.7281189-8.7504768,4.7972107-10.9534683
							c3.4068813-1.8587456,7.2995358-2.1819057,11.0552731-1.9752598
							c10.5835266,0.7706871,21.5678902,6.0003147,29.2117691,13.2492428
							c-7.4234009-2.1395378-14.7926712-4.6439171-22.3492622-6.0971146
							c-4.7289505-0.8731785-12.4142208-2.1064892-16.5466709,0.5107803
							C21.6857224,36.4234886,25.5885735,44.665638,27.28265,48.719429"/>
					</g>
				</g>
			</g>
			<g>
				<defs>
					
						<rect id="SVGID_00000109012911733165345530000003706402303927433891_" x="9.2189026" y="0.9617835" width="98.0764313" height="98.0764313"/>
				</defs>
				<clipPath id="SVGID_00000059273367990130138560000007635099293401434031_">
					<use xlink:href="#SVGID_00000109012911733165345530000003706402303927433891_"  style="overflow:visible;"/>
				</clipPath>
				<g style="clip-path:url(#SVGID_00000059273367990130138560000007635099293401434031_);">
					<g>
						<defs>
							<path id="SVGID_00000137125260612920737890000002731993220681731731_" d="M33.8245163,26.0998497
								c-0.7114487,0.0073566-1.42976,0.039526-2.151701,0.1056309c-1.442606,0.1319103-2.9123783,0.3968201-4.3737183,0.891613
								c-0.7305717,0.2467594-1.4582005,0.555212-2.166214,0.9445724c-0.7087002,0.3863258-1.395628,0.8588562-2.026947,1.4245625
								c-0.6277866,0.5689373-1.1947651,1.2336063-1.6493492,1.9688854
								c-0.4569397,0.7330227-0.7932434,1.5381298-1.002636,2.3553028c-0.2146893,0.816391-0.2952099,1.6444473-0.2828522,2.4391594
								c0.0130444,0.7958946,0.1140633,1.5643196,0.2886391,2.2952843c0.3390503,1.4646759,0.9176998,2.7870369,1.6006069,4.0036774
								c0.6940861,1.2126198,1.49086,2.327549,2.3711929,3.3544083c0.8761177,1.0293159,1.8262825,1.9775162,2.8510818,2.8364677
								c-0.5726662-1.2090836-1.139452-2.3934555-1.6373844-3.5878258c-0.4968548-1.1936913-0.9375134-2.3894424-1.2657757-3.582737
								c-0.166338-0.5954208-0.3054104-1.1882896-0.402113-1.7763596c-0.0957222-0.587574-0.1692791-1.164753-0.1825199-1.7272263
								c-0.0118675-0.5618744,0.0116711-1.1041451,0.0927792-1.6136475c0.0796394-0.5101967,0.2294998-0.979393,0.4125099-1.4074936
								c0.3733768-0.8576813,0.9534016-1.5311699,1.701725-2.0657845c0.7520504-0.5354996,1.6946621-0.9249611,2.7310352-1.1991863
								c1.0391197-0.2686253,2.1654301-0.4274139,3.3276367-0.4889088c1.1611252-0.0675716,2.3572655-0.049427,3.5635109,0.0264835
								c2.4156189,0.1572132,4.8731194,0.5275497,7.3274841,1.0245991c2.456913,0.4930344,4.9133339,1.1175842,7.3713264,1.8053932
								c2.461132,0.6828117,4.9144173,1.4598694,7.3821144,2.2696877c1.2357635,0.4014244,2.4699593,0.8231583,3.7150421,1.2415504
								c1.2438049,0.4214325,2.4916267,0.8520851,3.7672043,1.2560654c-0.9880142-0.902504-2.0296822-1.7336006-3.0999947-2.526844
								c-1.0690346-0.7963829-2.1735687-1.5423546-3.3004684-2.2584038
								c-2.2571335-1.4252472-4.6244011-2.6837673-7.0747414-3.790556c-2.453186-1.0994396-4.9958191-2.03195-7.6242676-2.7511444
								c-2.626976-0.720274-5.3420296-1.2301693-8.1441689-1.4085751c-0.6557388-0.0386391-1.3166771-0.0589447-1.9817314-0.0589447
								C33.9161186,26.099556,33.8703156,26.0996571,33.8245163,26.0998497"/>
						</defs>
						<clipPath id="SVGID_00000111177882049703887000000004210509948932101541_">
							<use xlink:href="#SVGID_00000137125260612920737890000002731993220681731731_"  style="overflow:visible;"/>
						</clipPath>
						
							<linearGradient id="SVGID_00000121263148931333351950000010614271274998691735_" gradientUnits="userSpaceOnUse" x1="-307.6287842" y1="656.3231201" x2="-307.5307007" y2="656.3231201" gradientTransform="matrix(165.2795563 -286.272583 286.272583 165.2795563 -137009.828125 -196487.859375)">
							<stop  offset="0" style="stop-color:#C73A7D"/>
							<stop  offset="0.3200186" style="stop-color:#CA3678"/>
							<stop  offset="0.7076005" style="stop-color:#D12969"/>
							<stop  offset="1" style="stop-color:#D91C59"/>
						</linearGradient>
						
							<polygon style="clip-path:url(#SVGID_00000111177882049703887000000004210509948932101541_);fill:url(#SVGID_00000121263148931333351950000010614271274998691735_);" points="
							10.3640575,43.0644569 31.4158592,6.6016693 74.9818726,31.7545204 53.9300766,68.217308 						"/>
					</g>
				</g>
			</g>
			<g>
				<defs>
					
						<rect id="SVGID_00000106140890649936955550000001779721872576366471_" x="9.2189026" y="0.9617835" width="98.0764313" height="98.0764313"/>
				</defs>
				<clipPath id="SVGID_00000072265551392397758830000017776449918247155367_">
					<use xlink:href="#SVGID_00000106140890649936955550000001779721872576366471_"  style="overflow:visible;"/>
				</clipPath>
				<g style="clip-path:url(#SVGID_00000072265551392397758830000017776449918247155367_);">
					<g>
						<defs>
							
								<rect id="SVGID_00000070100299052129021180000018210943071731718541_" x="9.2189026" y="0.9617835" width="98.0764313" height="98.0764313"/>
						</defs>
						<clipPath id="SVGID_00000149382824425562017780000000515187507499868585_">
							<use xlink:href="#SVGID_00000070100299052129021180000018210943071731718541_"  style="overflow:visible;"/>
						</clipPath>
						<path style="clip-path:url(#SVGID_00000149382824425562017780000000515187507499868585_);fill:#231F20;" d="
							M41.9198799,76.6329956c-4.5235786,2.1078644-10.2032833,3.0522385-14.8843727,0.6990891
							c-6.250803-3.37883-6.2449188-10.5660629-3.5632153-16.3071671
							c5.0208263-10.7509422,17.5124302-19.5145569,28.8906651-22.1310425
							c-3.534771,3.8586197-7.3623009,7.4922562-10.9097252,11.2661362
							c-4.1760941,4.499157-12.6626472,13.3682137-12.7053089,19.5112305
							C28.8274612,74.7954407,37.9407234,75.8582916,41.9198799,76.6329956"/>
					</g>
					<g>
						<defs>
							
								<rect id="SVGID_00000075879428274712203260000003680179121672436634_" x="9.2189026" y="0.9617835" width="98.0764313" height="98.0764313"/>
						</defs>
						<clipPath id="SVGID_00000008835453572156599950000003452118010513758633_">
							<use xlink:href="#SVGID_00000075879428274712203260000003680179121672436634_"  style="overflow:visible;"/>
						</clipPath>
						<path style="clip-path:url(#SVGID_00000008835453572156599950000003452118010513758633_);fill:#FFFFFF;" d="
							M41.9198799,76.6329956c-3.9071693,1.5373535-8.1954613,2.2646866-12.3666534,1.1273956
							c-4.4515915-1.2357635-7.2140121-5.0058212-7.0873947-9.6312103
							c0.0937614-3.8797989,1.7602749-7.4125175,3.8170376-10.5617485
							c5.959219-8.7802963,15.9804745-15.6782036,26.0800877-18.6735573
							c-5.5645599,5.3590927-11.4181519,10.488884-16.4548683,16.3064804
							c-3.1206932,3.658741-8.031477,9.6977997-7.8310108,14.585144
							C28.4728165,75.3321152,37.562149,76.0731812,41.9198799,76.6329956"/>
					</g>
				</g>
			</g>
			<g>
				<defs>
					
						<rect id="SVGID_00000168829262114389375730000016830398062212321417_" x="9.2189026" y="0.9617835" width="98.0764313" height="98.0764313"/>
				</defs>
				<clipPath id="SVGID_00000155140346558992301500000017138003353609940653_">
					<use xlink:href="#SVGID_00000168829262114389375730000016830398062212321417_"  style="overflow:visible;"/>
				</clipPath>
				<g style="clip-path:url(#SVGID_00000155140346558992301500000017138003353609940653_);">
					<g>
						<defs>
							<path id="SVGID_00000147184070197209471170000007819067733076448691_" d="M48.624836,40.3152466
								c-1.2241898,0.5276489-2.4225845,1.1112061-3.6060753,1.7290878
								c-2.3629532,1.2421341-4.6364632,2.6630707-6.820137,4.2316055
								c-2.1787682,1.5748138-4.2576904,3.3105698-6.1947021,5.2272758
								c-1.9373035,1.9148483-3.7363186,4.0112305-5.2920094,6.3487816
								c-0.3860264,0.5863037-0.7571487,1.1883926-1.1102238,1.8057823
								c-0.3493481,0.6197472-0.6806507,1.2580299-0.9843941,1.9162216c-0.6069946,1.3153-1.1125774,2.7206383-1.4146538,4.2336617
								c-0.1515274,0.7559738-0.2483292,1.5404892-0.2651005,2.3482437
								c-0.0198116,0.8069763,0.0459976,1.6380768,0.2202797,2.4676056c0.178793,0.8282547,0.4708652,1.6515045,0.8804321,2.4128723
								c0.4063301,0.7622528,0.9353542,1.4559479,1.5383301,2.0459747c0.5997353,0.5941467,1.2765617,1.0778656,1.9709435,1.4645767
								c0.6959496,0.3866196,1.4118099,0.6832962,2.1321812,0.8975983c1.4378986,0.4386902,2.8725624,0.5987549,4.267601,0.6157227
								c1.3970985,0.0050964,2.7610474-0.1274033,4.0905724-0.3764191c1.3294258-0.2440109,2.6257019-0.5927734,3.8819618-1.0507889
								c-1.3333473-0.1086731-2.6423759-0.2099838-3.9258041-0.3758316
								c-1.2822495-0.1666336-2.5381203-0.3828888-3.7356339-0.6953583
								c-0.5988541-0.1535873-1.1818199-0.3295364-1.7394829-0.5399094
								c-0.5566826-0.2108688-1.0933571-0.4356613-1.5870724-0.7054672
								c-0.4925404-0.2707901-0.9503613-0.5622711-1.3510017-0.8871994
								c-0.4021149-0.3239441-0.7335148-0.6884003-1.0127392-1.0609894c-0.5559959-0.7521515-0.8493423-1.5913925-0.9382-2.5065384
								c-0.0877762-0.9191742,0.0463924-1.9301453,0.3270855-2.9647522c0.2868748-1.034317,0.7125263-2.0890274,1.2403736-3.1262894
								c0.5220604-1.0394135,1.1359215-2.0661736,1.8048019-3.0728302c1.3438435-2.0135117,2.8933544-3.9566002,4.5509434-5.8335876
								c1.6554298-1.8812065,3.4245338-3.6962051,5.2491493-5.4810982c1.8219643-1.7899895,3.7216072-3.5259438,5.6567535-5.2582703
								c0.9655609-0.8694496,1.9477997-1.7274208,2.932682-2.5964775c0.9869423-0.8664055,1.9837914-1.731636,2.9713249-2.6344261
								C51.0874367,39.2983894,49.8469658,39.7849464,48.624836,40.3152466"/>
						</defs>
						<clipPath id="SVGID_00000153692987631429008020000016557267233897606529_">
							<use xlink:href="#SVGID_00000147184070197209471170000007819067733076448691_"  style="overflow:visible;"/>
						</clipPath>
						
							<linearGradient id="SVGID_00000068648394947984672000000011383465924246764978_" gradientUnits="userSpaceOnUse" x1="-307.2007141" y1="652.9810791" x2="-307.1026306" y2="652.9810791" gradientTransform="matrix(-165.2795563 -286.272583 286.272583 -165.2795563 -237656.8125 20057.2929688)">
							<stop  offset="0" style="stop-color:#C73A7D"/>
							<stop  offset="0.3200186" style="stop-color:#CA3678"/>
							<stop  offset="0.7076005" style="stop-color:#D12969"/>
							<stop  offset="1" style="stop-color:#D91C59"/>
						</linearGradient>
						
							<polygon style="clip-path:url(#SVGID_00000153692987631429008020000016557267233897606529_);fill:url(#SVGID_00000068648394947984672000000011383465924246764978_);" points="
							30.2790527,90.8155441 5.9560447,48.6868553 45.0016937,26.1438408 69.3246994,68.272522 						"/>
					</g>
				</g>
			</g>
			<g>
				<defs>
					
						<rect id="SVGID_00000131363023943106417970000007937406282715601328_" x="9.2189026" y="0.9617835" width="98.0764313" height="98.0764313"/>
				</defs>
				<clipPath id="SVGID_00000036936681372555974410000004516538810863828361_">
					<use xlink:href="#SVGID_00000131363023943106417970000007937406282715601328_"  style="overflow:visible;"/>
				</clipPath>
				<g style="clip-path:url(#SVGID_00000036936681372555974410000004516538810863828361_);">
					<g>
						<defs>
							
								<rect id="SVGID_00000005964709895476440300000004415003286883464381_" x="9.2189026" y="0.9617835" width="98.0764313" height="98.0764313"/>
						</defs>
						<clipPath id="SVGID_00000007402241503058282610000017690415455067160758_">
							<use xlink:href="#SVGID_00000005964709895476440300000004415003286883464381_"  style="overflow:visible;"/>
						</clipPath>
						<path style="clip-path:url(#SVGID_00000007402241503058282610000017690415455067160758_);fill:#231F20;" d="
							M73.4123611,77.9135818c-0.436348,4.9713974-2.4583893,10.3624649-6.8368149,13.2397308
							c-6.0515099,3.7239609-12.272892,0.1252441-15.9039764-5.0677109
							c-6.8002243-9.723587-8.1438713-24.9234734-4.7207108-36.0855522
							c1.5743217,4.9905243,2.8073387,10.1220779,4.3019257,15.0812111
							c1.8083344,5.8661499,5.2458153,17.6502304,10.5444946,20.7587585
							C65.2747574,88.3331223,70.7518387,80.9722977,73.4123611,77.9135818"/>
					</g>
					<g>
						<defs>
							
								<rect id="SVGID_00000070835537400210580100000007708731089312298420_" x="9.2189026" y="0.9617835" width="98.0764313" height="98.0764313"/>
						</defs>
						<clipPath id="SVGID_00000084498141661815107490000011857222741778810293_">
							<use xlink:href="#SVGID_00000070835537400210580100000007708731089312298420_"  style="overflow:visible;"/>
						</clipPath>
						<path style="clip-path:url(#SVGID_00000084498141661815107490000011857222741778810293_);fill:#FFFFFF;" d="
							M73.4123611,77.9135818c-0.6222076,4.1524582-2.1365051,8.2297897-5.2069778,11.2734985
							c-3.2959595,3.2373047-7.942131,3.7446518-11.8846092,1.3222656
							c-3.3130226-2.0210648-5.5392609-5.2306137-7.2381363-8.5864944
							c-4.6244049-9.5509796-5.5876122-21.6786194-3.1317787-31.922802
							C47.8097,57.4986801,49.32547,65.1328506,51.845253,72.4036484
							c1.6082535,4.5320129,4.3828392,11.8042831,8.7156563,14.0743637
							C65.5622177,88.908638,70.7486954,81.4075546,73.4123611,77.9135818"/>
					</g>
				</g>
			</g>
			<g>
				<defs>
					
						<rect id="SVGID_00000160183262199014451190000013978446322362285194_" x="9.2189026" y="0.9617835" width="98.0764313" height="98.0764313"/>
				</defs>
				<clipPath id="SVGID_00000024684366149395305160000006388011232103287212_">
					<use xlink:href="#SVGID_00000160183262199014451190000013978446322362285194_"  style="overflow:visible;"/>
				</clipPath>
				<g style="clip-path:url(#SVGID_00000024684366149395305160000006388011232103287212_);">
					<g>
						<defs>
							<path id="SVGID_00000016772102533033286490000014840372074944002455_" d="M45.3126984,53.9480667
								c-0.155159,1.3239326-0.2489166,2.6535568-0.3056068,3.9873962
								c-0.1057281,2.6674843-0.0119667,5.3468323,0.2547035,8.0222626c0.2744179,2.6742477,0.7382202,5.342514,1.4294662,7.9783173
								c0.6897697,2.6352158,1.6057053,5.2415009,2.852356,7.7575531c0.3147278,0.6273956,0.6505394,1.2498856,1.0087166,1.8643341
								c0.3619995,0.6124878,0.7491074,1.2184067,1.167305,1.8105927c0.8355141,1.1834869,1.7998009,2.323822,2.9589653,3.3419495
								c0.5790443,0.5093155,1.2100677,0.9852753,1.9012146,1.4036713c0.6888847,0.4206467,1.4415245,0.7792206,2.2471237,1.0431442
								c0.8066788,0.2593079,1.6657333,0.4179993,2.5297852,0.4438934c0.8633652,0.0293198,1.7285957-0.0820923,2.5410614-0.3092346
								c0.8143234-0.2222443,1.5717697-0.5665894,2.2537918-0.9746857c0.6828156-0.4092712,1.2977524-0.8809204,1.8434525-1.3975906
								c1.0988464-1.0258789,1.9549561-2.1882782,2.6670837-3.3879547c0.7030182-1.2074127,1.270195-2.4548492,1.7192841-3.7308273
								c0.4533081-1.2733231,0.7995148-2.5702896,1.030983-3.887352c-0.7607803,1.1005096-1.5031281,2.1835709-2.2884216,3.211998
								c-0.7853928,1.027153-1.6006088,2.0067444-2.4698639,2.8875656
								c-0.4325104,0.4417419-0.8764038,0.8586655-1.3373642,1.2363586
								c-0.4609604,0.3768082-0.9239731,0.7289963-1.4045563,1.021759c-0.4806671,0.2911835-0.9620285,0.5419693-1.443779,0.7264481
								c-0.4816551,0.1861496-0.9629135,0.2909927-1.4252472,0.3465042
								c-0.9294701,0.1055298-1.8028412-0.0601196-2.6398277-0.4407501
								c-0.8399277-0.3835831-1.6483688-1.005188-2.4040489-1.7655716c-0.7522469-0.765686-1.4529037-1.6617126-2.0872612-2.6373749
								c-0.639164-0.9718399-1.2214432-2.0167465-1.7588043-3.0994186c-1.071682-2.1706238-1.9796715-4.4839554-2.7765427-6.8579941
								c-0.801384-2.3743286-1.4887047-4.8138809-2.1221771-7.2864838c-0.6390686-2.472805-1.1927109-4.9860115-1.7253647-7.5279579
								c-0.2701988-1.2709732-0.5220604-2.5506706-0.7823524-3.8381233C46.4900055,52.6025581,46.2390289,51.3066711,45.9509773,50
								C45.6634178,51.3068695,45.4645195,52.624527,45.3126984,53.9480667"/>
						</defs>
						<clipPath id="SVGID_00000168827724749043253270000002002613730339237509_">
							<use xlink:href="#SVGID_00000016772102533033286490000014840372074944002455_"  style="overflow:visible;"/>
						</clipPath>
						
							<linearGradient id="SVGID_00000137823999321984611230000004485369598236367787_" gradientUnits="userSpaceOnUse" x1="-304.0983887" y1="651.6894531" x2="-304.0003052" y2="651.6894531" gradientTransform="matrix(-330.5591125 0 0 -330.5591125 -100446.6953125 215492.703125)">
							<stop  offset="0" style="stop-color:#C73A7D"/>
							<stop  offset="0.3200186" style="stop-color:#CA3678"/>
							<stop  offset="0.7076005" style="stop-color:#D12969"/>
							<stop  offset="1" style="stop-color:#D91C59"/>
						</linearGradient>
						
							<rect x="44.9013634" y="50" style="clip-path:url(#SVGID_00000168827724749043253270000002002613730339237509_);fill:url(#SVGID_00000137823999321984611230000004485369598236367787_);" width="28.5110207" height="41.6305084"/>
					</g>
				</g>
			</g>
			<g>
				<defs>
					
						<rect id="SVGID_00000023997087654028288770000003860340031096045184_" x="9.2189026" y="0.9617835" width="98.0764313" height="98.0764313"/>
				</defs>
				<clipPath id="SVGID_00000101796025528807140070000009157678566485334970_">
					<use xlink:href="#SVGID_00000023997087654028288770000003860340031096045184_"  style="overflow:visible;"/>
				</clipPath>
				<g style="clip-path:url(#SVGID_00000101796025528807140070000009157678566485334970_);">
					<g>
						<defs>
							
								<rect id="SVGID_00000173131683858113324310000011918308679490076088_" x="9.2189026" y="0.9617835" width="98.0764313" height="98.0764313"/>
						</defs>
						<clipPath id="SVGID_00000120522003617092936290000001177806873155865990_">
							<use xlink:href="#SVGID_00000173131683858113324310000011918308679490076088_"  style="overflow:visible;"/>
						</clipPath>
						<path style="clip-path:url(#SVGID_00000120522003617092936290000001177806873155865990_);fill:#231F20;" d="
							M90.2676163,51.2805862c4.0872345,2.8635368,7.7448959,7.3102226,8.0475616,12.5407372
							c0.199295,7.1026955-6.0279694,10.6912117-12.3407593,11.2393608
							c-11.8210602,1.0273514-25.6563034-5.4089127-33.6113815-13.9545059
							c5.1090965,1.131897,10.1696434,2.6298218,15.2116547,3.8149719
							c5.9844284,1.3670959,17.9085541,4.2821198,23.2499008,1.2475357
							C95.222435,63.5377846,91.5863495,55.1139984,90.2676163,51.2805862"/>
					</g>
					<g>
						<defs>
							
								<rect id="SVGID_00000067196750455387340040000010831096149104256702_" x="9.2189026" y="0.9617835" width="98.0764313" height="98.0764313"/>
						</defs>
						<clipPath id="SVGID_00000175317142275660112380000008916605782896610699_">
							<use xlink:href="#SVGID_00000067196750455387340040000010831096149104256702_"  style="overflow:visible;"/>
						</clipPath>
						<path style="clip-path:url(#SVGID_00000175317142275660112380000008916605782896610699_);fill:#FFFFFF;" d="
							M90.2676163,51.2805862c3.2849655,2.6151085,6.05896,5.965107,7.1596756,10.1461067
							c1.1556396,4.4730721-0.7281189,8.7504768-4.7972107,10.9534645
							c-3.4068832,1.8587494-7.2995377,2.1819077-11.055275,1.9752655
							c-10.5835266-0.7706833-21.5678864-6.0003204-29.2117691-13.2492447
							c7.4234009,2.1395378,14.7926712,4.6439209,22.3492661,6.0971146
							c4.7289505,0.8731766,12.4142151,2.1064835,16.5465698-0.5107803
							C95.8645401,63.5765266,91.9616852,55.3343773,90.2676163,51.2805862"/>
					</g>
				</g>
			</g>
			<g>
				<defs>
					
						<rect id="SVGID_00000181787309050599858500000016864005753788615597_" x="9.2189026" y="0.9617835" width="98.0764313" height="98.0764313"/>
				</defs>
				<clipPath id="SVGID_00000093138195885415020330000003009720186362129049_">
					<use xlink:href="#SVGID_00000181787309050599858500000016864005753788615597_"  style="overflow:visible;"/>
				</clipPath>
				<g style="clip-path:url(#SVGID_00000093138195885415020330000003009720186362129049_);">
					<g>
						<defs>
							<path id="SVGID_00000181802773974679919360000009700419485640209309_" d="M91.9050827,54.8684158
								c0.4967575,1.1936874,0.9375153,2.3894386,1.2657776,3.5827332c0.1662369,0.5954208,0.3054047,1.1882935,0.4020157,1.7763596
								c0.0958176,0.5875778,0.1693726,1.1647568,0.1826172,1.7272224c0.0117645,0.561882-0.0117722,1.1041451-0.0928802,1.6135559
								c-0.0795441,0.5102882-0.2294006,0.9794884-0.4124069,1.4075966
								c-0.3733826,0.8576736-0.9534988,1.5312653-1.7017288,2.0657806
								c-0.7520447,0.5354919-1.694664,0.9249573-2.7310333,1.1991806c-1.0392227,0.268631-2.1654282,0.4273148-3.3277359,0.4889069
								c-1.1611252,0.0675812-2.3572617,0.0494308-3.5634155-0.0264816
								c-2.4157181-0.1572113-4.8732147-0.5275497-7.3275833-1.0245972
								c-2.4569092-0.4930344-4.9132309-1.1175842-7.3713226-1.8052979
								c-2.4611359-0.6829071-4.9144135-1.4599609-7.3821144-2.2697792
								c-1.2357635-0.4014282-2.4699593-0.8231583-3.7150383-1.2414551
								c-1.2438049-0.4215317-2.4915314-0.8522835-3.7672119-1.2561607
								c0.9881172,0.9025002,2.0296898,1.7335968,3.1000938,2.5268402c1.0689392,0.7963791,2.1735725,1.54245,3.3003731,2.2584076
								c2.257225,1.4252472,4.6245003,2.6837616,7.0748444,3.7905579c2.4530792,1.0994339,4.9958115,2.0319443,7.6241684,2.7511368
								c2.6269684,0.7202759,5.3420258,1.2302704,8.1442642,1.408577c0.7007523,0.0412903,1.4077835,0.0615921,2.1190414,0.0586472
								c0.7113419-0.0073547,1.4297562-0.0395203,2.1515961-0.1055298c1.4427109-0.1320114,2.9124756-0.3969116,4.3738174-0.8917084
								c0.7304764-0.2467651,1.4581985-0.5552139,2.1661148-0.9445724c0.7087021-0.3863297,1.3956299-0.8588562,2.0270462-1.4245682
								c0.6277847-0.5689392,1.1947632-1.2336044,1.6492538-1.9689789c0.4570312-0.7329254,0.7932434-1.5380325,1.0027313-2.3552094
								c0.214592-0.8162842,0.2951126-1.6444473,0.282753-2.4391594c-0.0130386-0.7959862-0.1140594-1.5643196-0.2886353-2.2952805
								c-0.3390503-1.4645767-0.9176025-2.7870407-1.6006088-4.0036774c-0.693985-1.212616-1.49086-2.327549-2.3711929-3.3544083
								c-0.8761139-1.0293121-1.8261871-1.9775162-2.8509903-2.8364677
								C90.8402634,52.4896698,91.4070511,53.6740417,91.9050827,54.8684158"/>
						</defs>
						<clipPath id="SVGID_00000073698937549268686230000002661063563672955296_">
							<use xlink:href="#SVGID_00000181802773974679919360000009700419485640209309_"  style="overflow:visible;"/>
						</clipPath>
						
							<linearGradient id="SVGID_00000130648980091257854770000003534398158093075894_" gradientUnits="userSpaceOnUse" x1="-301.4241638" y1="653.7294922" x2="-301.3260803" y2="653.7294922" gradientTransform="matrix(-165.2795563 286.272583 -286.272583 -165.2795563 137410.390625 194382.96875)">
							<stop  offset="0" style="stop-color:#C73A7D"/>
							<stop  offset="0.3200186" style="stop-color:#CA3678"/>
							<stop  offset="0.7076005" style="stop-color:#D12969"/>
							<stop  offset="1" style="stop-color:#D91C59"/>
						</linearGradient>
						
							<polygon style="clip-path:url(#SVGID_00000073698937549268686230000002661063563672955296_);fill:url(#SVGID_00000130648980091257854770000003534398158093075894_);" points="
							107.1873016,56.9362183 86.1343613,93.4009857 42.5671844,68.247467 63.6201286,31.7826977 						"/>
					</g>
				</g>
			</g>
			<g>
				<defs>
					
						<rect id="SVGID_00000165942437664903576620000010172903751684270724_" x="9.2189026" y="0.9617835" width="98.0764313" height="98.0764313"/>
				</defs>
				<clipPath id="SVGID_00000029034592720543442370000008300622378111213727_">
					<use xlink:href="#SVGID_00000165942437664903576620000010172903751684270724_"  style="overflow:visible;"/>
				</clipPath>
				<g style="clip-path:url(#SVGID_00000029034592720543442370000008300622378111213727_);">
					<g>
						<defs>
							
								<rect id="SVGID_00000034793285531168277000000009608461442336968838_" x="9.2189026" y="0.9617835" width="98.0764313" height="98.0764313"/>
						</defs>
						<clipPath id="SVGID_00000065794412006358886120000017213321973982605494_">
							<use xlink:href="#SVGID_00000034793285531168277000000009608461442336968838_"  style="overflow:visible;"/>
						</clipPath>
						<path style="clip-path:url(#SVGID_00000065794412006358886120000017213321973982605494_);fill:#231F20;" d="
							M75.6303864,23.3669987c4.5235748-2.1078529,10.2032852-3.0522346,14.8843765-0.6990871
							c6.2507935,3.3788357,6.2449112,10.5660706,3.5632095,16.3071709
							c-5.0208206,10.7509384-17.5124283,19.5145569-28.8906708,22.1310425
							c3.5347748-3.8586197,7.3623047-7.4922562,10.909729-11.26614
							c4.1760941-4.4991531,12.6626511-13.368206,12.7053146-19.5112228
							C88.7228088,25.2045612,79.6095428,24.1417084,75.6303864,23.3669987"/>
					</g>
					<g>
						<defs>
							
								<rect id="SVGID_00000096059816783492869560000003973954645847305634_" x="9.2189026" y="0.9617835" width="98.0764313" height="98.0764313"/>
						</defs>
						<clipPath id="SVGID_00000044171827667162428640000005207667691774232502_">
							<use xlink:href="#SVGID_00000096059816783492869560000003973954645847305634_"  style="overflow:visible;"/>
						</clipPath>
						<path style="clip-path:url(#SVGID_00000044171827667162428640000005207667691774232502_);fill:#FFFFFF;" d="
							M75.6303864,23.3669987c3.9071655-1.5373478,8.1954575-2.264677,12.3666534-1.127388
							c4.4515839,1.2357674,7.2140121,5.005825,7.0873947,9.6312084c-0.0937653,3.8798027-1.7602768,7.4125175-3.8170395,10.5617485
							c-5.9592209,8.7802925-15.9804764,15.6782036-26.0800934,18.6735573
							c5.5645676-5.3590927,11.4181595-10.488884,16.4548721-16.3064804
							c3.120697-3.658741,8.0314789-9.6977997,7.8310165-14.5851402
							C89.077446,24.6678886,79.9881134,23.9268188,75.6303864,23.3669987"/>
					</g>
				</g>
			</g>
			<g>
				<defs>
					
						<rect id="SVGID_00000057147751205216514530000005493314020752480673_" x="9.2189026" y="0.9617835" width="98.0764313" height="98.0764313"/>
				</defs>
				<clipPath id="SVGID_00000017497618404756145640000014281104058559552650_">
					<use xlink:href="#SVGID_00000057147751205216514530000005493314020752480673_"  style="overflow:visible;"/>
				</clipPath>
				<g style="clip-path:url(#SVGID_00000017497618404756145640000014281104058559552650_);">
					<g>
						<defs>
							<path id="SVGID_00000173124666587685980070000011197041998436639369_" d="M79.5123444,22.3161602
								c-1.3294296,0.2440128-2.6257095,0.5927753-3.8819656,1.0507908c1.3335419,0.1086712,2.6424713,0.20998,3.9259033,0.3758316
								c1.2821503,0.1667309,2.5381165,0.3828888,3.7356339,0.6953583c0.5987549,0.1535912,1.1818161,0.3294392,1.7393799,0.5399113
								c0.556778,0.2107658,1.0933609,0.4356575,1.5871735,0.7054634c0.4925385,0.2707939,0.9503632,0.5621738,1.3509064,0.8872013
								c0.4021149,0.3240471,0.7335129,0.6883965,1.0128326,1.0609894c0.5559006,0.7521496,0.8493423,1.5913906,0.9381027,2.5065403
								c0.0877762,0.9191742-0.0462952,1.9301434-0.3269882,2.9647541c-0.2868729,1.034317-0.7126236,2.0891266-1.2403717,3.1262817
								c-0.5221558,1.0394173-1.1358185,2.0662727-1.8048019,3.0728302
								c-1.3439407,2.0135155-2.8934555,3.956604-4.5510406,5.8335915
								c-1.6554337,1.8812027-3.4245377,3.6962051-5.2491531,5.4810982
								c-1.8218613,1.7899933-3.7215042,3.5259438-5.6566544,5.2582703
								c-0.9656601,0.8694496-1.9478912,1.7274208-2.9327774,2.5964775
								c-0.9868469,0.8665047-1.9837875,1.731636-2.9713287,2.6344299c1.275589-0.4043694,2.5161591-0.8909264,3.7382889-1.4212265
								c1.2240906-0.5276489,2.4225845-1.1112061,3.6059799-1.7290878c2.3629456-1.2421379,4.6364594-2.6629715,6.8201294-4.2316055
								c2.178772-1.5748138,4.2576981-3.3105698,6.1947098-5.2271767c1.9373016-1.9149475,3.736412-4.0113297,5.2920074-6.3488808
								c0.3860245-0.5863037,0.7571487-1.1883926,1.1102219-1.8057823c0.34935-0.619751,0.6806488-1.2580299,0.9843979-1.9162216
								c0.606987-1.3153038,1.1125793-2.7206383,1.4147491-4.2336655c0.1515274-0.7559738,0.24823-1.5404816,0.2649994-2.3482418
								c0.0198135-0.8068733-0.0458984-1.6380749-0.2201843-2.4676075c-0.1787872-0.828249-0.4709625-1.6515064-0.8804321-2.4127731
								c-0.4064255-0.7623482-0.9354477-1.4560432-1.5384216-2.0460701
								c-0.5996399-0.5940495-1.2765579-1.0777626-1.9709473-1.4644775
								c-0.6959457-0.3866196-1.4118118-0.6833992-2.1320801-0.8976955
								c-1.4379959-0.4385967-2.8725662-0.5987549-4.267601-0.6157246
								c-0.0264816-0.0000973-0.0527649-0.0000973-0.0793457-0.0000973
								C82.1542282,21.9396458,80.8166656,22.0718555,79.5123444,22.3161602"/>
						</defs>
						<clipPath id="SVGID_00000163053826549956309660000017882727915510255256_">
							<use xlink:href="#SVGID_00000173124666587685980070000011197041998436639369_"  style="overflow:visible;"/>
						</clipPath>
						
							<linearGradient id="SVGID_00000150816079800558239220000015061514615054271933_" gradientUnits="userSpaceOnUse" x1="-301.8522339" y1="657.0576172" x2="-301.7541504" y2="657.0576172" gradientTransform="matrix(165.2795563 286.272583 -286.272583 165.2795563 238057.375 -22162.1855469)">
							<stop  offset="0" style="stop-color:#C73A7D"/>
							<stop  offset="0.3200186" style="stop-color:#CA3678"/>
							<stop  offset="0.7076005" style="stop-color:#D12969"/>
							<stop  offset="1" style="stop-color:#D91C59"/>
						</linearGradient>
						
							<polygon style="clip-path:url(#SVGID_00000163053826549956309660000017882727915510255256_);fill:url(#SVGID_00000150816079800558239220000015061514615054271933_);" points="
							87.2711716,9.1894646 111.5920105,51.3143959 72.5485153,73.856163 48.2276764,31.7312355 						"/>
					</g>
				</g>
			</g>
			<g>
				<defs>
					
						<rect id="SVGID_00000079482651437665577730000016711187749685778596_" x="9.2189026" y="0.9617835" width="98.0764313" height="98.0764313"/>
				</defs>
				<clipPath id="SVGID_00000048477312030599608070000005779768573038469559_">
					<use xlink:href="#SVGID_00000079482651437665577730000016711187749685778596_"  style="overflow:visible;"/>
				</clipPath>
				<g style="clip-path:url(#SVGID_00000048477312030599608070000005779768573038469559_);">
					<g>
						<defs>
							
								<rect id="SVGID_00000141423514115809321240000003442503028683131522_" x="9.2189026" y="0.9617835" width="98.0764313" height="98.0764313"/>
						</defs>
						<clipPath id="SVGID_00000100372222170564540370000013675457781336546711_">
							<use xlink:href="#SVGID_00000141423514115809321240000003442503028683131522_"  style="overflow:visible;"/>
						</clipPath>
						<path style="clip-path:url(#SVGID_00000100372222170564540370000013675457781336546711_);fill:#231F20;" d="
							M44.1379089,22.0864201c0.4363403-4.9713936,2.4583817-10.3624601,6.8368073-13.2397261
							c6.0515137-3.7239652,12.272892-0.125247,15.9039764,5.0677032c6.8002243,9.7235918,8.1438751,24.923481,4.7207108,36.0855522
							c-1.5743179-4.9905167-2.8073425-10.1220665-4.3019257-15.0812073
							c-1.8083344-5.866148-5.2458115-17.6502266-10.544487-20.7586632
							C52.2755051,11.6668825,46.7984276,19.0277157,44.1379089,22.0864201"/>
					</g>
					<g>
						<defs>
							
								<rect id="SVGID_00000014624281539753444660000000846669630788074119_" x="9.2189026" y="0.9617835" width="98.0764313" height="98.0764313"/>
						</defs>
						<clipPath id="SVGID_00000085972032496633813290000001675689736000515460_">
							<use xlink:href="#SVGID_00000014624281539753444660000000846669630788074119_"  style="overflow:visible;"/>
						</clipPath>
						<path style="clip-path:url(#SVGID_00000085972032496633813290000001675689736000515460_);fill:#FFFFFF;" d="
							M44.1379089,22.0864201c0.6221962-4.1524563,2.1364975-8.2297888,5.206974-11.2734919
							c3.2959557-3.2373071,7.9421349-3.7446537,11.8846092-1.3222666c3.3130188,2.0210609,5.5392532,5.2306156,7.2381363,8.5864944
							c4.6244049,9.5509777,5.5876083,21.6786156,3.1317749,31.9227943
							c-1.8588409-7.4986267-3.3746109-15.1327972-5.8943863-22.4035912
							c-1.6082611-4.5320187-4.3828468-11.804287-8.7156639-14.0743637
							C51.9880409,11.0913658,46.8015671,18.5924473,44.1379089,22.0864201"/>
					</g>
				</g>
			</g>
			<g>
				<defs>
					
						<rect id="SVGID_00000054982906815737546510000013990706443097179580_" x="9.2189026" y="0.9617835" width="98.0764313" height="98.0764313"/>
				</defs>
				<clipPath id="SVGID_00000093140813832633389680000005831159927278766256_">
					<use xlink:href="#SVGID_00000054982906815737546510000013990706443097179580_"  style="overflow:visible;"/>
				</clipPath>
				<g style="clip-path:url(#SVGID_00000093140813832633389680000005831159927278766256_);">
					<g>
						<defs>
							<path id="SVGID_00000170964174699734564170000000091324409049842871_" d="M53.6524315,8.7079601
								c-0.8143272,0.2224379-1.5716743,0.5666809-2.2537956,0.9747782
								c-0.6827087,0.409276-1.2976532,0.8809223-1.8433495,1.3975887c-1.0989456,1.0258818-1.9549561,2.188283-2.6670914,3.3880548
								c-0.7031097,1.2074165-1.2702827,2.4547539-1.7193756,3.7307301c-0.4533081,1.2733231-0.7994232,2.5702858-1.03088,3.8873558
								c0.7606812-1.1005173,1.5030212-2.1834755,2.2884178-3.2120037c0.7853966-1.0271568,1.6005096-2.0067406,2.4698563-2.8875675
								c0.432518-0.441637,0.8764114-0.8586597,1.3372726-1.2363529c0.4610558-0.3767118,0.9240761-0.729001,1.4045525-1.0218592
								c0.4807701-0.2910862,0.9621315-0.5418692,1.4437828-0.7263489c0.4817543-0.1861496,0.9630127-0.2909966,1.4253464-0.3466072
								c0.9293709-0.1054277,1.802742,0.0602198,2.6398239,0.4409542c0.8398285,0.3834763,1.6484718,1.0050859,2.4040489,1.7654715
								c0.7522469,0.7656841,1.4529076,1.6617088,2.0872612,2.637373c0.6390724,0.9718456,1.221447,2.0168457,1.758709,3.0994167
								c1.0716782,2.1706238,1.979866,4.4839554,2.7765427,6.8580894c0.801384,2.3742352,1.4887009,4.8137913,2.1221771,7.2863941
								c0.6391678,2.4728012,1.1928101,4.9859085,1.7253647,7.5279541c0.2702942,1.270874,0.5221558,2.5506744,0.7823563,3.8381195
								C71.060318,47.3973465,71.3111954,48.6933289,71.5993423,50c0.2874527-1.3069649,0.4863586-2.624527,0.6381836-3.9481621
								c0.1551514-1.3238411,0.2489166-2.6534576,0.3057022-3.9873009c0.105629-2.6674843,0.0118637-5.3469315-0.2547073-8.0222549
								c-0.2745132-2.6742535-0.7382202-5.3425217-1.4295578-7.9784279
								c-0.6897736-2.6351147-1.6057129-5.241396-2.8522568-7.7574482
								c-0.3146362-0.6273975-0.6505432-1.2498875-1.0088196-1.8643379c-0.3619003-0.6124868-0.7491074-1.218401-1.167305-1.8105888
								c-0.8355179-1.1834898-1.7997971-2.3238201-2.9589691-3.3419552
								c-0.5789452-0.5093107-1.2100677-0.9852724-1.9012108-1.4037666
								c-0.6888885-0.4205484-1.4415283-0.7791166-2.2471275-1.0430441
								c-0.8065796-0.2593126-1.6657257-0.4179983-2.5297813-0.4438944
								c-0.0907211-0.0031366-0.1814384-0.0046091-0.2722588-0.0046091
								C55.1488838,8.3942099,54.3794746,8.5047436,53.6524315,8.7079601"/>
						</defs>
						<clipPath id="SVGID_00000015323731367941083480000005808744846849410230_">
							<use xlink:href="#SVGID_00000170964174699734564170000000091324409049842871_"  style="overflow:visible;"/>
						</clipPath>
						
							<linearGradient id="SVGID_00000158728088645242973880000001906358540548128159_" gradientUnits="userSpaceOnUse" x1="-304.9545593" y1="658.3596802" x2="-304.8564758" y2="658.3596802" gradientTransform="matrix(330.5591125 0 0 330.5591125 100847.2578125 -217597.59375)">
							<stop  offset="0" style="stop-color:#C73A7D"/>
							<stop  offset="0.3200186" style="stop-color:#CA3678"/>
							<stop  offset="0.7076005" style="stop-color:#D12969"/>
							<stop  offset="1" style="stop-color:#D91C59"/>
						</linearGradient>
						
							<rect x="44.1379395" y="8.3942156" style="clip-path:url(#SVGID_00000015323731367941083480000005808744846849410230_);fill:url(#SVGID_00000158728088645242973880000001906358540548128159_);" width="28.51091" height="41.6057854"/>
					</g>
				</g>
			</g>
			<g>
				<defs>
					
						<rect id="SVGID_00000162318523705316673300000002257422451378177963_" x="9.2189026" y="0.9617835" width="98.0764313" height="98.0764313"/>
				</defs>
				<clipPath id="SVGID_00000125578808028647524130000000628935571269357955_">
					<use xlink:href="#SVGID_00000162318523705316673300000002257422451378177963_"  style="overflow:visible;"/>
				</clipPath>
				<g style="clip-path:url(#SVGID_00000125578808028647524130000000628935571269357955_);">
					<g>
						<defs>
							<path id="SVGID_00000155866893016701289950000008627957615864971677_" d="M51.5266228,50
								c0,3.7442627,3.0353699,6.7795334,6.7795334,6.7795334c3.7442665,0,6.7795372-3.0352707,6.7795372-6.7795334
								s-3.0352707-6.7795334-6.7795372-6.7795334C54.5619926,43.2204666,51.5266228,46.2557373,51.5266228,50"/>
						</defs>
						<clipPath id="SVGID_00000137127082054516107960000006482194156560878772_">
							<use xlink:href="#SVGID_00000155866893016701289950000008627957615864971677_"  style="overflow:visible;"/>
						</clipPath>
						
							<radialGradient id="SVGID_00000060004272714057003880000018184669022343508365_" cx="-306.9847107" cy="670.3944092" r="0.0980764" gradientTransform="matrix(69.125 0 0 69.125 21278.625 -46291.015625)" gradientUnits="userSpaceOnUse">
							<stop  offset="0" style="stop-color:#D9176D"/>
							<stop  offset="0.1606723" style="stop-color:#D91966"/>
							<stop  offset="0.5312838" style="stop-color:#DA1B5C"/>
							<stop  offset="1" style="stop-color:#DA1C59"/>
						</radialGradient>
						
							<rect x="51.5266228" y="43.2204666" style="clip-path:url(#SVGID_00000137127082054516107960000006482194156560878772_);fill:url(#SVGID_00000060004272714057003880000018184669022343508365_);" width="13.5590706" height="13.5590668"/>
					</g>
				</g>
			</g>
			<g>
				<defs>
					
						<rect id="SVGID_00000042704798903107112790000016012405110379122326_" x="9.2189026" y="0.9617835" width="98.0764313" height="98.0764313"/>
				</defs>
				<clipPath id="SVGID_00000157308352226119074270000016581942092595483322_">
					<use xlink:href="#SVGID_00000042704798903107112790000016012405110379122326_"  style="overflow:visible;"/>
				</clipPath>
				<g style="clip-path:url(#SVGID_00000157308352226119074270000016581942092595483322_);">
					<g>
						<defs>
							
								<rect id="SVGID_00000000223419111175604730000000881331829979899314_" x="9.2189026" y="0.9617835" width="98.0764313" height="98.0764313"/>
						</defs>
						<clipPath id="SVGID_00000081623058482000714800000013900989570712614069_">
							<use xlink:href="#SVGID_00000000223419111175604730000000881331829979899314_"  style="overflow:visible;"/>
						</clipPath>
						
							<circle style="clip-path:url(#SVGID_00000081623058482000714800000013900989570712614069_);fill:none;stroke:#231F20;stroke-width:0.813544;stroke-miterlimit:10;" cx="58.3061562" cy="50" r="6.7795348"/>
					</g>
					<g>
						<defs>
							
								<rect id="SVGID_00000017518289214272999840000005228541192130621612_" x="9.2189026" y="0.9617835" width="98.0764313" height="98.0764313"/>
						</defs>
						<clipPath id="SVGID_00000042725135166823745310000014894909094416472457_">
							<use xlink:href="#SVGID_00000017518289214272999840000005228541192130621612_"  style="overflow:visible;"/>
						</clipPath>
						
							<circle style="clip-path:url(#SVGID_00000042725135166823745310000014894909094416472457_);fill:none;stroke:#FFFFFF;stroke-width:0.406821;stroke-miterlimit:10;" cx="58.3061562" cy="50" r="6.5083504"/>
					</g>
				</g>
			</g>
			<g>
				<defs>
					
						<rect id="SVGID_00000045603509924169994380000011606592790238430341_" x="9.2189026" y="0.9617835" width="98.0764313" height="98.0764313"/>
				</defs>
				<clipPath id="SVGID_00000013897485855513642610000015950710442268452483_">
					<use xlink:href="#SVGID_00000045603509924169994380000011606592790238430341_"  style="overflow:visible;"/>
				</clipPath>
			</g>
			<g>
				<defs>
					
						<rect id="SVGID_00000152958001308754616730000014181666006356975786_" x="9.2189026" y="0.9617835" width="98.0764313" height="98.0764313"/>
				</defs>
				<clipPath id="SVGID_00000067196668515410059180000012296963961180193419_">
					<use xlink:href="#SVGID_00000152958001308754616730000014181666006356975786_"  style="overflow:visible;"/>
				</clipPath>
			</g>
			<g>
				<defs>
					
						<rect id="SVGID_00000142863571465506818330000003389550089515458206_" x="9.2189026" y="0.9617835" width="98.0764313" height="98.0764313"/>
				</defs>
				<clipPath id="SVGID_00000145748012671086961000000010091662908304118174_">
					<use xlink:href="#SVGID_00000142863571465506818330000003389550089515458206_"  style="overflow:visible;"/>
				</clipPath>
			</g>
			<g>
				<defs>
					
						<rect id="SVGID_00000115476099403279263560000010639481799775439260_" x="9.2189026" y="0.9617835" width="98.0764313" height="98.0764313"/>
				</defs>
				<clipPath id="SVGID_00000121281012402637480470000008181208484060604336_">
					<use xlink:href="#SVGID_00000115476099403279263560000010639481799775439260_"  style="overflow:visible;"/>
				</clipPath>
			</g>
			<g>
				<defs>
					
						<rect id="SVGID_00000119085762129770214990000014418486412944765314_" x="9.2189026" y="0.9617835" width="98.0764313" height="98.0764313"/>
				</defs>
				<clipPath id="SVGID_00000052077536282968509900000004094818776650706621_">
					<use xlink:href="#SVGID_00000119085762129770214990000014418486412944765314_"  style="overflow:visible;"/>
				</clipPath>
			</g>
			<g>
				<defs>
					
						<rect id="SVGID_00000039092146805918947360000010733772060280476317_" x="9.2189026" y="0.9617835" width="98.0764313" height="98.0764313"/>
				</defs>
				<clipPath id="SVGID_00000112597187798914147450000006344357234069705642_">
					<use xlink:href="#SVGID_00000039092146805918947360000010733772060280476317_"  style="overflow:visible;"/>
				</clipPath>
			</g>
			<g>
				<defs>
					
						<rect id="SVGID_00000092427866635254839680000011695769820001274814_" x="9.2189026" y="0.9617835" width="98.0764313" height="98.0764313"/>
				</defs>
				<clipPath id="SVGID_00000107569184924839514690000008274004149997380278_">
					<use xlink:href="#SVGID_00000092427866635254839680000011695769820001274814_"  style="overflow:visible;"/>
				</clipPath>
			</g>
			<g>
				<defs>
					
						<rect id="SVGID_00000065039254854916874700000003960547392140854958_" x="9.2189026" y="0.9617835" width="98.0764313" height="98.0764313"/>
				</defs>
				<clipPath id="SVGID_00000118395969720480176140000008535536295513157054_">
					<use xlink:href="#SVGID_00000065039254854916874700000003960547392140854958_"  style="overflow:visible;"/>
				</clipPath>
			</g>
			<g>
				<defs>
					
						<rect id="SVGID_00000050640562282805780300000007601715120301632167_" x="9.2189026" y="0.9617835" width="98.0764313" height="98.0764313"/>
				</defs>
				<clipPath id="SVGID_00000049941170749472042730000009995610802381047687_">
					<use xlink:href="#SVGID_00000050640562282805780300000007601715120301632167_"  style="overflow:visible;"/>
				</clipPath>
			</g>
			<g>
				<defs>
					
						<rect id="SVGID_00000127740114460654718000000005831210881788029826_" x="9.2189026" y="0.9617835" width="98.0764313" height="98.0764313"/>
				</defs>
				<clipPath id="SVGID_00000140702744750640815470000009822383894501319305_">
					<use xlink:href="#SVGID_00000127740114460654718000000005831210881788029826_"  style="overflow:visible;"/>
				</clipPath>
			</g>
			<g>
				<defs>
					
						<rect id="SVGID_00000117640463366492952700000018175442273344742075_" x="9.2189026" y="0.9617835" width="98.0764313" height="98.0764313"/>
				</defs>
				<clipPath id="SVGID_00000170964126397474607980000006555602058214440853_">
					<use xlink:href="#SVGID_00000117640463366492952700000018175442273344742075_"  style="overflow:visible;"/>
				</clipPath>
			</g>
			<g>
				<defs>
					
						<rect id="SVGID_00000030447342754166629100000008194096194092572566_" x="9.2189026" y="0.9617835" width="98.0764313" height="98.0764313"/>
				</defs>
				<clipPath id="SVGID_00000160167373740032560310000005933561920769677441_">
					<use xlink:href="#SVGID_00000030447342754166629100000008194096194092572566_"  style="overflow:visible;"/>
				</clipPath>
			</g>
			<g>
				<defs>
					
						<rect id="SVGID_00000157306441936258949790000002484588220495739548_" x="9.2189026" y="0.9617835" width="98.0764313" height="98.0764313"/>
				</defs>
				<clipPath id="SVGID_00000140710228297581563730000004028902026761744542_">
					<use xlink:href="#SVGID_00000157306441936258949790000002484588220495739548_"  style="overflow:visible;"/>
				</clipPath>
			</g>
			<g>
				<defs>
					
						<rect id="SVGID_00000096045900276213390670000011077404997042027965_" x="9.2189026" y="0.9617835" width="98.0764313" height="98.0764313"/>
				</defs>
				<clipPath id="SVGID_00000013875479408769949370000014525194599304732049_">
					<use xlink:href="#SVGID_00000096045900276213390670000011077404997042027965_"  style="overflow:visible;"/>
				</clipPath>
			</g>
			<g>
				<defs>
					
						<rect id="SVGID_00000137118339025876005030000001946507315882844604_" x="9.2189026" y="0.9617835" width="98.0764313" height="98.0764313"/>
				</defs>
				<clipPath id="SVGID_00000158749561824115212430000016260914578840677051_">
					<use xlink:href="#SVGID_00000137118339025876005030000001946507315882844604_"  style="overflow:visible;"/>
				</clipPath>
			</g>
			<g>
				<defs>
					
						<rect id="SVGID_00000023247876739184871720000016534303802081660048_" x="9.2189026" y="0.9617835" width="98.0764313" height="98.0764313"/>
				</defs>
				<clipPath id="SVGID_00000043442031723128591590000005266437867381352616_">
					<use xlink:href="#SVGID_00000023247876739184871720000016534303802081660048_"  style="overflow:visible;"/>
				</clipPath>
			</g>
			<g>
				<defs>
					
						<rect id="SVGID_00000145027436902550997650000003498434520168617645_" x="9.2189026" y="0.9617835" width="98.0764313" height="98.0764313"/>
				</defs>
				<clipPath id="SVGID_00000137124292295619264070000017264157549472183708_">
					<use xlink:href="#SVGID_00000145027436902550997650000003498434520168617645_"  style="overflow:visible;"/>
				</clipPath>
			</g>
			<g>
				<defs>
					
						<rect id="SVGID_00000102511869578025865610000003486100853936891053_" x="9.2189026" y="0.9617835" width="98.0764313" height="98.0764313"/>
				</defs>
				<clipPath id="SVGID_00000183235747031093263580000000749562924831930535_">
					<use xlink:href="#SVGID_00000102511869578025865610000003486100853936891053_"  style="overflow:visible;"/>
				</clipPath>
			</g>
		</g>
	</g>
	<g>
		<g>
			<path class="st36" d="M135.6435547,73.4730835c-0.8291016,0-1.5268555-0.2949219-2.09375-0.8828125
				c-0.5888672-0.5673828-0.8833008-1.2646484-0.8833008-2.09375V29.5043354c0-0.8066406,0.2944336-1.5048828,0.8833008-2.09375
				c0.5668945-0.5888672,1.2646484-0.8828125,2.09375-0.8828125c0.8286133,0,1.5375977,0.2939453,2.1264648,0.8828125
				s0.8833008,1.2871094,0.8833008,2.09375V70.496521c0,0.8291016-0.2944336,1.5263672-0.8833008,2.09375
				C137.1811523,73.1781616,136.472168,73.4730835,135.6435547,73.4730835z"/>
			<path class="st36" d="M176.6923828,73.4730835c-6.4775391,0-12.0058594-2.2900391-16.5859375-6.8701172
				s-6.8701172-10.1083946-6.8701172-16.5859337c0-6.4990234,2.2900391-12.0390625,6.8701172-16.6191406
				s10.1083984-6.8701191,16.5859375-6.8701191c6.4990234,0,12.0390625,2.2900391,16.6191406,6.8701191
				s6.8691406,10.1201172,6.8691406,16.6191406c0,6.4775391-2.2890625,12.0058594-6.8691406,16.5859337
				S183.1914062,73.4730835,176.6923828,73.4730835z M176.6923828,32.5141029
				c-4.8203125,0-8.9423828,1.7128906-12.3662109,5.1367188c-3.4023438,3.4023438-5.1035156,7.5244141-5.1035156,12.3662109
				c0,4.8203125,1.7011719,8.9423828,5.1035156,12.3662109c3.4238281,3.4023399,7.5458984,5.1035118,12.3662109,5.1035118
				c4.8417969,0,8.9638672-1.7011719,12.3662109-5.1035118c3.4238281-3.4238281,5.1367188-7.5458984,5.1367188-12.3662109
				c0-4.8417969-1.7128906-8.9638672-5.1367188-12.3662109C185.65625,34.2269936,181.5341797,32.5141029,176.6923828,32.5141029z"/>
			<path class="st36" d="M217.7412109,73.4730835c-0.8291016,0-1.5263672-0.2949219-2.09375-0.8828125
				c-0.5878906-0.5673828-0.8828125-1.2646484-0.8828125-2.09375V29.5043354c0-1.4169922,0.6757812-2.3554688,2.0283203-2.8134766
				c1.3515625-0.4580078,2.4638672-0.1191406,3.3369141,1.0146484l26.2050781,34.0234375V29.5043354
				c0-0.8066406,0.2939453-1.5048828,0.8828125-2.09375s1.296875-0.8828125,2.1269531-0.8828125
				c0.8056641,0,1.5039062,0.2939453,2.09375,0.8828125c0.5878906,0.5888672,0.8828125,1.2871094,0.8828125,2.09375V70.496521
				c0,1.4179688-0.6767578,2.3554688-2.0283203,2.8125c-0.3056641,0.1103516-0.6220703,0.1640625-0.9482422,0.1640625
				c-0.9824219,0-1.7783203-0.3925781-2.3886719-1.1777344l-26.2050781-34.0234337V70.496521
				c0,0.8291016-0.2939453,1.5263672-0.8828125,2.09375C219.2792969,73.1781616,218.5703125,73.4730835,217.7412109,73.4730835z"/>
		</g>
		<g>
			<path class="st37" d="M135.6435547,74.4730835c-1.1064453,0-2.0532227-0.4003906-2.8134766-1.1884766
				c-0.7631836-0.734375-1.1635742-1.6816406-1.1635742-2.7880859V29.5043354c0-1.078125,0.3955078-2.0205078,1.1762695-2.8007812
				c0.7460938-0.7753906,1.6933594-1.1757812,2.8007812-1.1757812c1.1000977,0,2.0532227,0.3955078,2.8334961,1.1757812
				c0.7807617,0.7802734,1.1762695,1.7226562,1.1762695,2.8007812V70.496521c0,1.1064453-0.4003906,2.0537109-1.1894531,2.8134766
				C137.6953125,74.0775757,136.7421875,74.4730835,135.6435547,74.4730835z"/>
			<path class="st37" d="M176.6923828,74.4730835c-6.7216797,0-12.5400391-2.4101562-17.2929688-7.1630859
				s-7.1630859-10.5712852-7.1630859-17.2929649c0-6.7441406,2.4101562-12.5732422,7.1630859-17.3261719
				s10.5712891-7.1630878,17.2929688-7.1630878c6.7441406,0,12.5732422,2.4101562,17.3261719,7.1630878
				c4.7529297,4.7519531,7.1621094,10.5820312,7.1621094,17.3261719c0,6.7226562-2.4091797,12.5410156-7.1621094,17.2929649
				C189.265625,72.0629272,183.4365234,74.4730835,176.6923828,74.4730835z M176.6923828,33.5141029
				c-4.5859375,0-8.3994141,1.5839844-11.6591797,4.84375c-3.2373047,3.2373047-4.8105469,7.0507812-4.8105469,11.6591797
				c0,4.5878906,1.5742188,8.4023438,4.8125,11.6611328c3.2548828,3.2343712,7.0693359,4.8085899,11.6572266,4.8085899
				c4.6083984,0,8.421875-1.5732422,11.6591797-4.8105431c3.2597656-3.2597656,4.84375-7.0732422,4.84375-11.6591797
				c0-4.6064453-1.5839844-8.4189453-4.8417969-11.6572266C185.1113281,35.0980873,181.2988281,33.5141029,176.6923828,33.5141029z"
				/>
			<path class="st37" d="M249.3447266,74.4730835c-1.2841797,0-2.3828125-0.5410156-3.1777344-1.5644531l-24.4160156-31.6992149
				V70.496521c0,1.1074219-0.4003906,2.0537109-1.1884766,2.8134766c-0.7685547,0.7675781-1.7226562,1.1630859-2.8212891,1.1630859
				c-1.1054688,0-2.0527344-0.3994141-2.8134766-1.1884766c-0.7636719-0.7353516-1.1630859-1.6826172-1.1630859-2.7880859
				V29.5043354c0-1.8339844,0.9619141-3.1689453,2.7080078-3.7607422c0.4892578-0.1660156,0.9697266-0.25,1.4267578-0.25
				c0.8164062,0,2.0029297,0.2773438,3.0224609,1.6015625l24.4130859,31.696291V29.5043354
				c0-1.078125,0.3955078-2.0205078,1.1757812-2.8007812s1.7333984-1.1757812,2.8339844-1.1757812
				c1.0771484,0,2.0195312,0.3955078,2.7998047,1.1748047c0.78125,0.7822266,1.1767578,1.7246094,1.1767578,2.8017578V70.496521
				c0,1.8339844-0.9619141,3.1689453-2.7080078,3.7597656C250.2216797,74.3978882,249.7880859,74.4730835,249.3447266,74.4730835z"
				/>
		</g>
		<g>
			<path class="st38" d="M135.6435547,73.9730835c-0.965332,0-1.7910156-0.3486328-2.4536133-1.0361328
				c-0.6748047-0.6494141-1.0234375-1.4746094-1.0234375-2.4404297V29.5043354c0-0.9404297,0.3466797-1.7636719,1.0297852-2.4472656
				c0.6552734-0.6806641,1.480957-1.0292969,2.4472656-1.0292969c0.9628906,0,1.796875,0.3466797,2.4799805,1.0292969
				c0.6831055,0.6835938,1.0297852,1.5068359,1.0297852,2.4472656V70.496521c0,0.9658203-0.3486328,1.7910156-1.0366211,2.4541016
				C137.4394531,73.6264038,136.6049805,73.9730835,135.6435547,73.9730835z"/>
			<path class="st38" d="M176.6923828,73.9730835c-6.5839844,0-12.2832031-2.3603516-16.9394531-7.0166016
				s-7.0166016-10.3554649-7.0166016-16.9394493c0-6.6064453,2.3603516-12.3164062,7.0166016-16.9726562
				s10.3554688-7.0166035,16.9394531-7.0166035c6.6064453,0,12.3164062,2.3603516,16.9726562,7.0166035
				c4.6552734,4.6552734,7.015625,10.3652344,7.015625,16.9726562c0,6.5849609-2.3603516,12.2841797-7.015625,16.9394493
				C189.0087891,71.6127319,183.2988281,73.9730835,176.6923828,73.9730835z M176.6923828,33.0141029
				c-4.6601562,0-8.7011719,1.6787109-12.0126953,4.9902344c-3.2890625,3.2890625-4.9570312,7.3310547-4.9570312,12.0126953
				c0,4.6611328,1.6679688,8.703125,4.9580078,12.0136719c3.3085938,3.2880821,7.3505859,4.9560509,12.0117188,4.9560509
				c4.6816406,0,8.7236328-1.6679688,12.0126953-4.9570274c3.3115234-3.3115234,4.9902344-7.3525391,4.9902344-12.0126953
				c0-4.6806641-1.6787109-8.7216797-4.9892578-12.0117188C185.4140625,34.6928139,181.3730469,33.0141029,176.6923828,33.0141029z"
				/>
			<path class="st38" d="M249.3447266,73.9730835c-1.1396484,0-2.0761719-0.4609375-2.7832031-1.3710938l-25.3105469-32.8613243
				V70.496521c0,0.9658203-0.3486328,1.7919922-1.0361328,2.4541016c-0.6777344,0.6757812-1.5117188,1.0224609-2.4736328,1.0224609
				c-0.9648438,0-1.7900391-0.3486328-2.453125-1.0351562c-0.6748047-0.6513672-1.0234375-1.4765625-1.0234375-2.4414062V29.5043354
				c0-1.6259766,0.8183594-2.7626953,2.3681641-3.2871094c0.4384766-0.1484375,0.8642578-0.2236328,1.2666016-0.2236328
				c1.0234375,0,1.9072266,0.4736328,2.6269531,1.4072266l25.3085938,32.859375V29.5043354
				c0-0.9414062,0.3466797-1.7646484,1.0292969-2.4472656s1.5175781-1.0292969,2.4804688-1.0292969
				c0.9394531,0,1.7626953,0.3466797,2.4472656,1.0292969c0.6835938,0.6845703,1.0292969,1.5078125,1.0292969,2.4472656V70.496521
				c0,1.6259766-0.8193359,2.7626953-2.3681641,3.2861328C250.1064453,73.9076538,249.7304688,73.9730835,249.3447266,73.9730835z"
				/>
		</g>
	</g>
</g>
</svg>
