<?xml version="1.0" encoding="utf-8"?>
<!-- Generator: Adobe Illustrator 26.1.0, SVG Export Plug-In . SVG Version: 6.00 Build 0)  -->
<svg version="1.1" xmlns="http://www.w3.org/2000/svg" xmlns:xlink="http://www.w3.org/1999/xlink" x="0px" y="0px"
	 viewBox="0 0 380 100" style="enable-background:new 0 0 380 100;" xml:space="preserve">
<style type="text/css">
	.st0{display:none;}
	.st1{display:inline;}
	.st2{fill:#006069;}
	.st3{fill:#00B8D4;}
	.st4{fill:#00838F;}
	.st5{fill:#DA1C59;}
	.st6{fill:none;stroke:#231F20;}
	.st7{fill:none;stroke:#FFFFFF;stroke-width:0.5;}
	.st8{clip-path:url(#SVGID_00000166659094861002362240000008794551858040720544_);}
	.st9{clip-path:url(#SVGID_00000111912203335719155290000000341571760771277985_);fill:#231F20;}
	.st10{clip-path:url(#SVGID_00000111912203335719155290000000341571760771277985_);fill:#FFFFFF;}
	
		.st11{clip-path:url(#SVGID_00000087410936451789178670000003377985957167683765_);fill:url(#SVGID_00000035491385161460726070000010898444913056217255_);}
	.st12{clip-path:url(#SVGID_00000093889401393631304960000005480484252787353014_);fill:#231F20;}
	.st13{clip-path:url(#SVGID_00000093889401393631304960000005480484252787353014_);fill:#FFFFFF;}
	
		.st14{clip-path:url(#SVGID_00000175285000745515360260000008687788623838786749_);fill:url(#SVGID_00000139262986953461417050000015546593473468498841_);}
	.st15{clip-path:url(#SVGID_00000129204821922928523430000008721992707048948107_);fill:#231F20;}
	.st16{clip-path:url(#SVGID_00000129204821922928523430000008721992707048948107_);fill:#FFFFFF;}
	
		.st17{clip-path:url(#SVGID_00000134962129312859716720000016559313251301707190_);fill:url(#SVGID_00000002378163695898090880000012174866864976489348_);}
	.st18{clip-path:url(#SVGID_00000085961955232592064760000009138644138497381275_);fill:#231F20;}
	.st19{clip-path:url(#SVGID_00000085961955232592064760000009138644138497381275_);fill:#FFFFFF;}
	
		.st20{clip-path:url(#SVGID_00000002363816093492072980000003869217318029468555_);fill:url(#SVGID_00000033332480392162556210000003494514222985224631_);}
	.st21{clip-path:url(#SVGID_00000090290524937216106690000000180025724491026318_);fill:#231F20;}
	.st22{clip-path:url(#SVGID_00000090290524937216106690000000180025724491026318_);fill:#FFFFFF;}
	
		.st23{clip-path:url(#SVGID_00000081610753462243911480000002515136208216162227_);fill:url(#SVGID_00000010287680457615620010000014469873399787152532_);}
	.st24{clip-path:url(#SVGID_00000053517681824967568180000008417710795071439751_);fill:#231F20;}
	.st25{clip-path:url(#SVGID_00000053517681824967568180000008417710795071439751_);fill:#FFFFFF;}
	
		.st26{clip-path:url(#SVGID_00000018236281552064368100000006761372499882327211_);fill:url(#SVGID_00000128446161638075443630000000866209368545889725_);}
	
		.st27{clip-path:url(#SVGID_00000034771031297750917880000011945723943777103531_);fill:url(#SVGID_00000038372881490521732650000007563325776786098829_);}
	
		.st28{clip-path:url(#SVGID_00000070801870858384162990000002997933744603394446_);fill:none;stroke:#231F20;stroke-width:0.9039;stroke-miterlimit:10;}
	
		.st29{clip-path:url(#SVGID_00000070801870858384162990000002997933744603394446_);fill:none;stroke:#FFFFFF;stroke-width:0.452;stroke-miterlimit:10;}
</style>
<g id="Syna_Logo" xmlns:cc="http://creativecommons.org/ns#" xmlns:dc="http://purl.org/dc/elements/1.1/" xmlns:rdf="http://www.w3.org/1999/02/22-rdf-syntax-ns#" xmlns:svg="http://www.w3.org/2000/svg" class="st0">
</g>
<g id="My_Logo">
	<g>
		<g>
			<path class="st5" d="M128.6,32.5c-0.8,0-1.5-0.3-2.1-0.9c-0.6-0.6-0.9-1.3-0.9-2.1c0-0.8,0.3-1.5,0.9-2.1
				c0.6-0.6,1.3-0.9,2.1-0.9h15.9c4.2,0,7.8,1.5,10.8,4.5c3,3,4.5,6.6,4.5,10.8c0,4.2-1.5,7.8-4.5,10.8c-3,3-6.6,4.5-10.8,4.5h-12.9
				v13.3c0,0.8-0.3,1.5-0.9,2.1c-0.6,0.6-1.3,0.9-2.1,0.9c-0.8,0-1.5-0.3-2.1-0.9c-0.6-0.6-0.9-1.3-0.9-2.1V54.2
				c0-0.8,0.3-1.5,0.9-2.1c0.6-0.6,1.3-0.9,2.1-0.9h15.9c2.6,0,4.8-0.9,6.6-2.7c1.8-1.8,2.7-4,2.7-6.6c0-2.6-0.9-4.8-2.7-6.6
				c-1.8-1.8-4-2.7-6.6-2.7H128.6z"/>
			<path class="st5" d="M169.3,73.5c-0.8,0-1.5-0.3-2.1-0.9c-0.6-0.6-0.9-1.3-0.9-2.1v-41c0-0.8,0.3-1.5,0.9-2.1
				c0.6-0.6,1.3-0.9,2.1-0.9s1.5,0.3,2.1,0.9s0.9,1.3,0.9,2.1V47h23.9V29.5c0-0.8,0.3-1.5,0.9-2.1c0.6-0.6,1.3-0.9,2.1-0.9
				c0.8,0,1.5,0.3,2.1,0.9c0.6,0.6,0.9,1.3,0.9,2.1v41c0,0.8-0.3,1.5-0.9,2.1c-0.6,0.6-1.3,0.9-2.1,0.9c-0.8,0-1.5-0.3-2.1-0.9
				c-0.6-0.6-0.9-1.3-0.9-2.1V53h-23.9v17.5c0,0.8-0.3,1.5-0.9,2.1C170.9,73.2,170.2,73.5,169.3,73.5z"/>
			<path class="st5" d="M209.4,31.1c-0.4-0.7-0.6-1.5-0.4-2.3c0.2-0.8,0.6-1.4,1.3-1.9c0.7-0.4,1.4-0.6,2.2-0.4
				c0.8,0.2,1.4,0.6,1.9,1.3l13.7,21.6l13.7-21.6c0.4-0.7,1.1-1.1,1.9-1.3c0.8-0.2,1.6,0,2.3,0.4c0.7,0.5,1.1,1.1,1.3,1.9
				c0.2,0.8,0,1.6-0.4,2.3L231.2,56v14.5c0,0.8-0.3,1.5-0.9,2.1c-0.6,0.6-1.3,0.9-2.1,0.9c-0.8,0-1.5-0.3-2.1-0.9
				c-0.6-0.6-0.9-1.3-0.9-2.1V56L209.4,31.1z"/>
			<path class="st5" d="M275.5,67.5c2,0,3.7-0.7,5.1-2.1c1.4-1.4,2.1-3.1,2.1-5.1c0-2-0.7-3.7-2.1-5.1c-1.4-1.4-3.1-2.1-5.1-2.1
				h-8.1c-3.6,0-6.8-1.3-9.3-3.9c-2.6-2.6-3.9-5.7-3.9-9.4c0-3.6,1.3-6.8,3.9-9.3c2.6-2.6,5.7-3.9,9.3-3.9h8.1
				c3.6,0,6.8,1.3,9.4,3.9c2.6,2.6,3.9,5.7,3.9,9.3c0,0.8-0.3,1.5-0.9,2.1c-0.6,0.6-1.3,0.9-2.1,0.9c-0.8,0-1.5-0.3-2.1-0.9
				c-0.6-0.6-0.9-1.3-0.9-2.1c0-2-0.7-3.7-2.1-5.1c-1.4-1.4-3.1-2.1-5.1-2.1h-8.1c-2,0-3.7,0.7-5.1,2.1c-1.4,1.4-2.1,3.1-2.1,5.1
				c0,2,0.7,3.7,2.1,5.1c1.4,1.4,3.1,2.1,5.1,2.1h8.1c3.6,0,6.8,1.3,9.4,3.9c2.6,2.6,3.9,5.7,3.9,9.4c0,3.6-1.3,6.8-3.9,9.3
				c-2.6,2.6-5.7,3.9-9.4,3.9h-8.1c-3.6,0-6.8-1.3-9.3-3.9c-2.6-2.6-3.9-5.7-3.9-9.3c0-0.8,0.3-1.5,0.9-2.1c0.6-0.6,1.3-0.9,2.1-0.9
				s1.5,0.3,2.1,0.9c0.6,0.6,0.9,1.3,0.9,2.1c0,2,0.7,3.7,2.1,5.1c1.4,1.4,3.1,2.1,5.1,2.1H275.5z"/>
			<path class="st5" d="M315.7,50.1c0,0.8-0.3,1.5-0.9,2.1c-0.6,0.6-1.3,0.9-2.1,0.9h-14.5c-0.8,0-1.5-0.3-2.1-0.9
				c-0.6-0.6-0.9-1.3-0.9-2.1c0-0.8,0.3-1.5,0.9-2.1c0.6-0.6,1.3-0.9,2.1-0.9h14.5c0.8,0,1.5,0.3,2.1,0.9
				C315.4,48.5,315.7,49.3,315.7,50.1z"/>
			<path class="st5" d="M322.3,29.5c0-0.8,0.3-1.5,0.9-2.1c0.6-0.6,1.3-0.9,2.1-0.9h4.3c0.8,0,1.5,0.3,2.1,0.9
				c0.6,0.6,0.9,1.3,0.9,2.1v41c0,0.8-0.3,1.5-0.9,2.1c-0.6,0.6-1.3,0.9-2.1,0.9c-0.8,0-1.5-0.3-2.1-0.9c-0.6-0.6-0.9-1.3-0.9-2.1
				v-38h-1.3c-0.8,0-1.5-0.3-2.1-0.9C322.6,31,322.3,30.3,322.3,29.5z"/>
			<path class="st5" d="M352.1,64.6c-1,1-2,1.9-2.9,2.9h18.4c0.8,0,1.5,0.3,2.1,0.9c0.6,0.6,0.9,1.3,0.9,2.1s-0.3,1.5-0.9,2.1
				c-0.6,0.6-1.3,0.9-2.1,0.9h-25.7c-0.6,0-1.2-0.2-1.7-0.6c-0.2-0.2-0.4-0.3-0.5-0.5c-0.3-0.4-0.5-0.8-0.6-1.3c0-0.2,0-0.3,0-0.5
				c0-0.5,0.1-1.1,0.4-1.5c0.1-0.2,0.2-0.3,0.4-0.5c0,0,0.1-0.1,0.1-0.1c0.5-0.5,1-1,1.5-1.6c2.1-2.1,4.2-4.2,6.4-6.4l0.8-0.8
				c2.5-2.5,4.4-4.4,5.6-5.6c0.3-0.3,0.7-0.7,1.3-1.3c2-2,3.4-3.5,4.4-4.5c1.6-1.8,2.5-3.4,2.8-4.9c0.4-2,0.2-3.9-0.8-5.7
				c-0.7-1.4-1.8-2.5-3.1-3.4c-1.3-0.9-2.8-1.4-4.3-1.6c-1.6-0.2-3.1,0.1-4.4,0.8c-1.4,0.7-2.5,1.7-3.4,3c-0.9,1.3-1.4,2.7-1.6,4.2
				c-0.1,0.8-0.5,1.5-1.1,2c-0.7,0.5-1.4,0.7-2.2,0.6c-0.8-0.1-1.5-0.5-2-1.1c-0.5-0.7-0.7-1.4-0.6-2.2c0.3-2.5,1.2-4.8,2.6-6.9
				c1.5-2.2,3.4-3.8,5.8-4.9c2.4-1.2,4.9-1.6,7.6-1.3c2.5,0.3,4.9,1.1,7,2.6c2.2,1.5,3.9,3.3,5.1,5.6c1.6,3.1,2,6.3,1.3,9.7
				c-0.5,2.6-2,5.1-4.3,7.7c-1,1.1-2.5,2.7-4.5,4.7c-0.6,0.6-1,1-1.3,1.3c-1.3,1.3-3.1,3.1-5.6,5.6L352.1,64.6z"/>
		</g>
		<g>
			<path class="st6" d="M128.6,74.5c-1.1,0-2.1-0.4-2.8-1.2c-0.8-0.7-1.2-1.7-1.2-2.8V54.2c0-1.1,0.4-2.1,1.2-2.8
				c0.7-0.8,1.7-1.2,2.8-1.2h15.9c2.3,0,4.2-0.8,5.9-2.4c1.7-1.7,2.5-3.6,2.5-5.9s-0.8-4.2-2.5-5.9c-1.6-1.6-3.5-2.4-5.9-2.4h-15.9
				c-1.1,0-2.1-0.4-2.8-1.2c-0.8-0.8-1.2-1.7-1.2-2.8c0-1.1,0.4-2,1.2-2.8c0.7-0.8,1.7-1.2,2.8-1.2h15.9c4.5,0,8.3,1.6,11.5,4.8
				c3.2,3.2,4.8,7.1,4.8,11.5c0,4.5-1.6,8.4-4.8,11.5c-3.2,3.2-7,4.8-11.5,4.8h-11.9v12.3c0,1.1-0.4,2.1-1.2,2.8
				C130.7,74.1,129.7,74.5,128.6,74.5z"/>
			<path class="st6" d="M199.2,74.5c-1.1,0-2-0.4-2.8-1.2c-0.8-0.7-1.2-1.7-1.2-2.8V54h-21.9v16.5c0,1.1-0.4,2.1-1.2,2.8
				c-0.8,0.8-1.7,1.2-2.8,1.2c-1.1,0-2.1-0.4-2.8-1.2c-0.8-0.7-1.2-1.7-1.2-2.8v-41c0-1.1,0.4-2,1.2-2.8c0.7-0.8,1.7-1.2,2.8-1.2
				c1.1,0,2.1,0.4,2.8,1.2c0.8,0.8,1.2,1.7,1.2,2.8V46h21.9V29.5c0-1.1,0.4-2,1.2-2.8c0.8-0.8,1.7-1.2,2.8-1.2
				c1.1,0,2.1,0.4,2.8,1.2c0.8,0.8,1.2,1.7,1.2,2.8v41c0,1.1-0.4,2.1-1.2,2.8C201.3,74.1,200.3,74.5,199.2,74.5z"/>
			<path class="st6" d="M228.2,74.5c-1.1,0-2.1-0.4-2.8-1.2c-0.8-0.7-1.2-1.7-1.2-2.8V56.3l-15.6-24.7c-0.6-0.9-0.8-1.9-0.5-3
				c0.3-1.1,0.9-1.9,1.8-2.5c0.7-0.4,1.4-0.6,2.1-0.6c0.3,0,0.6,0,0.9,0.1c1.1,0.3,1.9,0.9,2.5,1.8l12.8,20.3L241,27.4
				c0.6-0.9,1.4-1.5,2.5-1.8c0.3-0.1,0.6-0.1,0.9-0.1c0.7,0,1.5,0.2,2.1,0.6c0.9,0.6,1.5,1.5,1.8,2.5c0.2,1.1,0.1,2.1-0.5,3
				l-15.6,24.7v14.2c0,1.1-0.4,2.1-1.2,2.8C230.2,74.1,229.3,74.5,228.2,74.5z"/>
			<path class="st6" d="M267.3,74.5c-3.9,0-7.3-1.4-10-4.2c-2.8-2.7-4.2-6.1-4.2-10c0-1.1,0.4-2.1,1.2-2.8c0.7-0.8,1.7-1.2,2.8-1.2
				c1.1,0,2.1,0.4,2.8,1.2c0.8,0.8,1.2,1.7,1.2,2.8c0,1.7,0.6,3.2,1.8,4.4c1.2,1.2,2.7,1.8,4.4,1.8h8.1c1.7,0,3.2-0.6,4.4-1.8
				c1.2-1.2,1.8-2.7,1.8-4.4c0-1.7-0.6-3.2-1.8-4.4c-1.2-1.2-2.7-1.8-4.4-1.8h-8.1c-3.9,0-7.3-1.4-10-4.2c-2.8-2.7-4.2-6.1-4.2-10.1
				c0-3.9,1.4-7.3,4.2-10c2.8-2.8,6.1-4.2,10-4.2h8.1c3.9,0,7.3,1.4,10.1,4.2c2.8,2.8,4.2,6.1,4.2,10c0,1.1-0.4,2.1-1.2,2.8
				c-0.8,0.8-1.7,1.2-2.8,1.2c-1.1,0-2.1-0.4-2.8-1.2c-0.8-0.8-1.2-1.7-1.2-2.8c0-1.7-0.6-3.2-1.8-4.4c-1.2-1.2-2.7-1.8-4.4-1.8
				h-8.1c-1.7,0-3.2,0.6-4.4,1.8c-1.2,1.2-1.8,2.7-1.8,4.4c0,1.7,0.6,3.2,1.8,4.4c1.2,1.2,2.7,1.8,4.4,1.8h8.1
				c3.9,0,7.3,1.4,10.1,4.2c2.8,2.8,4.2,6.1,4.2,10.1c0,3.9-1.4,7.3-4.2,10c-2.8,2.8-6.2,4.2-10.1,4.2H267.3z"/>
			<path class="st6" d="M298.2,54.1c-1.1,0-2.1-0.4-2.8-1.2c-0.8-0.7-1.2-1.7-1.2-2.8c0-1.1,0.4-2.1,1.2-2.8
				c0.7-0.8,1.7-1.2,2.8-1.2h14.5c1.1,0,2.1,0.4,2.8,1.2c0.8,0.8,1.2,1.7,1.2,2.8c0,1.1-0.4,2.1-1.2,2.8c-0.7,0.8-1.7,1.2-2.8,1.2
				H298.2z"/>
			<path class="st6" d="M329.5,74.5c-1.1,0-2.1-0.4-2.8-1.2c-0.8-0.7-1.2-1.7-1.2-2.8v-37h-0.3c-1.1,0-2.1-0.4-2.8-1.2
				c-0.8-0.8-1.2-1.7-1.2-2.8c0-1.1,0.4-2,1.2-2.8c0.7-0.8,1.7-1.2,2.8-1.2h4.3c1.1,0,2.1,0.4,2.8,1.2c0.8,0.8,1.2,1.7,1.2,2.8v41
				c0,1.1-0.4,2.1-1.2,2.8C331.6,74.1,330.6,74.5,329.5,74.5z"/>
			<path class="st6" d="M341.9,74.5c-0.9,0-1.6-0.3-2.3-0.8c-0.3-0.2-0.5-0.4-0.7-0.7c-0.4-0.5-0.7-1.1-0.8-1.8c0-0.2,0-0.4,0-0.6
				c0-0.7,0.2-1.4,0.5-2c0.2-0.3,0.3-0.5,0.5-0.7l0.2-0.2c0.5-0.5,1-1,1.5-1.6c2.1-2.1,4.2-4.3,6.4-6.5l0.8-0.8
				c2.5-2.5,4.3-4.3,5.6-5.6l1.3-1.3c2-2,3.4-3.5,4.4-4.5c1.5-1.6,2.3-3.1,2.6-4.5c0.4-1.8,0.2-3.4-0.7-5c-0.6-1.2-1.6-2.3-2.8-3.1
				c-1.2-0.8-2.5-1.3-3.9-1.4c-0.3,0-0.5,0-0.8,0c-1.1,0-2.2,0.2-3.1,0.7c-1.2,0.6-2.2,1.5-3,2.6c-0.8,1.1-1.3,2.4-1.5,3.8
				c-0.1,1.1-0.6,2-1.5,2.7c-0.7,0.6-1.6,0.9-2.5,0.9c-0.2,0-0.3,0-0.5,0c-1.1-0.1-2-0.7-2.7-1.5c-0.7-0.9-0.9-1.9-0.8-3
				c0.3-2.6,1.3-5.1,2.8-7.3c1.6-2.3,3.7-4.1,6.1-5.3c2.1-1,4.3-1.5,6.6-1.5c0.5,0,1,0,1.6,0.1c2.7,0.3,5.2,1.2,7.5,2.7
				c2.3,1.5,4.2,3.6,5.4,6c1.7,3.3,2.2,6.7,1.4,10.4c-0.6,2.7-2.1,5.5-4.5,8.1c-1,1.1-2.5,2.7-4.6,4.8l-7.7,7.7
				c-0.4,0.4-0.8,0.8-1.2,1.2h16c1.1,0,2.1,0.4,2.8,1.2c0.8,0.8,1.1,1.7,1.1,2.8c0,1.1-0.4,2-1.1,2.8c-0.8,0.8-1.7,1.2-2.8,1.2
				H341.9z"/>
		</g>
		<g>
			<path class="st7" d="M128.6,74c-1,0-1.8-0.3-2.5-1c-0.7-0.6-1-1.5-1-2.4V54.2c0-1,0.3-1.8,1-2.5c0.7-0.7,1.5-1,2.4-1h15.9
				c2.4,0,4.5-0.9,6.2-2.6c1.8-1.8,2.6-3.8,2.6-6.3c0-2.4-0.9-4.5-2.6-6.3c-1.7-1.7-3.8-2.6-6.2-2.6h-15.9c-1,0-1.8-0.3-2.5-1
				c-0.7-0.7-1-1.5-1-2.5c0-0.9,0.3-1.8,1-2.4c0.7-0.7,1.5-1,2.4-1h15.9c4.3,0,8.1,1.6,11.1,4.6c3.1,3.1,4.7,6.9,4.7,11.2
				c0,4.3-1.6,8.1-4.7,11.2c-3.1,3.1-6.8,4.6-11.1,4.6h-12.4v12.8c0,1-0.3,1.8-1,2.5C130.4,73.6,129.6,74,128.6,74z"/>
			<path class="st7" d="M199.2,74c-0.9,0-1.8-0.3-2.4-1c-0.7-0.7-1-1.5-1-2.4v-17h-22.9v17c0,1-0.3,1.8-1,2.5c-0.7,0.7-1.5,1-2.5,1
				c-1,0-1.8-0.3-2.5-1c-0.7-0.6-1-1.5-1-2.4v-41c0-0.9,0.3-1.8,1-2.4c0.7-0.7,1.5-1,2.4-1c1,0,1.8,0.3,2.5,1c0.7,0.7,1,1.5,1,2.4
				v17h22.9v-17c0-0.9,0.3-1.8,1-2.4c0.7-0.7,1.5-1,2.4-1c1,0,1.8,0.3,2.5,1c0.7,0.7,1,1.5,1,2.4v41c0,1-0.3,1.8-1,2.5
				C201,73.6,200.2,74,199.2,74z"/>
			<path class="st7" d="M228.2,74c-1,0-1.8-0.3-2.5-1c-0.7-0.6-1-1.5-1-2.4V56.1L209,31.4c-0.5-0.8-0.7-1.7-0.5-2.6
				c0.2-0.9,0.8-1.7,1.6-2.2c0.6-0.4,1.2-0.5,1.8-0.5c0.3,0,0.5,0,0.8,0.1c0.9,0.2,1.7,0.8,2.2,1.6l13.3,20.9l13.3-20.9
				c0.5-0.8,1.2-1.3,2.2-1.6c0.3-0.1,0.5-0.1,0.8-0.1c0.6,0,1.3,0.2,1.8,0.5c0.8,0.5,1.3,1.3,1.5,2.2c0.2,0.9,0,1.8-0.5,2.6
				l-15.7,24.8v14.3c0,1-0.3,1.8-1,2.5C229.9,73.6,229.1,74,228.2,74z"/>
			<path class="st7" d="M267.3,74c-3.8,0-7-1.4-9.7-4c-2.7-2.7-4-5.9-4-9.7c0-1,0.3-1.8,1-2.5c0.7-0.7,1.5-1,2.4-1
				c1,0,1.8,0.3,2.5,1c0.7,0.7,1,1.5,1,2.5c0,1.9,0.6,3.4,2,4.8c1.3,1.3,2.9,2,4.8,2h8.1c1.9,0,3.4-0.6,4.8-2c1.3-1.3,2-2.9,2-4.8
				c0-1.9-0.6-3.4-2-4.8c-1.3-1.3-2.9-2-4.8-2h-8.1c-3.8,0-7-1.4-9.7-4c-2.7-2.7-4-5.9-4-9.7c0-3.8,1.4-7,4-9.7c2.7-2.7,5.9-4,9.7-4
				h8.1c3.8,0,7,1.4,9.7,4c2.7,2.7,4,5.9,4,9.7c0,1-0.3,1.8-1,2.5c-0.7,0.7-1.5,1-2.5,1c-1,0-1.8-0.3-2.5-1c-0.7-0.7-1-1.5-1-2.5
				c0-1.9-0.6-3.4-2-4.8c-1.3-1.3-2.9-2-4.8-2h-8.1c-1.9,0-3.4,0.6-4.8,2c-1.3,1.3-2,2.9-2,4.8c0,1.9,0.6,3.5,2,4.8
				c1.3,1.3,2.9,2,4.8,2h8.1c3.8,0,7,1.4,9.7,4c2.7,2.7,4,5.9,4,9.7c0,3.8-1.4,7-4,9.7c-2.7,2.7-5.9,4-9.7,4H267.3z"/>
			<path class="st7" d="M298.2,53.6c-1,0-1.8-0.3-2.5-1c-0.7-0.6-1-1.5-1-2.4c0-1,0.3-1.8,1-2.5c0.7-0.7,1.5-1,2.4-1h14.5
				c1,0,1.8,0.3,2.5,1c0.7,0.7,1,1.5,1,2.5c0,1-0.3,1.8-1,2.5c-0.6,0.7-1.5,1-2.4,1H298.2z"/>
			<path class="st7" d="M329.5,74c-1,0-1.8-0.3-2.5-1c-0.7-0.7-1-1.5-1-2.4V33h-0.8c-1,0-1.8-0.3-2.5-1c-0.7-0.7-1-1.5-1-2.5
				c0-0.9,0.3-1.8,1-2.4c0.7-0.7,1.5-1,2.4-1h4.3c1,0,1.8,0.3,2.5,1c0.7,0.7,1,1.5,1,2.4v41c0,1-0.3,1.8-1,2.5
				C331.3,73.6,330.5,74,329.5,74z"/>
			<path class="st7" d="M341.9,74c-0.8,0-1.4-0.3-2-0.7c-0.2-0.2-0.4-0.4-0.6-0.6c-0.4-0.4-0.6-0.9-0.7-1.5c0-0.2,0-0.4,0-0.5
				c0-0.6,0.2-1.2,0.5-1.8c0.1-0.2,0.3-0.4,0.4-0.6l0.2-0.2c0.5-0.5,1-1,1.5-1.6c2.1-2.1,4.2-4.2,6.4-6.5l0.8-0.8
				c2.5-2.5,4.3-4.4,5.6-5.6l1.3-1.3c2-2,3.4-3.5,4.4-4.5c1.5-1.7,2.4-3.3,2.7-4.7c0.4-1.9,0.2-3.7-0.7-5.3
				c-0.7-1.3-1.7-2.4-2.9-3.3c-1.3-0.8-2.6-1.3-4.1-1.5c-0.3,0-0.6,0-0.8,0c-1.2,0-2.3,0.3-3.4,0.7c-1.3,0.6-2.4,1.6-3.2,2.8
				c-0.8,1.2-1.4,2.6-1.5,4c-0.1,1-0.6,1.7-1.3,2.3c-0.7,0.5-1.4,0.8-2.2,0.8c-0.1,0-0.3,0-0.4,0c-1-0.1-1.7-0.6-2.3-1.3
				c-0.6-0.8-0.8-1.6-0.7-2.6c0.3-2.6,1.2-5,2.7-7.1c1.5-2.2,3.5-4,6-5.1c2-1,4.2-1.5,6.4-1.5c0.5,0,1,0,1.5,0.1
				c2.6,0.3,5,1.2,7.3,2.6c2.3,1.5,4,3.5,5.3,5.8c1.7,3.1,2.1,6.5,1.4,10c-0.6,2.6-2,5.3-4.4,7.9c-1,1.1-2.5,2.6-4.6,4.8l-7.7,7.7
				c-0.7,0.7-1.4,1.4-2,2h17.2c1,0,1.8,0.3,2.5,1c0.7,0.7,1,1.5,1,2.5c0,1-0.3,1.8-1,2.4c-0.7,0.7-1.5,1-2.5,1H341.9z"/>
		</g>
	</g>
	<g>
		<g>
			<defs>
				<rect id="SVGID_1_" x="9.2" y="1" width="98.1" height="98.1"/>
			</defs>
			<clipPath id="SVGID_00000157299218990326082600000012251511583902686397_">
				<use xlink:href="#SVGID_1_"  style="overflow:visible;"/>
			</clipPath>
			<g style="clip-path:url(#SVGID_00000157299218990326082600000012251511583902686397_);">
				<defs>
					<rect id="SVGID_00000160872143745709370630000015253903972096929937_" x="9.2" y="1" width="98.1" height="98.1"/>
				</defs>
				<clipPath id="SVGID_00000116205351575041838170000013587093369629378193_">
					<use xlink:href="#SVGID_00000160872143745709370630000015253903972096929937_"  style="overflow:visible;"/>
				</clipPath>
			</g>
			<g style="clip-path:url(#SVGID_00000157299218990326082600000012251511583902686397_);">
				<defs>
					<rect id="SVGID_00000112596590782074695490000012553317689704501142_" x="9.2" y="1" width="98.1" height="98.1"/>
				</defs>
				<clipPath id="SVGID_00000054265241989223916250000014609894657735801789_">
					<use xlink:href="#SVGID_00000112596590782074695490000012553317689704501142_"  style="overflow:visible;"/>
				</clipPath>
			</g>
			<g style="clip-path:url(#SVGID_00000157299218990326082600000012251511583902686397_);">
				<defs>
					<path id="SVGID_00000085212419851609535490000002290326062865835711_" d="M42.6,34.6c-0.5,0-0.9,0-1.4,0.1
						c-0.9,0.1-1.8,0.2-2.8,0.5c-0.9,0.3-1.8,0.8-2.6,1.5c-0.4,0.3-0.7,0.8-1,1.2c-0.3,0.5-0.5,0.9-0.6,1.5c-0.1,0.5-0.2,1-0.2,1.5
						c0,0.5,0.1,1,0.2,1.4c0.2,0.9,0.6,1.8,1,2.6c0.4,0.8,0.9,1.5,1.5,2.2c0.5,0.7,1.1,1.3,1.8,1.9c-0.4-0.8-0.8-1.5-1.1-2.3
						c-0.3-0.8-0.7-1.5-0.9-2.3c-0.2-0.8-0.4-1.6-0.4-2.3c0-0.4,0-0.7,0-1.1c0-0.3,0.1-0.7,0.3-1c0.1-0.3,0.3-0.6,0.5-0.8
						c0.2-0.2,0.4-0.5,0.7-0.7c0.5-0.4,1.2-0.7,1.9-0.8c0.7-0.2,1.4-0.3,2.2-0.3c0.8,0,1.6,0,2.4,0c1.6,0.1,3.2,0.4,4.8,0.7
						c0.8,0.2,1.6,0.4,2.4,0.6c0.4,0.1,0.8,0.2,1.2,0.3c0.4,0.1,0.8,0.2,1.2,0.3c1.6,0.5,3.2,1,4.8,1.6c0.8,0.3,1.6,0.6,2.4,0.9
						c0.8,0.3,1.6,0.6,2.4,0.9c-0.7-0.6-1.3-1.1-2-1.6c-0.7-0.5-1.4-1-2.2-1.4c-1.5-0.9-3-1.7-4.6-2.4c-0.4-0.2-0.8-0.3-1.2-0.5
						c-0.4-0.2-0.8-0.3-1.2-0.5c-0.8-0.3-1.7-0.5-2.5-0.8c-0.8-0.2-1.7-0.4-2.6-0.6c-0.9-0.2-1.8-0.3-2.6-0.3
						C43.5,34.6,43,34.6,42.6,34.6C42.6,34.6,42.6,34.6,42.6,34.6"/>
				</defs>
				<clipPath id="SVGID_00000155824703713618938170000001800316791652968344_">
					<use xlink:href="#SVGID_00000085212419851609535490000002290326062865835711_"  style="overflow:visible;"/>
				</clipPath>
			</g>
			<g style="clip-path:url(#SVGID_00000157299218990326082600000012251511583902686397_);">
				<defs>
					<rect id="SVGID_00000031182202276521308870000015481029250497141125_" x="9.2" y="1" width="98.1" height="98.1"/>
				</defs>
				<clipPath id="SVGID_00000045593207417098340710000009528129113894126514_">
					<use xlink:href="#SVGID_00000031182202276521308870000015481029250497141125_"  style="overflow:visible;"/>
				</clipPath>
			</g>
			<g style="clip-path:url(#SVGID_00000157299218990326082600000012251511583902686397_);">
				<defs>
					<path id="SVGID_00000102537879342533114510000015983823897953669764_" d="M52,43.6c-0.8,0.4-1.5,0.8-2.3,1.2
						c-1.5,0.8-3,1.8-4.3,2.8c-0.3,0.3-0.7,0.5-1,0.8c-0.3,0.3-0.7,0.5-1,0.8c-0.7,0.6-1.3,1.2-1.9,1.8c-0.6,0.6-1.2,1.3-1.8,1.9
						c-0.6,0.7-1.1,1.4-1.6,2.1c-0.2,0.4-0.5,0.8-0.7,1.2c-0.2,0.4-0.4,0.8-0.6,1.2c-0.4,0.8-0.7,1.7-0.9,2.7c-0.2,0.9-0.3,2-0.1,3
						c0.1,0.5,0.3,1,0.5,1.5c0.2,0.5,0.6,0.9,0.9,1.3c0.4,0.4,0.8,0.7,1.2,0.9c0.4,0.2,0.9,0.4,1.3,0.6c0.9,0.3,1.8,0.4,2.7,0.4
						c0.9,0,1.8,0,2.6-0.2c0.9-0.1,1.7-0.3,2.5-0.6c-0.9,0-1.7-0.1-2.5-0.2c-0.8-0.1-1.7-0.2-2.4-0.4c-0.8-0.2-1.5-0.4-2.2-0.8
						c-0.3-0.2-0.6-0.4-0.9-0.6c-0.3-0.2-0.5-0.5-0.7-0.7c-0.2-0.3-0.4-0.5-0.5-0.8c-0.1-0.3-0.2-0.6-0.2-0.9c-0.1-0.6,0-1.3,0.2-2
						c0.2-0.7,0.5-1.4,0.8-2.1c0.3-0.7,0.7-1.4,1.2-2c0.9-1.3,1.9-2.6,3-3.8c0.5-0.6,1.1-1.2,1.7-1.8c0.3-0.3,0.6-0.6,0.9-0.9
						c0.3-0.3,0.6-0.6,0.9-0.9c1.2-1.1,2.5-2.2,3.7-3.3c0.6-0.5,1.3-1.1,1.9-1.6c0.7-0.5,1.3-1.1,2-1.6C53.5,42.9,52.8,43.3,52,43.6
						"/>
				</defs>
				<clipPath id="SVGID_00000165919185853568546550000017885032633198051716_">
					<use xlink:href="#SVGID_00000102537879342533114510000015983823897953669764_"  style="overflow:visible;"/>
				</clipPath>
			</g>
			<g style="clip-path:url(#SVGID_00000157299218990326082600000012251511583902686397_);">
				<defs>
					<rect id="SVGID_00000126310152854801164220000002155171091524979358_" x="9.2" y="1" width="98.1" height="98.1"/>
				</defs>
				<clipPath id="SVGID_00000086654613915372038770000006022489062543786901_">
					<use xlink:href="#SVGID_00000126310152854801164220000002155171091524979358_"  style="overflow:visible;"/>
				</clipPath>
			</g>
			<g style="clip-path:url(#SVGID_00000157299218990326082600000012251511583902686397_);">
				<defs>
					<path id="SVGID_00000029729353345777403320000004840915678079881640_" d="M49.8,52.6c-0.1,0.9-0.1,1.7-0.1,2.6
						c0,1.7,0.1,3.4,0.3,5.2c0.1,0.4,0.1,0.9,0.2,1.3c0.1,0.4,0.1,0.9,0.2,1.3c0.2,0.9,0.4,1.7,0.6,2.6c0.2,0.8,0.5,1.7,0.8,2.5
						c0.3,0.8,0.6,1.7,1,2.5c0.2,0.4,0.4,0.8,0.6,1.2c0.2,0.4,0.5,0.8,0.7,1.2c0.5,0.8,1.1,1.5,1.9,2.1c0.7,0.6,1.6,1.2,2.6,1.6
						c0.5,0.2,1,0.3,1.6,0.3c0.5,0,1.1,0,1.6-0.2c0.5-0.1,1-0.3,1.4-0.6c0.4-0.3,0.8-0.5,1.2-0.9c0.7-0.6,1.3-1.4,1.7-2.1
						c0.5-0.8,0.8-1.6,1.2-2.4c0.3-0.8,0.6-1.6,0.7-2.5c-0.5,0.7-0.9,1.4-1.4,2.1c-0.5,0.7-1,1.3-1.6,1.9c-0.5,0.6-1.1,1.1-1.8,1.5
						c-0.3,0.2-0.6,0.4-1,0.5c-0.3,0.1-0.7,0.2-1,0.3c-0.3,0-0.6,0-0.9,0c-0.3,0-0.6-0.1-0.9-0.3c-0.6-0.3-1.1-0.7-1.7-1.2
						c-0.5-0.5-1-1.1-1.4-1.8c-0.4-0.6-0.8-1.3-1.2-2c-0.7-1.4-1.3-2.9-1.8-4.5c-0.3-0.8-0.5-1.6-0.7-2.4c-0.1-0.4-0.2-0.8-0.3-1.2
						c-0.1-0.4-0.2-0.8-0.3-1.2c-0.4-1.6-0.7-3.3-1-4.9c-0.2-0.8-0.3-1.7-0.4-2.5c-0.1-0.8-0.3-1.7-0.4-2.5
						C49.9,50.8,49.8,51.7,49.8,52.6"/>
				</defs>
				<clipPath id="SVGID_00000066481990078843603740000010574375216228988579_">
					<use xlink:href="#SVGID_00000029729353345777403320000004840915678079881640_"  style="overflow:visible;"/>
				</clipPath>
			</g>
			<g style="clip-path:url(#SVGID_00000157299218990326082600000012251511583902686397_);">
				<defs>
					<rect id="SVGID_00000178186432571266737040000017176137249650510246_" x="9.2" y="1" width="98.1" height="98.1"/>
				</defs>
				<clipPath id="SVGID_00000164506716103054664210000007707617350760810637_">
					<use xlink:href="#SVGID_00000178186432571266737040000017176137249650510246_"  style="overflow:visible;"/>
				</clipPath>
			</g>
			<g style="clip-path:url(#SVGID_00000157299218990326082600000012251511583902686397_);">
				<defs>
					<path id="SVGID_00000089576468601448982590000010904475952006243222_" d="M80,53.3c0.3,0.8,0.7,1.5,0.9,2.3
						c0.2,0.8,0.4,1.6,0.4,2.3c0,0.4,0,0.7,0,1.1c0,0.3-0.1,0.7-0.3,1c-0.1,0.3-0.3,0.6-0.5,0.8c-0.2,0.2-0.4,0.5-0.7,0.7
						c-0.5,0.4-1.2,0.7-1.9,0.8c-0.7,0.2-1.4,0.3-2.2,0.3c-0.8,0-1.6,0-2.4,0c-1.6-0.1-3.2-0.4-4.8-0.7c-0.8-0.2-1.6-0.4-2.4-0.6
						c-0.4-0.1-0.8-0.2-1.2-0.3c-0.4-0.1-0.8-0.2-1.2-0.3c-1.6-0.5-3.2-1-4.8-1.6c-0.8-0.3-1.6-0.6-2.4-0.9
						c-0.8-0.3-1.6-0.6-2.4-0.9c0.7,0.6,1.3,1.1,2,1.6c0.7,0.5,1.4,1,2.2,1.4c1.5,0.9,3,1.7,4.6,2.4c0.4,0.2,0.8,0.3,1.2,0.5
						c0.4,0.2,0.8,0.3,1.2,0.5c0.8,0.3,1.7,0.5,2.5,0.8c0.8,0.2,1.7,0.4,2.6,0.6c0.9,0.2,1.8,0.3,2.6,0.3c0.4,0,0.9,0,1.4,0
						c0.5,0,0.9,0,1.4-0.1c0.9-0.1,1.8-0.2,2.8-0.5c0.9-0.3,1.8-0.8,2.6-1.5c0.4-0.3,0.7-0.8,1-1.2c0.3-0.5,0.5-0.9,0.6-1.5
						c0.1-0.5,0.2-1,0.2-1.5c0-0.5-0.1-1-0.2-1.4c-0.2-0.9-0.6-1.8-1-2.6c-0.4-0.8-0.9-1.5-1.5-2.2c-0.5-0.7-1.1-1.3-1.8-1.9
						C79.3,51.8,79.7,52.6,80,53.3"/>
				</defs>
				<clipPath id="SVGID_00000032627612429580512540000005041309048806435731_">
					<use xlink:href="#SVGID_00000089576468601448982590000010904475952006243222_"  style="overflow:visible;"/>
				</clipPath>
			</g>
			<g style="clip-path:url(#SVGID_00000157299218990326082600000012251511583902686397_);">
				<defs>
					<rect id="SVGID_00000048475053228589655310000006890947308001197723_" x="9.2" y="1" width="98.1" height="98.1"/>
				</defs>
				<clipPath id="SVGID_00000150079637635604540490000015407812271388276408_">
					<use xlink:href="#SVGID_00000048475053228589655310000006890947308001197723_"  style="overflow:visible;"/>
				</clipPath>
			</g>
			<g style="clip-path:url(#SVGID_00000157299218990326082600000012251511583902686397_);">
				<defs>
					<path id="SVGID_00000182499907090159402180000001187285128138056835_" d="M72.2,32.4c-0.9,0.1-1.7,0.3-2.5,0.6
						c0.9,0,1.7,0.1,2.5,0.2c0.8,0.1,1.7,0.2,2.4,0.4c0.8,0.2,1.5,0.4,2.2,0.8c0.3,0.2,0.6,0.4,0.9,0.6c0.3,0.2,0.5,0.5,0.7,0.7
						c0.2,0.3,0.4,0.5,0.5,0.8c0.1,0.3,0.2,0.6,0.2,0.9c0.1,0.6,0,1.3-0.2,2c-0.2,0.7-0.5,1.4-0.8,2.1c-0.3,0.7-0.7,1.4-1.2,2
						c-0.9,1.3-1.9,2.6-3,3.8c-0.5,0.6-1.1,1.2-1.7,1.8c-0.3,0.3-0.6,0.6-0.9,0.9c-0.3,0.3-0.6,0.6-0.9,0.9
						c-1.2,1.1-2.5,2.2-3.7,3.3c-0.6,0.5-1.3,1.1-1.9,1.6c-0.7,0.5-1.3,1.1-2,1.6c0.8-0.3,1.6-0.6,2.4-1c0.8-0.4,1.5-0.8,2.3-1.2
						c1.5-0.8,3-1.8,4.3-2.8c0.3-0.3,0.7-0.5,1-0.8c0.3-0.3,0.7-0.5,1-0.8c0.7-0.6,1.3-1.2,1.9-1.8c0.6-0.6,1.2-1.3,1.8-1.9
						c0.6-0.7,1.1-1.4,1.6-2.1c0.2-0.4,0.5-0.8,0.7-1.2c0.2-0.4,0.4-0.8,0.6-1.2c0.4-0.8,0.7-1.7,0.9-2.7c0.2-0.9,0.3-2,0.1-3
						c-0.1-0.5-0.3-1-0.5-1.5c-0.2-0.5-0.6-0.9-0.9-1.3c-0.4-0.4-0.8-0.7-1.2-0.9c-0.4-0.2-0.9-0.4-1.3-0.6
						c-0.9-0.3-1.8-0.4-2.7-0.4c-0.1,0-0.2,0-0.3,0C73.7,32.2,72.9,32.2,72.2,32.4"/>
				</defs>
				<clipPath id="SVGID_00000089575619257493650230000009277530319288485787_">
					<use xlink:href="#SVGID_00000182499907090159402180000001187285128138056835_"  style="overflow:visible;"/>
				</clipPath>
			</g>
			<g style="clip-path:url(#SVGID_00000157299218990326082600000012251511583902686397_);">
				<defs>
					<rect id="SVGID_00000131331421280466936560000014072956081919122571_" x="9.2" y="1" width="98.1" height="98.1"/>
				</defs>
				<clipPath id="SVGID_00000085940158569974923390000011867088141816377528_">
					<use xlink:href="#SVGID_00000131331421280466936560000014072956081919122571_"  style="overflow:visible;"/>
				</clipPath>
			</g>
			<g style="clip-path:url(#SVGID_00000157299218990326082600000012251511583902686397_);">
				<defs>
					<path id="SVGID_00000027577228214003403200000008361939775767839930_" d="M55.6,23.5c-0.5,0.1-1,0.3-1.4,0.6
						c-0.4,0.3-0.8,0.5-1.2,0.9c-0.7,0.6-1.3,1.4-1.7,2.1c-0.5,0.8-0.8,1.6-1.2,2.4c-0.3,0.8-0.6,1.6-0.7,2.5
						c0.5-0.7,0.9-1.4,1.4-2.1c0.5-0.7,1-1.3,1.6-1.9c0.5-0.6,1.1-1.1,1.8-1.5c0.3-0.2,0.6-0.4,1-0.5c0.3-0.1,0.7-0.2,1-0.3
						c0.3,0,0.6,0,0.9,0c0.3,0,0.6,0.1,0.9,0.3c0.6,0.3,1.1,0.7,1.7,1.2c0.5,0.5,1,1.1,1.4,1.8c0.4,0.6,0.8,1.3,1.2,2
						c0.7,1.4,1.3,2.9,1.8,4.5c0.3,0.8,0.5,1.6,0.7,2.4c0.1,0.4,0.2,0.8,0.3,1.2c0.1,0.4,0.2,0.8,0.3,1.2c0.4,1.6,0.7,3.3,1,4.9
						c0.2,0.8,0.3,1.7,0.4,2.5c0.1,0.8,0.3,1.7,0.4,2.5c0.2-0.8,0.3-1.7,0.3-2.6c0.1-0.9,0.1-1.7,0.1-2.6c0-1.7-0.1-3.4-0.3-5.2
						c-0.1-0.4-0.1-0.9-0.2-1.3C67.1,38,67,37.6,67,37.1c-0.2-0.9-0.4-1.7-0.6-2.6c-0.2-0.8-0.5-1.7-0.8-2.5c-0.3-0.8-0.6-1.7-1-2.5
						c-0.2-0.4-0.4-0.8-0.6-1.2c-0.2-0.4-0.5-0.8-0.7-1.2c-0.5-0.8-1.1-1.5-1.9-2.1c-0.7-0.6-1.6-1.2-2.6-1.6
						c-0.5-0.2-1-0.3-1.6-0.3c-0.1,0-0.1,0-0.2,0C56.5,23.3,56,23.4,55.6,23.5"/>
				</defs>
				<clipPath id="SVGID_00000149352247980161380000000005683954544914432394_">
					<use xlink:href="#SVGID_00000027577228214003403200000008361939775767839930_"  style="overflow:visible;"/>
				</clipPath>
			</g>
			<g style="clip-path:url(#SVGID_00000157299218990326082600000012251511583902686397_);">
				<defs>
					<path id="SVGID_00000115484955836486185410000010579952955574984869_" d="M54,50.1c0,2.4,1.9,4.3,4.3,4.3
						c2.4,0,4.3-1.9,4.3-4.3c0-2.4-1.9-4.3-4.3-4.3C55.9,45.8,54,47.7,54,50.1"/>
				</defs>
				<clipPath id="SVGID_00000165211256118555106780000000592719338411016590_">
					<use xlink:href="#SVGID_00000115484955836486185410000010579952955574984869_"  style="overflow:visible;"/>
				</clipPath>
			</g>
			<g style="clip-path:url(#SVGID_00000157299218990326082600000012251511583902686397_);">
				<defs>
					<rect id="SVGID_00000147188276396976237550000003108893242658681231_" x="9.2" y="1" width="98.1" height="98.1"/>
				</defs>
				<clipPath id="SVGID_00000175312191103596575540000011410176246017924523_">
					<use xlink:href="#SVGID_00000147188276396976237550000003108893242658681231_"  style="overflow:visible;"/>
				</clipPath>
			</g>
			<g style="clip-path:url(#SVGID_00000157299218990326082600000012251511583902686397_);">
				<defs>
					<rect id="SVGID_00000090260259281599250530000014270456290344071067_" x="9.2" y="1" width="98.1" height="98.1"/>
				</defs>
				<clipPath id="SVGID_00000068672089806251710810000016391691309295545757_">
					<use xlink:href="#SVGID_00000090260259281599250530000014270456290344071067_"  style="overflow:visible;"/>
				</clipPath>
				<path style="clip-path:url(#SVGID_00000068672089806251710810000016391691309295545757_);fill:#231F20;" d="M23.1,48.5
					c-5.3-3.7-10.4-10.3-8.8-17.2c0.9-4.2,4.5-7.2,8.4-8.5c13-4.2,30.1,3,40,11.5c1.2,1,2.3,2,3.3,3.2c-1.5-0.3-3-0.7-4.4-1.1
					c-4.3-1.1-8.6-2.3-12.8-3.3c-6.8-1.6-20.3-4.9-26.4-1.5C17.4,34.6,21.6,44.1,23.1,48.5"/>
				<path style="clip-path:url(#SVGID_00000068672089806251710810000016391691309295545757_);fill:#FFFFFF;" d="M23.1,48.5
					c-3.7-3-6.8-6.8-8.1-11.5c-1.3-5.1,0.8-9.9,5.4-12.3c3.9-2.1,8.3-2.4,12.5-2.2c12,0.9,24.4,6.8,33.1,15
					c-8.4-2.5-16.7-5.3-25.3-7C35.4,29.4,26.7,28,22,31C16.7,34.5,21.2,43.9,23.1,48.5"/>
			</g>
			<g style="clip-path:url(#SVGID_00000157299218990326082600000012251511583902686397_);">
				<defs>
					<path id="SVGID_00000057123222307853881960000017960568449204187281_" d="M30.6,22.9c-0.8,0-1.6,0-2.4,0.1
						c-1.6,0.1-3.3,0.4-4.9,1c-0.8,0.3-1.6,0.6-2.5,1.1c-0.8,0.4-1.6,1-2.3,1.6c-0.7,0.6-1.4,1.4-1.9,2.2c-0.5,0.8-0.9,1.7-1.1,2.7
						c-0.2,0.9-0.3,1.9-0.3,2.8c0,0.9,0.1,1.8,0.3,2.6c0.4,1.7,1,3.2,1.8,4.5c0.8,1.4,1.7,2.6,2.7,3.8c1,1.2,2.1,2.2,3.2,3.2
						c-0.7-1.4-1.3-2.7-1.9-4.1c-0.6-1.4-1.1-2.7-1.5-4.1c-0.2-0.7-0.4-1.3-0.5-2c-0.1-0.7-0.2-1.3-0.2-2c0-0.6,0-1.3,0.1-1.8
						c0.1-0.6,0.3-1.1,0.5-1.6c0.4-1,1.1-1.7,1.9-2.4c0.9-0.6,1.9-1.1,3.1-1.4c1.2-0.3,2.5-0.5,3.8-0.5c1.3-0.1,2.7-0.1,4,0
						c2.7,0.2,5.5,0.6,8.3,1.2c2.8,0.6,5.6,1.3,8.4,2.1c2.8,0.8,5.6,1.7,8.4,2.6c1.4,0.5,2.8,0.9,4.2,1.4c1.4,0.5,2.8,1,4.3,1.4
						c-1.1-1-2.3-2-3.5-2.8c-1.2-0.9-2.5-1.7-3.7-2.5c-2.6-1.6-5.2-3-8-4.3c-2.8-1.2-5.7-2.3-8.6-3.1c-3-0.8-6-1.4-9.2-1.6
						C32.2,23,31.4,22.9,30.6,22.9C30.6,22.9,30.6,22.9,30.6,22.9"/>
				</defs>
				<clipPath id="SVGID_00000030452514635631422740000013470860558898592391_">
					<use xlink:href="#SVGID_00000057123222307853881960000017960568449204187281_"  style="overflow:visible;"/>
				</clipPath>
				
					<linearGradient id="SVGID_00000105391500600865623470000018062712004877492121_" gradientUnits="userSpaceOnUse" x1="-1.4786" y1="-25.3356" x2="-1.3696" y2="-25.3356" gradientTransform="matrix(167.7685 -290.5836 -290.5836 -167.7685 -7084.668 -4625.0425)">
					<stop  offset="0" style="stop-color:#C73A7D"/>
					<stop  offset="0.32" style="stop-color:#CA3678"/>
					<stop  offset="0.7076" style="stop-color:#D12969"/>
					<stop  offset="1" style="stop-color:#D91C59"/>
				</linearGradient>
				
					<polygon style="clip-path:url(#SVGID_00000030452514635631422740000013470860558898592391_);fill:url(#SVGID_00000105391500600865623470000018062712004877492121_);" points="
					4,42.1 27.8,0.9 77.1,29.3 53.3,70.6 				"/>
			</g>
			<g style="clip-path:url(#SVGID_00000157299218990326082600000012251511583902686397_);">
				<defs>
					<rect id="SVGID_00000167355371186351042380000017864830550541223849_" x="9.2" y="1" width="98.1" height="98.1"/>
				</defs>
				<clipPath id="SVGID_00000043449193875368758310000007868168589500912281_">
					<use xlink:href="#SVGID_00000167355371186351042380000017864830550541223849_"  style="overflow:visible;"/>
				</clipPath>
				<path style="clip-path:url(#SVGID_00000043449193875368758310000007868168589500912281_);fill:#231F20;" d="M39.7,80.1
					c-5.9,2.7-14.1,3.8-19.3-1c-3.1-2.9-4-7.5-3.1-11.5C20,54.3,34.9,43,47.1,38.7c1.4-0.5,2.9-1,4.4-1.3c-1,1.2-2.1,2.2-3.2,3.3
					c-3.1,3.1-6.3,6.3-9.2,9.4c-4.8,5.1-14.4,15.2-14.5,22.2C24.8,78.1,35.1,79.3,39.7,80.1"/>
				<path style="clip-path:url(#SVGID_00000043449193875368758310000007868168589500912281_);fill:#FFFFFF;" d="M39.7,80.1
					c-4.4,1.7-9.3,2.5-14,1.3c-5-1.4-8.1-5.7-8-10.9c0.1-4.4,2-8.4,4.3-11.9c6.8-9.9,18.1-17.7,29.5-21.2c-6.3,6-13,11.8-18.7,18.4
					c-3.6,4.2-9.2,11-8.9,16.6C24.4,78.7,34.7,79.5,39.7,80.1"/>
			</g>
			<g style="clip-path:url(#SVGID_00000157299218990326082600000012251511583902686397_);">
				<defs>
					<path id="SVGID_00000147218042883733699870000006653721703972944319_" d="M47.3,39c-1.4,0.6-2.7,1.3-4.1,2
						c-2.7,1.4-5.2,3-7.7,4.8c-2.5,1.8-4.8,3.8-7,5.9c-2.2,2.2-4.2,4.5-6,7.2c-0.4,0.7-0.9,1.3-1.3,2c-0.4,0.7-0.8,1.4-1.1,2.2
						c-0.7,1.5-1.3,3.1-1.6,4.8c-0.2,0.9-0.3,1.7-0.3,2.7c0,0.9,0,1.8,0.2,2.8c0.2,0.9,0.5,1.9,1,2.7c0.5,0.9,1.1,1.6,1.7,2.3
						c0.7,0.7,1.4,1.2,2.2,1.7c0.8,0.4,1.6,0.8,2.4,1c1.6,0.5,3.2,0.7,4.8,0.7c1.6,0,3.1-0.1,4.6-0.4c1.5-0.3,3-0.7,4.4-1.2
						c-1.5-0.1-3-0.2-4.4-0.4c-1.5-0.2-2.9-0.4-4.2-0.8c-0.7-0.2-1.3-0.4-2-0.6c-0.6-0.2-1.2-0.5-1.8-0.8c-0.6-0.3-1.1-0.6-1.5-1
						c-0.5-0.4-0.8-0.8-1.2-1.2c-0.6-0.9-1-1.8-1.1-2.9c-0.1-1,0.1-2.2,0.4-3.4c0.3-1.2,0.8-2.4,1.4-3.6c0.6-1.2,1.3-2.3,2.1-3.5
						c1.5-2.3,3.3-4.5,5.2-6.6c1.9-2.1,3.9-4.2,6-6.2c2.1-2,4.2-4,6.4-5.9c1.1-1,2.2-2,3.3-2.9c1.1-1,2.3-2,3.4-3
						C50.1,37.9,48.7,38.4,47.3,39"/>
				</defs>
				<clipPath id="SVGID_00000054960320910317182230000003716626111377984897_">
					<use xlink:href="#SVGID_00000147218042883733699870000006653721703972944319_"  style="overflow:visible;"/>
				</clipPath>
				
					<linearGradient id="SVGID_00000154418113583744781540000009042064714633591961_" gradientUnits="userSpaceOnUse" x1="-0.2973" y1="-23.7632" x2="-0.1883" y2="-23.7632" gradientTransform="matrix(-167.7685 -290.5836 -290.5836 167.7685 -6908.7812 3979.688)">
					<stop  offset="0" style="stop-color:#C73A7D"/>
					<stop  offset="0.32" style="stop-color:#CA3678"/>
					<stop  offset="0.7076" style="stop-color:#D12969"/>
					<stop  offset="1" style="stop-color:#D91C59"/>
				</linearGradient>
				
					<polygon style="clip-path:url(#SVGID_00000054960320910317182230000003716626111377984897_);fill:url(#SVGID_00000154418113583744781540000009042064714633591961_);" points="
					26.5,96.2 -1,48.5 43.2,23 70.8,70.7 				"/>
			</g>
			<g style="clip-path:url(#SVGID_00000157299218990326082600000012251511583902686397_);">
				<defs>
					<rect id="SVGID_00000096058994752280516770000001308330030607224210_" x="9.2" y="1" width="98.1" height="98.1"/>
				</defs>
				<clipPath id="SVGID_00000155123336151230826060000013434143581213983151_">
					<use xlink:href="#SVGID_00000096058994752280516770000001308330030607224210_"  style="overflow:visible;"/>
				</clipPath>
				<path style="clip-path:url(#SVGID_00000155123336151230826060000013434143581213983151_);fill:#231F20;" d="M75.3,81.7
					c-0.6,6.5-3.8,14.1-10.5,16.2c-4.1,1.3-8.5-0.3-11.6-3.1c-10.1-9.1-12.5-27.6-10.1-40.3c0.3-1.5,0.6-3,1.1-4.5
					c0.5,1.5,0.9,2.9,1.3,4.4c1.2,4.2,2.3,8.6,3.5,12.7c2,6.7,5.9,20.1,12,23.6C66.2,93.6,72.3,85.2,75.3,81.7"/>
				<path style="clip-path:url(#SVGID_00000155123336151230826060000013434143581213983151_);fill:#FFFFFF;" d="M75.3,81.7
					c-0.7,4.7-2.4,9.3-5.9,12.7c-3.7,3.7-9,4.2-13.4,1.5c-3.7-2.3-6.2-5.9-8.1-9.7c-5.2-10.8-6.3-24.5-3.6-36.2
					c2.1,8.5,3.8,17.2,6.6,25.4c1.8,5.2,5,13.4,9.9,16C66.5,94.2,72.3,85.7,75.3,81.7"/>
			</g>
			<g style="clip-path:url(#SVGID_00000157299218990326082600000012251511583902686397_);">
				<defs>
					<path id="SVGID_00000026882403099061673060000017764886171682044570_" d="M43.6,54.5c-0.2,1.5-0.3,3-0.3,4.5
						c-0.1,3,0,6.1,0.3,9.1c0.3,3,0.8,6.1,1.6,9c0.8,3,1.8,5.9,3.2,8.8c0.4,0.7,0.7,1.4,1.1,2.1c0.4,0.7,0.8,1.4,1.3,2.1
						c0.9,1.3,2,2.6,3.3,3.8c0.7,0.6,1.4,1.1,2.1,1.6c0.8,0.5,1.6,0.9,2.5,1.2c0.9,0.3,1.9,0.5,2.9,0.5c1,0,2-0.1,2.9-0.3
						c0.9-0.2,1.8-0.6,2.5-1.1c0.8-0.5,1.5-1,2.1-1.6c1.2-1.2,2.2-2.5,3-3.8c0.8-1.4,1.4-2.8,2-4.2c0.5-1.4,0.9-2.9,1.2-4.4
						c-0.9,1.3-1.7,2.5-2.6,3.7c-0.9,1.2-1.8,2.3-2.8,3.3c-0.5,0.5-1,1-1.5,1.4c-0.5,0.4-1,0.8-1.6,1.2c-0.5,0.3-1.1,0.6-1.6,0.8
						c-0.5,0.2-1.1,0.3-1.6,0.4c-1.1,0.1-2.1-0.1-3-0.5c-1-0.4-1.9-1.1-2.7-2c-0.9-0.9-1.6-1.9-2.4-3c-0.7-1.1-1.4-2.3-2-3.5
						c-1.2-2.5-2.2-5.1-3.1-7.8c-0.9-2.7-1.7-5.5-2.4-8.3c-0.7-2.8-1.3-5.7-1.9-8.5c-0.3-1.4-0.6-2.9-0.9-4.4
						c-0.3-1.5-0.6-2.9-0.9-4.4C44,51.5,43.7,53,43.6,54.5"/>
				</defs>
				<clipPath id="SVGID_00000152964757824273137860000016000315089954729619_">
					<use xlink:href="#SVGID_00000026882403099061673060000017764886171682044570_"  style="overflow:visible;"/>
				</clipPath>
				
					<linearGradient id="SVGID_00000054944140075012916220000008015222016534971275_" gradientUnits="userSpaceOnUse" x1="1.6484" y1="-24.0097" x2="1.7573" y2="-24.0097" gradientTransform="matrix(-335.537 0 0 335.537 631.0776 8129.7305)">
					<stop  offset="0" style="stop-color:#C73A7D"/>
					<stop  offset="0.32" style="stop-color:#CA3678"/>
					<stop  offset="0.7076" style="stop-color:#D12969"/>
					<stop  offset="1" style="stop-color:#D91C59"/>
				</linearGradient>
				
					<rect x="43.1" y="50" style="clip-path:url(#SVGID_00000152964757824273137860000016000315089954729619_);fill:url(#SVGID_00000054944140075012916220000008015222016534971275_);" width="32.2" height="47.2"/>
			</g>
			<g style="clip-path:url(#SVGID_00000157299218990326082600000012251511583902686397_);">
				<defs>
					<rect id="SVGID_00000099647619596410489930000004392480087094156176_" x="9.2" y="1" width="98.1" height="98.1"/>
				</defs>
				<clipPath id="SVGID_00000111892515735663652020000001072583828980576949_">
					<use xlink:href="#SVGID_00000099647619596410489930000004392480087094156176_"  style="overflow:visible;"/>
				</clipPath>
				<path style="clip-path:url(#SVGID_00000111892515735663652020000001072583828980576949_);fill:#231F20;" d="M94.5,51.5
					c5.3,3.7,10.4,10.3,8.8,17.2c-0.9,4.2-4.5,7.2-8.4,8.5c-13,4.2-30.1-3-40-11.5c-1.2-1-2.3-2-3.3-3.2c1.5,0.3,3,0.7,4.4,1.1
					c4.3,1.1,8.6,2.3,12.8,3.3c6.8,1.6,20.3,4.9,26.4,1.5C100.2,65.4,96,55.9,94.5,51.5"/>
				<path style="clip-path:url(#SVGID_00000111892515735663652020000001072583828980576949_);fill:#FFFFFF;" d="M94.5,51.5
					c3.7,3,6.8,6.8,8.1,11.5c1.3,5.1-0.8,9.9-5.4,12.3c-3.9,2.1-8.3,2.4-12.5,2.2c-12-0.9-24.4-6.8-33.1-15c8.4,2.5,16.7,5.3,25.3,7
					c5.4,1,14.1,2.4,18.8-0.6C100.9,65.5,96.5,56.1,94.5,51.5"/>
			</g>
			<g style="clip-path:url(#SVGID_00000157299218990326082600000012251511583902686397_);">
				<defs>
					<path id="SVGID_00000161617228942190879400000008710338069439101605_" d="M96.4,55.6c0.6,1.4,1.1,2.7,1.5,4.1
						c0.2,0.7,0.4,1.3,0.5,2c0.1,0.7,0.2,1.3,0.2,2c0,0.6,0,1.3-0.1,1.8c-0.1,0.6-0.3,1.1-0.5,1.6c-0.4,1-1.1,1.7-1.9,2.4
						c-0.9,0.6-1.9,1.1-3.1,1.4c-1.2,0.3-2.5,0.5-3.8,0.5c-1.3,0.1-2.7,0.1-4,0c-2.7-0.2-5.5-0.6-8.3-1.2c-2.8-0.6-5.6-1.3-8.4-2.1
						c-2.8-0.8-5.6-1.7-8.4-2.6c-1.4-0.5-2.8-0.9-4.2-1.4c-1.4-0.5-2.8-1-4.3-1.4c1.1,1,2.3,2,3.5,2.8c1.2,0.9,2.5,1.7,3.7,2.5
						c2.6,1.6,5.2,3,8,4.3c2.8,1.2,5.7,2.3,8.6,3.1c3,0.8,6,1.4,9.2,1.6c0.8,0,1.6,0.1,2.4,0.1c0.8,0,1.6,0,2.4-0.1
						c1.6-0.1,3.3-0.4,4.9-1c0.8-0.3,1.6-0.6,2.5-1.1c0.8-0.4,1.6-1,2.3-1.6c0.7-0.6,1.4-1.4,1.9-2.2c0.5-0.8,0.9-1.7,1.1-2.7
						c0.2-0.9,0.3-1.9,0.3-2.8c0-0.9-0.1-1.8-0.3-2.6c-0.4-1.7-1-3.2-1.8-4.5c-0.8-1.4-1.7-2.6-2.7-3.8c-1-1.2-2.1-2.2-3.2-3.2
						C95.2,52.9,95.8,54.2,96.4,55.6"/>
				</defs>
				<clipPath id="SVGID_00000028296789270564505390000007826308255567717257_">
					<use xlink:href="#SVGID_00000161617228942190879400000008710338069439101605_"  style="overflow:visible;"/>
				</clipPath>
				
					<linearGradient id="SVGID_00000137122712579456804060000017277507979591171002_" gradientUnits="userSpaceOnUse" x1="2.4128" y1="-25.817" x2="2.5217" y2="-25.817" gradientTransform="matrix(-167.7685 290.5836 290.5836 167.7685 7995.0493 3675.0427)">
					<stop  offset="0" style="stop-color:#C73A7D"/>
					<stop  offset="0.32" style="stop-color:#CA3678"/>
					<stop  offset="0.7076" style="stop-color:#D12969"/>
					<stop  offset="1" style="stop-color:#D91C59"/>
				</linearGradient>
				
					<polygon style="clip-path:url(#SVGID_00000028296789270564505390000007826308255567717257_);fill:url(#SVGID_00000137122712579456804060000017277507979591171002_);" points="
					113.6,57.9 89.8,99.1 40.5,70.7 64.3,29.4 				"/>
			</g>
			<g style="clip-path:url(#SVGID_00000157299218990326082600000012251511583902686397_);">
				<defs>
					<rect id="SVGID_00000183249438245954596800000004551848766846880388_" x="9.2" y="1" width="98.1" height="98.1"/>
				</defs>
				<clipPath id="SVGID_00000181084769111645492230000010315732846241512636_">
					<use xlink:href="#SVGID_00000183249438245954596800000004551848766846880388_"  style="overflow:visible;"/>
				</clipPath>
				<path style="clip-path:url(#SVGID_00000181084769111645492230000010315732846241512636_);fill:#231F20;" d="M78,19.9
					c5.9-2.7,14.1-3.8,19.3,1c3.1,2.9,4,7.5,3.1,11.5C97.6,45.7,82.8,57,70.5,61.3c-1.4,0.5-2.9,1-4.4,1.3c1-1.2,2.1-2.2,3.2-3.3
					c3.1-3.1,6.3-6.3,9.2-9.4c4.8-5.1,14.4-15.2,14.5-22.2C92.9,21.9,82.5,20.7,78,19.9"/>
				<path style="clip-path:url(#SVGID_00000181084769111645492230000010315732846241512636_);fill:#FFFFFF;" d="M78,19.9
					c4.4-1.7,9.3-2.5,14-1.3c5,1.4,8.1,5.7,8,10.9c-0.1,4.4-2,8.4-4.3,11.9c-6.8,9.9-18.1,17.7-29.5,21.2c6.3-6,13-11.8,18.7-18.4
					c3.6-4.2,9.2-11,8.9-16.6C93.3,21.3,82.9,20.5,78,19.9"/>
			</g>
			<g style="clip-path:url(#SVGID_00000157299218990326082600000012251511583902686397_);">
				<defs>
					<path id="SVGID_00000143598603181166242810000012497885254066649472_" d="M82.4,18.7c-1.5,0.3-3,0.7-4.4,1.2
						c1.5,0.1,3,0.2,4.4,0.4c1.5,0.2,2.9,0.4,4.2,0.8c0.7,0.2,1.3,0.4,2,0.6c0.6,0.2,1.2,0.5,1.8,0.8c0.6,0.3,1.1,0.6,1.5,1
						c0.5,0.4,0.8,0.8,1.2,1.2c0.6,0.9,1,1.8,1.1,2.9c0.1,1-0.1,2.2-0.4,3.4c-0.3,1.2-0.8,2.4-1.4,3.6c-0.6,1.2-1.3,2.3-2.1,3.5
						c-1.5,2.3-3.3,4.5-5.2,6.6c-1.9,2.1-3.9,4.2-6,6.2c-2.1,2-4.2,4-6.4,5.9c-1.1,1-2.2,2-3.3,2.9c-1.1,1-2.3,2-3.4,3
						c1.4-0.5,2.8-1,4.2-1.6c1.4-0.6,2.7-1.3,4.1-2c2.7-1.4,5.2-3,7.7-4.8c2.5-1.8,4.8-3.8,7-5.9c2.2-2.2,4.2-4.5,6-7.2
						c0.4-0.7,0.9-1.3,1.3-2c0.4-0.7,0.8-1.4,1.1-2.2c0.7-1.5,1.3-3.1,1.6-4.8c0.2-0.9,0.3-1.7,0.3-2.7c0-0.9,0-1.8-0.2-2.8
						c-0.2-0.9-0.5-1.9-1-2.7c-0.5-0.9-1.1-1.6-1.7-2.3C95.8,21,95,20.4,94.3,20c-0.8-0.4-1.6-0.8-2.4-1c-1.6-0.5-3.2-0.7-4.8-0.7
						c0,0-0.1,0-0.1,0C85.4,18.3,83.9,18.4,82.4,18.7"/>
				</defs>
				<clipPath id="SVGID_00000035509643184669930230000016700918147828763053_">
					<use xlink:href="#SVGID_00000143598603181166242810000012497885254066649472_"  style="overflow:visible;"/>
				</clipPath>
				
					<linearGradient id="SVGID_00000026872043957462158840000013302041712468504485_" gradientUnits="userSpaceOnUse" x1="1.2315" y1="-27.3739" x2="1.3404" y2="-27.3739" gradientTransform="matrix(167.7685 290.5836 290.5836 -167.7685 7819.1626 -4929.688)">
					<stop  offset="0" style="stop-color:#C73A7D"/>
					<stop  offset="0.32" style="stop-color:#CA3678"/>
					<stop  offset="0.7076" style="stop-color:#D12969"/>
					<stop  offset="1" style="stop-color:#D91C59"/>
				</linearGradient>
				
					<polygon style="clip-path:url(#SVGID_00000035509643184669930230000016700918147828763053_);fill:url(#SVGID_00000026872043957462158840000013302041712468504485_);" points="
					91.1,3.8 118.7,51.5 74.4,77 46.9,29.3 				"/>
			</g>
			<g style="clip-path:url(#SVGID_00000157299218990326082600000012251511583902686397_);">
				<defs>
					<rect id="SVGID_00000075854575866814909830000010222625647145865656_" x="9.2" y="1" width="98.1" height="98.1"/>
				</defs>
				<clipPath id="SVGID_00000103248596613509536920000004647332926237121456_">
					<use xlink:href="#SVGID_00000075854575866814909830000010222625647145865656_"  style="overflow:visible;"/>
				</clipPath>
				<path style="clip-path:url(#SVGID_00000103248596613509536920000004647332926237121456_);fill:#231F20;" d="M42.3,18.3
					c0.6-6.5,3.8-14.1,10.5-16.2c4.1-1.3,8.5,0.3,11.6,3.1c10.1,9.1,12.5,27.6,10.1,40.3c-0.3,1.5-0.6,3-1.1,4.5
					c-0.5-1.5-0.9-2.9-1.3-4.4c-1.2-4.2-2.3-8.6-3.5-12.7c-2-6.7-5.9-20.1-12-23.6C51.5,6.4,45.3,14.8,42.3,18.3"/>
				<path style="clip-path:url(#SVGID_00000103248596613509536920000004647332926237121456_);fill:#FFFFFF;" d="M42.3,18.3
					C43,13.6,44.7,9,48.2,5.6c3.7-3.7,9-4.2,13.4-1.5c3.7,2.3,6.2,5.9,8.1,9.7C75,24.7,76.1,38.4,73.4,50
					c-2.1-8.5-3.8-17.2-6.6-25.4c-1.8-5.2-5-13.4-9.9-16C51.2,5.8,45.3,14.3,42.3,18.3"/>
			</g>
			<g style="clip-path:url(#SVGID_00000157299218990326082600000012251511583902686397_);">
				<defs>
					<path id="SVGID_00000101096545211838636180000002416128773272222370_" d="M53.1,3.2c-0.9,0.2-1.8,0.6-2.5,1.1
						c-0.8,0.5-1.5,1-2.1,1.6c-1.2,1.2-2.2,2.5-3,3.8c-0.8,1.4-1.4,2.8-2,4.2c-0.5,1.4-0.9,2.9-1.2,4.4c0.9-1.3,1.7-2.5,2.6-3.7
						c0.9-1.2,1.8-2.3,2.8-3.3c0.5-0.5,1-1,1.5-1.4c0.5-0.4,1-0.8,1.6-1.2c0.5-0.3,1.1-0.6,1.6-0.8C53,7.8,53.5,7.7,54,7.6
						c1.1-0.1,2.1,0.1,3,0.5c1,0.4,1.9,1.1,2.7,2c0.9,0.9,1.6,1.9,2.4,3c0.7,1.1,1.4,2.3,2,3.5c1.2,2.5,2.2,5.1,3.1,7.8
						c0.9,2.7,1.7,5.5,2.4,8.3c0.7,2.8,1.3,5.7,1.9,8.5c0.3,1.4,0.6,2.9,0.9,4.4c0.3,1.5,0.6,2.9,0.9,4.4c0.3-1.5,0.5-3,0.7-4.5
						c0.2-1.5,0.3-3,0.3-4.5c0.1-3,0-6.1-0.3-9.1c-0.3-3-0.8-6.1-1.6-9c-0.8-3-1.8-5.9-3.2-8.8c-0.4-0.7-0.7-1.4-1.1-2.1
						c-0.4-0.7-0.8-1.4-1.3-2.1c-0.9-1.3-2-2.6-3.3-3.8c-0.7-0.6-1.4-1.1-2.1-1.6c-0.8-0.5-1.6-0.9-2.5-1.2
						c-0.9-0.3-1.9-0.5-2.9-0.5c-0.1,0-0.2,0-0.3,0C54.8,2.9,53.9,3,53.1,3.2"/>
				</defs>
				<clipPath id="SVGID_00000024693321303445737180000013518170580526169014_">
					<use xlink:href="#SVGID_00000101096545211838636180000002416128773272222370_"  style="overflow:visible;"/>
				</clipPath>
				
					<linearGradient id="SVGID_00000023996332567633837860000012412308367186940061_" gradientUnits="userSpaceOnUse" x1="-0.7142" y1="-27.1391" x2="-0.6052" y2="-27.1391" gradientTransform="matrix(335.537 0 0 -335.537 279.3036 -9079.7305)">
					<stop  offset="0" style="stop-color:#C73A7D"/>
					<stop  offset="0.32" style="stop-color:#CA3678"/>
					<stop  offset="0.7076" style="stop-color:#D12969"/>
					<stop  offset="1" style="stop-color:#D91C59"/>
				</linearGradient>
				
					<rect x="42.3" y="2.9" style="clip-path:url(#SVGID_00000024693321303445737180000013518170580526169014_);fill:url(#SVGID_00000023996332567633837860000012412308367186940061_);" width="32.2" height="47.1"/>
			</g>
			<g style="clip-path:url(#SVGID_00000157299218990326082600000012251511583902686397_);">
				<defs>
					<path id="SVGID_00000017501768081009655270000005589301878549564555_" d="M50.8,50.1c0,4.2,3.4,7.5,7.5,7.5s7.5-3.4,7.5-7.5
						c0-4.2-3.4-7.5-7.5-7.5S50.8,46,50.8,50.1"/>
				</defs>
				<clipPath id="SVGID_00000072248645066372239070000016278383151185728676_">
					<use xlink:href="#SVGID_00000017501768081009655270000005589301878549564555_"  style="overflow:visible;"/>
				</clipPath>
				
					<radialGradient id="SVGID_00000006688319479602305670000003298561825342257340_" cx="-5.6736" cy="-32.5812" r="0.109" gradientTransform="matrix(69.125 0 0 -69.125 450.5 -2202.0562)" gradientUnits="userSpaceOnUse">
					<stop  offset="0" style="stop-color:#D9176D"/>
					<stop  offset="0.1607" style="stop-color:#D91966"/>
					<stop  offset="0.5313" style="stop-color:#DA1B5C"/>
					<stop  offset="1" style="stop-color:#DA1C59"/>
				</radialGradient>
				
					<rect x="50.8" y="42.6" style="clip-path:url(#SVGID_00000072248645066372239070000016278383151185728676_);fill:url(#SVGID_00000006688319479602305670000003298561825342257340_);" width="15.1" height="15.1"/>
			</g>
			<g style="clip-path:url(#SVGID_00000157299218990326082600000012251511583902686397_);">
				<defs>
					<rect id="SVGID_00000132769858786161495850000013077591121362426500_" x="9.2" y="1" width="98.1" height="98.1"/>
				</defs>
				<clipPath id="SVGID_00000168076497907186998580000009571697055152961192_">
					<use xlink:href="#SVGID_00000132769858786161495850000013077591121362426500_"  style="overflow:visible;"/>
				</clipPath>
				
					<circle style="clip-path:url(#SVGID_00000168076497907186998580000009571697055152961192_);fill:none;stroke:#231F20;stroke-width:0.9039;stroke-miterlimit:10;" cx="58.3" cy="50.1" r="7.5"/>
				
					<ellipse transform="matrix(4.901715e-03 -1 1 4.901715e-03 7.9099 108.1817)" style="clip-path:url(#SVGID_00000168076497907186998580000009571697055152961192_);fill:none;stroke:#FFFFFF;stroke-width:0.452;stroke-miterlimit:10;" cx="58.3" cy="50.1" rx="7.2" ry="7.2"/>
			</g>
			<g style="clip-path:url(#SVGID_00000157299218990326082600000012251511583902686397_);">
				<defs>
					<rect id="SVGID_00000131336099951962263840000008071421556537133714_" x="9.2" y="1" width="98.1" height="98.1"/>
				</defs>
				<clipPath id="SVGID_00000021099865197587608960000011819830874676458646_">
					<use xlink:href="#SVGID_00000131336099951962263840000008071421556537133714_"  style="overflow:visible;"/>
				</clipPath>
			</g>
		</g>
	</g>
</g>
</svg>
