<?xml version="1.0" encoding="UTF-8"?><svg id="a" xmlns="http://www.w3.org/2000/svg" width="900" height="887.1" xmlns:xlink="http://www.w3.org/1999/xlink" viewBox="0 0 900 887.1"><defs><style>.i{fill:#fff;}.j{fill:url(#c);}.k{fill:url(#f);}.l{fill:url(#g);}.m{fill:url(#b);}.n{stroke:#fff;stroke-width:4.1px;}.n,.o{fill:none;stroke-miterlimit:10;}.p{fill:url(#h);}.q{fill:url(#d);}.r{fill:url(#e);}.o{stroke:#231f20;stroke-width:8.3px;}.s{fill:#231f20;}</style><linearGradient id="b" x1="279.3" y1="227.3" x2="614.8" y2="227.3" gradientTransform="translate(-156.5 616) rotate(-60)" gradientUnits="userSpaceOnUse"><stop offset="0" stop-color="#c83a7d"/><stop offset=".3" stop-color="#ca3577"/><stop offset=".7" stop-color="#d12969"/><stop offset="1" stop-color="#da1c59"/></linearGradient><linearGradient id="c" x1="279.3" y1="227.3" x2="614.8" y2="227.3" gradientTransform="translate(298.7 1059.5) rotate(-120)" xlink:href="#b"/><linearGradient id="d" x1="279.3" y1="227.3" x2="614.8" y2="227.3" gradientTransform="translate(910.4 887.1) rotate(-180)" xlink:href="#b"/><linearGradient id="e" x1="279.3" y1="227.3" x2="614.8" y2="227.3" gradientTransform="translate(1066.9 271.1) rotate(120)" xlink:href="#b"/><linearGradient id="f" x1="279.3" y1="227.3" x2="614.8" y2="227.3" gradientTransform="translate(611.7 -172.4) rotate(60)" xlink:href="#b"/><linearGradient id="g" x1="279.3" y1="227.3" x2="614.8" y2="227.3" gradientTransform="matrix(1, 0, 0, 1, 0, 0)" xlink:href="#b"/><radialGradient id="h" cx="450.5" cy="444.6" fx="450.5" fy="444.6" r="69.1" gradientTransform="matrix(1, 0, 0, 1, 0, 0)" gradientUnits="userSpaceOnUse"><stop offset="0" stop-color="#d9176d"/><stop offset=".2" stop-color="#d91866"/><stop offset=".5" stop-color="#d91b5c"/><stop offset="1" stop-color="#da1c59"/></radialGradient></defs><g><g><path class="s" d="M127.8,429.5c-48.7-34.2-95-94.9-80.6-158.2,8.7-38.4,41.4-65.9,77.3-77.9,118.9-38.5,276.5,27.4,366.8,105.2,10.7,9.2,21,18.8,30.6,29.4-14-3-27.5-6.5-40.8-10-39.1-10.1-78.5-21-117.2-30.4-62.4-14.4-186.7-45.1-242.6-13.4-46,27.6-7.6,115.3,6.4,155.2h0Z"/><path class="i" d="M127.8,429.5c-34-27.3-62.8-62.1-74.2-105.5-12-46.4,7.6-90.6,49.9-113.3,35.4-19.1,75.8-22.3,114.7-20.1,110,8.2,223.9,62.4,303.7,137.4-77.1-22.6-153.7-48.8-232.3-64.1-49.3-9.2-129.5-22.2-172.7,5.1-48.1,32.6-7.1,118.4,10.9,160.5h0Z"/><path class="m" d="M127.8,429.5c-10.6-9-20.5-18.8-29.6-29.5-9.1-10.7-17.4-22.3-24.6-34.9-7.1-12.6-13.1-26.4-16.6-41.6-1.8-7.6-2.9-15.6-3-23.8-.1-8.2,.7-16.8,3-25.3,2.2-8.5,5.7-16.8,10.4-24.4,4.7-7.6,10.6-14.5,17.2-20.3,6.6-5.8,13.7-10.7,21.1-14.7,7.3-4,14.9-7.2,22.5-9.7,15.2-5.1,30.4-7.8,45.4-9.1,7.5-.7,14.9-1,22.3-1,7.4,0,14.7,.2,22,.7,29.1,1.9,57.3,7.2,84.6,14.7,27.3,7.5,53.7,17.2,79.2,28.6,25.5,11.5,50.1,24.5,73.6,39.3,11.7,7.4,23.2,15.1,34.4,23.4,11.1,8.2,22,16.8,32.3,26.2-13.2-4.3-26.2-8.8-39.1-13.2-12.9-4.4-25.8-8.8-38.6-13-25.6-8.5-51.1-16.6-76.7-23.8-25.6-7.2-51.1-13.8-76.7-18.9-25.5-5.2-51.1-9.1-76.3-10.8-12.6-.8-25-1-37.1-.3-12.1,.6-23.9,2.3-34.7,5-10.8,2.8-20.7,6.9-28.6,12.5-7.8,5.6-13.9,12.7-17.8,21.6-1.9,4.5-3.5,9.4-4.3,14.7-.8,5.3-1.1,11-.9,16.8,.2,5.9,1,11.9,2,18,1,6.1,2.5,12.3,4.3,18.5,3.5,12.4,8.1,24.8,13.3,37.2,5.2,12.4,11.2,24.7,17.2,37.2Z"/></g><g><path class="s" d="M279.3,720.1c-54,25.1-129.7,34.8-177.3-9.3-28.9-26.7-36.4-68.8-28.8-105.9,26.1-122.3,162-225.7,274.5-265.1,13.3-4.7,26.8-8.8,40.8-11.8-9.6,10.6-19.3,20.5-29,30.4-28.3,28.8-57.4,57.5-84.9,86.3-43.7,46.8-132.5,139.1-132.8,203.4,1,53.6,96,64.2,137.6,72h0Z"/><path class="i" d="M279.3,720.1c-40.6,15.8-85.1,23.3-128.4,11.5-46.2-12.8-74.7-51.9-73.2-99.9,1.1-40.2,18.5-76.8,39.9-109.4,62.1-91.1,166-162.7,270.9-194.3-58.1,55.5-119.1,108.7-171.7,169.1-32.7,38.1-84,101-81.9,152.1,4.1,58,99,65.3,144.5,70.9h0Z"/><path class="j" d="M279.3,720.1c-13.1,4.7-26.5,8.3-40.4,10.8-13.8,2.6-28,3.9-42.5,3.9-14.5-.2-29.4-1.8-44.3-6.4-7.5-2.2-14.9-5.3-22.1-9.3-7.2-4-14.2-9-20.4-15.2-6.2-6.1-11.7-13.3-15.9-21.2-4.2-7.9-7.2-16.4-9-25-1.8-8.6-2.4-17.2-2.2-25.6,.2-8.4,1.2-16.5,2.8-24.3,3.2-15.7,8.5-30.2,14.8-43.9,3.2-6.8,6.6-13.4,10.3-19.9,3.7-6.4,7.6-12.6,11.6-18.7,16.2-24.2,34.9-46,55-65.9,20.1-19.9,41.7-37.9,64.4-54.3,22.7-16.3,46.3-31.1,70.8-44.1,12.3-6.4,24.7-12.5,37.4-18.1,12.7-5.5,25.6-10.6,38.8-14.9-10.3,9.3-20.7,18.3-31,27.3-10.3,9-20.5,17.9-30.6,26.9-20.2,18-40,36-59,54.6-19,18.5-37.5,37.4-54.7,56.9-17.3,19.5-33.5,39.7-47.5,60.7-7,10.5-13.4,21.2-18.9,32-5.5,10.8-10,21.8-13,32.6-3,10.8-4.4,21.4-3.5,31,.9,9.6,4,18.4,9.8,26.2,2.9,3.9,6.4,7.7,10.6,11.1,4.2,3.4,9,6.4,14.1,9.2,5.2,2.8,10.8,5.1,16.6,7.3,5.8,2.2,11.9,4,18.1,5.5,12.5,3.2,25.6,5.4,38.9,7.1,13.4,1.7,27,2.7,40.8,3.7Z"/></g><g><path class="s" d="M606.8,734.1c-5.2,59.3-34.7,129.7-96.7,148.9-37.6,11.7-77.8-2.9-106.1-28-92.8-83.7-114.5-253.1-92.3-370.2,2.6-13.9,5.8-27.6,10.2-41.2,4.4,13.6,8.1,27,11.8,40.3,10.8,38.9,21.1,78.5,32.3,116.7,18.7,61.2,54.3,184.3,109.7,216.7,46.9,26,103.6-51,131.2-83.2h0Z"/><path class="i" d="M606.8,734.1c-6.6,43.1-22.4,85.4-54.2,117-34.2,33.6-82.3,38.7-123.1,13.4-34.3-21.1-57.2-54.4-74.8-89.3-47.9-99.4-57.9-225.2-32.9-331.7,19,78.1,34.6,157.5,60.6,233.2,16.7,47.3,45.5,123.2,90.8,147,52.3,25.4,106.1-53.1,133.6-89.7h0Z"/><path class="q" d="M606.8,734.1c-2.4,13.7-6.1,27.1-10.8,40.4-4.7,13.2-10.6,26.2-17.9,38.7-7.4,12.5-16.3,24.5-27.7,35.2-5.7,5.4-12,10.3-19.1,14.5-7.1,4.2-14.9,7.8-23.4,10.1-8.4,2.3-17.4,3.5-26.3,3.1-9-.3-17.8-2-26.2-4.7-8.3-2.8-16.1-6.5-23.2-10.9-7.1-4.4-13.7-9.3-19.6-14.6-12-10.6-21.9-22.5-30.6-34.8-4.3-6.2-8.3-12.5-12.1-18.8-3.7-6.4-7.2-12.9-10.4-19.4-12.9-26.1-22.4-53.2-29.5-80.6-7.2-27.4-12-55.1-14.9-82.9-2.8-27.8-3.8-55.6-2.8-83.4,.6-13.9,1.5-27.7,3.1-41.5,1.5-13.8,3.6-27.5,6.5-41.1,2.9,13.6,5.5,27.1,8.1,40.5,2.7,13.4,5.2,26.7,8,39.9,5.5,26.5,11.2,52.6,17.8,78.4,6.5,25.7,13.6,51.1,21.9,75.9,8.3,24.7,17.7,48.8,28.8,71.5,5.6,11.3,11.6,22.2,18.3,32.3,6.6,10.2,13.9,19.6,21.7,27.6,7.9,8,16.3,14.5,25.1,18.5,8.8,4,17.9,5.7,27.6,4.6,4.8-.6,9.9-1.7,14.9-3.7,5-1.9,10-4.6,15-7.6,5-3.1,9.8-6.8,14.6-10.7,4.8-4,9.4-8.3,13.9-12.9,9-9.2,17.4-19.4,25.6-30.2,8.1-10.7,15.8-22,23.6-33.5Z"/></g><g><path class="s" d="M782.6,457.6c48.7,34.2,95,94.9,80.6,158.2-8.7,38.4-41.4,65.9-77.3,77.9-118.9,38.5-276.5-27.4-366.8-105.2-10.7-9.2-21-18.8-30.6-29.4,14,3,27.5,6.5,40.8,10,39.1,10.1,78.5,21,117.2,30.4,62.4,14.4,186.7,45.1,242.6,13.4,46-27.6,7.6-115.3-6.4-155.2h0Z"/><path class="i" d="M782.6,457.6c34,27.3,62.8,62.1,74.2,105.5,12,46.4-7.6,90.6-49.9,113.3-35.4,19.1-75.8,22.3-114.7,20.1-110-8.2-223.9-62.4-303.7-137.4,77.1,22.6,153.7,48.8,232.3,64.1,49.3,9.2,129.5,22.2,172.7-5.1,48.1-32.6,7.1-118.4-10.9-160.5h0Z"/><path class="r" d="M782.6,457.6c10.6,9,20.5,18.8,29.6,29.5,9.1,10.7,17.4,22.3,24.6,34.9,7.1,12.6,13.1,26.4,16.6,41.6,1.8,7.6,2.9,15.6,3,23.8,.1,8.2-.7,16.8-3,25.3-2.2,8.5-5.7,16.8-10.4,24.4-4.7,7.6-10.6,14.5-17.2,20.3-6.6,5.8-13.7,10.7-21.1,14.7-7.3,4-14.9,7.2-22.5,9.7-15.2,5.1-30.4,7.8-45.4,9.1-7.5,.7-14.9,1-22.3,1-7.4,0-14.7-.2-22-.7-29.1-1.9-57.3-7.2-84.6-14.7-27.3-7.5-53.7-17.2-79.2-28.6-25.5-11.5-50.1-24.5-73.6-39.3-11.7-7.4-23.2-15.1-34.4-23.4-11.1-8.2-22-16.8-32.3-26.2,13.2,4.3,26.2,8.8,39.1,13.2,12.9,4.4,25.8,8.8,38.6,13,25.6,8.5,51.1,16.6,76.7,23.8,25.6,7.2,51.1,13.8,76.7,18.9,25.5,5.2,51.1,9.1,76.3,10.8,12.6,.8,25,1,37.1,.3,12.1-.6,23.9-2.3,34.7-5,10.8-2.8,20.7-6.9,28.6-12.5,7.8-5.6,13.9-12.7,17.8-21.6,1.9-4.5,3.5-9.4,4.3-14.7,.8-5.3,1.1-11,.9-16.8-.2-5.9-1-11.9-2-18-1-6.1-2.5-12.3-4.3-18.5-3.5-12.4-8.1-24.8-13.3-37.2-5.2-12.4-11.2-24.7-17.2-37.2Z"/></g><g><path class="s" d="M631,167c54-25.1,129.7-34.8,177.3,9.3,28.9,26.7,36.4,68.8,28.8,105.9-26.1,122.3-162,225.7-274.5,265.1-13.3,4.7-26.8,8.8-40.8,11.8,9.6-10.6,19.3-20.5,29-30.4,28.3-28.8,57.4-57.5,84.9-86.3,43.7-46.8,132.5-139.1,132.8-203.4-1-53.6-96-64.2-137.6-72h0Z"/><path class="i" d="M631,167c40.6-15.8,85.1-23.3,128.4-11.5,46.2,12.8,74.7,51.9,73.2,99.9-1.1,40.2-18.5,76.8-39.9,109.4-62.1,91.1-166,162.7-270.9,194.3,58.1-55.5,119.1-108.7,171.7-169.1,32.7-38.1,84-101,81.9-152.1-4.1-58-99-65.3-144.5-70.9h0Z"/><path class="k" d="M631,167c13.1-4.7,26.5-8.3,40.4-10.8,13.8-2.6,28-3.9,42.5-3.9,14.5,.2,29.4,1.8,44.3,6.4,7.5,2.2,14.9,5.3,22.1,9.3,7.2,4,14.2,9,20.4,15.2,6.2,6.1,11.7,13.3,15.9,21.2,4.2,7.9,7.2,16.4,9,25,1.8,8.6,2.4,17.2,2.2,25.6-.2,8.4-1.2,16.5-2.8,24.3-3.2,15.7-8.5,30.2-14.8,43.9-3.2,6.8-6.6,13.4-10.3,19.9-3.7,6.4-7.6,12.6-11.6,18.7-16.2,24.2-34.9,46-55,65.9-20.1,19.9-41.7,37.9-64.4,54.3-22.7,16.3-46.3,31.1-70.8,44.1-12.3,6.4-24.7,12.5-37.4,18.1-12.7,5.5-25.6,10.6-38.8,14.9,10.3-9.3,20.7-18.3,31-27.3,10.3-9,20.5-17.9,30.6-26.9,20.2-18,40-36,59-54.6,19-18.5,37.5-37.4,54.7-56.9,17.3-19.5,33.5-39.7,47.5-60.7,7-10.5,13.4-21.2,18.9-32,5.5-10.8,10-21.8,13-32.6,3-10.8,4.4-21.4,3.5-31-.9-9.6-4-18.4-9.8-26.2-2.9-3.9-6.4-7.7-10.6-11.1-4.2-3.4-9-6.4-14.1-9.2-5.2-2.8-10.8-5.1-16.6-7.3-5.8-2.2-11.9-4-18.1-5.5-12.5-3.2-25.6-5.4-38.9-7.1-13.4-1.7-27-2.7-40.8-3.7Z"/></g><g><path class="s" d="M303.6,153c5.2-59.3,34.7-129.7,96.7-148.9,37.6-11.7,77.8,2.9,106.1,28,92.8,83.7,114.5,253.1,92.3,370.2-2.6,13.9-5.8,27.6-10.2,41.2-4.4-13.6-8.1-27-11.8-40.3-10.8-38.9-21.1-78.5-32.3-116.7-18.7-61.2-54.3-184.3-109.7-216.7-46.9-26-103.6,51-131.2,83.2h0Z"/><path class="i" d="M303.6,153c6.6-43.1,22.4-85.4,54.2-117C392.1,2.4,440.2-2.7,480.9,22.6c34.3,21.1,57.2,54.4,74.8,89.3,47.9,99.4,57.9,225.2,32.9,331.7-19-78.1-34.6-157.5-60.6-233.2-16.7-47.3-45.5-123.2-90.8-147-52.3-25.4-106.1,53.1-133.6,89.7h0Z"/><path class="l" d="M303.6,153c2.4-13.7,6.1-27.1,10.8-40.4,4.7-13.2,10.6-26.2,17.9-38.7,7.4-12.5,16.3-24.5,27.7-35.2,5.7-5.4,12-10.3,19.1-14.5,7.1-4.2,14.9-7.8,23.4-10.1,8.4-2.3,17.4-3.5,26.3-3.1,9,.3,17.8,2,26.2,4.7,8.3,2.8,16.1,6.5,23.2,10.9,7.1,4.4,13.7,9.3,19.6,14.6,12,10.6,21.9,22.5,30.6,34.8,4.3,6.2,8.3,12.5,12.1,18.8,3.7,6.4,7.2,12.9,10.4,19.4,12.9,26.1,22.4,53.2,29.5,80.6,7.2,27.4,12,55.1,14.9,82.9,2.8,27.8,3.8,55.6,2.8,83.4-.6,13.9-1.5,27.7-3.1,41.5-1.5,13.8-3.6,27.5-6.5,41.1-2.9-13.6-5.5-27.1-8.1-40.5-2.7-13.4-5.2-26.7-8-39.9-5.5-26.5-11.2-52.6-17.8-78.4-6.5-25.7-13.6-51.1-21.9-75.9-8.3-24.7-17.7-48.8-28.8-71.5-5.6-11.3-11.6-22.2-18.3-32.3-6.6-10.2-13.9-19.6-21.7-27.6-7.9-8-16.3-14.5-25.1-18.5-8.8-4-17.9-5.7-27.6-4.6-4.8,.6-9.9,1.7-14.9,3.7-5,1.9-10,4.6-15,7.6-5,3.1-9.8,6.8-14.6,10.7-4.8,4-9.4,8.3-13.9,12.9-9,9.2-17.4,19.4-25.6,30.2-8.1,10.7-15.8,22-23.6,33.5Z"/></g></g><g><circle class="p" cx="450.5" cy="444.6" r="69.1"/><circle class="o" cx="450.5" cy="444.6" r="69.1"/><circle class="n" cx="450.5" cy="444.6" r="66.4"/></g></svg>