<?xml version='1.0' encoding='us-ascii'?>
<svg height="290.70mm" viewBox="0.0 0.0 175.00 290.70" width="175.00mm" xmlns="http://www.w3.org/2000/svg" xmlns:cc="http://creativecommons.org/ns#" xmlns:dc="http://purl.org/dc/elements/1.1/" xmlns:inkscape="http://www.inkscape.org/namespaces/inkscape" xmlns:rdf="http://www.w3.org/1999/02/22-rdf-syntax-ns#" xmlns:svg="http://www.w3.org/2000/svg" xmlns:xlink="http://www.w3.org/1999/xlink">
<!--
ElectronicsBox - Closed box with screw on top and mounting holes

Created with Boxes.py (https://festi.info/boxes.py)
Creation date: 2022-07-04 20:37:41
Command line (remove spaces between dashes): boxes ElectronicsBox - -FingerJoint_angle=90.0 - -FingerJoint_style=rectangular - -FingerJoint_surroundingspaces=1.0 - -FingerJoint_edge_width=1.0 - -FingerJoint_extra_length=0.0 - -FingerJoint_finger=1.5 - -FingerJoint_play=0.0 - -FingerJoint_space=2.0 - -FingerJoint_width=1.0 - -x=58.00 - -y=75.00 - -h=15.5 - -outside=0 - -triangle=18.0 - -d1=3.0 - -d2=3.0 - -d3=3.0 - -outsidemounts=0 - -outsidemounts=1 - -holedist=7.0 - -thickness=4.6 - -format=svg - -tabs=0.0 - -debug=0 - -labels=0 - -labels=1 - -reference=100 - -inner_corners=loop - -burn=0.3
Url: http://www.festi.info/ElectronicsBox?FingerJoint_angle=90.0&FingerJoint_style=rectangular&FingerJoint_surroundingspaces=1.0&FingerJoint_edge_width=1.0&FingerJoint_extra_length=0.0&FingerJoint_finger=1.5&FingerJoint_play=0.0&FingerJoint_space=2.0&FingerJoint_width=1.0&x=58.00&y=75.00&h=15.5&outside=0&triangle=18.0&d1=3.0&d2=3.0&d3=3.0&outsidemounts=0&outsidemounts=1&holedist=7.0&thickness=4.6&format=svg&tabs=0.0&debug=0&labels=0&labels=1&reference=100&inner_corners=loop&burn=0.3&render=1
SettingsUrl: http://www.festi.info/ElectronicsBox?FingerJoint_angle=90.0&FingerJoint_style=rectangular&FingerJoint_surroundingspaces=1.0&FingerJoint_edge_width=1.0&FingerJoint_extra_length=0.0&FingerJoint_finger=1.5&FingerJoint_play=0.0&FingerJoint_space=2.0&FingerJoint_width=1.0&x=58.00&y=75.00&h=15.5&outside=0&triangle=18.0&d1=3.0&d2=3.0&d3=3.0&outsidemounts=0&outsidemounts=1&holedist=7.0&thickness=4.6&format=svg&tabs=0.0&debug=0&labels=0&labels=1&reference=100&inner_corners=loop&burn=0.3
-->
<title>ElectronicsBox</title>
<metadata>
<rdf:RDF><cc:Work>
<dc:title>Box - ElectronicsBox</dc:title>
<dc:date>2022-07-04 20:37:41</dc:date>
<dc:source>http://www.festi.info/ElectronicsBox?FingerJoint_angle=90.0&amp;FingerJoint_style=rectangular&amp;FingerJoint_surroundingspaces=1.0&amp;FingerJoint_edge_width=1.0&amp;FingerJoint_extra_length=0.0&amp;FingerJoint_finger=1.5&amp;FingerJoint_play=0.0&amp;FingerJoint_space=2.0&amp;FingerJoint_width=1.0&amp;x=58.00&amp;y=75.00&amp;h=15.5&amp;outside=0&amp;triangle=18.0&amp;d1=3.0&amp;d2=3.0&amp;d3=3.0&amp;outsidemounts=0&amp;outsidemounts=1&amp;holedist=7.0&amp;thickness=4.6&amp;format=svg&amp;tabs=0.0&amp;debug=0&amp;labels=0&amp;labels=1&amp;reference=100&amp;inner_corners=loop&amp;burn=0.3&amp;render=1</dc:source>
<dc:description>Closed box with screw on top and mounting holes

Created with Boxes.py (https://festi.info/boxes.py)
Command line: boxes ElectronicsBox --FingerJoint_angle=90.0 --FingerJoint_style=rectangular --FingerJoint_surroundingspaces=1.0 --FingerJoint_edge_width=1.0 --FingerJoint_extra_length=0.0 --FingerJoint_finger=1.5 --FingerJoint_play=0.0 --FingerJoint_space=2.0 --FingerJoint_width=1.0 --x=58.00 --y=75.00 --h=15.5 --outside=0 --triangle=18.0 --d1=3.0 --d2=3.0 --d3=3.0 --outsidemounts=0 --outsidemounts=1 --holedist=7.0 --thickness=4.6 --format=svg --tabs=0.0 --debug=0 --labels=0 --labels=1 --reference=100 --inner_corners=loop --burn=0.3
Url: http://www.festi.info/ElectronicsBox?FingerJoint_angle=90.0&amp;FingerJoint_style=rectangular&amp;FingerJoint_surroundingspaces=1.0&amp;FingerJoint_edge_width=1.0&amp;FingerJoint_extra_length=0.0&amp;FingerJoint_finger=1.5&amp;FingerJoint_play=0.0&amp;FingerJoint_space=2.0&amp;FingerJoint_width=1.0&amp;x=58.00&amp;y=75.00&amp;h=15.5&amp;outside=0&amp;triangle=18.0&amp;d1=3.0&amp;d2=3.0&amp;d3=3.0&amp;outsidemounts=0&amp;outsidemounts=1&amp;holedist=7.0&amp;thickness=4.6&amp;format=svg&amp;tabs=0.0&amp;debug=0&amp;labels=0&amp;labels=1&amp;reference=100&amp;inner_corners=loop&amp;burn=0.3&amp;render=1
SettingsUrl: http://www.festi.info/ElectronicsBox?FingerJoint_angle=90.0&amp;FingerJoint_style=rectangular&amp;FingerJoint_surroundingspaces=1.0&amp;FingerJoint_edge_width=1.0&amp;FingerJoint_extra_length=0.0&amp;FingerJoint_finger=1.5&amp;FingerJoint_play=0.0&amp;FingerJoint_space=2.0&amp;FingerJoint_width=1.0&amp;x=58.00&amp;y=75.00&amp;h=15.5&amp;outside=0&amp;triangle=18.0&amp;d1=3.0&amp;d2=3.0&amp;d3=3.0&amp;outsidemounts=0&amp;outsidemounts=1&amp;holedist=7.0&amp;thickness=4.6&amp;format=svg&amp;tabs=0.0&amp;debug=0&amp;labels=0&amp;labels=1&amp;reference=100&amp;inner_corners=loop&amp;burn=0.3
</dc:description>
</cc:Work></rdf:RDF></metadata>
<g id="p-0" style="fill:none;stroke-linecap:round;stroke-linejoin:round;">
  <path d="M 10.400 280.700 H 110.400 V 270.700 H 10.400 V 280.700 Z" stroke="rgb(0,0,0)" stroke-width="0.60" />
  <text dominant-baseline="hanging" font-size="8px" style="font-family: sans-serif ; font-weight: normal; font-style: normal; fill: rgb(255,0,0)" text-anchor="middle" transform="matrix( 1.000 0.000 0.000 1.000 60.400 271.700 )">100mm, burn:0.30mm</text>
</g>
<g id="p-1" style="fill:none;stroke-linecap:round;stroke-linejoin:round;">
  <path d="M 24.000 247.100 H 20.850 C 20.550 247.100 20.850 247.400 20.850 247.100 V 243.100 C 20.850 242.800 20.550 243.100 20.850 243.100 H 27.150 C 27.450 243.100 27.150 242.800 27.150 243.100 V 247.100 C 27.150 247.400 27.450 247.100 27.150 247.100 H 24.000 Z" stroke="rgb(0,0,255)" stroke-width="0.60" />
  <path d="M 64.000 243.100 H 67.150 C 67.450 243.100 67.150 242.800 67.150 243.100 V 247.100 C 67.150 247.400 67.450 247.100 67.150 247.100 H 60.850 C 60.550 247.100 60.850 247.400 60.850 247.100 V 243.100 C 60.850 242.800 60.550 243.100 60.850 243.100 H 64.000 Z" stroke="rgb(0,0,255)" stroke-width="0.60" />
  <text dominant-baseline="hanging" font-size="4px" style="font-family: sans-serif ; font-weight: normal; font-style: normal; fill: rgb(255,0,0)" text-anchor="middle" transform="matrix( 1.000 0.000 0.000 1.000 44.000 251.150 )">Wall 1</text><path d="M 15.000 263.200 H 24.150 C 24.450 263.200 24.150 262.900 24.150 263.200 V 267.500 C 24.150 267.666 24.284 267.800 24.450 267.800 H 31.350 C 31.516 267.800 31.650 267.666 31.650 267.500 V 263.200 C 31.650 262.900 31.350 263.200 31.650 263.200 H 40.250 C 40.550 263.200 40.250 262.900 40.250 263.200 V 267.500 C 40.250 267.666 40.384 267.800 40.550 267.800 H 47.450 C 47.616 267.800 47.750 267.666 47.750 267.500 V 263.200 C 47.750 262.900 47.450 263.200 47.750 263.200 H 56.350 C 56.650 263.200 56.350 262.900 56.350 263.200 V 267.500 C 56.350 267.666 56.484 267.800 56.650 267.800 H 63.550 C 63.716 267.800 63.850 267.666 63.850 267.500 V 263.200 C 63.850 262.900 63.550 263.200 63.850 263.200 H 73.000 H 77.600 C 77.766 263.200 77.900 263.066 77.900 262.900 V 254.000 C 77.900 253.834 77.766 253.700 77.600 253.700 H 73.300 C 73.000 253.700 73.300 254.000 73.300 253.700 V 247.400 C 73.300 247.100 73.000 247.400 73.300 247.400 H 77.600 C 77.766 247.400 77.900 247.266 77.900 247.100 V 238.200 C 77.900 238.034 77.766 237.900 77.600 237.900 H 73.000 H 15.000 H 10.400 C 10.234 237.900 10.100 238.034 10.100 238.200 V 247.100 C 10.100 247.266 10.234 247.400 10.400 247.400 H 14.700 C 15.000 247.400 14.700 247.100 14.700 247.400 V 253.700 C 14.700 254.000 15.000 253.700 14.700 253.700 H 10.400 C 10.234 253.700 10.100 253.834 10.100 254.000 V 262.900 C 10.100 263.066 10.234 263.200 10.400 263.200 H 15.000" stroke="rgb(0,0,0)" stroke-width="0.60" />
</g>
<g id="p-2" style="fill:none;stroke-linecap:round;stroke-linejoin:round;">
  <path d="M 94.100 247.100 H 90.950 C 90.650 247.100 90.950 247.400 90.950 247.100 V 243.100 C 90.950 242.800 90.650 243.100 90.950 243.100 H 97.250 C 97.550 243.100 97.250 242.800 97.250 243.100 V 247.100 C 97.250 247.400 97.550 247.100 97.250 247.100 H 94.100 Z" stroke="rgb(0,0,255)" stroke-width="0.60" />
  <path d="M 151.100 243.100 H 154.250 C 154.550 243.100 154.250 242.800 154.250 243.100 V 247.100 C 154.250 247.400 154.550 247.100 154.250 247.100 H 147.950 C 147.650 247.100 147.950 247.400 147.950 247.100 V 243.100 C 147.950 242.800 147.650 243.100 147.950 243.100 H 151.100 Z" stroke="rgb(0,0,255)" stroke-width="0.60" />
  <text dominant-baseline="hanging" font-size="4px" style="font-family: sans-serif ; font-weight: normal; font-style: normal; fill: rgb(255,0,0)" text-anchor="middle" transform="matrix( 1.000 0.000 0.000 1.000 122.600 251.150 )">Wall 2</text><path d="M 85.100 263.200 H 94.700 C 95.000 263.200 94.700 262.900 94.700 263.200 V 267.500 C 94.700 267.666 94.834 267.800 95.000 267.800 H 101.900 C 102.066 267.800 102.200 267.666 102.200 267.500 V 263.200 C 102.200 262.900 101.900 263.200 102.200 263.200 H 110.800 C 111.100 263.200 110.800 262.900 110.800 263.200 V 267.500 C 110.800 267.666 110.934 267.800 111.100 267.800 H 118.000 C 118.166 267.800 118.300 267.666 118.300 267.500 V 263.200 C 118.300 262.900 118.000 263.200 118.300 263.200 H 126.900 C 127.200 263.200 126.900 262.900 126.900 263.200 V 267.500 C 126.900 267.666 127.034 267.800 127.200 267.800 H 134.100 C 134.266 267.800 134.400 267.666 134.400 267.500 V 263.200 C 134.400 262.900 134.100 263.200 134.400 263.200 H 143.000 C 143.300 263.200 143.000 262.900 143.000 263.200 V 267.500 C 143.000 267.666 143.134 267.800 143.300 267.800 H 150.200 C 150.366 267.800 150.500 267.666 150.500 267.500 V 263.200 C 150.500 262.900 150.200 263.200 150.500 263.200 H 160.100 C 160.266 263.200 160.400 263.066 160.400 262.900 V 254.300 C 160.400 254.000 160.100 254.300 160.400 254.300 H 164.700 C 164.866 254.300 165.000 254.166 165.000 254.000 V 247.100 C 165.000 246.934 164.866 246.800 164.700 246.800 H 160.400 C 160.100 246.800 160.400 247.100 160.400 246.800 V 238.200 C 160.400 238.034 160.266 237.900 160.100 237.900 H 85.100 C 84.934 237.900 84.800 238.034 84.800 238.200 V 246.800 C 84.800 247.100 85.100 246.800 84.800 246.800 H 80.500 C 80.334 246.800 80.200 246.934 80.200 247.100 V 254.000 C 80.200 254.166 80.334 254.300 80.500 254.300 H 84.800 C 85.100 254.300 84.800 254.000 84.800 254.300 V 262.900 C 84.800 263.066 84.934 263.200 85.100 263.200" stroke="rgb(0,0,0)" stroke-width="0.60" />
</g>
<g id="p-3" style="fill:none;stroke-linecap:round;stroke-linejoin:round;">
  <path d="M 94.100 214.900 H 90.950 C 90.650 214.900 90.950 215.200 90.950 214.900 V 210.900 C 90.950 210.600 90.650 210.900 90.950 210.900 H 97.250 C 97.550 210.900 97.250 210.600 97.250 210.900 V 214.900 C 97.250 215.200 97.550 214.900 97.250 214.900 H 94.100 Z" stroke="rgb(0,0,255)" stroke-width="0.60" />
  <path d="M 151.100 210.900 H 154.250 C 154.550 210.900 154.250 210.600 154.250 210.900 V 214.900 C 154.250 215.200 154.550 214.900 154.250 214.900 H 147.950 C 147.650 214.900 147.950 215.200 147.950 214.900 V 210.900 C 147.950 210.600 147.650 210.900 147.950 210.900 H 151.100 Z" stroke="rgb(0,0,255)" stroke-width="0.60" />
  <text dominant-baseline="hanging" font-size="4px" style="font-family: sans-serif ; font-weight: normal; font-style: normal; fill: rgb(255,0,0)" text-anchor="middle" transform="matrix( 1.000 0.000 0.000 1.000 122.600 218.950 )">Wall 4</text><path d="M 85.100 231.000 H 94.700 C 95.000 231.000 94.700 230.700 94.700 231.000 V 235.300 C 94.700 235.466 94.834 235.600 95.000 235.600 H 101.900 C 102.066 235.600 102.200 235.466 102.200 235.300 V 231.000 C 102.200 230.700 101.900 231.000 102.200 231.000 H 110.800 C 111.100 231.000 110.800 230.700 110.800 231.000 V 235.300 C 110.800 235.466 110.934 235.600 111.100 235.600 H 118.000 C 118.166 235.600 118.300 235.466 118.300 235.300 V 231.000 C 118.300 230.700 118.000 231.000 118.300 231.000 H 126.900 C 127.200 231.000 126.900 230.700 126.900 231.000 V 235.300 C 126.900 235.466 127.034 235.600 127.200 235.600 H 134.100 C 134.266 235.600 134.400 235.466 134.400 235.300 V 231.000 C 134.400 230.700 134.100 231.000 134.400 231.000 H 143.000 C 143.300 231.000 143.000 230.700 143.000 231.000 V 235.300 C 143.000 235.466 143.134 235.600 143.300 235.600 H 150.200 C 150.366 235.600 150.500 235.466 150.500 235.300 V 231.000 C 150.500 230.700 150.200 231.000 150.500 231.000 H 160.100 C 160.266 231.000 160.400 230.866 160.400 230.700 V 222.100 C 160.400 221.800 160.100 222.100 160.400 222.100 H 164.700 C 164.866 222.100 165.000 221.966 165.000 221.800 V 214.900 C 165.000 214.734 164.866 214.600 164.700 214.600 H 160.400 C 160.100 214.600 160.400 214.900 160.400 214.600 V 206.000 C 160.400 205.834 160.266 205.700 160.100 205.700 H 85.100 C 84.934 205.700 84.800 205.834 84.800 206.000 V 214.600 C 84.800 214.900 85.100 214.600 84.800 214.600 H 80.500 C 80.334 214.600 80.200 214.734 80.200 214.900 V 221.800 C 80.200 221.966 80.334 222.100 80.500 222.100 H 84.800 C 85.100 222.100 84.800 221.800 84.800 222.100 V 230.700 C 84.800 230.866 84.934 231.000 85.100 231.000" stroke="rgb(0,0,0)" stroke-width="0.60" />
</g>
<g id="p-4" style="fill:none;stroke-linecap:round;stroke-linejoin:round;">
  <path d="M 24.000 214.900 H 20.850 C 20.550 214.900 20.850 215.200 20.850 214.900 V 210.900 C 20.850 210.600 20.550 210.900 20.850 210.900 H 27.150 C 27.450 210.900 27.150 210.600 27.150 210.900 V 214.900 C 27.150 215.200 27.450 214.900 27.150 214.900 H 24.000 Z" stroke="rgb(0,0,255)" stroke-width="0.60" />
  <path d="M 64.000 210.900 H 67.150 C 67.450 210.900 67.150 210.600 67.150 210.900 V 214.900 C 67.150 215.200 67.450 214.900 67.150 214.900 H 60.850 C 60.550 214.900 60.850 215.200 60.850 214.900 V 210.900 C 60.850 210.600 60.550 210.900 60.850 210.900 H 64.000 Z" stroke="rgb(0,0,255)" stroke-width="0.60" />
  <text dominant-baseline="hanging" font-size="4px" style="font-family: sans-serif ; font-weight: normal; font-style: normal; fill: rgb(255,0,0)" text-anchor="middle" transform="matrix( 1.000 0.000 0.000 1.000 44.000 218.950 )">Wall 3</text><path d="M 15.000 231.000 H 24.150 C 24.450 231.000 24.150 230.700 24.150 231.000 V 235.300 C 24.150 235.466 24.284 235.600 24.450 235.600 H 31.350 C 31.516 235.600 31.650 235.466 31.650 235.300 V 231.000 C 31.650 230.700 31.350 231.000 31.650 231.000 H 40.250 C 40.550 231.000 40.250 230.700 40.250 231.000 V 235.300 C 40.250 235.466 40.384 235.600 40.550 235.600 H 47.450 C 47.616 235.600 47.750 235.466 47.750 235.300 V 231.000 C 47.750 230.700 47.450 231.000 47.750 231.000 H 56.350 C 56.650 231.000 56.350 230.700 56.350 231.000 V 235.300 C 56.350 235.466 56.484 235.600 56.650 235.600 H 63.550 C 63.716 235.600 63.850 235.466 63.850 235.300 V 231.000 C 63.850 230.700 63.550 231.000 63.850 231.000 H 73.000 H 77.600 C 77.766 231.000 77.900 230.866 77.900 230.700 V 221.800 C 77.900 221.634 77.766 221.500 77.600 221.500 H 73.300 C 73.000 221.500 73.300 221.800 73.300 221.500 V 215.200 C 73.300 214.900 73.000 215.200 73.300 215.200 H 77.600 C 77.766 215.200 77.900 215.066 77.900 214.900 V 206.000 C 77.900 205.834 77.766 205.700 77.600 205.700 H 73.000 H 15.000 H 10.400 C 10.234 205.700 10.100 205.834 10.100 206.000 V 214.900 C 10.100 215.066 10.234 215.200 10.400 215.200 H 14.700 C 15.000 215.200 14.700 214.900 14.700 215.200 V 221.500 C 14.700 221.800 15.000 221.500 14.700 221.500 H 10.400 C 10.234 221.500 10.100 221.634 10.100 221.800 V 230.700 C 10.100 230.866 10.234 231.000 10.400 231.000 H 15.000" stroke="rgb(0,0,0)" stroke-width="0.60" />
</g>
<g id="p-5" style="fill:none;stroke-linecap:round;stroke-linejoin:round;">
  <path d="M 18.600 196.100 C 18.600 196.330 18.534 196.555 18.410 196.749 C 18.285 196.942 18.108 197.096 17.898 197.192 C 17.689 197.287 17.457 197.321 17.229 197.288 C 17.002 197.255 16.788 197.158 16.614 197.007 C 16.440 196.856 16.313 196.659 16.249 196.438 C 16.184 196.217 16.184 195.983 16.249 195.762 C 16.313 195.541 16.440 195.344 16.614 195.193 C 16.788 195.042 17.002 194.945 17.229 194.912 C 17.457 194.879 17.689 194.913 17.898 195.008 C 18.108 195.104 18.285 195.258 18.410 195.451 C 18.534 195.645 18.600 195.870 18.600 196.100 Z" stroke="rgb(0,0,255)" stroke-width="0.60" />
  <text dominant-baseline="hanging" font-size="4px" style="font-family: sans-serif ; font-weight: normal; font-style: normal; fill: rgb(255,0,0)" text-anchor="middle" transform="matrix( 1.000 0.000 0.000 1.000 58.000 159.300 )">Bottom</text><path d="M 17.400 203.400 H 29.000 H 38.450 C 38.616 203.400 38.750 203.266 38.750 203.100 V 198.800 C 38.750 198.500 38.450 198.800 38.750 198.800 H 45.050 C 45.350 198.800 45.050 198.500 45.050 198.800 V 203.100 C 45.050 203.266 45.184 203.400 45.350 203.400 H 54.550 C 54.716 203.400 54.850 203.266 54.850 203.100 V 198.800 C 54.850 198.500 54.550 198.800 54.850 198.800 H 61.150 C 61.450 198.800 61.150 198.500 61.150 198.800 V 203.100 C 61.150 203.266 61.284 203.400 61.450 203.400 H 70.650 C 70.816 203.400 70.950 203.266 70.950 203.100 V 198.800 C 70.950 198.500 70.650 198.800 70.950 198.800 H 77.250 C 77.550 198.800 77.250 198.500 77.250 198.800 V 203.100 C 77.250 203.266 77.384 203.400 77.550 203.400 H 87.000 H 98.600 C 99.881 203.400 101.140 203.063 102.250 202.422 C 103.360 201.781 104.281 200.860 104.922 199.750 C 105.563 198.640 105.900 197.381 105.900 196.100 V 125.900 C 105.900 124.619 105.563 123.360 104.922 122.250 C 104.281 121.140 103.360 120.219 102.250 119.578 C 101.140 118.937 99.881 118.600 98.600 118.600 H 87.000 H 77.550 C 77.384 118.600 77.250 118.734 77.250 118.900 V 123.200 C 77.250 123.500 77.550 123.200 77.250 123.200 H 70.950 C 70.650 123.200 70.950 123.500 70.950 123.200 V 118.900 C 70.950 118.734 70.816 118.600 70.650 118.600 H 61.450 C 61.284 118.600 61.150 118.734 61.150 118.900 V 123.200 C 61.150 123.500 61.450 123.200 61.150 123.200 H 54.850 C 54.550 123.200 54.850 123.500 54.850 123.200 V 118.900 C 54.850 118.734 54.716 118.600 54.550 118.600 H 45.350 C 45.184 118.600 45.050 118.734 45.050 118.900 V 123.200 C 45.050 123.500 45.350 123.200 45.050 123.200 H 38.750 C 38.450 123.200 38.750 123.500 38.750 123.200 V 118.900 C 38.750 118.734 38.616 118.600 38.450 118.600 H 29.000 H 17.400 C 16.119 118.600 14.860 118.937 13.750 119.578 C 12.640 120.219 11.719 121.140 11.078 122.250 C 10.437 123.360 10.100 124.619 10.100 125.900 V 196.100 C 10.100 197.381 10.437 198.640 11.078 199.750 C 11.719 200.860 12.640 201.781 13.750 202.422 C 14.860 203.063 16.119 203.400 17.400 203.400" stroke="rgb(0,0,0)" stroke-width="0.60" />
  <path d="M 98.600 194.900 C 98.830 194.900 99.055 194.966 99.249 195.090 C 99.442 195.215 99.596 195.392 99.692 195.602 C 99.787 195.811 99.821 196.043 99.788 196.271 C 99.755 196.498 99.658 196.712 99.507 196.886 C 99.356 197.060 99.159 197.187 98.938 197.251 C 98.717 197.316 98.483 197.316 98.262 197.251 C 98.041 197.187 97.844 197.060 97.693 196.886 C 97.542 196.712 97.445 196.498 97.412 196.271 C 97.379 196.043 97.413 195.811 97.508 195.602 C 97.604 195.392 97.758 195.215 97.951 195.090 C 98.145 194.966 98.370 194.900 98.600 194.900 Z" stroke="rgb(0,0,255)" stroke-width="0.60" />
  <path d="M 91.600 185.150 V 188.300 C 91.600 188.600 91.900 188.300 91.600 188.300 H 87.600 C 87.300 188.300 87.600 188.600 87.600 188.300 V 182.000 C 87.600 181.700 87.300 182.000 87.600 182.000 H 91.600 C 91.900 182.000 91.600 181.700 91.600 182.000 V 185.150 Z" stroke="rgb(0,0,255)" stroke-width="0.60" />
  <path d="M 91.600 169.050 V 172.200 C 91.600 172.500 91.900 172.200 91.600 172.200 H 87.600 C 87.300 172.200 87.600 172.500 87.600 172.200 V 165.900 C 87.600 165.600 87.300 165.900 87.600 165.900 H 91.600 C 91.900 165.900 91.600 165.600 91.600 165.900 V 169.050 Z" stroke="rgb(0,0,255)" stroke-width="0.60" />
  <path d="M 91.600 152.950 V 156.100 C 91.600 156.400 91.900 156.100 91.600 156.100 H 87.600 C 87.300 156.100 87.600 156.400 87.600 156.100 V 149.800 C 87.600 149.500 87.300 149.800 87.600 149.800 H 91.600 C 91.900 149.800 91.600 149.500 91.600 149.800 V 152.950 Z" stroke="rgb(0,0,255)" stroke-width="0.60" />
  <path d="M 91.600 136.850 V 140.000 C 91.600 140.300 91.900 140.000 91.600 140.000 H 87.600 C 87.300 140.000 87.600 140.300 87.600 140.000 V 133.700 C 87.600 133.400 87.300 133.700 87.600 133.700 H 91.600 C 91.900 133.700 91.600 133.400 91.600 133.700 V 136.850 Z" stroke="rgb(0,0,255)" stroke-width="0.60" />
  <path d="M 97.400 125.900 C 97.400 125.670 97.466 125.445 97.590 125.251 C 97.715 125.058 97.892 124.904 98.102 124.808 C 98.311 124.713 98.543 124.679 98.771 124.712 C 98.998 124.745 99.212 124.842 99.386 124.993 C 99.560 125.144 99.687 125.341 99.751 125.562 C 99.816 125.783 99.816 126.017 99.751 126.238 C 99.687 126.459 99.560 126.656 99.386 126.807 C 99.212 126.958 98.998 127.055 98.771 127.088 C 98.543 127.121 98.311 127.087 98.102 126.992 C 97.892 126.896 97.715 126.742 97.590 126.549 C 97.466 126.355 97.400 126.130 97.400 125.900 Z" stroke="rgb(0,0,255)" stroke-width="0.60" />
  <path d="M 17.400 127.100 C 17.170 127.100 16.945 127.034 16.751 126.910 C 16.558 126.785 16.404 126.608 16.308 126.398 C 16.213 126.189 16.179 125.957 16.212 125.729 C 16.245 125.502 16.342 125.288 16.493 125.114 C 16.644 124.940 16.841 124.813 17.062 124.749 C 17.283 124.684 17.517 124.684 17.738 124.749 C 17.959 124.813 18.156 124.940 18.307 125.114 C 18.458 125.288 18.555 125.502 18.588 125.729 C 18.621 125.957 18.587 126.189 18.492 126.398 C 18.396 126.608 18.242 126.785 18.049 126.910 C 17.855 127.034 17.630 127.100 17.400 127.100 Z" stroke="rgb(0,0,255)" stroke-width="0.60" />
  <path d="M 24.400 136.850 V 133.700 C 24.400 133.400 24.100 133.700 24.400 133.700 H 28.400 C 28.700 133.700 28.400 133.400 28.400 133.700 V 140.000 C 28.400 140.300 28.700 140.000 28.400 140.000 H 24.400 C 24.100 140.000 24.400 140.300 24.400 140.000 V 136.850 Z" stroke="rgb(0,0,255)" stroke-width="0.60" />
  <path d="M 24.400 152.950 V 149.800 C 24.400 149.500 24.100 149.800 24.400 149.800 H 28.400 C 28.700 149.800 28.400 149.500 28.400 149.800 V 156.100 C 28.400 156.400 28.700 156.100 28.400 156.100 H 24.400 C 24.100 156.100 24.400 156.400 24.400 156.100 V 152.950 Z" stroke="rgb(0,0,255)" stroke-width="0.60" />
  <path d="M 24.400 169.050 V 165.900 C 24.400 165.600 24.100 165.900 24.400 165.900 H 28.400 C 28.700 165.900 28.400 165.600 28.400 165.900 V 172.200 C 28.400 172.500 28.700 172.200 28.400 172.200 H 24.400 C 24.100 172.200 24.400 172.500 24.400 172.200 V 169.050 Z" stroke="rgb(0,0,255)" stroke-width="0.60" />
  <path d="M 24.400 185.150 V 182.000 C 24.400 181.700 24.100 182.000 24.400 182.000 H 28.400 C 28.700 182.000 28.400 181.700 28.400 182.000 V 188.300 C 28.400 188.600 28.700 188.300 28.400 188.300 H 24.400 C 24.100 188.300 24.400 188.600 24.400 188.300 V 185.150 Z" stroke="rgb(0,0,255)" stroke-width="0.60" />
</g>
<g id="p-6" style="fill:none;stroke-linecap:round;stroke-linejoin:round;">
  <path d="M 17.600 110.000 C 17.600 110.230 17.534 110.455 17.410 110.649 C 17.285 110.842 17.108 110.996 16.898 111.092 C 16.689 111.187 16.457 111.221 16.229 111.188 C 16.002 111.155 15.788 111.058 15.614 110.907 C 15.440 110.756 15.313 110.559 15.249 110.338 C 15.184 110.117 15.184 109.883 15.249 109.662 C 15.313 109.441 15.440 109.244 15.614 109.093 C 15.788 108.942 16.002 108.845 16.229 108.812 C 16.457 108.779 16.689 108.813 16.898 108.908 C 17.108 109.004 17.285 109.158 17.410 109.351 C 17.534 109.545 17.600 109.770 17.600 110.000 Z" stroke="rgb(0,0,255)" stroke-width="0.60" />
  <text dominant-baseline="hanging" font-size="4px" style="font-family: sans-serif ; font-weight: normal; font-style: normal; fill: rgb(255,0,0)" text-anchor="middle" transform="matrix( 1.000 0.000 0.000 1.000 39.400 76.800 )">Top</text><path d="M 10.400 116.300 H 68.400 C 68.566 116.300 68.700 116.166 68.700 116.000 V 41.000 C 68.700 40.834 68.566 40.700 68.400 40.700 H 10.400 C 10.234 40.700 10.100 40.834 10.100 41.000 V 116.000 C 10.100 116.166 10.234 116.300 10.400 116.300" stroke="rgb(0,0,0)" stroke-width="0.60" />
  <path d="M 62.400 108.800 C 62.630 108.800 62.855 108.866 63.049 108.990 C 63.242 109.115 63.396 109.292 63.492 109.502 C 63.587 109.711 63.621 109.943 63.588 110.171 C 63.555 110.398 63.458 110.612 63.307 110.786 C 63.156 110.960 62.959 111.087 62.738 111.151 C 62.517 111.216 62.283 111.216 62.062 111.151 C 61.841 111.087 61.644 110.960 61.493 110.786 C 61.342 110.612 61.245 110.398 61.212 110.171 C 61.179 109.943 61.213 109.711 61.308 109.502 C 61.404 109.292 61.558 109.115 61.751 108.990 C 61.945 108.866 62.170 108.800 62.400 108.800 Z" stroke="rgb(0,0,255)" stroke-width="0.60" />
  <path d="M 61.200 47.000 C 61.200 46.770 61.266 46.545 61.390 46.351 C 61.515 46.158 61.692 46.004 61.902 45.908 C 62.111 45.813 62.343 45.779 62.571 45.812 C 62.798 45.845 63.012 45.942 63.186 46.093 C 63.360 46.244 63.487 46.441 63.551 46.662 C 63.616 46.883 63.616 47.117 63.551 47.338 C 63.487 47.559 63.360 47.756 63.186 47.907 C 63.012 48.058 62.798 48.155 62.571 48.188 C 62.343 48.221 62.111 48.187 61.902 48.092 C 61.692 47.996 61.515 47.842 61.390 47.649 C 61.266 47.455 61.200 47.230 61.200 47.000 Z" stroke="rgb(0,0,255)" stroke-width="0.60" />
  <path d="M 16.400 48.200 C 16.170 48.200 15.945 48.134 15.751 48.010 C 15.558 47.885 15.404 47.708 15.308 47.498 C 15.213 47.289 15.179 47.057 15.212 46.829 C 15.245 46.602 15.342 46.388 15.493 46.214 C 15.644 46.040 15.841 45.913 16.062 45.849 C 16.283 45.784 16.517 45.784 16.738 45.849 C 16.959 45.913 17.156 46.040 17.307 46.214 C 17.458 46.388 17.555 46.602 17.588 46.829 C 17.621 47.057 17.587 47.289 17.492 47.498 C 17.396 47.708 17.242 47.885 17.049 48.010 C 16.855 48.134 16.630 48.200 16.400 48.200 Z" stroke="rgb(0,0,255)" stroke-width="0.60" />
</g>
<g id="p-7" style="fill:none;stroke-linecap:round;stroke-linejoin:round;">
  <path d="M 23.202 33.800 H 28.452 C 28.752 33.800 28.452 33.500 28.452 33.800 V 38.100 C 28.452 38.266 28.587 38.400 28.752 38.400 H 35.652 C 35.818 38.400 35.952 38.266 35.952 38.100 V 33.800 C 35.952 33.500 35.652 33.800 35.952 33.800 H 41.202 C 41.368 33.800 41.502 33.666 41.502 33.500 V 28.250 C 41.502 27.950 41.202 28.250 41.502 28.250 H 45.802 C 45.968 28.250 46.102 28.116 46.102 27.950 V 21.050 C 46.102 20.884 45.968 20.750 45.802 20.750 H 41.502 C 41.202 20.750 41.502 21.050 41.502 20.750 V 15.500 C 41.502 15.334 41.368 15.200 41.202 15.200 C 41.123 15.200 41.047 15.232 40.990 15.288 L 22.990 33.288 C 22.934 33.344 22.902 33.420 22.902 33.500 C 22.902 33.666 23.037 33.800 23.202 33.800 Z" stroke="rgb(0,0,0)" stroke-width="0.60" />
  <path d="M 35.202 26.300 C 35.432 26.300 35.658 26.366 35.851 26.490 C 36.045 26.615 36.198 26.792 36.294 27.002 C 36.390 27.211 36.423 27.443 36.390 27.671 C 36.357 27.898 36.260 28.112 36.109 28.286 C 35.959 28.460 35.761 28.587 35.541 28.651 C 35.320 28.716 35.085 28.716 34.864 28.651 C 34.644 28.587 34.446 28.460 34.296 28.286 C 34.145 28.112 34.047 27.898 34.015 27.671 C 33.982 27.443 34.015 27.211 34.111 27.002 C 34.206 26.792 34.360 26.615 34.554 26.490 C 34.747 26.366 34.972 26.300 35.202 26.300 Z" stroke="rgb(0,0,255)" stroke-width="0.60" />
  <path d="M 33.000 14.600 H 27.750 C 27.450 14.600 27.750 14.900 27.750 14.600 V 10.300 C 27.750 10.134 27.616 10.000 27.450 10.000 H 20.550 C 20.384 10.000 20.250 10.134 20.250 10.300 V 14.600 C 20.250 14.900 20.550 14.600 20.250 14.600 H 15.000 C 14.834 14.600 14.700 14.734 14.700 14.900 V 20.150 C 14.700 20.450 15.000 20.150 14.700 20.150 H 10.400 C 10.234 20.150 10.100 20.284 10.100 20.450 V 27.350 C 10.100 27.516 10.234 27.650 10.400 27.650 H 14.700 C 15.000 27.650 14.700 27.350 14.700 27.650 V 32.900 C 14.700 33.066 14.834 33.200 15.000 33.200 C 15.080 33.200 15.156 33.168 15.212 33.112 L 33.212 15.112 C 33.268 15.056 33.300 14.980 33.300 14.900 C 33.300 14.734 33.166 14.600 33.000 14.600 Z" stroke="rgb(0,0,0)" stroke-width="0.60" />
  <path d="M 21.000 22.100 C 20.770 22.100 20.545 22.034 20.351 21.910 C 20.158 21.785 20.004 21.608 19.908 21.398 C 19.813 21.189 19.779 20.957 19.812 20.729 C 19.845 20.502 19.942 20.288 20.093 20.114 C 20.244 19.940 20.441 19.813 20.662 19.749 C 20.883 19.684 21.117 19.684 21.338 19.749 C 21.559 19.813 21.756 19.940 21.907 20.114 C 22.058 20.288 22.155 20.502 22.188 20.729 C 22.221 20.957 22.187 21.189 22.092 21.398 C 21.996 21.608 21.842 21.785 21.649 21.910 C 21.455 22.034 21.230 22.100 21.000 22.100 Z" stroke="rgb(0,0,255)" stroke-width="0.60" />
  <path d="M 61.505 33.800 H 66.755 C 67.055 33.800 66.755 33.500 66.755 33.800 V 38.100 C 66.755 38.266 66.889 38.400 67.055 38.400 H 73.955 C 74.121 38.400 74.255 38.266 74.255 38.100 V 33.800 C 74.255 33.500 73.955 33.800 74.255 33.800 H 79.505 C 79.671 33.800 79.805 33.666 79.805 33.500 V 28.250 C 79.805 27.950 79.505 28.250 79.805 28.250 H 84.105 C 84.271 28.250 84.405 28.116 84.405 27.950 V 21.050 C 84.405 20.884 84.271 20.750 84.105 20.750 H 79.805 C 79.505 20.750 79.805 21.050 79.805 20.750 V 15.500 C 79.805 15.334 79.671 15.200 79.505 15.200 C 79.425 15.200 79.349 15.232 79.293 15.288 L 61.293 33.288 C 61.236 33.344 61.205 33.420 61.205 33.500 C 61.205 33.666 61.339 33.800 61.505 33.800 Z" stroke="rgb(0,0,0)" stroke-width="0.60" />
  <path d="M 73.505 26.300 C 73.735 26.300 73.960 26.366 74.154 26.490 C 74.347 26.615 74.501 26.792 74.596 27.002 C 74.692 27.211 74.725 27.443 74.693 27.671 C 74.660 27.898 74.562 28.112 74.412 28.286 C 74.261 28.460 74.064 28.587 73.843 28.651 C 73.622 28.716 73.388 28.716 73.167 28.651 C 72.946 28.587 72.749 28.460 72.598 28.286 C 72.447 28.112 72.350 27.898 72.317 27.671 C 72.284 27.443 72.318 27.211 72.413 27.002 C 72.509 26.792 72.663 26.615 72.856 26.490 C 73.050 26.366 73.275 26.300 73.505 26.300 Z" stroke="rgb(0,0,255)" stroke-width="0.60" />
  <path d="M 71.302 14.600 H 66.052 C 65.752 14.600 66.052 14.900 66.052 14.600 V 10.300 C 66.052 10.134 65.918 10.000 65.752 10.000 H 58.852 C 58.687 10.000 58.552 10.134 58.552 10.300 V 14.600 C 58.552 14.900 58.852 14.600 58.552 14.600 H 53.302 C 53.137 14.600 53.002 14.734 53.002 14.900 V 20.150 C 53.002 20.450 53.302 20.150 53.002 20.150 H 48.702 C 48.537 20.150 48.402 20.284 48.402 20.450 V 27.350 C 48.402 27.516 48.537 27.650 48.702 27.650 H 53.002 C 53.302 27.650 53.002 27.350 53.002 27.650 V 32.900 C 53.002 33.066 53.137 33.200 53.302 33.200 C 53.382 33.200 53.458 33.168 53.515 33.112 L 71.515 15.112 C 71.571 15.056 71.602 14.980 71.602 14.900 C 71.602 14.734 71.468 14.600 71.302 14.600 Z" stroke="rgb(0,0,0)" stroke-width="0.60" />
  <path d="M 59.302 22.100 C 59.072 22.100 58.847 22.034 58.654 21.910 C 58.460 21.785 58.306 21.608 58.211 21.398 C 58.115 21.189 58.082 20.957 58.115 20.729 C 58.147 20.502 58.245 20.288 58.396 20.114 C 58.546 19.940 58.744 19.813 58.964 19.749 C 59.185 19.684 59.420 19.684 59.641 19.749 C 59.861 19.813 60.059 19.940 60.209 20.114 C 60.360 20.288 60.457 20.502 60.490 20.729 C 60.523 20.957 60.490 21.189 60.394 21.398 C 60.298 21.608 60.145 21.785 59.951 21.910 C 59.758 22.034 59.532 22.100 59.302 22.100 Z" stroke="rgb(0,0,255)" stroke-width="0.60" />
</g>
</svg>