<?xml version="1.0" encoding="UTF-8"?><svg id="a" xmlns="http://www.w3.org/2000/svg" width="180.2mm" height="180.4mm" viewBox="0 0 510.8 511.3"><defs><style>.b{fill:none;}.b,.c{stroke:#231f20;stroke-miterlimit:10;}.c{fill:#fff;}</style></defs><g><rect class="c" x="241.1" y=".5" width="28.3" height="170.1"/><rect class="c" x="207.5" y="5.8" width="8.5" height="170.1" transform="translate(-16.3 57.9) rotate(-15)"/><rect class="c" x="156.2" y="21.9" width="28.3" height="170.1" transform="translate(-30.6 99.5) rotate(-30)"/><rect class="c" x="94.3" y="85.5" width="28.3" height="170.1" transform="translate(-93.5 179.2) rotate(-60)"/><rect class="c" x="131.8" y="51.1" width="8.5" height="170.1" transform="translate(-56.4 136.1) rotate(-45)"/><rect class="c" x="86.7" y="126.3" width="8.5" height="170.1" transform="translate(-136.7 244.5) rotate(-75)"/></g><circle class="c" cx="256" cy="200.3" r="7.1"/><circle class="c" cx="255.3" cy="255.3" r="26.9"/><circle class="c" cx="228.3" cy="207.4" r="7.1"/><circle class="c" cx="255.3" cy="255.3" r="26.9"/><circle class="c" cx="207.6" cy="228.4" r="7.1"/><circle class="c" cx="255.3" cy="255.3" r="26.9"/><circle class="b" cx="255.3" cy="255.6" r="85"/><g><rect class="c" x="71.4" y="173.4" width="28.3" height="170.1" transform="translate(-172.9 344) rotate(-90)"/><rect class="c" x="86.6" y="217" width="8.5" height="170.1" transform="translate(-177.4 467.9) rotate(-105)"/><rect class="c" x="92.8" y="258.3" width="28.3" height="170.1" transform="translate(-136.9 607.7) rotate(-120)"/><rect class="c" x="156.4" y="320.2" width="28.3" height="170.1" transform="translate(115.7 841.5) rotate(-150)"/><rect class="c" x="131.9" y="292.6" width="8.5" height="170.1" transform="translate(-34.6 741) rotate(-135)"/><rect class="c" x="207.1" y="337.7" width="8.5" height="170.1" transform="translate(306 885.8) rotate(-165)"/></g><g><rect class="c" x="241.1" y="340.7" width="28.3" height="170.1" transform="translate(510.5 851.5) rotate(180)"/><rect class="c" x="294.6" y="335.4" width="8.5" height="170.1" transform="translate(696.3 749.2) rotate(165)"/><rect class="c" x="326" y="319.3" width="28.3" height="170.1" transform="translate(836.9 584.4) rotate(150)"/><rect class="c" x="387.9" y="255.7" width="28.3" height="170.1" transform="translate(898.2 162.8) rotate(120)"/><rect class="c" x="370.2" y="290.1" width="8.5" height="170.1" transform="translate(904.5 375.6) rotate(135)"/><rect class="c" x="415.3" y="214.9" width="8.5" height="170.1" transform="translate(817.9 -27.7) rotate(105)"/></g><g><rect class="c" x="411.1" y="167.8" width="28.3" height="170.1" transform="translate(678.1 -172.4) rotate(90)"/><rect class="c" x="415.7" y="124.2" width="8.5" height="170.1" transform="translate(513.4 -250.6) rotate(75)"/><rect class="c" x="389.7" y="82.9" width="28.3" height="170.1" transform="translate(347.4 -265.8) rotate(60)"/><rect class="c" x="326.1" y="21" width="28.3" height="170.1" transform="translate(98.6 -155.9) rotate(30)"/><rect class="c" x="370.4" y="48.6" width="8.5" height="170.1" transform="translate(204.2 -225.8) rotate(45)"/><rect class="c" x="295.2" y="3.5" width="8.5" height="170.1" transform="translate(33.1 -74.5) rotate(15)"/></g><circle class="b" cx="256" cy="255.3" r="48.2"/><path class="b" d="M121.9,70.4c37.6-27.7,84.1-44.1,134.3-44.1"/><path class="b" d="M189.8,164c18.6-13.4,41.5-21.3,66.1-21.3"/><line class="b" x1="255.3" y1="26.4" x2="255.3" y2="142.7"/><line class="b" x1="121.9" y1="70.4" x2="189.8" y2="164"/></svg>