<?xml version='1.0' encoding='us-ascii'?>
<svg height="282.30mm" viewBox="0.0 0.0 164.40 282.30" width="164.40mm" xmlns="http://www.w3.org/2000/svg" xmlns:cc="http://creativecommons.org/ns#" xmlns:dc="http://purl.org/dc/elements/1.1/" xmlns:inkscape="http://www.inkscape.org/namespaces/inkscape" xmlns:rdf="http://www.w3.org/1999/02/22-rdf-syntax-ns#" xmlns:svg="http://www.w3.org/2000/svg" xmlns:xlink="http://www.w3.org/1999/xlink">
<!--
ElectronicsBox - Closed box with screw on top and mounting holes

Created with Boxes.py (https://festi.info/boxes.py)
Creation date: 2022-07-17 21:49:12
Command line (remove spaces between dashes): boxes ElectronicsBox - -FingerJoint_angle=90.0 - -FingerJoint_style=rectangular - -FingerJoint_surroundingspaces=2.0 - -FingerJoint_edge_width=1.0 - -FingerJoint_extra_length=0.0 - -FingerJoint_finger=2.0 - -FingerJoint_play=0.0 - -FingerJoint_space=2.0 - -FingerJoint_width=1.0 - -x=53.00 - -y=70.00 - -h=20.0 - -outside=0 - -triangle=18.0 - -d1=3.0 - -d2=3.0 - -d3=3.0 - -outsidemounts=0 - -outsidemounts=1 - -holedist=7.0 - -thickness=4.6 - -format=svg - -tabs=0.0 - -debug=0 - -labels=0 - -labels=1 - -reference=100 - -inner_corners=loop - -burn=0.1
Url: http://www.festi.info/ElectronicsBox?FingerJoint_angle=90.0&FingerJoint_style=rectangular&FingerJoint_surroundingspaces=2.0&FingerJoint_edge_width=1.0&FingerJoint_extra_length=0.0&FingerJoint_finger=2.0&FingerJoint_play=0.0&FingerJoint_space=2.0&FingerJoint_width=1.0&x=53.00&y=70.00&h=20.0&outside=0&triangle=18.0&d1=3.0&d2=3.0&d3=3.0&outsidemounts=0&outsidemounts=1&holedist=7.0&thickness=4.6&format=svg&tabs=0.0&debug=0&labels=0&labels=1&reference=100&inner_corners=loop&burn=0.1&render=1
SettingsUrl: http://www.festi.info/ElectronicsBox?FingerJoint_angle=90.0&FingerJoint_style=rectangular&FingerJoint_surroundingspaces=2.0&FingerJoint_edge_width=1.0&FingerJoint_extra_length=0.0&FingerJoint_finger=2.0&FingerJoint_play=0.0&FingerJoint_space=2.0&FingerJoint_width=1.0&x=53.00&y=70.00&h=20.0&outside=0&triangle=18.0&d1=3.0&d2=3.0&d3=3.0&outsidemounts=0&outsidemounts=1&holedist=7.0&thickness=4.6&format=svg&tabs=0.0&debug=0&labels=0&labels=1&reference=100&inner_corners=loop&burn=0.1
-->
<title>ElectronicsBox</title>
<metadata>
<rdf:RDF><cc:Work>
<dc:title>Box - ElectronicsBox</dc:title>
<dc:date>2022-07-17 21:49:12</dc:date>
<dc:source>http://www.festi.info/ElectronicsBox?FingerJoint_angle=90.0&amp;FingerJoint_style=rectangular&amp;FingerJoint_surroundingspaces=2.0&amp;FingerJoint_edge_width=1.0&amp;FingerJoint_extra_length=0.0&amp;FingerJoint_finger=2.0&amp;FingerJoint_play=0.0&amp;FingerJoint_space=2.0&amp;FingerJoint_width=1.0&amp;x=53.00&amp;y=70.00&amp;h=20.0&amp;outside=0&amp;triangle=18.0&amp;d1=3.0&amp;d2=3.0&amp;d3=3.0&amp;outsidemounts=0&amp;outsidemounts=1&amp;holedist=7.0&amp;thickness=4.6&amp;format=svg&amp;tabs=0.0&amp;debug=0&amp;labels=0&amp;labels=1&amp;reference=100&amp;inner_corners=loop&amp;burn=0.1&amp;render=1</dc:source>
<dc:description>Closed box with screw on top and mounting holes

Created with Boxes.py (https://festi.info/boxes.py)
Command line: boxes ElectronicsBox --FingerJoint_angle=90.0 --FingerJoint_style=rectangular --FingerJoint_surroundingspaces=2.0 --FingerJoint_edge_width=1.0 --FingerJoint_extra_length=0.0 --FingerJoint_finger=2.0 --FingerJoint_play=0.0 --FingerJoint_space=2.0 --FingerJoint_width=1.0 --x=53.00 --y=70.00 --h=20.0 --outside=0 --triangle=18.0 --d1=3.0 --d2=3.0 --d3=3.0 --outsidemounts=0 --outsidemounts=1 --holedist=7.0 --thickness=4.6 --format=svg --tabs=0.0 --debug=0 --labels=0 --labels=1 --reference=100 --inner_corners=loop --burn=0.1
Url: http://www.festi.info/ElectronicsBox?FingerJoint_angle=90.0&amp;FingerJoint_style=rectangular&amp;FingerJoint_surroundingspaces=2.0&amp;FingerJoint_edge_width=1.0&amp;FingerJoint_extra_length=0.0&amp;FingerJoint_finger=2.0&amp;FingerJoint_play=0.0&amp;FingerJoint_space=2.0&amp;FingerJoint_width=1.0&amp;x=53.00&amp;y=70.00&amp;h=20.0&amp;outside=0&amp;triangle=18.0&amp;d1=3.0&amp;d2=3.0&amp;d3=3.0&amp;outsidemounts=0&amp;outsidemounts=1&amp;holedist=7.0&amp;thickness=4.6&amp;format=svg&amp;tabs=0.0&amp;debug=0&amp;labels=0&amp;labels=1&amp;reference=100&amp;inner_corners=loop&amp;burn=0.1&amp;render=1
SettingsUrl: http://www.festi.info/ElectronicsBox?FingerJoint_angle=90.0&amp;FingerJoint_style=rectangular&amp;FingerJoint_surroundingspaces=2.0&amp;FingerJoint_edge_width=1.0&amp;FingerJoint_extra_length=0.0&amp;FingerJoint_finger=2.0&amp;FingerJoint_play=0.0&amp;FingerJoint_space=2.0&amp;FingerJoint_width=1.0&amp;x=53.00&amp;y=70.00&amp;h=20.0&amp;outside=0&amp;triangle=18.0&amp;d1=3.0&amp;d2=3.0&amp;d3=3.0&amp;outsidemounts=0&amp;outsidemounts=1&amp;holedist=7.0&amp;thickness=4.6&amp;format=svg&amp;tabs=0.0&amp;debug=0&amp;labels=0&amp;labels=1&amp;reference=100&amp;inner_corners=loop&amp;burn=0.1
</dc:description>
</cc:Work></rdf:RDF></metadata>
<g id="p-0" style="fill:none;stroke-linecap:round;stroke-linejoin:round;">
  <path d="M 10.400 272.300 H 110.400 V 262.300 H 10.400 V 272.300 Z" stroke="rgb(0,0,0)" stroke-width="0.20" />
  <text dominant-baseline="hanging" font-size="8px" style="font-family: sans-serif ; font-weight: normal; font-style: normal; fill: rgb(255,0,0)" text-anchor="middle" transform="matrix( 1.000 0.000 0.000 1.000 60.400 263.300 )">100mm, burn:0.10mm</text>
</g>
<g id="p-1" style="fill:none;stroke-linecap:round;stroke-linejoin:round;">
  <text dominant-baseline="hanging" font-size="4px" style="font-family: sans-serif ; font-weight: normal; font-style: normal; fill: rgb(255,0,0)" text-anchor="middle" transform="matrix( 1.000 0.000 0.000 1.000 41.500 240.900 )">Wall 1</text><path d="M 15.000 255.200 H 27.600 C 27.700 255.200 27.600 255.100 27.600 255.200 V 259.700 C 27.600 259.755 27.645 259.800 27.700 259.800 H 36.900 C 36.955 259.800 37.000 259.755 37.000 259.700 V 255.200 C 37.000 255.100 36.900 255.200 37.000 255.200 H 46.000 C 46.100 255.200 46.000 255.100 46.000 255.200 V 259.700 C 46.000 259.755 46.045 259.800 46.100 259.800 H 55.300 C 55.355 259.800 55.400 259.755 55.400 259.700 V 255.200 C 55.400 255.100 55.300 255.200 55.400 255.200 H 68.000 H 72.600 C 72.655 255.200 72.700 255.155 72.700 255.100 V 245.100 C 72.700 245.045 72.655 245.000 72.600 245.000 H 68.100 C 68.000 245.000 68.100 245.100 68.100 245.000 V 236.000 C 68.100 235.900 68.000 236.000 68.100 236.000 H 72.600 C 72.655 236.000 72.700 235.955 72.700 235.900 V 225.900 C 72.700 225.845 72.655 225.800 72.600 225.800 H 68.000 H 15.000 H 10.400 C 10.345 225.800 10.300 225.845 10.300 225.900 V 235.900 C 10.300 235.955 10.345 236.000 10.400 236.000 H 14.900 C 15.000 236.000 14.900 235.900 14.900 236.000 V 245.000 C 14.900 245.100 15.000 245.000 14.900 245.000 H 10.400 C 10.345 245.000 10.300 245.045 10.300 245.100 V 255.100 C 10.300 255.155 10.345 255.200 10.400 255.200 H 15.000" stroke="rgb(0,0,0)" stroke-width="0.20" />
</g>
<g id="p-2" style="fill:none;stroke-linecap:round;stroke-linejoin:round;">
  <text dominant-baseline="hanging" font-size="4px" style="font-family: sans-serif ; font-weight: normal; font-style: normal; fill: rgb(255,0,0)" text-anchor="middle" transform="matrix( 1.000 0.000 0.000 1.000 114.700 240.900 )">Wall 2</text><path d="M 79.700 255.200 H 91.600 C 91.700 255.200 91.600 255.100 91.600 255.200 V 259.700 C 91.600 259.755 91.645 259.800 91.700 259.800 H 100.900 C 100.955 259.800 101.000 259.755 101.000 259.700 V 255.200 C 101.000 255.100 100.900 255.200 101.000 255.200 H 110.000 C 110.100 255.200 110.000 255.100 110.000 255.200 V 259.700 C 110.000 259.755 110.045 259.800 110.100 259.800 H 119.300 C 119.355 259.800 119.400 259.755 119.400 259.700 V 255.200 C 119.400 255.100 119.300 255.200 119.400 255.200 H 128.400 C 128.500 255.200 128.400 255.100 128.400 255.200 V 259.700 C 128.400 259.755 128.445 259.800 128.500 259.800 H 137.700 C 137.755 259.800 137.800 259.755 137.800 259.700 V 255.200 C 137.800 255.100 137.700 255.200 137.800 255.200 H 149.700 C 149.755 255.200 149.800 255.155 149.800 255.100 V 245.200 C 149.800 245.100 149.700 245.200 149.800 245.200 H 154.300 C 154.355 245.200 154.400 245.155 154.400 245.100 V 235.900 C 154.400 235.845 154.355 235.800 154.300 235.800 H 149.800 C 149.700 235.800 149.800 235.900 149.800 235.800 V 225.900 C 149.800 225.845 149.755 225.800 149.700 225.800 H 79.700 C 79.645 225.800 79.600 225.845 79.600 225.900 V 235.800 C 79.600 235.900 79.700 235.800 79.600 235.800 H 75.100 C 75.045 235.800 75.000 235.845 75.000 235.900 V 245.100 C 75.000 245.155 75.045 245.200 75.100 245.200 H 79.600 C 79.700 245.200 79.600 245.100 79.600 245.200 V 255.100 C 79.600 255.155 79.645 255.200 79.700 255.200" stroke="rgb(0,0,0)" stroke-width="0.20" />
</g>
<g id="p-3" style="fill:none;stroke-linecap:round;stroke-linejoin:round;">
  <text dominant-baseline="hanging" font-size="4px" style="font-family: sans-serif ; font-weight: normal; font-style: normal; fill: rgb(255,0,0)" text-anchor="middle" transform="matrix( 1.000 0.000 0.000 1.000 114.700 204.600 )">Wall 4</text><path d="M 79.700 218.900 H 91.600 C 91.700 218.900 91.600 218.800 91.600 218.900 V 223.400 C 91.600 223.455 91.645 223.500 91.700 223.500 H 100.900 C 100.955 223.500 101.000 223.455 101.000 223.400 V 218.900 C 101.000 218.800 100.900 218.900 101.000 218.900 H 110.000 C 110.100 218.900 110.000 218.800 110.000 218.900 V 223.400 C 110.000 223.455 110.045 223.500 110.100 223.500 H 119.300 C 119.355 223.500 119.400 223.455 119.400 223.400 V 218.900 C 119.400 218.800 119.300 218.900 119.400 218.900 H 128.400 C 128.500 218.900 128.400 218.800 128.400 218.900 V 223.400 C 128.400 223.455 128.445 223.500 128.500 223.500 H 137.700 C 137.755 223.500 137.800 223.455 137.800 223.400 V 218.900 C 137.800 218.800 137.700 218.900 137.800 218.900 H 149.700 C 149.755 218.900 149.800 218.855 149.800 218.800 V 208.900 C 149.800 208.800 149.700 208.900 149.800 208.900 H 154.300 C 154.355 208.900 154.400 208.855 154.400 208.800 V 199.600 C 154.400 199.545 154.355 199.500 154.300 199.500 H 149.800 C 149.700 199.500 149.800 199.600 149.800 199.500 V 189.600 C 149.800 189.545 149.755 189.500 149.700 189.500 H 79.700 C 79.645 189.500 79.600 189.545 79.600 189.600 V 199.500 C 79.600 199.600 79.700 199.500 79.600 199.500 H 75.100 C 75.045 199.500 75.000 199.545 75.000 199.600 V 208.800 C 75.000 208.855 75.045 208.900 75.100 208.900 H 79.600 C 79.700 208.900 79.600 208.800 79.600 208.900 V 218.800 C 79.600 218.855 79.645 218.900 79.700 218.900" stroke="rgb(0,0,0)" stroke-width="0.20" />
</g>
<g id="p-4" style="fill:none;stroke-linecap:round;stroke-linejoin:round;">
  <text dominant-baseline="hanging" font-size="4px" style="font-family: sans-serif ; font-weight: normal; font-style: normal; fill: rgb(255,0,0)" text-anchor="middle" transform="matrix( 1.000 0.000 0.000 1.000 41.500 204.600 )">Wall 3</text><path d="M 15.000 218.900 H 27.600 C 27.700 218.900 27.600 218.800 27.600 218.900 V 223.400 C 27.600 223.455 27.645 223.500 27.700 223.500 H 36.900 C 36.955 223.500 37.000 223.455 37.000 223.400 V 218.900 C 37.000 218.800 36.900 218.900 37.000 218.900 H 46.000 C 46.100 218.900 46.000 218.800 46.000 218.900 V 223.400 C 46.000 223.455 46.045 223.500 46.100 223.500 H 55.300 C 55.355 223.500 55.400 223.455 55.400 223.400 V 218.900 C 55.400 218.800 55.300 218.900 55.400 218.900 H 68.000 H 72.600 C 72.655 218.900 72.700 218.855 72.700 218.800 V 208.800 C 72.700 208.745 72.655 208.700 72.600 208.700 H 68.100 C 68.000 208.700 68.100 208.800 68.100 208.700 V 199.700 C 68.100 199.600 68.000 199.700 68.100 199.700 H 72.600 C 72.655 199.700 72.700 199.655 72.700 199.600 V 189.600 C 72.700 189.545 72.655 189.500 72.600 189.500 H 68.000 H 15.000 H 10.400 C 10.345 189.500 10.300 189.545 10.300 189.600 V 199.600 C 10.300 199.655 10.345 199.700 10.400 199.700 H 14.900 C 15.000 199.700 14.900 199.600 14.900 199.700 V 208.700 C 14.900 208.800 15.000 208.700 14.900 208.700 H 10.400 C 10.345 208.700 10.300 208.745 10.300 208.800 V 218.800 C 10.300 218.855 10.345 218.900 10.400 218.900 H 15.000" stroke="rgb(0,0,0)" stroke-width="0.20" />
</g>
<g id="p-5" style="fill:none;stroke-linecap:round;stroke-linejoin:round;">
  <path d="M 18.800 180.100 C 18.800 180.368 18.723 180.631 18.578 180.857 C 18.433 181.083 18.226 181.262 17.982 181.373 C 17.737 181.485 17.466 181.524 17.201 181.486 C 16.935 181.448 16.686 181.334 16.483 181.158 C 16.280 180.982 16.132 180.752 16.057 180.494 C 15.981 180.237 15.981 179.963 16.057 179.706 C 16.132 179.448 16.280 179.218 16.483 179.042 C 16.686 178.866 16.935 178.752 17.201 178.714 C 17.466 178.676 17.737 178.715 17.982 178.827 C 18.226 178.938 18.433 179.117 18.578 179.343 C 18.723 179.569 18.800 179.832 18.800 180.100 Z" stroke="rgb(0,0,255)" stroke-width="0.20" />
  <text dominant-baseline="hanging" font-size="4px" style="font-family: sans-serif ; font-weight: normal; font-style: normal; fill: rgb(255,0,0)" text-anchor="middle" transform="matrix( 1.000 0.000 0.000 1.000 55.500 145.600 )">Bottom</text><path d="M 17.400 187.200 H 29.000 H 41.700 C 41.755 187.200 41.800 187.155 41.800 187.100 V 182.600 C 41.800 182.500 41.700 182.600 41.800 182.600 H 50.800 C 50.900 182.600 50.800 182.500 50.800 182.600 V 187.100 C 50.800 187.155 50.845 187.200 50.900 187.200 H 60.100 C 60.155 187.200 60.200 187.155 60.200 187.100 V 182.600 C 60.200 182.500 60.100 182.600 60.200 182.600 H 69.200 C 69.300 182.600 69.200 182.500 69.200 182.600 V 187.100 C 69.200 187.155 69.245 187.200 69.300 187.200 H 82.000 H 93.600 C 94.846 187.200 96.071 186.872 97.150 186.249 C 98.229 185.626 99.126 184.729 99.749 183.650 C 100.372 182.571 100.700 181.346 100.700 180.100 V 114.900 C 100.700 113.654 100.372 112.429 99.749 111.350 C 99.126 110.271 98.229 109.374 97.150 108.751 C 96.071 108.128 94.846 107.800 93.600 107.800 H 82.000 H 69.300 C 69.245 107.800 69.200 107.845 69.200 107.900 V 112.400 C 69.200 112.500 69.300 112.400 69.200 112.400 H 60.200 C 60.100 112.400 60.200 112.500 60.200 112.400 V 107.900 C 60.200 107.845 60.155 107.800 60.100 107.800 H 50.900 C 50.845 107.800 50.800 107.845 50.800 107.900 V 112.400 C 50.800 112.500 50.900 112.400 50.800 112.400 H 41.800 C 41.700 112.400 41.800 112.500 41.800 112.400 V 107.900 C 41.800 107.845 41.755 107.800 41.700 107.800 H 29.000 H 17.400 C 16.154 107.800 14.929 108.128 13.850 108.751 C 12.771 109.374 11.874 110.271 11.251 111.350 C 10.628 112.429 10.300 113.654 10.300 114.900 V 180.100 C 10.300 181.346 10.628 182.571 11.251 183.650 C 11.874 184.729 12.771 185.626 13.850 186.249 C 14.929 186.872 16.154 187.200 17.400 187.200" stroke="rgb(0,0,0)" stroke-width="0.20" />
  <path d="M 93.600 178.700 C 93.868 178.700 94.131 178.777 94.357 178.922 C 94.583 179.067 94.762 179.274 94.873 179.518 C 94.985 179.763 95.024 180.034 94.986 180.299 C 94.948 180.565 94.834 180.814 94.658 181.017 C 94.482 181.220 94.252 181.368 93.994 181.443 C 93.737 181.519 93.463 181.519 93.206 181.443 C 92.948 181.368 92.718 181.220 92.542 181.017 C 92.366 180.814 92.252 180.565 92.214 180.299 C 92.176 180.034 92.215 179.763 92.327 179.518 C 92.438 179.274 92.617 179.067 92.843 178.922 C 93.069 178.777 93.332 178.700 93.600 178.700 Z" stroke="rgb(0,0,255)" stroke-width="0.20" />
  <path d="M 86.600 165.900 V 170.400 C 86.600 170.500 86.700 170.400 86.600 170.400 H 82.200 C 82.100 170.400 82.200 170.500 82.200 170.400 V 161.400 C 82.200 161.300 82.100 161.400 82.200 161.400 H 86.600 C 86.700 161.400 86.600 161.300 86.600 161.400 V 165.900 Z" stroke="rgb(0,0,255)" stroke-width="0.20" />
  <path d="M 86.600 147.500 V 152.000 C 86.600 152.100 86.700 152.000 86.600 152.000 H 82.200 C 82.100 152.000 82.200 152.100 82.200 152.000 V 143.000 C 82.200 142.900 82.100 143.000 82.200 143.000 H 86.600 C 86.700 143.000 86.600 142.900 86.600 143.000 V 147.500 Z" stroke="rgb(0,0,255)" stroke-width="0.20" />
  <path d="M 86.600 129.100 V 133.600 C 86.600 133.700 86.700 133.600 86.600 133.600 H 82.200 C 82.100 133.600 82.200 133.700 82.200 133.600 V 124.600 C 82.200 124.500 82.100 124.600 82.200 124.600 H 86.600 C 86.700 124.600 86.600 124.500 86.600 124.600 V 129.100 Z" stroke="rgb(0,0,255)" stroke-width="0.20" />
  <path d="M 92.200 114.900 C 92.200 114.632 92.277 114.369 92.422 114.143 C 92.567 113.917 92.774 113.738 93.018 113.627 C 93.263 113.515 93.534 113.476 93.799 113.514 C 94.065 113.552 94.314 113.666 94.517 113.842 C 94.720 114.018 94.868 114.248 94.943 114.506 C 95.019 114.763 95.019 115.037 94.943 115.294 C 94.868 115.552 94.720 115.782 94.517 115.958 C 94.314 116.134 94.065 116.248 93.799 116.286 C 93.534 116.324 93.263 116.285 93.018 116.173 C 92.774 116.062 92.567 115.883 92.422 115.657 C 92.277 115.431 92.200 115.168 92.200 114.900 Z" stroke="rgb(0,0,255)" stroke-width="0.20" />
  <path d="M 17.400 116.300 C 17.132 116.300 16.869 116.223 16.643 116.078 C 16.417 115.933 16.238 115.726 16.127 115.482 C 16.015 115.237 15.976 114.966 16.014 114.701 C 16.052 114.435 16.166 114.186 16.342 113.983 C 16.518 113.780 16.748 113.632 17.006 113.557 C 17.263 113.481 17.537 113.481 17.794 113.557 C 18.052 113.632 18.282 113.780 18.458 113.983 C 18.634 114.186 18.748 114.435 18.786 114.701 C 18.824 114.966 18.785 115.237 18.673 115.482 C 18.562 115.726 18.383 115.933 18.157 116.078 C 17.931 116.223 17.668 116.300 17.400 116.300 Z" stroke="rgb(0,0,255)" stroke-width="0.20" />
  <path d="M 24.400 129.100 V 124.600 C 24.400 124.500 24.300 124.600 24.400 124.600 H 28.800 C 28.900 124.600 28.800 124.500 28.800 124.600 V 133.600 C 28.800 133.700 28.900 133.600 28.800 133.600 H 24.400 C 24.300 133.600 24.400 133.700 24.400 133.600 V 129.100 Z" stroke="rgb(0,0,255)" stroke-width="0.20" />
  <path d="M 24.400 147.500 V 143.000 C 24.400 142.900 24.300 143.000 24.400 143.000 H 28.800 C 28.900 143.000 28.800 142.900 28.800 143.000 V 152.000 C 28.800 152.100 28.900 152.000 28.800 152.000 H 24.400 C 24.300 152.000 24.400 152.100 24.400 152.000 V 147.500 Z" stroke="rgb(0,0,255)" stroke-width="0.20" />
  <path d="M 24.400 165.900 V 161.400 C 24.400 161.300 24.300 161.400 24.400 161.400 H 28.800 C 28.900 161.400 28.800 161.300 28.800 161.400 V 170.400 C 28.800 170.500 28.900 170.400 28.800 170.400 H 24.400 C 24.300 170.400 24.400 170.500 24.400 170.400 V 165.900 Z" stroke="rgb(0,0,255)" stroke-width="0.20" />
</g>
<g id="p-6" style="fill:none;stroke-linecap:round;stroke-linejoin:round;">
  <path d="M 17.800 99.400 C 17.800 99.668 17.723 99.931 17.578 100.157 C 17.433 100.383 17.226 100.562 16.982 100.673 C 16.737 100.785 16.466 100.824 16.201 100.786 C 15.935 100.748 15.686 100.634 15.483 100.458 C 15.280 100.282 15.132 100.052 15.057 99.794 C 14.981 99.537 14.981 99.263 15.057 99.006 C 15.132 98.748 15.280 98.518 15.483 98.342 C 15.686 98.166 15.935 98.052 16.201 98.014 C 16.466 97.976 16.737 98.015 16.982 98.127 C 17.226 98.238 17.433 98.417 17.578 98.643 C 17.723 98.869 17.800 99.132 17.800 99.400 Z" stroke="rgb(0,0,255)" stroke-width="0.20" />
  <text dominant-baseline="hanging" font-size="4px" style="font-family: sans-serif ; font-weight: normal; font-style: normal; fill: rgb(255,0,0)" text-anchor="middle" transform="matrix( 1.000 0.000 0.000 1.000 36.900 68.500 )">Top</text><path d="M 10.400 105.500 H 63.400 C 63.455 105.500 63.500 105.455 63.500 105.400 V 35.400 C 63.500 35.345 63.455 35.300 63.400 35.300 H 10.400 C 10.345 35.300 10.300 35.345 10.300 35.400 V 105.400 C 10.300 105.455 10.345 105.500 10.400 105.500" stroke="rgb(0,0,0)" stroke-width="0.20" />
  <path d="M 57.400 98.000 C 57.668 98.000 57.931 98.077 58.157 98.222 C 58.383 98.367 58.562 98.574 58.673 98.818 C 58.785 99.063 58.824 99.334 58.786 99.599 C 58.748 99.865 58.634 100.114 58.458 100.317 C 58.282 100.520 58.052 100.668 57.794 100.743 C 57.537 100.819 57.263 100.819 57.006 100.743 C 56.748 100.668 56.518 100.520 56.342 100.317 C 56.166 100.114 56.052 99.865 56.014 99.599 C 55.976 99.334 56.015 99.063 56.127 98.818 C 56.238 98.574 56.417 98.367 56.643 98.222 C 56.869 98.077 57.132 98.000 57.400 98.000 Z" stroke="rgb(0,0,255)" stroke-width="0.20" />
  <path d="M 56.000 41.400 C 56.000 41.132 56.077 40.869 56.222 40.643 C 56.367 40.417 56.574 40.238 56.818 40.127 C 57.063 40.015 57.334 39.976 57.599 40.014 C 57.865 40.052 58.114 40.166 58.317 40.342 C 58.520 40.518 58.668 40.748 58.743 41.006 C 58.819 41.263 58.819 41.537 58.743 41.794 C 58.668 42.052 58.520 42.282 58.317 42.458 C 58.114 42.634 57.865 42.748 57.599 42.786 C 57.334 42.824 57.063 42.785 56.818 42.673 C 56.574 42.562 56.367 42.383 56.222 42.157 C 56.077 41.931 56.000 41.668 56.000 41.400 Z" stroke="rgb(0,0,255)" stroke-width="0.20" />
  <path d="M 16.400 42.800 C 16.132 42.800 15.869 42.723 15.643 42.578 C 15.417 42.433 15.238 42.226 15.127 41.982 C 15.015 41.737 14.976 41.466 15.014 41.201 C 15.052 40.935 15.166 40.686 15.342 40.483 C 15.518 40.280 15.748 40.132 16.006 40.057 C 16.263 39.981 16.537 39.981 16.794 40.057 C 17.052 40.132 17.282 40.280 17.458 40.483 C 17.634 40.686 17.748 40.935 17.786 41.201 C 17.824 41.466 17.785 41.737 17.673 41.982 C 17.562 42.226 17.383 42.433 17.157 42.578 C 16.931 42.723 16.668 42.800 16.400 42.800 Z" stroke="rgb(0,0,255)" stroke-width="0.20" />
</g>
<g id="p-7" style="fill:none;stroke-linecap:round;stroke-linejoin:round;">
  <path d="M 22.071 28.400 H 31.071 H 40.071 C 40.126 28.400 40.171 28.355 40.171 28.300 V 19.300 V 10.300 C 40.171 10.245 40.126 10.200 40.071 10.200 C 40.045 10.200 40.019 10.211 40.000 10.229 L 22.000 28.229 C 21.982 28.248 21.971 28.273 21.971 28.300 C 21.971 28.355 22.016 28.400 22.071 28.400 Z" stroke="rgb(0,0,0)" stroke-width="0.20" />
  <path d="M 34.071 20.900 C 34.339 20.900 34.602 20.977 34.828 21.122 C 35.054 21.267 35.233 21.474 35.345 21.718 C 35.456 21.963 35.495 22.234 35.457 22.499 C 35.419 22.765 35.305 23.014 35.129 23.217 C 34.953 23.420 34.723 23.568 34.465 23.643 C 34.208 23.719 33.934 23.719 33.677 23.643 C 33.419 23.568 33.189 23.420 33.013 23.217 C 32.837 23.014 32.724 22.765 32.685 22.499 C 32.647 22.234 32.686 21.963 32.798 21.718 C 32.909 21.474 33.088 21.267 33.314 21.122 C 33.540 20.977 33.803 20.900 34.071 20.900 Z" stroke="rgb(0,0,255)" stroke-width="0.20" />
  <path d="M 33.000 10.000 H 24.000 H 15.000 C 14.945 10.000 14.900 10.045 14.900 10.100 V 19.100 V 28.100 C 14.900 28.155 14.945 28.200 15.000 28.200 C 15.027 28.200 15.052 28.189 15.071 28.171 L 33.071 10.171 C 33.089 10.152 33.100 10.127 33.100 10.100 C 33.100 10.045 33.055 10.000 33.000 10.000 Z" stroke="rgb(0,0,0)" stroke-width="0.20" />
  <path d="M 21.000 17.500 C 20.732 17.500 20.469 17.423 20.243 17.278 C 20.017 17.133 19.838 16.926 19.727 16.682 C 19.615 16.437 19.576 16.166 19.614 15.901 C 19.652 15.635 19.766 15.386 19.942 15.183 C 20.118 14.980 20.348 14.832 20.606 14.757 C 20.863 14.681 21.137 14.681 21.394 14.757 C 21.652 14.832 21.882 14.980 22.058 15.183 C 22.234 15.386 22.348 15.635 22.386 15.901 C 22.424 16.166 22.385 16.437 22.273 16.682 C 22.162 16.926 21.983 17.133 21.757 17.278 C 21.531 17.423 21.268 17.500 21.000 17.500 Z" stroke="rgb(0,0,255)" stroke-width="0.20" />
  <path d="M 58.842 28.400 H 67.842 H 76.842 C 76.897 28.400 76.942 28.355 76.942 28.300 V 19.300 V 10.300 C 76.942 10.245 76.897 10.200 76.842 10.200 C 76.816 10.200 76.790 10.211 76.771 10.229 L 58.771 28.229 C 58.753 28.248 58.742 28.273 58.742 28.300 C 58.742 28.355 58.787 28.400 58.842 28.400 Z" stroke="rgb(0,0,0)" stroke-width="0.20" />
  <path d="M 70.842 20.900 C 71.111 20.900 71.373 20.977 71.599 21.122 C 71.825 21.267 72.004 21.474 72.116 21.718 C 72.227 21.963 72.266 22.234 72.228 22.499 C 72.190 22.765 72.076 23.014 71.900 23.217 C 71.724 23.420 71.494 23.568 71.237 23.643 C 70.979 23.719 70.705 23.719 70.448 23.643 C 70.190 23.568 69.960 23.420 69.784 23.217 C 69.608 23.014 69.495 22.765 69.456 22.499 C 69.418 22.234 69.457 21.963 69.569 21.718 C 69.680 21.474 69.859 21.267 70.085 21.122 C 70.311 20.977 70.574 20.900 70.842 20.900 Z" stroke="rgb(0,0,255)" stroke-width="0.20" />
  <path d="M 69.771 10.000 H 60.771 H 51.771 C 51.716 10.000 51.671 10.045 51.671 10.100 V 19.100 V 28.100 C 51.671 28.155 51.716 28.200 51.771 28.200 C 51.798 28.200 51.823 28.189 51.842 28.171 L 69.842 10.171 C 69.861 10.152 69.871 10.127 69.871 10.100 C 69.871 10.045 69.826 10.000 69.771 10.000 Z" stroke="rgb(0,0,0)" stroke-width="0.20" />
  <path d="M 57.771 17.500 C 57.503 17.500 57.240 17.423 57.014 17.278 C 56.788 17.133 56.609 16.926 56.498 16.682 C 56.386 16.437 56.347 16.166 56.385 15.901 C 56.424 15.635 56.537 15.386 56.713 15.183 C 56.889 14.980 57.119 14.832 57.377 14.757 C 57.634 14.681 57.908 14.681 58.165 14.757 C 58.423 14.832 58.653 14.980 58.829 15.183 C 59.005 15.386 59.119 15.635 59.157 15.901 C 59.195 16.166 59.156 16.437 59.045 16.682 C 58.933 16.926 58.754 17.133 58.528 17.278 C 58.302 17.423 58.039 17.500 57.771 17.500 Z" stroke="rgb(0,0,255)" stroke-width="0.20" />
</g>
</svg>