<?xml version="1.0" encoding="UTF-8"?><svg id="a" xmlns="http://www.w3.org/2000/svg" width="558.4" height="652.5" viewBox="0 0 558.4 652.5"><defs><style>.b{stroke:#231f20;}.b,.c,.d,.e,.f,.g,.h,.i,.j,.k,.l,.m,.n,.o,.p,.q{stroke-miterlimit:10;}.b,.c,.i,.j,.k,.l,.m,.o,.p{fill:none;}.r,.s,.e,.h,.q{fill:#fff;}.c,.e,.g,.m,.o{stroke:#00a651;}.t{letter-spacing:0em;}.u{letter-spacing:0em;}.v{letter-spacing:0em;}.d,.h,.i,.l{stroke:#ed1c24;}.d,.w{fill:#ed1c24;}.s,.x{font-size:8px;}.s,.x,.y{font-family:MyriadPro-Regular, Myriad Pro;}.a`{letter-spacing:0em;}.aa{letter-spacing:0em;}.f,.ab{fill:#2e3192;}.f,.k,.n,.p,.q{stroke:#2e3192;}.ac{letter-spacing:0em;}.ad{letter-spacing:0em;}.g,.ae{fill:#00a651;}.x,.y,.n,.af{fill:#231f20;}.ag{letter-spacing:0em;}.y{font-size:10px;}.j{stroke:#00aeef;}.k{stroke-dasharray:0 0 4 4;}.l{stroke-dasharray:0 0 4 4;}.m{stroke-dasharray:0 0 4 4;}.ah{letter-spacing:0em;}.ai{letter-spacing:0em;}.n{stroke-width:2px;}.aj{letter-spacing:0em;}.o{stroke-dasharray:0 0 4 4;}.ak{letter-spacing:0em;}.al{letter-spacing:0em;}.am{letter-spacing:0em;}.an{letter-spacing:0em;}.ao{letter-spacing:0em;}.ap{letter-spacing:0em;}</style></defs><g><path class="h" d="M231.1,293.6l26.4,.5c3.2,0,5.9,3,6.4,6.9l5.1,42.7,2.5,20.6c.6,5-2.6,9.5-6.7,9.5l-46.3-.9c-4.2,0-7.3-5-6.3-10l12.3-62.9c.7-3.8,3.5-6.4,6.6-6.3Z"/><path class="h" d="M192.4,180l-13.7,22.6c-1.7,2.8-5.5,3.6-9.2,2.1l-39.5-16.9-19.1-8.2c-4.6-2-7-7-4.8-10.6l24-39.7c2.2-3.6,7.9-3.8,11.8-.4l48.4,42.1c2.9,2.5,3.8,6.2,2.2,8.9Z"/><path class="h" d="M310.1,203.3l-12.8-23.2c-1.6-2.8-.4-6.6,2.8-9l34.4-25.8,16.6-12.5c4-3,9.6-2.5,11.5,1.1l22.4,40.6c2,3.7-.7,8.8-5.6,10.5l-60.6,20.8c-3.6,1.2-7.3,.2-8.8-2.6Z"/></g><g><path class="q" d="M274.9,282.4l20.6-16.6c2.5-2,6.5-1.5,9.4,1.2l31.4,29.4,15.2,14.2c3.7,3.5,4.1,9,.9,11.6l-36.1,29.1c-3.3,2.7-8.8,.9-11.3-3.7l-31-56.1c-1.9-3.3-1.4-7.1,1-9.1Z"/><path class="q" d="M180.1,223.5l4.1,26.1c.5,3.2-1.9,6.4-5.7,7.5l-41.2,12.5-19.9,6c-4.8,1.5-9.8-.9-10.5-5l-7.2-45.8c-.7-4.2,3.6-8,8.8-7.9l64.1,1.2c3.8,0,6.9,2.3,7.4,5.4Z"/><path class="q" d="M278.5,170.9l-24.7-9.5c-3-1.2-4.6-4.8-3.7-8.7l9.8-41.9,4.7-20.2c1.1-4.9,5.7-8.1,9.6-6.6l43.2,16.7c3.9,1.5,5.1,7.2,2.5,11.6l-33.1,54.9c-2,3.3-5.5,4.8-8.4,3.7Z"/></g><g><path class="e" d="M307.3,250.8l5.1-25.9c.6-3.2,4-5.3,7.9-5.1l42.9,2.4,20.7,1.1c5,.3,8.9,4.2,8.1,8.3l-8.9,45.5c-.8,4.1-6.1,6.3-11,4.5l-59.8-23c-3.6-1.4-5.7-4.5-5.1-7.6Z"/><path class="e" d="M191.3,267.4l19.9,17.4c2.4,2.1,2.6,6.1,.5,9.4l-23.5,36-11.4,17.4c-2.8,4.2-8.1,5.6-11.2,2.9l-34.9-30.5c-3.2-2.8-2.4-8.5,1.6-11.7l49.9-40.3c3-2.4,6.8-2.7,9.1-.6Z"/><path class="e" d="M234.9,158.7l-25,8.6c-3.1,1-6.6-.8-8.4-4.3l-19.4-38.4-9.4-18.5c-2.3-4.5-.8-9.9,3.1-11.2l43.8-15c4-1.4,8.5,2.2,9.3,7.3l10,63.3c.6,3.8-1.1,7.2-4,8.2Z"/></g><g><circle class="i" cx="244.5" cy="225.6" r="160"/><circle class="l" cx="244.5" cy="225.6" r="165"/></g><g><circle class="c" cx="244.5" cy="225.6" r="179.4"/><circle class="m" cx="244.5" cy="225.6" r="185"/></g><g><circle class="p" cx="244.5" cy="225.6" r="193.9"/><circle class="k" cx="244.5" cy="225.6" r="200"/></g><line class="i" x1="231.6" y1="373.8" x2="231.5" y2="385.1"/><line class="i" x1="253.7" y1="373.8" x2="253.7" y2="390.4"/><line class="p" x1="325.7" y1="343.8" x2="359.1" y2="382.1"/><line class="p" x1="342.4" y1="330.2" x2="378.8" y2="373.8"/><line class="c" x1="384.5" y1="267.1" x2="417.3" y2="273.9"/><line class="c" x1="389.8" y1="247.3" x2="427.3" y2="254.5"/><line class="i" x1="377.9" y1="164" x2="389.8" y2="158.5"/><line class="i" x1="370.4" y1="148" x2="386" y2="140.7"/><line class="p" x1="307.3" y1="97.2" x2="329.8" y2="51.4"/><line class="p" x1="282.9" y1="87.3" x2="304" y2="34.6"/><line class="c" x1="208.5" y1="84" x2="197.4" y2="52.5"/><line class="c" x1="187.3" y1="90.6" x2="170.4" y2="56.1"/><line class="i" x1="125.7" y1="137.2" x2="115.7" y2="130.8"/><line class="i" x1="114.9" y1="153.7" x2="100.9" y2="144.3"/><line class="p" x1="101.7" y1="234.6" x2="51.1" y2="240.3"/><line class="p" x1="105.5" y1="261.4" x2="49.6" y2="270.5"/><line class="c" x1="140.8" y1="328.7" x2="117.2" y2="352"/><line class="c" x1="153.9" y1="340.4" x2="126.1" y2="367.8"/><g><text class="y" transform="translate(264.6 347.6) rotate(-180)"><tspan class="ag" x="0" y="0">M</tspan><tspan class="u" x="8.1" y="0">a</tspan><tspan class="ac" x="12.9" y="0">g</tspan><tspan x="18.4" y="0">netic</tspan><tspan class="ap" x="11.6" y="12">C</tspan><tspan class="u" x="17.3" y="12">oil</tspan></text><text class="y" transform="translate(180.9 331.4) rotate(-140)"><tspan class="ag" x="0" y="0">M</tspan><tspan class="u" x="8.1" y="0">a</tspan><tspan class="ac" x="12.9" y="0">g</tspan><tspan x="18.4" y="0">netic</tspan><tspan class="ap" x="11.6" y="12">C</tspan><tspan class="u" x="17.3" y="12">oil</tspan></text><text class="y" transform="translate(127.2 265.2) rotate(-100)"><tspan class="ag" x="0" y="0">M</tspan><tspan class="u" x="8.1" y="0">a</tspan><tspan class="ac" x="12.9" y="0">g</tspan><tspan x="18.4" y="0">netic</tspan><tspan class="ap" x="11.6" y="12">C</tspan><tspan class="u" x="17.3" y="12">oil</tspan></text><text class="y" transform="translate(128.6 180) rotate(-60)"><tspan class="ag" x="0" y="0">M</tspan><tspan class="u" x="8.1" y="0">a</tspan><tspan class="ac" x="12.9" y="0">g</tspan><tspan x="18.4" y="0">netic</tspan><tspan class="ap" x="11.6" y="12">C</tspan><tspan class="u" x="17.3" y="12">oil</tspan></text><text class="y" transform="translate(184.5 115.6) rotate(-20)"><tspan class="ag" x="0" y="0">M</tspan><tspan class="u" x="8.1" y="0">a</tspan><tspan class="ac" x="12.9" y="0">g</tspan><tspan x="18.4" y="0">netic</tspan><tspan class="ap" x="11.6" y="12">C</tspan><tspan class="u" x="17.3" y="12">oil</tspan></text><text class="y" transform="translate(268.7 102.2) rotate(20)"><tspan class="ag" x="0" y="0">M</tspan><tspan class="u" x="8.1" y="0">a</tspan><tspan class="ac" x="12.9" y="0">g</tspan><tspan x="18.4" y="0">netic</tspan><tspan class="ap" x="11.6" y="12">C</tspan><tspan class="u" x="17.3" y="12">oil</tspan></text><text class="y" transform="translate(341.8 146.1) rotate(60)"><tspan class="ag" x="0" y="0">M</tspan><tspan class="u" x="8.1" y="0">a</tspan><tspan class="ac" x="12.9" y="0">g</tspan><tspan x="18.4" y="0">netic</tspan><tspan class="ap" x="11.6" y="12">C</tspan><tspan class="u" x="17.3" y="12">oil</tspan></text><text class="y" transform="translate(369.6 226.7) rotate(100)"><tspan class="ag" x="0" y="0">M</tspan><tspan class="u" x="8.1" y="0">a</tspan><tspan class="ac" x="12.9" y="0">g</tspan><tspan x="18.4" y="0">netic</tspan><tspan class="ap" x="11.6" y="12">C</tspan><tspan class="u" x="17.3" y="12">oil</tspan></text><text class="y" transform="translate(339.1 306.3) rotate(140)"><tspan class="ag" x="0" y="0">M</tspan><tspan class="u" x="8.1" y="0">a</tspan><tspan class="ac" x="12.9" y="0">g</tspan><tspan x="18.4" y="0">netic</tspan><tspan class="ap" x="11.6" y="12">C</tspan><tspan class="u" x="17.3" y="12">oil</tspan></text></g><text class="y" transform="translate(455.6 290)"><tspan x="0" y="0">3 </tspan><tspan class="a`" x="7.2" y="0">C</tspan><tspan x="12.9" y="0">oils a</tspan><tspan class="ao" x="34" y="0">r</tspan><tspan x="37.2" y="0">e </tspan><tspan class="t" x="44.3" y="0">g</tspan><tspan class="ao" x="49.9" y="0">r</tspan><tspan x="53" y="0">ouped</tspan><tspan x="-3.5" y="12">i</tspan><tspan class="ak" x="-1.2" y="12">n</tspan><tspan class="t" x="4.3" y="12">t</tspan><tspan x="7.6" y="12">o each of 3 phases</tspan><tspan class="aj" x="-22.5" y="36">T</tspan><tspan x="-17.6" y="36">hese a</tspan><tspan class="ao" x="8.9" y="36">r</tspan><tspan x="12.1" y="36">e then wi</tspan><tspan class="ao" x="50.4" y="36">r</tspan><tspan x="53.6" y="36">ed </tspan><tspan class="t" x="66.4" y="36">t</tspan><tspan x="69.6" y="36">ogether</tspan></text><g><circle class="c" cx="244.5" cy="225.6" r="179.4"/><g><path class="c" d="M244.5,410.6c-.7,0-1.3,0-2,0"/><path class="o" d="M238.5,410.5c-99.4-3.2-179-84.7-179-184.9S142.3,40.6,244.5,40.6s182.8,80.7,185,181"/><path class="c" d="M429.5,223.6c0,.7,0,1.3,0,2"/></g></g><g><rect class="w" x="68.9" y="443.6" width="69.4" height="59.4"/><g><path class="af" d="M86.2,448.7v2.8h3.3v-2.8h.9v6.7h-.9v-3.2h-3.3v3.2h-.9v-6.7h.9Z"/><path class="af" d="M93.9,448.7c.4,0,1-.1,1.6-.1,.9,0,1.4,.1,1.8,.5,.3,.3,.6,.7,.6,1.2s-.4,1.2-1.1,1.5h0c.6,.2,1.4,.7,1.4,1.7s-.2,1-.6,1.3c-.5,.4-1.2,.6-2.3,.6s-1.1,0-1.3,0v-6.6Zm.9,2.8h.8c.9,0,1.5-.5,1.5-1.1s-.6-1.1-1.5-1.1-.6,0-.8,0v2.2Zm0,3.2c.2,0,.4,0,.7,0,.9,0,1.7-.3,1.7-1.3s-.8-1.3-1.7-1.3h-.7v2.6Z"/><path class="af" d="M99.3,452.1c0-.6,0-1.1,0-1.5h.8v.9h0c.2-.6,.7-1.1,1.3-1.1s.2,0,.2,0v.8c0,0-.2,0-.3,0-.6,0-1.1,.5-1.2,1.1,0,.1,0,.3,0,.4v2.6h-.9v-3.3Z"/><path class="af" d="M103.6,449.2c0,.3-.2,.5-.6,.5s-.5-.2-.5-.5,.2-.5,.5-.5,.5,.2,.5,.5Zm-1,6.2v-4.8h.9v4.8h-.9Z"/><path class="af" d="M109.2,448.3v5.8c0,.4,0,.9,0,1.2h-.8v-.8h0c-.3,.5-.9,1-1.6,1-1.2,0-2.1-1-2.1-2.5,0-1.6,1-2.6,2.2-2.6s1.2,.3,1.5,.7h0v-2.9h.9Zm-.9,4.2c0-.1,0-.3,0-.4-.1-.6-.6-1-1.3-1s-1.4,.8-1.4,1.9,.5,1.8,1.4,1.8,1.1-.4,1.3-1c0-.1,0-.2,0-.4v-.8Z"/><path class="af" d="M114.8,450.6c0,.3,0,.7,0,1.3v2.8c0,1.1-.2,1.8-.7,2.2-.5,.4-1.1,.6-1.8,.6s-1.2-.1-1.6-.4l.2-.7c.3,.2,.8,.4,1.4,.4,.9,0,1.6-.5,1.6-1.7v-.5h0c-.3,.4-.8,.8-1.5,.8-1.2,0-2.1-1-2.1-2.4s1.1-2.6,2.2-2.6,1.3,.4,1.5,.8h0v-.7h.8Zm-.9,1.9c0-.1,0-.3,0-.4-.2-.5-.6-.9-1.2-.9s-1.4,.7-1.4,1.8,.5,1.7,1.4,1.7,1-.3,1.2-.9c0-.2,0-.3,0-.5v-.9Z"/><path class="af" d="M116.7,453.1c0,1.2,.8,1.7,1.7,1.7s1-.1,1.3-.2v.6c-.2,.1-.7,.3-1.5,.3-1.5,0-2.4-1-2.4-2.4s.9-2.6,2.3-2.6,2,1.4,2,2.3,0,.3,0,.4h-3.4Zm2.6-.6c0-.6-.2-1.4-1.2-1.4s-1.3,.8-1.3,1.4h2.6Z"/><path class="af" d="M121,451.4c0-.4,.2-.6,.6-.6s.6,.3,.6,.6c0,.4-.2,.6-.6,.6s-.6-.3-.6-.6Zm0,3.5c0-.4,.2-.6,.6-.6s.6,.3,.6,.6c0,.3-.2,.6-.6,.6s-.6-.3-.6-.6Z"/><path class="af" d="M81.4,462.6c0-.8,0-1.7,0-2.3h0c-.2,.6-.4,1.3-.7,2l-1,2.6h-.5l-.9-2.6c-.3-.8-.5-1.5-.6-2.1h0c0,.7,0,1.6-.1,2.4v2.3h-.8l.4-5.4h.9l.9,2.6c.2,.7,.4,1.3,.5,1.8h0c.1-.5,.3-1.1,.6-1.8l1-2.6h.9l.3,5.4h-.7v-2.4Z"/><path class="af" d="M85.5,465v-.5h0c-.2,.3-.6,.6-1.2,.6-.8,0-1.2-.6-1.2-1.1,0-.9,.8-1.4,2.3-1.4h0c0-.4,0-1-.9-1s-.7,.1-1,.3l-.2-.5c.3-.2,.8-.3,1.3-.3,1.2,0,1.5,.8,1.5,1.6v1.4c0,.3,0,.7,0,.9h-.6Zm-.1-2c-.8,0-1.6,.1-1.6,.9s.3,.7,.7,.7,.8-.3,.9-.6c0,0,0-.2,0-.2v-.7Z"/><path class="af" d="M90.5,461.1c0,.3,0,.6,0,1.1v2.2c0,.9-.2,1.4-.6,1.8-.4,.4-.9,.5-1.4,.5s-1-.1-1.3-.3l.2-.5c.3,.2,.7,.3,1.1,.3,.7,0,1.2-.4,1.2-1.4v-.4h0c-.2,.4-.6,.6-1.2,.6-1,0-1.6-.8-1.6-1.9s.9-2.1,1.7-2.1,1,.4,1.2,.7h0v-.6h.6Zm-.7,1.5c0-.1,0-.2,0-.3-.1-.4-.5-.7-1-.7s-1.2,.6-1.2,1.5,.4,1.4,1.1,1.4,.8-.3,1-.7c0-.1,0-.3,0-.4v-.7Z"/><path class="af" d="M91.6,462.2c0-.4,0-.7,0-1h.6v.6h0c.2-.4,.6-.7,1.3-.7s1.4,.3,1.4,1.6v2.3h-.7v-2.2c0-.6-.2-1.1-.9-1.1s-.8,.3-.9,.7c0,0,0,.2,0,.3v2.3h-.7v-2.8Z"/><path class="af" d="M96.5,463.2c0,1,.6,1.3,1.3,1.3s.8,0,1.1-.2v.5c-.1,.1-.6,.2-1.2,.2-1.2,0-1.9-.8-1.9-2s.7-2.1,1.8-2.1,1.6,1.1,1.6,1.8,0,.3,0,.3h-2.7Zm2.1-.5c0-.4-.2-1.1-1-1.1s-1,.7-1.1,1.1h2.1Z"/><path class="af" d="M100.9,460v1.1h1v.5h-1v2.1c0,.5,.1,.8,.5,.8s.3,0,.4,0v.5c-.1,0-.3,0-.6,0s-.6-.1-.8-.3c-.2-.2-.3-.6-.3-1v-2.1h-.6v-.5h.6v-.9l.7-.2Z"/><path class="af" d="M102.6,464.3c.2,.1,.6,.3,.9,.3,.5,0,.8-.3,.8-.6s-.2-.5-.7-.7c-.7-.2-1-.6-1-1.1s.5-1.1,1.3-1.1,.7,.1,1,.2l-.2,.5c-.2,0-.4-.2-.8-.2s-.6,.2-.6,.5,.2,.5,.7,.7c.7,.3,1,.6,1,1.2s-.5,1.2-1.4,1.2-.8-.1-1.1-.3l.2-.5Z"/><path class="af" d="M110.3,464.8c-.2,0-.6,.2-1.1,.2-1.2,0-1.9-.8-1.9-2s.8-2.1,2.1-2.1,.8,.1,1,.2l-.2,.5c-.2,0-.4-.2-.8-.2-.9,0-1.4,.7-1.4,1.5s.6,1.4,1.3,1.4,.7-.1,.9-.2v.5Z"/><path class="af" d="M113.3,465v-.5h0c-.2,.3-.6,.6-1.2,.6-.8,0-1.2-.6-1.2-1.1,0-.9,.8-1.4,2.3-1.4h0c0-.4,0-1-.9-1s-.7,.1-1,.3l-.2-.5c.3-.2,.8-.3,1.3-.3,1.2,0,1.5,.8,1.5,1.6v1.4c0,.3,0,.7,0,.9h-.6Zm-.1-2c-.8,0-1.6,.1-1.6,.9s.3,.7,.7,.7,.8-.3,.9-.6c0,0,0-.2,0-.2v-.7Z"/><path class="af" d="M115,462.2c0-.4,0-.7,0-1h.6v.6h0c.2-.4,.6-.7,1.3-.7s1.4,.3,1.4,1.6v2.3h-.7v-2.2c0-.6-.2-1.1-.9-1.1s-.8,.3-.9,.7c0,0,0,.2,0,.3v2.3h-.7v-2.8Z"/><path class="af" d="M121.1,465c0-.3,0-.7,0-1v-4.7h.7v2.4h0c.2-.4,.7-.7,1.3-.7,1,0,1.6,.8,1.6,2,0,1.4-.9,2.1-1.7,2.1s-1-.2-1.3-.7h0v.6h-.6Zm.7-1.6c0,0,0,.2,0,.3,.1,.5,.5,.8,1.1,.8,.7,0,1.2-.6,1.2-1.5s-.4-1.4-1.2-1.4-.9,.3-1.1,.9c0,0,0,.2,0,.3v.7Z"/><path class="af" d="M126.1,463.2c0,1,.6,1.3,1.3,1.3s.8,0,1.1-.2v.5c-.1,.1-.6,.2-1.2,.2-1.2,0-1.9-.8-1.9-2s.7-2.1,1.8-2.1,1.6,1.1,1.6,1.8,0,.3,0,.3h-2.7Zm2.1-.5c0-.4-.2-1.1-1-1.1s-1,.7-1.1,1.1h2.1Z"/><path class="af" d="M71.6,474.6v-5.4h.8l1.7,2.7c.4,.6,.7,1.2,1,1.8h0c0-.7,0-1.4,0-2.2v-2.3h.7v5.4h-.7l-1.7-2.7c-.4-.6-.7-1.2-1-1.8h0c0,.7,0,1.3,0,2.2v2.3h-.7Z"/><path class="af" d="M80.3,472.6c0,1.4-1,2.1-1.9,2.1s-1.9-.8-1.9-2,.8-2.1,1.9-2.1,1.9,.8,1.9,2Zm-3.1,0c0,.8,.5,1.5,1.2,1.5s1.2-.6,1.2-1.5-.3-1.5-1.2-1.5-1.2,.8-1.2,1.5Z"/><path class="af" d="M81.2,471.9c0-.5,0-.8,0-1.2h.6v.8h0c.2-.5,.6-.8,1.1-.8s.1,0,.2,0v.7c0,0-.1,0-.2,0-.5,0-.8,.4-.9,.9,0,0,0,.2,0,.3v2.1h-.7v-2.7Z"/><path class="af" d="M84.9,469.6v1.1h1v.5h-1v2.1c0,.5,.1,.8,.5,.8s.3,0,.4,0v.5c-.1,0-.3,0-.6,0s-.6-.1-.8-.3c-.2-.2-.3-.6-.3-1v-2.1h-.6v-.5h.6v-.9l.7-.2Z"/><path class="af" d="M86.7,468.9h.7v2.4h0c.1-.2,.3-.4,.5-.5,.2-.1,.5-.2,.7-.2,.5,0,1.4,.3,1.4,1.7v2.3h-.7v-2.2c0-.6-.2-1.2-.9-1.2s-.8,.3-.9,.7c0,0,0,.2,0,.3v2.3h-.7v-5.7Z"/><path class="af" d="M90.7,475.6c.2-.5,.4-1.3,.5-1.9h.8c-.2,.6-.5,1.5-.8,1.9h-.5Z"/><path class="af" d="M94.4,473.7c.3,.2,.8,.4,1.2,.4,.7,0,1.1-.4,1.1-.9s-.3-.8-1-1.1c-.9-.3-1.4-.8-1.4-1.5s.7-1.5,1.7-1.5,1,.1,1.2,.3l-.2,.6c-.2,0-.5-.3-1-.3-.7,0-1,.4-1,.8s.3,.8,1.1,1c.9,.4,1.4,.8,1.4,1.6s-.6,1.6-1.9,1.6-1.1-.2-1.4-.3l.2-.6Z"/><path class="af" d="M102,472.6c0,1.4-1,2.1-1.9,2.1s-1.9-.8-1.9-2,.8-2.1,1.9-2.1,1.9,.8,1.9,2Zm-3.1,0c0,.8,.5,1.5,1.2,1.5s1.2-.6,1.2-1.5-.3-1.5-1.2-1.5-1.2,.8-1.2,1.5Z"/><path class="af" d="M106.1,473.5c0,.4,0,.8,0,1.1h-.6v-.6h0c-.2,.3-.6,.7-1.3,.7s-1.3-.3-1.3-1.7v-2.3h.7v2.1c0,.7,.2,1.2,.9,1.2s.8-.3,.9-.6c0-.1,0-.2,0-.4v-2.4h.7v2.8Z"/><path class="af" d="M108.1,469.6v1.1h1v.5h-1v2.1c0,.5,.1,.8,.5,.8s.3,0,.4,0v.5c-.1,0-.3,0-.6,0s-.6-.1-.8-.3c-.2-.2-.3-.6-.3-1v-2.1h-.6v-.5h.6v-.9l.7-.2Z"/><path class="af" d="M109.9,468.9h.7v2.4h0c.1-.2,.3-.4,.5-.5,.2-.1,.5-.2,.7-.2,.5,0,1.4,.3,1.4,1.7v2.3h-.7v-2.2c0-.6-.2-1.2-.9-1.2s-.8,.3-.9,.7c0,0,0,.2,0,.3v2.3h-.7v-5.7Z"/><path class="af" d="M113.9,475.6c.2-.5,.4-1.3,.5-1.9h.8c-.2,.6-.5,1.5-.8,1.9h-.5Z"/><path class="af" d="M121.2,472.6c0,1.4-1,2.1-1.9,2.1s-1.9-.8-1.9-2,.8-2.1,1.9-2.1,1.9,.8,1.9,2Zm-3.1,0c0,.8,.5,1.5,1.2,1.5s1.2-.6,1.2-1.5-.3-1.5-1.2-1.5-1.2,.8-1.2,1.5Z"/><path class="af" d="M122.1,471.9c0-.5,0-.8,0-1.2h.6v.8h0c.2-.5,.6-.8,1.1-.8s.1,0,.2,0v.7c0,0-.1,0-.2,0-.5,0-.8,.4-.9,.9,0,0,0,.2,0,.3v2.1h-.7v-2.7Z"/><path class="af" d="M131,471.8c0,1.9-1.1,2.8-2.5,2.8s-2.4-1.1-2.4-2.7,1.1-2.8,2.5-2.8,2.4,1.1,2.4,2.7Zm-4.2,0c0,1.2,.6,2.2,1.7,2.2s1.7-1,1.7-2.2-.6-2.2-1.7-2.2-1.7,1.1-1.7,2.2Z"/><path class="af" d="M134.4,474.6v-3.3h-1.6v3.3h-.7v-3.3h-.5v-.5h.5c0-.7,.1-1.1,.4-1.4,.2-.2,.5-.4,1-.4s.4,0,.6,.1v.5c-.2,0-.4,0-.6,0-.6,0-.7,.5-.7,1.1v.2h1.6v-.2c0-.5,.1-1,.5-1.4,.3-.3,.6-.4,.9-.4s.5,0,.6,.1v.5c-.2,0-.3,0-.5,0-.6,0-.8,.5-.8,1.1v.2h.9v.5h-.9v3.3h-.7Z"/><path class="af" d="M87.9,489.5c.4,0,1-.1,1.7-.1s1.5,.2,1.9,.6c.4,.3,.6,.8,.6,1.4s-.2,1.1-.5,1.4c-.5,.5-1.2,.7-2.1,.7s-.5,0-.7,0v2.7h-.9v-6.7Zm.9,3.2c.2,0,.4,0,.7,0,1,0,1.7-.5,1.7-1.4s-.6-1.3-1.6-1.3-.7,0-.8,0v2.6Z"/><path class="af" d="M93.1,489.1h.9v3h0c.1-.2,.4-.5,.6-.6,.3-.2,.6-.2,.9-.2,.6,0,1.7,.4,1.7,2.1v2.9h-.9v-2.8c0-.8-.3-1.4-1.1-1.4s-1,.4-1.2,.9c0,.1,0,.2,0,.4v2.9h-.9v-7.1Z"/><path class="af" d="M101.4,496.2v-.6h-.1c-.3,.4-.8,.7-1.5,.7-1,0-1.5-.7-1.5-1.4,0-1.2,1-1.8,2.9-1.8h0c0-.5-.1-1.2-1.1-1.2s-.9,.1-1.3,.4l-.2-.6c.4-.3,1-.4,1.6-.4,1.5,0,1.8,1,1.8,2v1.8c0,.4,0,.8,0,1.2h-.8Zm-.1-2.5c-1,0-2,.2-2,1.1s.4,.8,.8,.8,1-.4,1.2-.8c0,0,0-.2,0-.3v-.8Z"/><path class="af" d="M103.4,495.3c.3,.2,.7,.3,1.2,.3,.6,0,.9-.3,.9-.7s-.2-.6-.9-.9c-.9-.3-1.3-.8-1.3-1.4s.6-1.4,1.7-1.4,.9,.1,1.2,.3l-.2,.6c-.2-.1-.5-.3-1-.3s-.8,.3-.8,.7,.3,.6,.9,.8c.8,.3,1.3,.7,1.3,1.5s-.7,1.4-1.8,1.4-1-.1-1.4-.3l.2-.7Z"/><path class="af" d="M108,493.9c0,1.2,.8,1.7,1.7,1.7s1-.1,1.3-.2v.6c-.2,.1-.7,.3-1.5,.3-1.5,0-2.4-1-2.4-2.4s.9-2.6,2.3-2.6,2,1.4,2,2.3,0,.3,0,.4h-3.4Zm2.6-.6c0-.6-.2-1.4-1.2-1.4s-1.3,.8-1.3,1.4h2.6Z"/><path class="af" d="M115.7,494.1l-.7,2.1h-.9l2.3-6.7h1l2.3,6.7h-.9l-.7-2.1h-2.4Zm2.2-.7l-.7-1.9c-.1-.4-.2-.8-.3-1.2h0c-.1,.4-.2,.8-.3,1.2l-.7,1.9h2Z"/></g></g><g><rect class="ae" x="210.3" y="443.7" width="69.4" height="59.4"/><g><path class="af" d="M227.6,448.8v2.8h3.3v-2.8h.9v6.7h-.9v-3.2h-3.3v3.2h-.9v-6.7h.9Z"/><path class="af" d="M235.4,448.9c.4,0,1-.1,1.6-.1,.9,0,1.4,.1,1.8,.5,.3,.3,.6,.7,.6,1.2s-.4,1.2-1.1,1.5h0c.6,.2,1.4,.7,1.4,1.7s-.2,1-.6,1.3c-.5,.4-1.2,.6-2.3,.6s-1.1,0-1.3,0v-6.6Zm.9,2.8h.8c.9,0,1.5-.5,1.5-1.1s-.6-1.1-1.5-1.1-.6,0-.8,0v2.2Zm0,3.2c.2,0,.4,0,.7,0,.9,0,1.7-.3,1.7-1.3s-.8-1.3-1.7-1.3h-.7v2.6Z"/><path class="af" d="M240.8,452.2c0-.6,0-1.1,0-1.5h.8v.9h0c.2-.6,.7-1.1,1.3-1.1s.2,0,.2,0v.8c0,0-.2,0-.3,0-.6,0-1.1,.5-1.2,1.1,0,.1,0,.3,0,.4v2.6h-.9v-3.3Z"/><path class="af" d="M245.1,449.3c0,.3-.2,.5-.6,.5s-.5-.2-.5-.5,.2-.5,.5-.5,.5,.2,.5,.5Zm-1,6.2v-4.8h.9v4.8h-.9Z"/><path class="af" d="M250.6,448.4v5.8c0,.4,0,.9,0,1.2h-.8v-.8h0c-.3,.5-.9,1-1.6,1-1.2,0-2.1-1-2.1-2.5,0-1.6,1-2.6,2.2-2.6s1.2,.3,1.5,.7h0v-2.9h.9Zm-.9,4.2c0-.1,0-.3,0-.4-.1-.6-.6-1-1.3-1s-1.4,.8-1.4,1.9,.5,1.8,1.4,1.8,1.1-.4,1.3-1c0-.1,0-.2,0-.4v-.8Z"/><path class="af" d="M256.2,450.7c0,.3,0,.7,0,1.3v2.8c0,1.1-.2,1.8-.7,2.2-.5,.4-1.1,.6-1.8,.6s-1.2-.1-1.6-.4l.2-.7c.3,.2,.8,.4,1.4,.4,.9,0,1.6-.5,1.6-1.7v-.5h0c-.3,.4-.8,.8-1.5,.8-1.2,0-2.1-1-2.1-2.4s1.1-2.6,2.2-2.6,1.3,.4,1.5,.8h0v-.7h.8Zm-.9,1.9c0-.1,0-.3,0-.4-.2-.5-.6-.9-1.2-.9s-1.4,.7-1.4,1.8,.5,1.7,1.4,1.7,1-.3,1.2-.9c0-.2,0-.3,0-.5v-.9Z"/><path class="af" d="M258.1,453.2c0,1.2,.8,1.7,1.7,1.7s1-.1,1.3-.2v.6c-.2,.1-.7,.3-1.5,.3-1.5,0-2.4-1-2.4-2.4s.9-2.6,2.3-2.6,2,1.4,2,2.3,0,.3,0,.4h-3.4Zm2.6-.6c0-.6-.2-1.4-1.2-1.4s-1.3,.8-1.3,1.4h2.6Z"/><path class="af" d="M262.4,451.5c0-.4,.2-.6,.6-.6s.6,.3,.6,.6c0,.4-.2,.6-.6,.6s-.6-.3-.6-.6Zm0,3.5c0-.4,.2-.6,.6-.6s.6,.3,.6,.6c0,.3-.2,.6-.6,.6s-.6-.3-.6-.6Z"/><path class="af" d="M222.9,462.7c0-.8,0-1.7,0-2.3h0c-.2,.6-.4,1.3-.7,2l-1,2.6h-.5l-.9-2.6c-.3-.8-.5-1.5-.6-2.1h0c0,.7,0,1.6-.1,2.4v2.3h-.8l.4-5.4h.9l.9,2.6c.2,.7,.4,1.3,.5,1.8h0c.1-.5,.3-1.1,.6-1.8l1-2.6h.9l.3,5.4h-.7v-2.4Z"/><path class="af" d="M226.9,465.1v-.5h0c-.2,.3-.6,.6-1.2,.6-.8,0-1.2-.6-1.2-1.1,0-.9,.8-1.4,2.3-1.4h0c0-.4,0-1-.9-1s-.7,.1-1,.3l-.2-.5c.3-.2,.8-.3,1.3-.3,1.2,0,1.5,.8,1.5,1.6v1.4c0,.3,0,.7,0,.9h-.6Zm-.1-2c-.8,0-1.6,.1-1.6,.9s.3,.7,.7,.7,.8-.3,.9-.6c0,0,0-.2,0-.2v-.7Z"/><path class="af" d="M232,461.2c0,.3,0,.6,0,1.1v2.2c0,.9-.2,1.4-.6,1.8-.4,.4-.9,.5-1.4,.5s-1-.1-1.3-.3l.2-.5c.3,.2,.7,.3,1.1,.3,.7,0,1.2-.4,1.2-1.4v-.4h0c-.2,.4-.6,.6-1.2,.6-1,0-1.6-.8-1.6-1.9s.9-2.1,1.7-2.1,1,.4,1.2,.7h0v-.6h.6Zm-.7,1.5c0-.1,0-.2,0-.3-.1-.4-.5-.7-1-.7s-1.2,.6-1.2,1.5,.4,1.4,1.1,1.4,.8-.3,1-.7c0-.1,0-.3,0-.4v-.7Z"/><path class="af" d="M233.1,462.3c0-.4,0-.7,0-1h.6v.6h0c.2-.4,.6-.7,1.3-.7s1.4,.3,1.4,1.6v2.3h-.7v-2.2c0-.6-.2-1.1-.9-1.1s-.8,.3-.9,.7c0,0,0,.2,0,.3v2.3h-.7v-2.8Z"/><path class="af" d="M237.9,463.3c0,1,.6,1.3,1.3,1.3s.8,0,1.1-.2v.5c-.1,.1-.6,.2-1.2,.2-1.2,0-1.9-.8-1.9-2s.7-2.1,1.8-2.1,1.6,1.1,1.6,1.8,0,.3,0,.3h-2.7Zm2.1-.5c0-.4-.2-1.1-1-1.1s-1,.7-1.1,1.1h2.1Z"/><path class="af" d="M242.4,460.1v1.1h1v.5h-1v2.1c0,.5,.1,.8,.5,.8s.3,0,.4,0v.5c-.1,0-.3,0-.6,0s-.6-.1-.8-.3c-.2-.2-.3-.6-.3-1v-2.1h-.6v-.5h.6v-.9l.7-.2Z"/><path class="af" d="M244.1,464.4c.2,.1,.6,.3,.9,.3,.5,0,.8-.3,.8-.6s-.2-.5-.7-.7c-.7-.2-1-.6-1-1.1s.5-1.1,1.3-1.1,.7,.1,1,.2l-.2,.5c-.2,0-.4-.2-.8-.2s-.6,.2-.6,.5,.2,.5,.7,.7c.7,.3,1,.6,1,1.2s-.5,1.2-1.4,1.2-.8-.1-1.1-.3l.2-.5Z"/><path class="af" d="M251.8,465c-.2,0-.6,.2-1.1,.2-1.2,0-1.9-.8-1.9-2s.8-2.1,2.1-2.1,.8,.1,1,.2l-.2,.5c-.2,0-.4-.2-.8-.2-.9,0-1.4,.7-1.4,1.5s.6,1.4,1.3,1.4,.7-.1,.9-.2v.5Z"/><path class="af" d="M254.7,465.1v-.5h0c-.2,.3-.6,.6-1.2,.6-.8,0-1.2-.6-1.2-1.1,0-.9,.8-1.4,2.3-1.4h0c0-.4,0-1-.9-1s-.7,.1-1,.3l-.2-.5c.3-.2,.8-.3,1.3-.3,1.2,0,1.5,.8,1.5,1.6v1.4c0,.3,0,.7,0,.9h-.6Zm-.1-2c-.8,0-1.6,.1-1.6,.9s.3,.7,.7,.7,.8-.3,.9-.6c0,0,0-.2,0-.2v-.7Z"/><path class="af" d="M256.5,462.3c0-.4,0-.7,0-1h.6v.6h0c.2-.4,.6-.7,1.3-.7s1.4,.3,1.4,1.6v2.3h-.7v-2.2c0-.6-.2-1.1-.9-1.1s-.8,.3-.9,.7c0,0,0,.2,0,.3v2.3h-.7v-2.8Z"/><path class="af" d="M262.6,465.1c0-.3,0-.7,0-1v-4.7h.7v2.4h0c.2-.4,.7-.7,1.3-.7,1,0,1.6,.8,1.6,2,0,1.4-.9,2.1-1.7,2.1s-1-.2-1.3-.7h0v.6h-.6Zm.7-1.6c0,0,0,.2,0,.3,.1,.5,.5,.8,1.1,.8,.7,0,1.2-.6,1.2-1.5s-.4-1.4-1.2-1.4-.9,.3-1.1,.9c0,0,0,.2,0,.3v.7Z"/><path class="af" d="M267.5,463.3c0,1,.6,1.3,1.3,1.3s.8,0,1.1-.2v.5c-.1,.1-.6,.2-1.2,.2-1.2,0-1.9-.8-1.9-2s.7-2.1,1.8-2.1,1.6,1.1,1.6,1.8,0,.3,0,.3h-2.7Zm2.1-.5c0-.4-.2-1.1-1-1.1s-1,.7-1.1,1.1h2.1Z"/><path class="af" d="M213,474.7v-5.4h.8l1.7,2.7c.4,.6,.7,1.2,1,1.8h0c0-.7,0-1.4,0-2.2v-2.3h.7v5.4h-.7l-1.7-2.7c-.4-.6-.7-1.2-1-1.8h0c0,.7,0,1.3,0,2.2v2.3h-.7Z"/><path class="af" d="M221.8,472.7c0,1.4-1,2.1-1.9,2.1s-1.9-.8-1.9-2,.8-2.1,1.9-2.1,1.9,.8,1.9,2Zm-3.1,0c0,.8,.5,1.5,1.2,1.5s1.2-.6,1.2-1.5-.3-1.5-1.2-1.5-1.2,.8-1.2,1.5Z"/><path class="af" d="M222.7,472c0-.5,0-.8,0-1.2h.6v.8h0c.2-.5,.6-.8,1.1-.8s.1,0,.2,0v.7c0,0-.1,0-.2,0-.5,0-.8,.4-.9,.9,0,0,0,.2,0,.3v2.1h-.7v-2.7Z"/><path class="af" d="M226.3,469.7v1.1h1v.5h-1v2.1c0,.5,.1,.8,.5,.8s.3,0,.4,0v.5c-.1,0-.3,0-.6,0s-.6-.1-.8-.3c-.2-.2-.3-.6-.3-1v-2.1h-.6v-.5h.6v-.9l.7-.2Z"/><path class="af" d="M228.1,469h.7v2.4h0c.1-.2,.3-.4,.5-.5,.2-.1,.5-.2,.7-.2,.5,0,1.4,.3,1.4,1.7v2.3h-.7v-2.2c0-.6-.2-1.2-.9-1.2s-.8,.3-.9,.7c0,0,0,.2,0,.3v2.3h-.7v-5.7Z"/><path class="af" d="M232.1,475.7c.2-.5,.4-1.3,.5-1.9h.8c-.2,.6-.5,1.5-.8,1.9h-.5Z"/><path class="af" d="M235.8,473.9c.3,.2,.8,.4,1.2,.4,.7,0,1.1-.4,1.1-.9s-.3-.8-1-1.1c-.9-.3-1.4-.8-1.4-1.5s.7-1.5,1.7-1.5,1,.1,1.2,.3l-.2,.6c-.2,0-.5-.3-1-.3-.7,0-1,.4-1,.8s.3,.8,1.1,1c.9,.4,1.4,.8,1.4,1.6s-.6,1.6-1.9,1.6-1.1-.2-1.4-.3l.2-.6Z"/><path class="af" d="M243.4,472.7c0,1.4-1,2.1-1.9,2.1s-1.9-.8-1.9-2,.8-2.1,1.9-2.1,1.9,.8,1.9,2Zm-3.1,0c0,.8,.5,1.5,1.2,1.5s1.2-.6,1.2-1.5-.3-1.5-1.2-1.5-1.2,.8-1.2,1.5Z"/><path class="af" d="M247.5,473.6c0,.4,0,.8,0,1.1h-.6v-.6h0c-.2,.3-.6,.7-1.3,.7s-1.3-.3-1.3-1.7v-2.3h.7v2.1c0,.7,.2,1.2,.9,1.2s.8-.3,.9-.6c0-.1,0-.2,0-.4v-2.4h.7v2.8Z"/><path class="af" d="M249.5,469.7v1.1h1v.5h-1v2.1c0,.5,.1,.8,.5,.8s.3,0,.4,0v.5c-.1,0-.3,0-.6,0s-.6-.1-.8-.3c-.2-.2-.3-.6-.3-1v-2.1h-.6v-.5h.6v-.9l.7-.2Z"/><path class="af" d="M251.3,469h.7v2.4h0c.1-.2,.3-.4,.5-.5,.2-.1,.5-.2,.7-.2,.5,0,1.4,.3,1.4,1.7v2.3h-.7v-2.2c0-.6-.2-1.2-.9-1.2s-.8,.3-.9,.7c0,0,0,.2,0,.3v2.3h-.7v-5.7Z"/><path class="af" d="M255.3,475.7c.2-.5,.4-1.3,.5-1.9h.8c-.2,.6-.5,1.5-.8,1.9h-.5Z"/><path class="af" d="M262.6,472.7c0,1.4-1,2.1-1.9,2.1s-1.9-.8-1.9-2,.8-2.1,1.9-2.1,1.9,.8,1.9,2Zm-3.1,0c0,.8,.5,1.5,1.2,1.5s1.2-.6,1.2-1.5-.3-1.5-1.2-1.5-1.2,.8-1.2,1.5Z"/><path class="af" d="M263.5,472c0-.5,0-.8,0-1.2h.6v.8h0c.2-.5,.6-.8,1.1-.8s.1,0,.2,0v.7c0,0-.1,0-.2,0-.5,0-.8,.4-.9,.9,0,0,0,.2,0,.3v2.1h-.7v-2.7Z"/><path class="af" d="M272.5,472c0,1.9-1.1,2.8-2.5,2.8s-2.4-1.1-2.4-2.7,1.1-2.8,2.5-2.8,2.4,1.1,2.4,2.7Zm-4.2,0c0,1.2,.6,2.2,1.7,2.2s1.7-1,1.7-2.2-.6-2.2-1.7-2.2-1.7,1.1-1.7,2.2Z"/><path class="af" d="M275.9,474.7v-3.3h-1.6v3.3h-.7v-3.3h-.5v-.5h.5c0-.7,.1-1.1,.4-1.4,.2-.2,.5-.4,1-.4s.4,0,.6,.1v.5c-.2,0-.4,0-.6,0-.6,0-.7,.5-.7,1.1v.2h1.6v-.2c0-.5,.1-1,.5-1.4,.3-.3,.6-.4,.9-.4s.5,0,.6,.1v.5c-.2,0-.3,0-.5,0-.6,0-.8,.5-.8,1.1v.2h.9v.5h-.9v3.3h-.7Z"/><path class="af" d="M229.7,489.6c.4,0,1-.1,1.7-.1s1.5,.2,1.9,.6c.4,.3,.6,.8,.6,1.4s-.2,1.1-.5,1.4c-.5,.5-1.2,.7-2.1,.7s-.5,0-.7,0v2.7h-.9v-6.7Zm.9,3.2c.2,0,.4,0,.7,0,1,0,1.7-.5,1.7-1.4s-.6-1.3-1.6-1.3-.7,0-.8,0v2.6Z"/><path class="af" d="M234.9,489.2h.9v3h0c.1-.2,.4-.5,.6-.6,.3-.2,.6-.2,.9-.2,.6,0,1.7,.4,1.7,2.1v2.9h-.9v-2.8c0-.8-.3-1.4-1.1-1.4s-1,.4-1.2,.9c0,.1,0,.2,0,.4v2.9h-.9v-7.1Z"/><path class="af" d="M243.1,496.3v-.6h-.1c-.3,.4-.8,.7-1.5,.7-1,0-1.5-.7-1.5-1.4,0-1.2,1-1.8,2.9-1.8h0c0-.5-.1-1.2-1.1-1.2s-.9,.1-1.3,.4l-.2-.6c.4-.3,1-.4,1.6-.4,1.5,0,1.8,1,1.8,2v1.8c0,.4,0,.8,0,1.2h-.8Zm-.1-2.5c-1,0-2,.2-2,1.1s.4,.8,.8,.8,1-.4,1.2-.8c0,0,0-.2,0-.3v-.8Z"/><path class="af" d="M245.2,495.4c.3,.2,.7,.3,1.2,.3,.6,0,.9-.3,.9-.7s-.2-.6-.9-.9c-.9-.3-1.3-.8-1.3-1.4s.6-1.4,1.7-1.4,.9,.1,1.2,.3l-.2,.6c-.2-.1-.5-.3-1-.3s-.8,.3-.8,.7,.3,.6,.9,.8c.8,.3,1.3,.7,1.3,1.5s-.7,1.4-1.8,1.4-1-.1-1.4-.3l.2-.7Z"/><path class="af" d="M249.7,494c0,1.2,.8,1.7,1.7,1.7s1-.1,1.3-.2v.6c-.2,.1-.7,.3-1.5,.3-1.5,0-2.4-1-2.4-2.4s.9-2.6,2.3-2.6,2,1.4,2,2.3,0,.3,0,.4h-3.4Zm2.6-.6c0-.6-.2-1.4-1.2-1.4s-1.3,.8-1.3,1.4h2.6Z"/><path class="af" d="M256.4,489.7c.4,0,1-.1,1.6-.1,.9,0,1.4,.1,1.8,.5,.3,.3,.6,.7,.6,1.2s-.4,1.2-1.1,1.5h0c.6,.2,1.4,.7,1.4,1.7s-.2,1-.6,1.3c-.5,.4-1.2,.6-2.3,.6s-1.1,0-1.3,0v-6.6Zm.9,2.8h.8c.9,0,1.5-.5,1.5-1.1s-.6-1.1-1.5-1.1-.6,0-.8,0v2.2Zm0,3.2c.2,0,.4,0,.7,0,.9,0,1.7-.3,1.7-1.3s-.8-1.3-1.7-1.3h-.7v2.6Z"/></g></g><g><rect class="ab" x="352.4" y="445.1" width="69.4" height="59.4"/><g><path class="r" d="M369.7,450.2v2.8h3.3v-2.8h.9v6.7h-.9v-3.2h-3.3v3.2h-.9v-6.7h.9Z"/><path class="r" d="M377.5,450.3c.4,0,1-.1,1.6-.1,.9,0,1.4,.1,1.8,.5,.3,.3,.6,.7,.6,1.2s-.4,1.2-1.1,1.5h0c.6,.2,1.4,.7,1.4,1.7s-.2,1-.6,1.3c-.5,.4-1.2,.6-2.3,.6s-1.1,0-1.3,0v-6.6Zm.9,2.8h.8c.9,0,1.5-.5,1.5-1.1s-.6-1.1-1.5-1.1-.6,0-.8,0v2.2Zm0,3.2c.2,0,.4,0,.7,0,.9,0,1.7-.3,1.7-1.3s-.8-1.3-1.7-1.3h-.7v2.6Z"/><path class="r" d="M382.9,453.6c0-.6,0-1.1,0-1.5h.8v.9h0c.2-.6,.7-1.1,1.3-1.1s.2,0,.2,0v.8c0,0-.2,0-.3,0-.6,0-1.1,.5-1.2,1.1,0,.1,0,.3,0,.4v2.6h-.9v-3.3Z"/><path class="r" d="M387.2,450.7c0,.3-.2,.5-.6,.5s-.5-.2-.5-.5,.2-.5,.5-.5,.5,.2,.5,.5Zm-1,6.2v-4.8h.9v4.8h-.9Z"/><path class="r" d="M392.7,449.8v5.8c0,.4,0,.9,0,1.2h-.8v-.8h0c-.3,.5-.9,1-1.6,1-1.2,0-2.1-1-2.1-2.5,0-1.6,1-2.6,2.2-2.6s1.2,.3,1.5,.7h0v-2.9h.9Zm-.9,4.2c0-.1,0-.3,0-.4-.1-.6-.6-1-1.3-1s-1.4,.8-1.4,1.9,.5,1.8,1.4,1.8,1.1-.4,1.3-1c0-.1,0-.2,0-.4v-.8Z"/><path class="r" d="M398.3,452.1c0,.3,0,.7,0,1.3v2.8c0,1.1-.2,1.8-.7,2.2-.5,.4-1.1,.6-1.8,.6s-1.2-.1-1.6-.4l.2-.7c.3,.2,.8,.4,1.4,.4,.9,0,1.6-.5,1.6-1.7v-.5h0c-.3,.4-.8,.8-1.5,.8-1.2,0-2.1-1-2.1-2.4s1.1-2.6,2.2-2.6,1.3,.4,1.5,.8h0v-.7h.8Zm-.9,1.9c0-.1,0-.3,0-.4-.2-.5-.6-.9-1.2-.9s-1.4,.7-1.4,1.8,.5,1.7,1.4,1.7,1-.3,1.2-.9c0-.2,0-.3,0-.5v-.9Z"/><path class="r" d="M400.2,454.7c0,1.2,.8,1.7,1.7,1.7s1-.1,1.3-.2v.6c-.2,.1-.7,.3-1.5,.3-1.5,0-2.4-1-2.4-2.4s.9-2.6,2.3-2.6,2,1.4,2,2.3,0,.3,0,.4h-3.4Zm2.6-.6c0-.6-.2-1.4-1.2-1.4s-1.3,.8-1.3,1.4h2.6Z"/><path class="r" d="M404.6,452.9c0-.4,.2-.6,.6-.6s.6,.3,.6,.6c0,.4-.2,.6-.6,.6s-.6-.3-.6-.6Zm0,3.5c0-.4,.2-.6,.6-.6s.6,.3,.6,.6c0,.3-.2,.6-.6,.6s-.6-.3-.6-.6Z"/><path class="r" d="M365,464.1c0-.8,0-1.7,0-2.3h0c-.2,.6-.4,1.3-.7,2l-1,2.6h-.5l-.9-2.6c-.3-.8-.5-1.5-.6-2.1h0c0,.7,0,1.6-.1,2.4v2.3h-.8l.4-5.4h.9l.9,2.6c.2,.7,.4,1.3,.5,1.8h0c.1-.5,.3-1.1,.6-1.8l1-2.6h.9l.3,5.4h-.7v-2.4Z"/><path class="r" d="M369,466.5v-.5h0c-.2,.3-.6,.6-1.2,.6-.8,0-1.2-.6-1.2-1.1,0-.9,.8-1.4,2.3-1.4h0c0-.4,0-1-.9-1s-.7,.1-1,.3l-.2-.5c.3-.2,.8-.3,1.3-.3,1.2,0,1.5,.8,1.5,1.6v1.4c0,.3,0,.7,0,.9h-.6Zm-.1-2c-.8,0-1.6,.1-1.6,.9s.3,.7,.7,.7,.8-.3,.9-.6c0,0,0-.2,0-.2v-.7Z"/><path class="r" d="M374.1,462.6c0,.3,0,.6,0,1.1v2.2c0,.9-.2,1.4-.6,1.8-.4,.4-.9,.5-1.4,.5s-1-.1-1.3-.3l.2-.5c.3,.2,.7,.3,1.1,.3,.7,0,1.2-.4,1.2-1.4v-.4h0c-.2,.4-.6,.6-1.2,.6-1,0-1.6-.8-1.6-1.9s.9-2.1,1.7-2.1,1,.4,1.2,.7h0v-.6h.6Zm-.7,1.5c0-.1,0-.2,0-.3-.1-.4-.5-.7-1-.7s-1.2,.6-1.2,1.5,.4,1.4,1.1,1.4,.8-.3,1-.7c0-.1,0-.3,0-.4v-.7Z"/><path class="r" d="M375.2,463.7c0-.4,0-.7,0-1h.6v.6h0c.2-.4,.6-.7,1.3-.7s1.4,.3,1.4,1.6v2.3h-.7v-2.2c0-.6-.2-1.1-.9-1.1s-.8,.3-.9,.7c0,0,0,.2,0,.3v2.3h-.7v-2.8Z"/><path class="r" d="M380,464.7c0,1,.6,1.3,1.3,1.3s.8,0,1.1-.2v.5c-.1,.1-.6,.2-1.2,.2-1.2,0-1.9-.8-1.9-2s.7-2.1,1.8-2.1,1.6,1.1,1.6,1.8,0,.3,0,.3h-2.7Zm2.1-.5c0-.4-.2-1.1-1-1.1s-1,.7-1.1,1.1h2.1Z"/><path class="r" d="M384.5,461.5v1.1h1v.5h-1v2.1c0,.5,.1,.8,.5,.8s.3,0,.4,0v.5c-.1,0-.3,0-.6,0s-.6-.1-.8-.3c-.2-.2-.3-.6-.3-1v-2.1h-.6v-.5h.6v-.9l.7-.2Z"/><path class="r" d="M386.2,465.8c.2,.1,.6,.3,.9,.3,.5,0,.8-.3,.8-.6s-.2-.5-.7-.7c-.7-.2-1-.6-1-1.1s.5-1.1,1.3-1.1,.7,.1,1,.2l-.2,.5c-.2,0-.4-.2-.8-.2s-.6,.2-.6,.5,.2,.5,.7,.7c.7,.3,1,.6,1,1.2s-.5,1.2-1.4,1.2-.8-.1-1.1-.3l.2-.5Z"/><path class="r" d="M393.9,466.4c-.2,0-.6,.2-1.1,.2-1.2,0-1.9-.8-1.9-2s.8-2.1,2.1-2.1,.8,.1,1,.2l-.2,.5c-.2,0-.4-.2-.8-.2-.9,0-1.4,.7-1.4,1.5s.6,1.4,1.3,1.4,.7-.1,.9-.2v.5Z"/><path class="r" d="M396.9,466.5v-.5h0c-.2,.3-.6,.6-1.2,.6-.8,0-1.2-.6-1.2-1.1,0-.9,.8-1.4,2.3-1.4h0c0-.4,0-1-.9-1s-.7,.1-1,.3l-.2-.5c.3-.2,.8-.3,1.3-.3,1.2,0,1.5,.8,1.5,1.6v1.4c0,.3,0,.7,0,.9h-.6Zm-.1-2c-.8,0-1.6,.1-1.6,.9s.3,.7,.7,.7,.8-.3,.9-.6c0,0,0-.2,0-.2v-.7Z"/><path class="r" d="M398.6,463.7c0-.4,0-.7,0-1h.6v.6h0c.2-.4,.6-.7,1.3-.7s1.4,.3,1.4,1.6v2.3h-.7v-2.2c0-.6-.2-1.1-.9-1.1s-.8,.3-.9,.7c0,0,0,.2,0,.3v2.3h-.7v-2.8Z"/><path class="r" d="M404.7,466.5c0-.3,0-.7,0-1v-4.7h.7v2.4h0c.2-.4,.7-.7,1.3-.7,1,0,1.6,.8,1.6,2,0,1.4-.9,2.1-1.7,2.1s-1-.2-1.3-.7h0v.6h-.6Zm.7-1.6c0,0,0,.2,0,.3,.1,.5,.5,.8,1.1,.8,.7,0,1.2-.6,1.2-1.5s-.4-1.4-1.2-1.4-.9,.3-1.1,.9c0,0,0,.2,0,.3v.7Z"/><path class="r" d="M409.6,464.7c0,1,.6,1.3,1.3,1.3s.8,0,1.1-.2v.5c-.1,.1-.6,.2-1.2,.2-1.2,0-1.9-.8-1.9-2s.7-2.1,1.8-2.1,1.6,1.1,1.6,1.8,0,.3,0,.3h-2.7Zm2.1-.5c0-.4-.2-1.1-1-1.1s-1,.7-1.1,1.1h2.1Z"/><path class="r" d="M355.1,476.1v-5.4h.8l1.7,2.7c.4,.6,.7,1.2,1,1.8h0c0-.7,0-1.4,0-2.2v-2.3h.7v5.4h-.7l-1.7-2.7c-.4-.6-.7-1.2-1-1.8h0c0,.7,0,1.3,0,2.2v2.3h-.7Z"/><path class="r" d="M363.9,474.1c0,1.4-1,2.1-1.9,2.1s-1.9-.8-1.9-2,.8-2.1,1.9-2.1,1.9,.8,1.9,2Zm-3.1,0c0,.8,.5,1.5,1.2,1.5s1.2-.6,1.2-1.5-.3-1.5-1.2-1.5-1.2,.8-1.2,1.5Z"/><path class="r" d="M364.8,473.5c0-.5,0-.8,0-1.2h.6v.8h0c.2-.5,.6-.8,1.1-.8s.1,0,.2,0v.7c0,0-.1,0-.2,0-.5,0-.8,.4-.9,.9,0,0,0,.2,0,.3v2.1h-.7v-2.7Z"/><path class="r" d="M368.4,471.1v1.1h1v.5h-1v2.1c0,.5,.1,.8,.5,.8s.3,0,.4,0v.5c-.1,0-.3,0-.6,0s-.6-.1-.8-.3c-.2-.2-.3-.6-.3-1v-2.1h-.6v-.5h.6v-.9l.7-.2Z"/><path class="r" d="M370.2,470.4h.7v2.4h0c.1-.2,.3-.4,.5-.5,.2-.1,.5-.2,.7-.2,.5,0,1.4,.3,1.4,1.7v2.3h-.7v-2.2c0-.6-.2-1.2-.9-1.2s-.8,.3-.9,.7c0,0,0,.2,0,.3v2.3h-.7v-5.7Z"/><path class="r" d="M374.2,477.1c.2-.5,.4-1.3,.5-1.9h.8c-.2,.6-.5,1.5-.8,1.9h-.5Z"/><path class="r" d="M377.9,475.3c.3,.2,.8,.4,1.2,.4,.7,0,1.1-.4,1.1-.9s-.3-.8-1-1.1c-.9-.3-1.4-.8-1.4-1.5s.7-1.5,1.7-1.5,1,.1,1.2,.3l-.2,.6c-.2,0-.5-.3-1-.3-.7,0-1,.4-1,.8s.3,.8,1.1,1c.9,.4,1.4,.8,1.4,1.6s-.6,1.6-1.9,1.6-1.1-.2-1.4-.3l.2-.6Z"/><path class="r" d="M385.5,474.1c0,1.4-1,2.1-1.9,2.1s-1.9-.8-1.9-2,.8-2.1,1.9-2.1,1.9,.8,1.9,2Zm-3.1,0c0,.8,.5,1.5,1.2,1.5s1.2-.6,1.2-1.5-.3-1.5-1.2-1.5-1.2,.8-1.2,1.5Z"/><path class="r" d="M389.6,475.1c0,.4,0,.8,0,1.1h-.6v-.6h0c-.2,.3-.6,.7-1.3,.7s-1.3-.3-1.3-1.7v-2.3h.7v2.1c0,.7,.2,1.2,.9,1.2s.8-.3,.9-.6c0-.1,0-.2,0-.4v-2.4h.7v2.8Z"/><path class="r" d="M391.7,471.1v1.1h1v.5h-1v2.1c0,.5,.1,.8,.5,.8s.3,0,.4,0v.5c-.1,0-.3,0-.6,0s-.6-.1-.8-.3c-.2-.2-.3-.6-.3-1v-2.1h-.6v-.5h.6v-.9l.7-.2Z"/><path class="r" d="M393.5,470.4h.7v2.4h0c.1-.2,.3-.4,.5-.5,.2-.1,.5-.2,.7-.2,.5,0,1.4,.3,1.4,1.7v2.3h-.7v-2.2c0-.6-.2-1.2-.9-1.2s-.8,.3-.9,.7c0,0,0,.2,0,.3v2.3h-.7v-5.7Z"/><path class="r" d="M397.4,477.1c.2-.5,.4-1.3,.5-1.9h.8c-.2,.6-.5,1.5-.8,1.9h-.5Z"/><path class="r" d="M404.7,474.1c0,1.4-1,2.1-1.9,2.1s-1.9-.8-1.9-2,.8-2.1,1.9-2.1,1.9,.8,1.9,2Zm-3.1,0c0,.8,.5,1.5,1.2,1.5s1.2-.6,1.2-1.5-.3-1.5-1.2-1.5-1.2,.8-1.2,1.5Z"/><path class="r" d="M405.6,473.5c0-.5,0-.8,0-1.2h.6v.8h0c.2-.5,.6-.8,1.1-.8s.1,0,.2,0v.7c0,0-.1,0-.2,0-.5,0-.8,.4-.9,.9,0,0,0,.2,0,.3v2.1h-.7v-2.7Z"/><path class="r" d="M414.6,473.4c0,1.9-1.1,2.8-2.5,2.8s-2.4-1.1-2.4-2.7,1.1-2.8,2.5-2.8,2.4,1.1,2.4,2.7Zm-4.2,0c0,1.2,.6,2.2,1.7,2.2s1.7-1,1.7-2.2-.6-2.2-1.7-2.2-1.7,1.1-1.7,2.2Z"/><path class="r" d="M418,476.1v-3.3h-1.6v3.3h-.7v-3.3h-.5v-.5h.5c0-.7,.1-1.1,.4-1.4,.2-.2,.5-.4,1-.4s.4,0,.6,.1v.5c-.2,0-.4,0-.6,0-.6,0-.7,.5-.7,1.1v.2h1.6v-.2c0-.5,.1-1,.5-1.4,.3-.3,.6-.4,.9-.4s.5,0,.6,.1v.5c-.2,0-.3,0-.5,0-.6,0-.8,.5-.8,1.1v.2h.9v.5h-.9v3.3h-.7Z"/><path class="r" d="M371.6,491.1c.4,0,1-.1,1.7-.1s1.5,.2,1.9,.6c.4,.3,.6,.8,.6,1.4s-.2,1.1-.5,1.4c-.5,.5-1.2,.7-2.1,.7s-.5,0-.7,0v2.7h-.9v-6.7Zm.9,3.2c.2,0,.4,0,.7,0,1,0,1.7-.5,1.7-1.4s-.6-1.3-1.6-1.3-.7,0-.8,0v2.6Z"/><path class="r" d="M376.8,490.6h.9v3h0c.1-.2,.4-.5,.6-.6,.3-.2,.6-.2,.9-.2,.7,0,1.7,.4,1.7,2.1v2.9h-.9v-2.8c0-.8-.3-1.4-1.1-1.4s-1,.4-1.2,.9c0,.1,0,.2,0,.4v2.9h-.9v-7.1Z"/><path class="r" d="M385.1,497.7v-.6h0c-.3,.4-.8,.7-1.5,.7-1,0-1.5-.7-1.5-1.4,0-1.2,1-1.8,2.9-1.8h0c0-.5-.1-1.2-1.1-1.2s-.9,.1-1.3,.4l-.2-.6c.4-.3,1-.4,1.6-.4,1.5,0,1.8,1,1.8,2v1.8c0,.4,0,.8,0,1.2h-.8Zm-.1-2.5c-1,0-2,.2-2,1.1s.4,.8,.8,.8,1-.4,1.2-.8c0,0,0-.2,0-.3v-.8Z"/><path class="r" d="M387.1,496.8c.3,.2,.7,.3,1.2,.3,.6,0,.9-.3,.9-.7s-.2-.6-.9-.9c-.9-.3-1.3-.8-1.3-1.4s.6-1.4,1.7-1.4,.9,.1,1.2,.3l-.2,.6c-.2-.1-.5-.3-1-.3s-.8,.3-.8,.7,.3,.6,.9,.8c.8,.3,1.3,.7,1.3,1.5s-.7,1.4-1.8,1.4-1-.1-1.4-.3l.2-.7Z"/><path class="r" d="M391.7,495.5c0,1.2,.8,1.7,1.7,1.7s1-.1,1.3-.2l.2,.6c-.3,.1-.8,.3-1.6,.3-1.5,0-2.4-1-2.4-2.4s.9-2.6,2.3-2.6,2,1.4,2,2.3,0,.3,0,.4h-3.4Zm2.6-.6c0-.6-.2-1.4-1.2-1.4s-1.3,.8-1.3,1.4h2.6Z"/><path class="r" d="M403,497.5c-.3,.2-1,.3-1.8,.3-1.9,0-3.3-1.2-3.3-3.4s1.4-3.5,3.5-3.5,1.4,.2,1.6,.3l-.2,.7c-.3-.2-.8-.3-1.4-.3-1.6,0-2.6,1-2.6,2.8s.9,2.7,2.6,2.7,1.1-.1,1.4-.3l.2,.7Z"/></g></g><line class="d" x1="112.2" y1="443.6" x2="158.8" y2="366.6"/><line class="d" x1="129" y1="443.6" x2="177.4" y2="370.9"/><line class="g" x1="226.7" y1="443.6" x2="229.7" y2="405.1"/><line class="g" x1="260.7" y1="443.6" x2="257.4" y2="410.2"/><line class="f" x1="371.6" y1="445.1" x2="349.6" y2="395.8"/><line class="f" x1="396.8" y1="445.1" x2="365" y2="377.6"/><rect class="j" x="161" y="564.5" width="191.4" height="87.5"/><g><line class="i" x1="126.5" y1="507.2" x2="185" y2="564.5"/><path class="w" d="M122.2,503c1.3,2.7,2.5,6.5,2.8,9.4l2.1-4.6,4.6-2.2c-2.9-.2-6.7-1.4-9.4-2.6Z"/></g><g><line class="c" x1="244.6" y1="509" x2="245" y2="564.5"/><path class="ae" d="M244.5,503c-1,2.8-2.8,6.4-4.7,8.6l4.7-1.8,4.8,1.7c-1.9-2.2-3.7-5.7-4.8-8.5Z"/></g><g><line class="p" x1="367.7" y1="509.1" x2="320" y2="564.5"/><path class="ab" d="M371.6,504.5c-2.6,1.5-6.3,3-9.2,3.4l4.7,1.8,2.5,4.4c0-2.9,.9-6.7,2-9.6Z"/></g><g><path class="af" d="M149,525.5c-.3,0-.7-.4-1.2-.8-1.1-1.1-1.2-2.5,0-3.8,1.2-1.2,2.8-1.2,4,0,.5,.5,.7,.9,.7,1.1l-.5,.3c0-.3-.3-.6-.6-.9-.9-.9-2.1-.9-3.1,.1-.9,.9-1,2.1,0,3,.3,.3,.7,.5,1,.6l-.3,.5Z"/><path class="af" d="M153.3,527.2c-1,1-2.1,.8-2.8,.1-.7-.7-.8-1.8,0-2.7,.9-.9,2-.9,2.8-.1,.8,.8,.8,1.9,0,2.7Zm-2.2-2.1c-.6,.6-.7,1.4-.2,1.9,.5,.5,1.3,.4,1.9-.3,.5-.5,.8-1.3,.2-1.9-.6-.6-1.4-.3-1.9,.2Z"/><path class="af" d="M154.5,527.3c.3-.3,.5-.5,.7-.8l.4,.4-.4,.5h0c.4-.1,1,0,1.4,.4,.4,.4,.8,1.2-.2,2.1l-1.6,1.6-.5-.5,1.6-1.6c.4-.4,.6-1,.2-1.4-.3-.3-.8-.3-1.2-.1,0,0-.2,.1-.3,.2l-1.6,1.7-.5-.5,2-2Z"/><path class="af" d="M159.8,529.4l-.8,.8,.7,.7-.4,.4-.7-.7-1.5,1.5c-.3,.3-.4,.6-.1,.9,.1,.1,.2,.2,.3,.3l-.3,.4c-.1,0-.3-.2-.5-.4-.2-.2-.3-.5-.3-.7,0-.3,.2-.6,.5-.9l1.5-1.5-.4-.4,.4-.4,.4,.4,.6-.7,.6,.3Z"/><path class="af" d="M159.5,532.3c.3-.3,.6-.6,.8-.9l.4,.4-.5,.6h0c.5-.2,1-.2,1.4,.2,0,0,0,0,.1,.2l-.5,.5c0,0,0-.1-.2-.2-.4-.3-.9-.3-1.3,0,0,0-.2,.1-.3,.2l-1.4,1.5-.5-.5,1.9-1.9Z"/><path class="af" d="M163.3,537c-1,1-2.1,.8-2.8,.1-.7-.7-.8-1.8,0-2.7,.9-.9,2-.9,2.8-.1,.8,.8,.8,1.9,0,2.7Zm-2.2-2.1c-.6,.6-.7,1.4-.2,1.9,.5,.5,1.3,.4,1.9-.3,.5-.5,.8-1.3,.2-1.9-.6-.6-1.4-.3-1.9,.2Z"/><path class="af" d="M166.5,535l.5,.5-4,4.1-.5-.5,4-4.1Z"/><path class="af" d="M164.1,540c.2-.2,.5-.2,.7,0,.2,.2,.2,.5,0,.7-.2,.2-.5,.2-.7,0-.2-.2-.2-.5,0-.7Zm2-2c.2-.2,.5-.2,.7,0,.2,.2,.2,.5,0,.7-.2,.2-.5,.2-.7,0-.2-.2-.2-.5,0-.7Z"/><path class="af" d="M140,530.4l3.8-3.8,.5,.5-.7,3.2c-.2,.7-.3,1.4-.5,1.9h0c.5-.6,.9-1,1.5-1.6l1.6-1.6,.5,.5-3.8,3.8-.5-.5,.7-3.2c.2-.7,.3-1.4,.5-2h0c-.4,.5-.9,1-1.5,1.6l-1.6,1.6-.5-.5Z"/><path class="af" d="M143.1,533.9l5.6-2.6,.4,.4-5.7,2.6-.4-.4Z"/><path class="af" d="M146.2,535.3c0,.4,.3,.8,.6,1.1,.5,.5,1.1,.5,1.4,.1,.4-.4,.3-.8,0-1.5-.4-.8-.5-1.5,0-2.1,.6-.6,1.5-.6,2.3,.2,.4,.4,.6,.8,.7,1l-.5,.3c0-.2-.2-.6-.6-.9-.5-.5-1-.4-1.3-.1-.4,.4-.3,.8,0,1.5,.4,.9,.4,1.5-.1,2.1-.6,.6-1.5,.7-2.4-.2-.4-.4-.7-.9-.7-1.2l.5-.3Z"/><path class="af" d="M147.9,538.6l5.6-2.6,.4,.4-5.7,2.6-.4-.4Z"/><path class="af" d="M155.7,541.9c-1.3,1.3-2.8,1.2-3.8,.3-1-1-1-2.5,.2-3.6,1.2-1.2,2.7-1.3,3.8-.3,1.1,1,.9,2.5-.2,3.6Zm-3-2.9c-.8,.8-1.1,2-.3,2.8,.8,.8,1.9,.5,2.8-.4,.8-.8,1.1-2,.3-2.8-.8-.8-2-.5-2.8,.4Z"/><path class="af" d="M156.2,546.3l2.3-2.4-1.2-1.1-2.3,2.4-.5-.5,2.3-2.4-.4-.4,.4-.4,.4,.4h0c.4-.5,.8-.7,1.2-.7,.3,0,.6,.1,.9,.4,.2,.2,.3,.4,.3,.5l-.5,.3c0-.1-.1-.2-.2-.4-.4-.4-.8-.2-1.3,.3h-.1l1.2,1.3h.1c.4-.5,.8-.8,1.3-.8,.4,0,.7,.2,.9,.4,.2,.2,.3,.4,.4,.5l-.4,.3c0-.1-.1-.2-.3-.4-.4-.4-.9-.1-1.3,.3h-.1l.7,.8-.4,.4-.7-.6-2.3,2.4-.5-.5Z"/></g><text class="x" transform="translate(245.8 529.1)"><tspan class="ap" x="0" y="0">C</tspan><tspan x="4.6" y="0">o</tspan><tspan class="al" x="8.9" y="0">n</tspan><tspan x="13.4" y="0">t</tspan><tspan class="ad" x="16" y="0">r</tspan><tspan class="ah" x="18.5" y="0">ol:</tspan><tspan x=".7" y="9.6">N/S/</tspan><tspan class="ai" x="15.4" y="9.6">O</tspan><tspan x="21.1" y="9.6">ff</tspan></text><text class="x" transform="translate(341.3 537) rotate(-49.3)"><tspan class="ap" x="0" y="0">C</tspan><tspan x="4.6" y="0">o</tspan><tspan class="al" x="8.9" y="0">n</tspan><tspan x="13.4" y="0">t</tspan><tspan class="ad" x="16" y="0">r</tspan><tspan class="ah" x="18.5" y="0">ol:</tspan><tspan x=".7" y="9.6">N/S/</tspan><tspan class="ai" x="15.4" y="9.6">O</tspan><tspan x="21.1" y="9.6">ff</tspan></text><g><rect class="af" x="69.8" y="520.3" width="36.1" height="23.1"/><text class="s" transform="translate(77.5 534.5)"><tspan class="v" x="0" y="0">P</tspan><tspan class="aa" x="4.1" y="0">o</tspan><tspan class="an" x="8.4" y="0">w</tspan><tspan x="14.2" y="0">er</tspan></text><line class="n" x1="79.5" y1="503" x2="79.5" y2="520.3"/><line class="n" x1="93.7" y1="520.3" x2="93.7" y2="503"/></g><g><rect class="af" x="205.8" y="520.3" width="36.1" height="23.1"/><text class="s" transform="translate(213.4 534.5)"><tspan class="v" x="0" y="0">P</tspan><tspan class="aa" x="4.1" y="0">o</tspan><tspan class="an" x="8.4" y="0">w</tspan><tspan x="14.2" y="0">er</tspan></text><line class="n" x1="215.5" y1="503" x2="215.5" y2="520.3"/><line class="n" x1="229.6" y1="520.3" x2="229.6" y2="503"/></g><g><rect class="af" x="387.7" y="521.8" width="36.1" height="23.1"/><text class="s" transform="translate(395.3 536)"><tspan class="v" x="0" y="0">P</tspan><tspan class="aa" x="4.1" y="0">o</tspan><tspan class="an" x="8.4" y="0">w</tspan><tspan x="14.2" y="0">er</tspan></text><line class="n" x1="397.4" y1="504.5" x2="397.4" y2="521.8"/><line class="n" x1="411.5" y1="521.8" x2="411.5" y2="504.5"/></g><g><circle class="b" cx="291.5" cy="250.9" r="5"/><text class="x" transform="translate(288.8 254)"><tspan x="0" y="0">H</tspan></text></g><g><circle class="b" cx="299" cy="215.7" r="5"/><text class="x" transform="translate(296.4 218.8)"><tspan x="0" y="0">H</tspan></text></g><g><circle class="b" cx="284.7" cy="182.8" r="5"/><text class="x" transform="translate(282.1 185.9)"><tspan x="0" y="0">H</tspan></text></g><g><path class="af" d="M261,208.1c.4,0,.9-.1,1.3-.1,.7,0,1.2,.1,1.6,.4,.3,.2,.4,.6,.4,1,0,.7-.4,1.2-1,1.4h0c.4,.2,.7,.6,.8,1.1,.2,.8,.3,1.3,.4,1.5h-.7c0-.2-.2-.6-.4-1.3-.2-.7-.4-1-1.1-1h-.7v2.3h-.7v-5.3Zm.7,2.5h.7c.7,0,1.2-.4,1.2-1s-.5-1-1.2-1c-.3,0-.6,0-.7,0v2Z"/><path class="af" d="M268.8,211.4c0,1.4-1,2.1-1.9,2.1s-1.9-.8-1.9-2,.8-2.1,1.9-2.1,1.9,.8,1.9,2Zm-3.1,0c0,.8,.5,1.5,1.2,1.5s1.2-.6,1.2-1.5-.3-1.5-1.2-1.5-1.2,.8-1.2,1.5Z"/><path class="af" d="M270.5,208.4v1.1h1v.5h-1v2.1c0,.5,.1,.8,.5,.8s.3,0,.4,0v.5c-.1,0-.3,0-.6,0s-.6-.1-.8-.3c-.2-.2-.3-.6-.3-1v-2.1h-.6v-.5h.6v-.9l.7-.2Z"/><path class="af" d="M274.5,213.4v-.5h0c-.2,.3-.6,.6-1.2,.6-.8,0-1.2-.6-1.2-1.1,0-.9,.8-1.4,2.3-1.4h0c0-.4,0-1-.9-1s-.7,.1-1,.3l-.2-.5c.3-.2,.8-.3,1.3-.3,1.2,0,1.5,.8,1.5,1.6v1.4c0,.3,0,.7,0,.9h-.6Zm-.1-2c-.8,0-1.6,.1-1.6,.9s.3,.7,.7,.7,.8-.3,.9-.6c0,0,0-.2,0-.2v-.7Z"/><path class="af" d="M277,208.4v1.1h1v.5h-1v2.1c0,.5,.1,.8,.5,.8s.3,0,.4,0v.5c-.1,0-.3,0-.6,0s-.6-.1-.8-.3c-.2-.2-.3-.6-.3-1v-2.1h-.6v-.5h.6v-.9l.7-.2Z"/><path class="af" d="M279.6,208.4c0,.2-.2,.4-.4,.4s-.4-.2-.4-.4,.2-.4,.4-.4,.4,.2,.4,.4Zm-.8,5v-3.9h.7v3.9h-.7Z"/><path class="af" d="M284.2,211.4c0,1.4-1,2.1-1.9,2.1s-1.9-.8-1.9-2,.8-2.1,1.9-2.1,1.9,.8,1.9,2Zm-3.1,0c0,.8,.5,1.5,1.2,1.5s1.2-.6,1.2-1.5-.3-1.5-1.2-1.5-1.2,.8-1.2,1.5Z"/><path class="af" d="M285.1,210.6c0-.4,0-.7,0-1h.6v.6h0c.2-.4,.6-.7,1.3-.7s1.4,.3,1.4,1.6v2.3h-.7v-2.2c0-.6-.2-1.1-.9-1.1s-.8,.3-.9,.7c0,0,0,.2,0,.3v2.3h-.7v-2.8Z"/><path class="af" d="M261.8,217.7c.3,0,.8-.1,1.3-.1s1.2,.2,1.5,.4c.3,.3,.5,.6,.5,1.1s-.1,.9-.4,1.2c-.4,.4-1,.6-1.6,.6s-.4,0-.6,0v2.2h-.7v-5.3Zm.7,2.6c.2,0,.3,0,.6,0,.8,0,1.4-.4,1.4-1.2s-.5-1.1-1.3-1.1-.5,0-.7,0v2.1Z"/><path class="af" d="M269.4,221c0,1.4-1,2.1-1.9,2.1s-1.9-.8-1.9-2,.8-2.1,1.9-2.1,1.9,.8,1.9,2Zm-3.1,0c0,.8,.5,1.5,1.2,1.5s1.2-.6,1.2-1.5-.3-1.5-1.2-1.5-1.2,.8-1.2,1.5Z"/><path class="af" d="M270.1,222.3c.2,.1,.6,.3,.9,.3,.5,0,.8-.3,.8-.6s-.2-.5-.7-.7c-.7-.2-1-.6-1-1.1s.5-1.1,1.3-1.1,.7,.1,1,.2l-.2,.5c-.2,0-.4-.2-.8-.2s-.6,.2-.6,.5,.2,.5,.7,.7,1,.6,1,1.2-.5,1.2-1.4,1.2-.8-.1-1.1-.3l.2-.5Z"/><path class="af" d="M274.2,218c0,.2-.2,.4-.4,.4s-.4-.2-.4-.4,.2-.4,.4-.4,.4,.2,.4,.4Zm-.8,5v-3.9h.7v3.9h-.7Z"/><path class="af" d="M276.1,218v1.1h1v.5h-1v2.1c0,.5,.1,.8,.5,.8s.3,0,.4,0v.5c-.1,0-.3,0-.6,0s-.6-.1-.8-.3c-.2-.2-.3-.6-.3-1v-2.1h-.6v-.5h.6v-.9l.7-.2Z"/><path class="af" d="M278.7,218c0,.2-.2,.4-.4,.4s-.4-.2-.4-.4,.2-.4,.4-.4,.4,.2,.4,.4Zm-.8,5v-3.9h.7v3.9h-.7Z"/><path class="af" d="M283.3,221c0,1.4-1,2.1-1.9,2.1s-1.9-.8-1.9-2,.8-2.1,1.9-2.1,1.9,.8,1.9,2Zm-3.1,0c0,.8,.5,1.5,1.2,1.5s1.2-.6,1.2-1.5-.3-1.5-1.2-1.5-1.2,.8-1.2,1.5Z"/><path class="af" d="M284.2,220.2c0-.4,0-.7,0-1h.6v.6h0c.2-.4,.6-.7,1.3-.7s1.4,.3,1.4,1.6v2.3h-.7v-2.2c0-.6-.2-1.1-.9-1.1s-.8,.3-.9,.7c0,0,0,.2,0,.3v2.3h-.7v-2.8Z"/><path class="af" d="M262.3,231.7c.3,.2,.8,.4,1.2,.4,.7,0,1.1-.4,1.1-.9s-.3-.8-1-1.1c-.9-.3-1.4-.8-1.4-1.5s.7-1.5,1.7-1.5,1,.1,1.2,.3l-.2,.6c-.2,0-.5-.3-1-.3-.7,0-1,.4-1,.8s.3,.8,1.1,1c.9,.4,1.4,.8,1.4,1.6s-.6,1.6-1.9,1.6-1.1-.2-1.4-.3l.2-.6Z"/><path class="af" d="M266.7,230.8c0,1,.6,1.3,1.3,1.3s.8,0,1.1-.2v.5c-.1,.1-.6,.2-1.2,.2-1.2,0-1.9-.8-1.9-2s.7-2.1,1.8-2.1,1.6,1.1,1.6,1.8,0,.3,0,.3h-2.7Zm2.1-.5c0-.4-.2-1.1-1-1.1s-1,.7-1.1,1.1h2.1Z"/><path class="af" d="M270.3,229.8c0-.4,0-.7,0-1h.6v.6h0c.2-.4,.6-.7,1.3-.7s1.4,.3,1.4,1.6v2.3h-.7v-2.2c0-.6-.2-1.1-.9-1.1s-.8,.3-.9,.7c0,0,0,.2,0,.3v2.3h-.7v-2.8Z"/><path class="af" d="M274.7,231.9c.2,.1,.6,.3,.9,.3,.5,0,.8-.3,.8-.6s-.2-.5-.7-.7c-.7-.2-1-.6-1-1.1s.5-1.1,1.3-1.1,.7,.1,1,.2l-.2,.5c-.2,0-.4-.2-.8-.2s-.6,.2-.6,.5,.2,.5,.7,.7c.7,.3,1,.6,1,1.2s-.5,1.2-1.4,1.2-.8-.1-1.1-.3l.2-.5Z"/><path class="af" d="M281.4,230.6c0,1.4-1,2.1-1.9,2.1s-1.9-.8-1.9-2,.8-2.1,1.9-2.1,1.9,.8,1.9,2Zm-3.1,0c0,.8,.5,1.5,1.2,1.5s1.2-.6,1.2-1.5-.3-1.5-1.2-1.5-1.2,.8-1.2,1.5Z"/><path class="af" d="M282.3,229.9c0-.5,0-.8,0-1.2h.6v.8h0c.2-.5,.6-.8,1.1-.8s.1,0,.2,0v.7c0,0-.1,0-.2,0-.5,0-.8,.4-.9,.9,0,0,0,.2,0,.3v2.1h-.7v-2.7Z"/><path class="af" d="M284.8,231.9c.2,.1,.6,.3,.9,.3,.5,0,.8-.3,.8-.6s-.2-.5-.7-.7c-.7-.2-1-.6-1-1.1s.5-1.1,1.3-1.1,.7,.1,1,.2l-.2,.5c-.2,0-.4-.2-.8-.2s-.6,.2-.6,.5,.2,.5,.7,.7c.7,.3,1,.6,1,1.2s-.5,1.2-1.4,1.2-.8-.1-1.1-.3l.2-.5Z"/></g><path class="b" d="M289.8,178.6c3.6,3.5,15.6,15.9,18.1,36.2,2.6,21.5-7.2,37.1-9.8,41.1"/><line class="b" x1="472.4" y1="379.5" x2="297.8" y2="255.5"/><g><line class="b" x1="358.4" y1="608.3" x2="469.7" y2="608.3"/><path class="af" d="M352.4,608.3c2.8,1.1,6.4,2.9,8.5,4.8l-1.7-4.8,1.7-4.8c-2.2,1.9-5.7,3.7-8.5,4.8Z"/></g><line class="b" x1="469.7" y1="608.3" x2="472.4" y2="379.5"/><g><path class="af" d="M370.4,603.5c0-.8,0-1.7,0-2.3h0c-.2,.6-.4,1.3-.7,2l-1,2.6h-.5l-.9-2.6c-.3-.8-.5-1.5-.6-2.1h0c0,.7,0,1.6-.1,2.4v2.3h-.8l.4-5.4h.9l.9,2.6c.2,.7,.4,1.3,.5,1.8h0c.1-.5,.3-1.1,.6-1.8l1-2.6h.9l.3,5.4h-.7v-2.4Z"/><path class="af" d="M374.5,605.9v-.5h0c-.2,.3-.6,.6-1.2,.6-.8,0-1.2-.6-1.2-1.1,0-.9,.8-1.4,2.3-1.4h0c0-.4,0-1-.9-1s-.7,.1-1,.3l-.2-.5c.3-.2,.8-.3,1.3-.3,1.2,0,1.5,.8,1.5,1.6v1.4c0,.3,0,.7,0,.9h-.6Zm-.1-2c-.8,0-1.6,.1-1.6,.9s.3,.7,.7,.7,.8-.3,.9-.6c0,0,0-.2,0-.2v-.7Z"/><path class="af" d="M379.5,602c0,.3,0,.6,0,1.1v2.2c0,.9-.2,1.4-.6,1.8-.4,.4-.9,.5-1.4,.5s-1-.1-1.3-.3l.2-.5c.3,.2,.7,.3,1.1,.3,.7,0,1.2-.4,1.2-1.4v-.4h0c-.2,.4-.6,.6-1.2,.6-1,0-1.6-.8-1.6-1.9s.9-2.1,1.7-2.1,1,.4,1.2,.7h0v-.6h.6Zm-.7,1.5c0-.1,0-.2,0-.3-.1-.4-.5-.7-1-.7s-1.2,.6-1.2,1.5,.4,1.4,1.1,1.4,.8-.3,1-.7c0-.1,0-.3,0-.4v-.7Z"/><path class="af" d="M380.6,603.1c0-.4,0-.7,0-1h.6v.6h0c.2-.4,.6-.7,1.3-.7s1.4,.3,1.4,1.6v2.3h-.7v-2.2c0-.6-.2-1.1-.9-1.1s-.8,.3-.9,.7c0,0,0,.2,0,.3v2.3h-.7v-2.8Z"/><path class="af" d="M385.4,604.1c0,1,.6,1.3,1.3,1.3s.8,0,1.1-.2v.5c-.1,.1-.6,.2-1.2,.2-1.2,0-1.9-.8-1.9-2s.7-2.1,1.8-2.1,1.6,1.1,1.6,1.8,0,.3,0,.3h-2.7Zm2.1-.5c0-.4-.2-1.1-1-1.1s-1,.7-1.1,1.1h2.1Z"/><path class="af" d="M389.9,600.9v1.1h1v.5h-1v2.1c0,.5,.1,.8,.5,.8s.3,0,.4,0v.5c-.1,0-.3,0-.6,0s-.6-.1-.8-.3c-.2-.2-.3-.6-.3-1v-2.1h-.6v-.5h.6v-.9l.7-.2Z"/><path class="af" d="M363.8,610.2c.3,0,.8-.1,1.3-.1s1.2,.2,1.5,.4c.3,.3,.5,.6,.5,1.1s-.1,.9-.4,1.2c-.4,.4-1,.6-1.6,.6s-.4,0-.6,0v2.2h-.7v-5.3Zm.7,2.6c.2,0,.3,0,.6,0,.8,0,1.4-.4,1.4-1.2s-.5-1.1-1.3-1.1-.5,0-.7,0v2.1Z"/><path class="af" d="M371.3,613.5c0,1.4-1,2.1-1.9,2.1s-1.9-.8-1.9-2,.8-2.1,1.9-2.1,1.9,.8,1.9,2Zm-3.1,0c0,.8,.5,1.5,1.2,1.5s1.2-.6,1.2-1.5-.3-1.5-1.2-1.5-1.2,.8-1.2,1.5Z"/><path class="af" d="M372.1,614.8c.2,.1,.6,.3,.9,.3,.5,0,.8-.3,.8-.6s-.2-.5-.7-.7c-.7-.2-1-.6-1-1.1s.5-1.1,1.3-1.1,.7,.1,1,.2l-.2,.5c-.2,0-.4-.2-.8-.2s-.6,.2-.6,.5,.2,.5,.7,.7c.7,.3,1,.6,1,1.2s-.5,1.2-1.4,1.2-.8-.1-1.1-.3l.2-.5Z"/><path class="af" d="M376.2,610.5c0,.2-.2,.4-.4,.4s-.4-.2-.4-.4,.2-.4,.4-.4,.4,.2,.4,.4Zm-.8,5v-3.9h.7v3.9h-.7Z"/><path class="af" d="M378.1,610.5v1.1h1v.5h-1v2.1c0,.5,.1,.8,.5,.8s.3,0,.4,0v.5c-.1,0-.3,0-.6,0s-.6-.1-.8-.3c-.2-.2-.3-.6-.3-1v-2.1h-.6v-.5h.6v-.9l.7-.2Z"/><path class="af" d="M380.7,610.5c0,.2-.2,.4-.4,.4s-.4-.2-.4-.4,.2-.4,.4-.4,.4,.2,.4,.4Zm-.8,5v-3.9h.7v3.9h-.7Z"/><path class="af" d="M385.3,613.5c0,1.4-1,2.1-1.9,2.1s-1.9-.8-1.9-2,.8-2.1,1.9-2.1,1.9,.8,1.9,2Zm-3.1,0c0,.8,.5,1.5,1.2,1.5s1.2-.6,1.2-1.5-.3-1.5-1.2-1.5-1.2,.8-1.2,1.5Z"/><path class="af" d="M386.2,612.7c0-.4,0-.7,0-1h.6v.6h0c.2-.4,.6-.7,1.3-.7s1.4,.3,1.4,1.6v2.3h-.7v-2.2c0-.6-.2-1.1-.9-1.1s-.8,.3-.9,.7c0,0,0,.2,0,.3v2.3h-.7v-2.8Z"/><path class="af" d="M390.5,614.8c.2,.1,.6,.3,.9,.3,.5,0,.8-.3,.8-.6s-.2-.5-.7-.7c-.7-.2-1-.6-1-1.1s.5-1.1,1.3-1.1,.7,.1,1,.2l-.2,.5c-.2,0-.4-.2-.8-.2s-.6,.2-.6,.5,.2,.5,.7,.7c.7,.3,1,.6,1,1.2s-.5,1.2-1.4,1.2-.8-.1-1.1-.3l.2-.5Z"/></g><text class="x" transform="translate(243.4 609.8)"><tspan class="am" x="0" y="0">A</tspan><tspan class="ad" x="4.9" y="0">r</tspan><tspan x="7.4" y="0">duino</tspan></text><g><path class="af" d="M4.4,15l-1.7,5.1H.6L6.1,3.9h2.5l5.5,16.2h-2.2l-1.7-5.1H4.4Zm5.3-1.6l-1.6-4.7c-.4-1.1-.6-2-.8-3h0c-.2,1-.5,1.9-.8,2.9l-1.6,4.7h4.9Z"/><path class="af" d="M17.4,8.5l1.7,2.5c.4,.6,.8,1.2,1.2,1.9h0c.4-.7,.8-1.3,1.2-1.9l1.6-2.5h2.3l-4,5.6,4.1,6h-2.4l-1.7-2.6c-.5-.7-.8-1.3-1.2-2h0c-.4,.7-.8,1.3-1.2,2l-1.7,2.6h-2.3l4.1-5.9-3.9-5.7h2.4Z"/><path class="af" d="M29.9,5.2c0,.7-.5,1.3-1.3,1.3s-1.3-.6-1.3-1.3,.6-1.3,1.3-1.3,1.3,.6,1.3,1.3Zm-2.4,14.9V8.5h2.1v11.6h-2.1Z"/><path class="af" d="M39.6,20.1l-.2-1.5h0c-.6,.9-1.9,1.7-3.6,1.7-2.4,0-3.6-1.7-3.6-3.3,0-2.8,2.5-4.3,7-4.3v-.2c0-1-.3-2.7-2.6-2.7s-2.2,.3-3,.9l-.5-1.4c1-.6,2.4-1,3.8-1,3.6,0,4.4,2.4,4.4,4.8v4.3c0,1,0,2,.2,2.8h-1.9Zm-.3-5.9c-2.3,0-4.9,.4-4.9,2.6s.9,2,2,2,2.5-1,2.8-1.9c0-.2,.1-.5,.1-.7v-2Z"/><path class="af" d="M44.7,3h2.1V20.1h-2.1V3Z"/><path class="af" d="M55.6,4.1c.9-.2,2.4-.3,3.8-.3,2.1,0,3.4,.4,4.4,1.2,.8,.6,1.3,1.6,1.3,2.9s-1,2.9-2.7,3.6h0c1.5,.4,3.3,1.7,3.3,4.1s-.6,2.4-1.4,3.2c-1.1,1-3,1.5-5.6,1.5s-2.5,0-3.2-.2V4.1Zm2.1,6.6h1.9c2.2,0,3.5-1.2,3.5-2.7s-1.4-2.6-3.6-2.6-1.5,0-1.8,.1v5.2Zm0,7.8c.4,0,1,0,1.8,0,2.2,0,4.2-.8,4.2-3.1s-1.9-3.1-4.2-3.1h-1.7v6.2Z"/><path class="af" d="M68.5,12.1c0-1.4,0-2.5,0-3.6h1.8v2.3h.2c.5-1.6,1.8-2.5,3.2-2.5s.4,0,.6,0v2c-.2,0-.4,0-.7,0-1.5,0-2.5,1.1-2.8,2.7,0,.3,0,.6,0,1v6.2h-2.1v-8Z"/><path class="af" d="M86.1,16.9c0,1.2,0,2.3,0,3.2h-1.9v-1.9h-.2c-.6,.9-1.8,2.2-3.8,2.2s-4-1-4-5.1v-6.8h2.1v6.4c0,2.2,.7,3.7,2.6,3.7s2.4-1,2.8-1.9c.1-.3,.2-.7,.2-1.1v-7.1h2.1v8.4Z"/><path class="af" d="M89.3,17.9c.6,.4,1.7,.8,2.8,.8,1.5,0,2.3-.8,2.3-1.7s-.6-1.6-2.2-2.1c-2.1-.7-3.1-1.9-3.1-3.3s1.5-3.4,4-3.4,2.2,.3,2.9,.7l-.5,1.5c-.5-.3-1.3-.7-2.4-.7s-1.9,.7-1.9,1.6,.7,1.4,2.2,2c2,.8,3,1.8,3,3.5s-1.6,3.5-4.3,3.5-2.4-.3-3.3-.8l.5-1.6Z"/><path class="af" d="M99.1,3h2.1v7.2h0c.3-.6,.9-1.1,1.5-1.5,.6-.4,1.4-.6,2.2-.6,1.6,0,4.1,1,4.1,5v6.9h-2.1v-6.7c0-1.9-.7-3.5-2.7-3.5s-2.4,1-2.8,2.1c-.1,.3-.1,.6-.1,1v7h-2.1V3Z"/><path class="af" d="M112.4,3h2.1V20.1h-2.1V3Z"/><path class="af" d="M119.2,14.7c0,2.9,1.9,4,4,4s2.4-.3,3.2-.6l.4,1.5c-.7,.3-2,.7-3.9,.7-3.6,0-5.7-2.4-5.7-5.9s2.1-6.3,5.4-6.3,4.8,3.3,4.8,5.5,0,.8,0,1h-8.2Zm6.2-1.5c0-1.3-.6-3.4-2.9-3.4s-3.1,2-3.2,3.4h6.2Z"/><path class="af" d="M129.8,17.9c.6,.4,1.7,.8,2.8,.8,1.5,0,2.3-.8,2.3-1.7s-.6-1.6-2.2-2.1c-2.1-.7-3.1-1.9-3.1-3.3s1.5-3.4,4-3.4,2.2,.3,2.9,.7l-.5,1.5c-.5-.3-1.3-.7-2.4-.7s-1.9,.7-1.9,1.6,.7,1.4,2.2,2c2,.8,3,1.8,3,3.5s-1.6,3.5-4.3,3.5-2.4-.3-3.3-.8l.5-1.6Z"/><path class="af" d="M139.3,17.9c.6,.4,1.7,.8,2.8,.8,1.5,0,2.3-.8,2.3-1.7s-.6-1.6-2.2-2.1c-2.1-.7-3.1-1.9-3.1-3.3s1.5-3.4,4-3.4,2.2,.3,2.9,.7l-.5,1.5c-.5-.3-1.3-.7-2.4-.7s-1.9,.7-1.9,1.6,.7,1.4,2.2,2c2,.8,3,1.8,3,3.5s-1.6,3.5-4.3,3.5-2.4-.3-3.3-.8l.5-1.6Z"/><path class="af" d="M167.9,13c-.1-2.3-.3-5-.2-7h0c-.6,1.9-1.2,3.9-2,6.1l-2.9,7.8h-1.6l-2.6-7.7c-.8-2.3-1.4-4.4-1.9-6.3h0c0,2-.2,4.7-.3,7.2l-.4,6.9h-2l1.1-16.2h2.7l2.8,7.8c.7,2,1.2,3.8,1.6,5.4h0c.4-1.6,1-3.4,1.7-5.4l2.9-7.8h2.7l1,16.2h-2l-.4-7.1Z"/><path class="af" d="M184.1,14.2c0,4.3-3,6.2-5.8,6.2s-5.6-2.3-5.6-6,2.5-6.2,5.8-6.2,5.6,2.4,5.6,6Zm-9.2,.1c0,2.5,1.5,4.5,3.5,4.5s3.5-1.9,3.5-4.5-1-4.5-3.5-4.5-3.6,2.3-3.6,4.5Z"/><path class="af" d="M189.3,5.1v3.3h3v1.6h-3v6.3c0,1.4,.4,2.3,1.6,2.3s1,0,1.2-.1v1.6c-.3,.2-1,.3-1.8,.3s-1.8-.3-2.3-.9c-.6-.6-.8-1.7-.8-3v-6.3h-1.8v-1.6h1.8v-2.8l2.1-.6Z"/><path class="af" d="M205.1,14.2c0,4.3-3,6.2-5.8,6.2s-5.6-2.3-5.6-6,2.5-6.2,5.8-6.2,5.6,2.4,5.6,6Zm-9.2,.1c0,2.5,1.5,4.5,3.5,4.5s3.5-1.9,3.5-4.5-1-4.5-3.5-4.5-3.6,2.3-3.6,4.5Z"/><path class="af" d="M207.8,12.1c0-1.4,0-2.5,0-3.6h1.8v2.3h.2c.5-1.6,1.8-2.5,3.2-2.5s.4,0,.6,0v2c-.2,0-.4,0-.7,0-1.5,0-2.5,1.1-2.8,2.7,0,.3,0,.6,0,1v6.2h-2.1v-8Z"/><path class="af" d="M6,32.5H2.3v3.4H6.4v1H1.1v-9.4H6.2v1H2.3v3h3.7v1Z"/><path class="af" d="M7.9,26.9h1.2v9.9h-1.2v-9.9Z"/><path class="af" d="M11.9,33.7c0,1.7,1.1,2.4,2.3,2.4s1.4-.2,1.9-.4l.2,.9c-.4,.2-1.2,.4-2.3,.4-2.1,0-3.3-1.4-3.3-3.4s1.2-3.7,3.2-3.7,2.8,1.9,2.8,3.2,0,.4,0,.6h-4.8Zm3.6-.9c0-.8-.3-2-1.7-2s-1.8,1.1-1.9,2h3.6Z"/><path class="af" d="M23.1,36.6c-.3,.2-1,.4-1.9,.4-2,0-3.4-1.4-3.4-3.5s1.4-3.6,3.6-3.6,1.4,.2,1.7,.4l-.3,1c-.3-.2-.8-.3-1.4-.3-1.6,0-2.4,1.1-2.4,2.6s1,2.5,2.4,2.5,1.2-.2,1.5-.3l.2,.9Z"/><path class="af" d="M26.2,28.2v1.9h1.8v.9h-1.8v3.7c0,.8,.2,1.3,.9,1.3s.6,0,.7,0v.9c-.2,0-.6,.2-1,.2s-1-.2-1.3-.5c-.4-.4-.5-1-.5-1.8v-3.7h-1.1v-.9h1.1v-1.6l1.2-.3Z"/><path class="af" d="M29.3,32.2c0-.8,0-1.5,0-2.1h1.1v1.3h0c.3-.9,1.1-1.5,1.9-1.5s.2,0,.4,0v1.2c-.1,0-.3,0-.4,0-.9,0-1.5,.7-1.7,1.6,0,.2,0,.4,0,.6v3.6h-1.2v-4.7Z"/><path class="af" d="M35.3,28.2c0,.4-.3,.8-.8,.8s-.7-.3-.7-.8,.3-.8,.8-.8,.8,.3,.8,.8Zm-1.4,8.7v-6.8h1.2v6.8h-1.2Z"/><path class="af" d="M42.1,36.6c-.3,.2-1,.4-1.9,.4-2,0-3.4-1.4-3.4-3.5s1.4-3.6,3.6-3.6,1.4,.2,1.7,.4l-.3,1c-.3-.2-.8-.3-1.4-.3-1.6,0-2.4,1.1-2.4,2.6s1,2.5,2.4,2.5,1.2-.2,1.5-.3l.2,.9Z"/><path class="af" d="M47.3,36.9v-.9h-.1c-.4,.5-1.1,1-2.1,1-1.4,0-2.1-1-2.1-1.9,0-1.6,1.5-2.5,4.1-2.5h0c0-.7-.2-1.7-1.5-1.7s-1.3,.2-1.8,.5l-.3-.8c.6-.4,1.4-.6,2.2-.6,2.1,0,2.6,1.4,2.6,2.8v2.5c0,.6,0,1.2,.1,1.6h-1.1Zm-.2-3.5c-1.3,0-2.9,.2-2.9,1.5s.5,1.2,1.2,1.2,1.4-.6,1.6-1.1c0-.1,0-.3,0-.4v-1.2Z"/><path class="af" d="M50.2,26.9h1.2v9.9h-1.2v-9.9Z"/><path class="af" d="M1.1,44.2h1.2v8.4H6.3v1H1.1v-9.4Z"/><path class="af" d="M11.4,53.7v-.9h-.1c-.4,.5-1.1,1-2.1,1-1.4,0-2.1-1-2.1-1.9,0-1.6,1.5-2.5,4.1-2.5h0c0-.7-.2-1.7-1.5-1.7s-1.3,.2-1.8,.5l-.3-.8c.6-.4,1.4-.6,2.2-.6,2.1,0,2.6,1.4,2.6,2.8v2.5c0,.6,0,1.2,.1,1.6h-1.1Zm-.2-3.5c-1.3,0-2.9,.2-2.9,1.5s.5,1.2,1.2,1.2,1.4-.6,1.6-1.1c0-.1,0-.3,0-.4v-1.2Z"/><path class="af" d="M14.7,46.9l1.5,4c.2,.4,.3,1,.4,1.4h0c.1-.4,.3-.9,.4-1.4l1.3-4h1.3l-1.8,4.8c-.9,2.3-1.5,3.5-2.3,4.2-.6,.5-1.2,.7-1.5,.8l-.3-1c.3,0,.7-.3,1.1-.6,.3-.3,.8-.7,1-1.4,0-.1,0-.2,0-.3s0-.2,0-.3l-2.5-6.2h1.3Z"/><path class="af" d="M26.9,50.2c0,2.5-1.7,3.6-3.4,3.6s-3.2-1.3-3.2-3.5,1.5-3.6,3.4-3.6,3.3,1.4,3.3,3.5Zm-5.4,0c0,1.5,.9,2.6,2.1,2.6s2.1-1.1,2.1-2.6-.6-2.6-2-2.6-2.1,1.3-2.1,2.6Z"/><path class="af" d="M34.1,51.8c0,.7,0,1.3,0,1.8h-1.1v-1.1h0c-.3,.5-1,1.3-2.2,1.3s-2.3-.6-2.3-3v-4h1.2v3.8c0,1.3,.4,2.2,1.5,2.2s1.4-.6,1.6-1.1c0-.2,.1-.4,.1-.6v-4.2h1.2v4.9Z"/><path class="af" d="M37.6,45v1.9h1.8v.9h-1.8v3.7c0,.8,.2,1.3,.9,1.3s.6,0,.7,0v.9c-.2,0-.6,.2-1,.2s-1-.2-1.3-.5c-.4-.4-.5-1-.5-1.8v-3.7h-1.1v-.9h1.1v-1.6l1.2-.3Z"/></g></svg>