<?xml version='1.0' encoding='us-ascii'?>
<svg width="165.55mm" height="271.45mm" viewBox="0.0 0.0 165.55 271.45" xmlns="http://www.w3.org/2000/svg" xmlns:dc="http://purl.org/dc/elements/1.1/" xmlns:cc="http://creativecommons.org/ns#" xmlns:rdf="http://www.w3.org/1999/02/22-rdf-syntax-ns#" xmlns:svg="http://www.w3.org/2000/svg" xmlns:xlink="http://www.w3.org/1999/xlink" xmlns:inkscape="http://www.inkscape.org/namespaces/inkscape">
<!--
ElectronicsBox - Closed box with screw on top and mounting holes

Created with Boxes.py (https://festi.info/boxes.py)
Creation date: 2022-07-27 19:35:58
Command line (remove spaces between dashes): boxes ElectronicsBox - -FingerJoint_angle=90.0 - -FingerJoint_style=rectangular - -FingerJoint_surroundingspaces=1.0 - -FingerJoint_edge_width=1.0 - -FingerJoint_extra_length=0.0 - -FingerJoint_finger=1.5 - -FingerJoint_play=0.0 - -FingerJoint_space=2.0 - -FingerJoint_width=1.0 - -x=58.00 - -y=66.00 - -h=15.5 - -outside=0 - -triangle=18.0 - -d1=3.0 - -d2=3.0 - -d3=3.0 - -outsidemounts=0 - -outsidemounts=1 - -holedist=7.0 - -thickness=4.5 - -format=svg - -tabs=0.0 - -debug=0 - -labels=0 - -labels=1 - -reference=100 - -inner_corners=loop - -burn=0.3
Url: http://www.festi.info/ElectronicsBox?FingerJoint_angle=90.0&FingerJoint_style=rectangular&FingerJoint_surroundingspaces=1.0&FingerJoint_edge_width=1.0&FingerJoint_extra_length=0.0&FingerJoint_finger=1.5&FingerJoint_play=0.0&FingerJoint_space=2.0&FingerJoint_width=1.0&x=58.00&y=66.00&h=15.5&outside=0&triangle=18.0&d1=3.0&d2=3.0&d3=3.0&outsidemounts=0&outsidemounts=1&holedist=7.0&thickness=4.5&format=svg&tabs=0.0&debug=0&labels=0&labels=1&reference=100&inner_corners=loop&burn=0.3&render=1
SettingsUrl: http://www.festi.info/ElectronicsBox?FingerJoint_angle=90.0&FingerJoint_style=rectangular&FingerJoint_surroundingspaces=1.0&FingerJoint_edge_width=1.0&FingerJoint_extra_length=0.0&FingerJoint_finger=1.5&FingerJoint_play=0.0&FingerJoint_space=2.0&FingerJoint_width=1.0&x=58.00&y=66.00&h=15.5&outside=0&triangle=18.0&d1=3.0&d2=3.0&d3=3.0&outsidemounts=0&outsidemounts=1&holedist=7.0&thickness=4.5&format=svg&tabs=0.0&debug=0&labels=0&labels=1&reference=100&inner_corners=loop&burn=0.3
-->
<title>ElectronicsBox</title>
<metadata>
<rdf:RDF><cc:Work>
<dc:title>Box - ElectronicsBox</dc:title>
<dc:date>2022-07-27 19:35:58</dc:date>
<dc:source>http://www.festi.info/ElectronicsBox?FingerJoint_angle=90.0&amp;FingerJoint_style=rectangular&amp;FingerJoint_surroundingspaces=1.0&amp;FingerJoint_edge_width=1.0&amp;FingerJoint_extra_length=0.0&amp;FingerJoint_finger=1.5&amp;FingerJoint_play=0.0&amp;FingerJoint_space=2.0&amp;FingerJoint_width=1.0&amp;x=58.00&amp;y=66.00&amp;h=15.5&amp;outside=0&amp;triangle=18.0&amp;d1=3.0&amp;d2=3.0&amp;d3=3.0&amp;outsidemounts=0&amp;outsidemounts=1&amp;holedist=7.0&amp;thickness=4.5&amp;format=svg&amp;tabs=0.0&amp;debug=0&amp;labels=0&amp;labels=1&amp;reference=100&amp;inner_corners=loop&amp;burn=0.3&amp;render=1</dc:source>
<dc:description>Closed box with screw on top and mounting holes

Created with Boxes.py (https://festi.info/boxes.py)
Command line: boxes ElectronicsBox --FingerJoint_angle=90.0 --FingerJoint_style=rectangular --FingerJoint_surroundingspaces=1.0 --FingerJoint_edge_width=1.0 --FingerJoint_extra_length=0.0 --FingerJoint_finger=1.5 --FingerJoint_play=0.0 --FingerJoint_space=2.0 --FingerJoint_width=1.0 --x=58.00 --y=66.00 --h=15.5 --outside=0 --triangle=18.0 --d1=3.0 --d2=3.0 --d3=3.0 --outsidemounts=0 --outsidemounts=1 --holedist=7.0 --thickness=4.5 --format=svg --tabs=0.0 --debug=0 --labels=0 --labels=1 --reference=100 --inner_corners=loop --burn=0.3
Url: http://www.festi.info/ElectronicsBox?FingerJoint_angle=90.0&amp;FingerJoint_style=rectangular&amp;FingerJoint_surroundingspaces=1.0&amp;FingerJoint_edge_width=1.0&amp;FingerJoint_extra_length=0.0&amp;FingerJoint_finger=1.5&amp;FingerJoint_play=0.0&amp;FingerJoint_space=2.0&amp;FingerJoint_width=1.0&amp;x=58.00&amp;y=66.00&amp;h=15.5&amp;outside=0&amp;triangle=18.0&amp;d1=3.0&amp;d2=3.0&amp;d3=3.0&amp;outsidemounts=0&amp;outsidemounts=1&amp;holedist=7.0&amp;thickness=4.5&amp;format=svg&amp;tabs=0.0&amp;debug=0&amp;labels=0&amp;labels=1&amp;reference=100&amp;inner_corners=loop&amp;burn=0.3&amp;render=1
SettingsUrl: http://www.festi.info/ElectronicsBox?FingerJoint_angle=90.0&amp;FingerJoint_style=rectangular&amp;FingerJoint_surroundingspaces=1.0&amp;FingerJoint_edge_width=1.0&amp;FingerJoint_extra_length=0.0&amp;FingerJoint_finger=1.5&amp;FingerJoint_play=0.0&amp;FingerJoint_space=2.0&amp;FingerJoint_width=1.0&amp;x=58.00&amp;y=66.00&amp;h=15.5&amp;outside=0&amp;triangle=18.0&amp;d1=3.0&amp;d2=3.0&amp;d3=3.0&amp;outsidemounts=0&amp;outsidemounts=1&amp;holedist=7.0&amp;thickness=4.5&amp;format=svg&amp;tabs=0.0&amp;debug=0&amp;labels=0&amp;labels=1&amp;reference=100&amp;inner_corners=loop&amp;burn=0.3
</dc:description>
</cc:Work></rdf:RDF></metadata>
<g id="p-0" style="fill:none;stroke-linecap:round;stroke-linejoin:round;">
  <path d="M 10.400 261.450 H 110.400 V 251.450 H 10.400 V 261.450 Z" stroke="rgb(0,0,0)" stroke-width="0.60" />
  <text transform="matrix( 1.000 0.000 0.000 1.000 60.400 252.450 )" style="font-family: sans-serif ; font-weight: normal; font-style: normal; fill: rgb(255,0,0)" font-size="8px" text-anchor="middle" dominant-baseline="hanging">100mm, burn:0.30mm</text>
</g>
<g id="p-1" style="fill:none;stroke-linecap:round;stroke-linejoin:round;">
  <path d="M 23.900 228.000 H 20.825 C 20.525 228.000 20.825 228.300 20.825 228.000 V 224.100 C 20.825 223.800 20.525 224.100 20.825 224.100 H 26.975 C 27.275 224.100 26.975 223.800 26.975 224.100 V 228.000 C 26.975 228.300 27.275 228.000 26.975 228.000 H 23.900 Z" stroke="rgb(0,0,255)" stroke-width="0.60" />
  <path d="M 63.900 224.100 H 66.975 C 67.275 224.100 66.975 223.800 66.975 224.100 V 228.000 C 66.975 228.300 67.275 228.000 66.975 228.000 H 60.825 C 60.525 228.000 60.825 228.300 60.825 228.000 V 224.100 C 60.825 223.800 60.525 224.100 60.825 224.100 H 63.900 Z" stroke="rgb(0,0,255)" stroke-width="0.60" />
  <text transform="matrix( 1.000 0.000 0.000 1.000 43.900 232.100 )" style="font-family: sans-serif ; font-weight: normal; font-style: normal; fill: rgb(255,0,0)" font-size="4px" text-anchor="middle" dominant-baseline="hanging">Wall 1</text><path d="M 14.900 244.100 H 24.475 C 24.775 244.100 24.475 243.800 24.475 244.100 V 248.300 C 24.475 248.466 24.609 248.600 24.775 248.600 H 31.525 C 31.691 248.600 31.825 248.466 31.825 248.300 V 244.100 C 31.825 243.800 31.525 244.100 31.825 244.100 H 40.225 C 40.525 244.100 40.225 243.800 40.225 244.100 V 248.300 C 40.225 248.466 40.359 248.600 40.525 248.600 H 47.275 C 47.441 248.600 47.575 248.466 47.575 248.300 V 244.100 C 47.575 243.800 47.275 244.100 47.575 244.100 H 55.975 C 56.275 244.100 55.975 243.800 55.975 244.100 V 248.300 C 55.975 248.466 56.109 248.600 56.275 248.600 H 63.025 C 63.191 248.600 63.325 248.466 63.325 248.300 V 244.100 C 63.325 243.800 63.025 244.100 63.325 244.100 H 72.900 H 77.400 C 77.566 244.100 77.700 243.966 77.700 243.800 V 234.925 C 77.700 234.759 77.566 234.625 77.400 234.625 H 73.200 C 72.900 234.625 73.200 234.925 73.200 234.625 V 228.475 C 73.200 228.175 72.900 228.475 73.200 228.475 H 77.400 C 77.566 228.475 77.700 228.341 77.700 228.175 V 219.300 C 77.700 219.134 77.566 219.000 77.400 219.000 H 72.900 H 14.900 H 10.400 C 10.234 219.000 10.100 219.134 10.100 219.300 V 228.175 C 10.100 228.341 10.234 228.475 10.400 228.475 H 14.600 C 14.900 228.475 14.600 228.175 14.600 228.475 V 234.625 C 14.600 234.925 14.900 234.625 14.600 234.625 H 10.400 C 10.234 234.625 10.100 234.759 10.100 234.925 V 243.800 C 10.100 243.966 10.234 244.100 10.400 244.100 H 14.900" stroke="rgb(0,0,0)" stroke-width="0.60" />
</g>
<g id="p-2" style="fill:none;stroke-linecap:round;stroke-linejoin:round;">
  <path d="M 93.750 228.000 H 90.675 C 90.375 228.000 90.675 228.300 90.675 228.000 V 224.100 C 90.675 223.800 90.375 224.100 90.675 224.100 H 96.825 C 97.125 224.100 96.825 223.800 96.825 224.100 V 228.000 C 96.825 228.300 97.125 228.000 96.825 228.000 H 93.750 Z" stroke="rgb(0,0,255)" stroke-width="0.60" />
  <path d="M 141.750 224.100 H 144.825 C 145.125 224.100 144.825 223.800 144.825 224.100 V 228.000 C 144.825 228.300 145.125 228.000 144.825 228.000 H 138.675 C 138.375 228.000 138.675 228.300 138.675 228.000 V 224.100 C 138.675 223.800 138.375 224.100 138.675 224.100 H 141.750 Z" stroke="rgb(0,0,255)" stroke-width="0.60" />
  <text transform="matrix( 1.000 0.000 0.000 1.000 117.750 232.100 )" style="font-family: sans-serif ; font-weight: normal; font-style: normal; fill: rgb(255,0,0)" font-size="4px" text-anchor="middle" dominant-baseline="hanging">Wall 2</text><path d="M 84.750 244.100 H 90.450 C 90.750 244.100 90.450 243.800 90.450 244.100 V 248.300 C 90.450 248.466 90.584 248.600 90.750 248.600 H 97.500 C 97.666 248.600 97.800 248.466 97.800 248.300 V 244.100 C 97.800 243.800 97.500 244.100 97.800 244.100 H 106.200 C 106.500 244.100 106.200 243.800 106.200 244.100 V 248.300 C 106.200 248.466 106.334 248.600 106.500 248.600 H 113.250 C 113.416 248.600 113.550 248.466 113.550 248.300 V 244.100 C 113.550 243.800 113.250 244.100 113.550 244.100 H 121.950 C 122.250 244.100 121.950 243.800 121.950 244.100 V 248.300 C 121.950 248.466 122.084 248.600 122.250 248.600 H 129.000 C 129.166 248.600 129.300 248.466 129.300 248.300 V 244.100 C 129.300 243.800 129.000 244.100 129.300 244.100 H 137.700 C 138.000 244.100 137.700 243.800 137.700 244.100 V 248.300 C 137.700 248.466 137.834 248.600 138.000 248.600 H 144.750 C 144.916 248.600 145.050 248.466 145.050 248.300 V 244.100 C 145.050 243.800 144.750 244.100 145.050 244.100 H 150.750 C 150.916 244.100 151.050 243.966 151.050 243.800 V 235.225 C 151.050 234.925 150.750 235.225 151.050 235.225 H 155.250 C 155.416 235.225 155.550 235.091 155.550 234.925 V 228.175 C 155.550 228.009 155.416 227.875 155.250 227.875 H 151.050 C 150.750 227.875 151.050 228.175 151.050 227.875 V 219.300 C 151.050 219.134 150.916 219.000 150.750 219.000 H 84.750 C 84.584 219.000 84.450 219.134 84.450 219.300 V 227.875 C 84.450 228.175 84.750 227.875 84.450 227.875 H 80.250 C 80.084 227.875 79.950 228.009 79.950 228.175 V 234.925 C 79.950 235.091 80.084 235.225 80.250 235.225 H 84.450 C 84.750 235.225 84.450 234.925 84.450 235.225 V 243.800 C 84.450 243.966 84.584 244.100 84.750 244.100" stroke="rgb(0,0,0)" stroke-width="0.60" />
</g>
<g id="p-3" style="fill:none;stroke-linecap:round;stroke-linejoin:round;">
  <path d="M 93.750 196.150 H 90.675 C 90.375 196.150 90.675 196.450 90.675 196.150 V 192.250 C 90.675 191.950 90.375 192.250 90.675 192.250 H 96.825 C 97.125 192.250 96.825 191.950 96.825 192.250 V 196.150 C 96.825 196.450 97.125 196.150 96.825 196.150 H 93.750 Z" stroke="rgb(0,0,255)" stroke-width="0.60" />
  <path d="M 141.750 192.250 H 144.825 C 145.125 192.250 144.825 191.950 144.825 192.250 V 196.150 C 144.825 196.450 145.125 196.150 144.825 196.150 H 138.675 C 138.375 196.150 138.675 196.450 138.675 196.150 V 192.250 C 138.675 191.950 138.375 192.250 138.675 192.250 H 141.750 Z" stroke="rgb(0,0,255)" stroke-width="0.60" />
  <text transform="matrix( 1.000 0.000 0.000 1.000 117.750 200.250 )" style="font-family: sans-serif ; font-weight: normal; font-style: normal; fill: rgb(255,0,0)" font-size="4px" text-anchor="middle" dominant-baseline="hanging">Wall 4</text><path d="M 84.750 212.250 H 90.450 C 90.750 212.250 90.450 211.950 90.450 212.250 V 216.450 C 90.450 216.616 90.584 216.750 90.750 216.750 H 97.500 C 97.666 216.750 97.800 216.616 97.800 216.450 V 212.250 C 97.800 211.950 97.500 212.250 97.800 212.250 H 106.200 C 106.500 212.250 106.200 211.950 106.200 212.250 V 216.450 C 106.200 216.616 106.334 216.750 106.500 216.750 H 113.250 C 113.416 216.750 113.550 216.616 113.550 216.450 V 212.250 C 113.550 211.950 113.250 212.250 113.550 212.250 H 121.950 C 122.250 212.250 121.950 211.950 121.950 212.250 V 216.450 C 121.950 216.616 122.084 216.750 122.250 216.750 H 129.000 C 129.166 216.750 129.300 216.616 129.300 216.450 V 212.250 C 129.300 211.950 129.000 212.250 129.300 212.250 H 137.700 C 138.000 212.250 137.700 211.950 137.700 212.250 V 216.450 C 137.700 216.616 137.834 216.750 138.000 216.750 H 144.750 C 144.916 216.750 145.050 216.616 145.050 216.450 V 212.250 C 145.050 211.950 144.750 212.250 145.050 212.250 H 150.750 C 150.916 212.250 151.050 212.116 151.050 211.950 V 203.375 C 151.050 203.075 150.750 203.375 151.050 203.375 H 155.250 C 155.416 203.375 155.550 203.241 155.550 203.075 V 196.325 C 155.550 196.159 155.416 196.025 155.250 196.025 H 151.050 C 150.750 196.025 151.050 196.325 151.050 196.025 V 187.450 C 151.050 187.284 150.916 187.150 150.750 187.150 H 84.750 C 84.584 187.150 84.450 187.284 84.450 187.450 V 196.025 C 84.450 196.325 84.750 196.025 84.450 196.025 H 80.250 C 80.084 196.025 79.950 196.159 79.950 196.325 V 203.075 C 79.950 203.241 80.084 203.375 80.250 203.375 H 84.450 C 84.750 203.375 84.450 203.075 84.450 203.375 V 211.950 C 84.450 212.116 84.584 212.250 84.750 212.250" stroke="rgb(0,0,0)" stroke-width="0.60" />
</g>
<g id="p-4" style="fill:none;stroke-linecap:round;stroke-linejoin:round;">
  <path d="M 23.900 196.150 H 20.825 C 20.525 196.150 20.825 196.450 20.825 196.150 V 192.250 C 20.825 191.950 20.525 192.250 20.825 192.250 H 26.975 C 27.275 192.250 26.975 191.950 26.975 192.250 V 196.150 C 26.975 196.450 27.275 196.150 26.975 196.150 H 23.900 Z" stroke="rgb(0,0,255)" stroke-width="0.60" />
  <path d="M 63.900 192.250 H 66.975 C 67.275 192.250 66.975 191.950 66.975 192.250 V 196.150 C 66.975 196.450 67.275 196.150 66.975 196.150 H 60.825 C 60.525 196.150 60.825 196.450 60.825 196.150 V 192.250 C 60.825 191.950 60.525 192.250 60.825 192.250 H 63.900 Z" stroke="rgb(0,0,255)" stroke-width="0.60" />
  <text transform="matrix( 1.000 0.000 0.000 1.000 43.900 200.250 )" style="font-family: sans-serif ; font-weight: normal; font-style: normal; fill: rgb(255,0,0)" font-size="4px" text-anchor="middle" dominant-baseline="hanging">Wall 3</text><path d="M 14.900 212.250 H 24.475 C 24.775 212.250 24.475 211.950 24.475 212.250 V 216.450 C 24.475 216.616 24.609 216.750 24.775 216.750 H 31.525 C 31.691 216.750 31.825 216.616 31.825 216.450 V 212.250 C 31.825 211.950 31.525 212.250 31.825 212.250 H 40.225 C 40.525 212.250 40.225 211.950 40.225 212.250 V 216.450 C 40.225 216.616 40.359 216.750 40.525 216.750 H 47.275 C 47.441 216.750 47.575 216.616 47.575 216.450 V 212.250 C 47.575 211.950 47.275 212.250 47.575 212.250 H 55.975 C 56.275 212.250 55.975 211.950 55.975 212.250 V 216.450 C 55.975 216.616 56.109 216.750 56.275 216.750 H 63.025 C 63.191 216.750 63.325 216.616 63.325 216.450 V 212.250 C 63.325 211.950 63.025 212.250 63.325 212.250 H 72.900 H 77.400 C 77.566 212.250 77.700 212.116 77.700 211.950 V 203.075 C 77.700 202.909 77.566 202.775 77.400 202.775 H 73.200 C 72.900 202.775 73.200 203.075 73.200 202.775 V 196.625 C 73.200 196.325 72.900 196.625 73.200 196.625 H 77.400 C 77.566 196.625 77.700 196.491 77.700 196.325 V 187.450 C 77.700 187.284 77.566 187.150 77.400 187.150 H 72.900 H 14.900 H 10.400 C 10.234 187.150 10.100 187.284 10.100 187.450 V 196.325 C 10.100 196.491 10.234 196.625 10.400 196.625 H 14.600 C 14.900 196.625 14.600 196.325 14.600 196.625 V 202.775 C 14.600 203.075 14.900 202.775 14.600 202.775 H 10.400 C 10.234 202.775 10.100 202.909 10.100 203.075 V 211.950 C 10.100 212.116 10.234 212.250 10.400 212.250 H 14.900" stroke="rgb(0,0,0)" stroke-width="0.60" />
</g>
<g id="p-5" style="fill:none;stroke-linecap:round;stroke-linejoin:round;">
  <path d="M 18.600 177.600 C 18.600 177.830 18.534 178.055 18.410 178.249 C 18.285 178.442 18.108 178.596 17.898 178.692 C 17.689 178.787 17.457 178.821 17.229 178.788 C 17.002 178.755 16.788 178.658 16.614 178.507 C 16.440 178.356 16.313 178.159 16.249 177.938 C 16.184 177.717 16.184 177.483 16.249 177.262 C 16.313 177.041 16.440 176.844 16.614 176.693 C 16.788 176.542 17.002 176.445 17.229 176.412 C 17.457 176.379 17.689 176.413 17.898 176.508 C 18.108 176.604 18.285 176.758 18.410 176.951 C 18.534 177.145 18.600 177.370 18.600 177.600 Z" stroke="rgb(0,0,255)" stroke-width="0.60" />
  <text transform="matrix( 1.000 0.000 0.000 1.000 57.900 145.400 )" style="font-family: sans-serif ; font-weight: normal; font-style: normal; fill: rgb(255,0,0)" font-size="4px" text-anchor="middle" dominant-baseline="hanging">Bottom</text><path d="M 17.400 184.900 H 28.900 H 38.775 C 38.941 184.900 39.075 184.766 39.075 184.600 V 180.400 C 39.075 180.100 38.775 180.400 39.075 180.400 H 45.225 C 45.525 180.400 45.225 180.100 45.225 180.400 V 184.600 C 45.225 184.766 45.359 184.900 45.525 184.900 H 54.525 C 54.691 184.900 54.825 184.766 54.825 184.600 V 180.400 C 54.825 180.100 54.525 180.400 54.825 180.400 H 60.975 C 61.275 180.400 60.975 180.100 60.975 180.400 V 184.600 C 60.975 184.766 61.109 184.900 61.275 184.900 H 70.275 C 70.441 184.900 70.575 184.766 70.575 184.600 V 180.400 C 70.575 180.100 70.275 180.400 70.575 180.400 H 76.725 C 77.025 180.400 76.725 180.100 76.725 180.400 V 184.600 C 76.725 184.766 76.859 184.900 77.025 184.900 H 86.900 H 98.400 C 99.681 184.900 100.940 184.563 102.050 183.922 C 103.160 183.281 104.081 182.360 104.722 181.250 C 105.363 180.140 105.700 178.881 105.700 177.600 V 116.600 C 105.700 115.319 105.363 114.060 104.722 112.950 C 104.081 111.840 103.160 110.919 102.050 110.278 C 100.940 109.637 99.681 109.300 98.400 109.300 H 86.900 H 77.025 C 76.859 109.300 76.725 109.434 76.725 109.600 V 113.800 C 76.725 114.100 77.025 113.800 76.725 113.800 H 70.575 C 70.275 113.800 70.575 114.100 70.575 113.800 V 109.600 C 70.575 109.434 70.441 109.300 70.275 109.300 H 61.275 C 61.109 109.300 60.975 109.434 60.975 109.600 V 113.800 C 60.975 114.100 61.275 113.800 60.975 113.800 H 54.825 C 54.525 113.800 54.825 114.100 54.825 113.800 V 109.600 C 54.825 109.434 54.691 109.300 54.525 109.300 H 45.525 C 45.359 109.300 45.225 109.434 45.225 109.600 V 113.800 C 45.225 114.100 45.525 113.800 45.225 113.800 H 39.075 C 38.775 113.800 39.075 114.100 39.075 113.800 V 109.600 C 39.075 109.434 38.941 109.300 38.775 109.300 H 28.900 H 17.400 C 16.119 109.300 14.860 109.637 13.750 110.278 C 12.640 110.919 11.719 111.840 11.078 112.950 C 10.437 114.060 10.100 115.319 10.100 116.600 V 177.600 C 10.100 178.881 10.437 180.140 11.078 181.250 C 11.719 182.360 12.640 183.281 13.750 183.922 C 14.860 184.563 16.119 184.900 17.400 184.900" stroke="rgb(0,0,0)" stroke-width="0.60" />
  <path d="M 98.400 176.400 C 98.630 176.400 98.855 176.466 99.049 176.590 C 99.242 176.715 99.396 176.892 99.492 177.102 C 99.587 177.311 99.621 177.543 99.588 177.771 C 99.555 177.998 99.458 178.212 99.307 178.386 C 99.156 178.560 98.959 178.687 98.738 178.751 C 98.517 178.816 98.283 178.816 98.062 178.751 C 97.841 178.687 97.644 178.560 97.493 178.386 C 97.342 178.212 97.245 177.998 97.212 177.771 C 97.179 177.543 97.213 177.311 97.308 177.102 C 97.404 176.892 97.558 176.715 97.751 176.590 C 97.945 176.466 98.170 176.400 98.400 176.400 Z" stroke="rgb(0,0,255)" stroke-width="0.60" />
  <path d="M 91.400 170.725 V 173.800 C 91.400 174.100 91.700 173.800 91.400 173.800 H 87.500 C 87.200 173.800 87.500 174.100 87.500 173.800 V 167.650 C 87.500 167.350 87.200 167.650 87.500 167.650 H 91.400 C 91.700 167.650 91.400 167.350 91.400 167.650 V 170.725 Z" stroke="rgb(0,0,255)" stroke-width="0.60" />
  <path d="M 91.400 154.975 V 158.050 C 91.400 158.350 91.700 158.050 91.400 158.050 H 87.500 C 87.200 158.050 87.500 158.350 87.500 158.050 V 151.900 C 87.500 151.600 87.200 151.900 87.500 151.900 H 91.400 C 91.700 151.900 91.400 151.600 91.400 151.900 V 154.975 Z" stroke="rgb(0,0,255)" stroke-width="0.60" />
  <path d="M 91.400 139.225 V 142.300 C 91.400 142.600 91.700 142.300 91.400 142.300 H 87.500 C 87.200 142.300 87.500 142.600 87.500 142.300 V 136.150 C 87.500 135.850 87.200 136.150 87.500 136.150 H 91.400 C 91.700 136.150 91.400 135.850 91.400 136.150 V 139.225 Z" stroke="rgb(0,0,255)" stroke-width="0.60" />
  <path d="M 91.400 123.475 V 126.550 C 91.400 126.850 91.700 126.550 91.400 126.550 H 87.500 C 87.200 126.550 87.500 126.850 87.500 126.550 V 120.400 C 87.500 120.100 87.200 120.400 87.500 120.400 H 91.400 C 91.700 120.400 91.400 120.100 91.400 120.400 V 123.475 Z" stroke="rgb(0,0,255)" stroke-width="0.60" />
  <path d="M 97.200 116.600 C 97.200 116.370 97.266 116.145 97.390 115.951 C 97.515 115.758 97.692 115.604 97.902 115.508 C 98.111 115.413 98.343 115.379 98.571 115.412 C 98.798 115.445 99.012 115.542 99.186 115.693 C 99.360 115.844 99.487 116.041 99.551 116.262 C 99.616 116.483 99.616 116.717 99.551 116.938 C 99.487 117.159 99.360 117.356 99.186 117.507 C 99.012 117.658 98.798 117.755 98.571 117.788 C 98.343 117.821 98.111 117.787 97.902 117.692 C 97.692 117.596 97.515 117.442 97.390 117.249 C 97.266 117.055 97.200 116.830 97.200 116.600 Z" stroke="rgb(0,0,255)" stroke-width="0.60" />
  <path d="M 17.400 117.800 C 17.170 117.800 16.945 117.734 16.751 117.610 C 16.558 117.485 16.404 117.308 16.308 117.098 C 16.213 116.889 16.179 116.657 16.212 116.429 C 16.245 116.202 16.342 115.988 16.493 115.814 C 16.644 115.640 16.841 115.513 17.062 115.449 C 17.283 115.384 17.517 115.384 17.738 115.449 C 17.959 115.513 18.156 115.640 18.307 115.814 C 18.458 115.988 18.555 116.202 18.588 116.429 C 18.621 116.657 18.587 116.889 18.492 117.098 C 18.396 117.308 18.242 117.485 18.049 117.610 C 17.855 117.734 17.630 117.800 17.400 117.800 Z" stroke="rgb(0,0,255)" stroke-width="0.60" />
  <path d="M 24.400 123.475 V 120.400 C 24.400 120.100 24.100 120.400 24.400 120.400 H 28.300 C 28.600 120.400 28.300 120.100 28.300 120.400 V 126.550 C 28.300 126.850 28.600 126.550 28.300 126.550 H 24.400 C 24.100 126.550 24.400 126.850 24.400 126.550 V 123.475 Z" stroke="rgb(0,0,255)" stroke-width="0.60" />
  <path d="M 24.400 139.225 V 136.150 C 24.400 135.850 24.100 136.150 24.400 136.150 H 28.300 C 28.600 136.150 28.300 135.850 28.300 136.150 V 142.300 C 28.300 142.600 28.600 142.300 28.300 142.300 H 24.400 C 24.100 142.300 24.400 142.600 24.400 142.300 V 139.225 Z" stroke="rgb(0,0,255)" stroke-width="0.60" />
  <path d="M 24.400 154.975 V 151.900 C 24.400 151.600 24.100 151.900 24.400 151.900 H 28.300 C 28.600 151.900 28.300 151.600 28.300 151.900 V 158.050 C 28.300 158.350 28.600 158.050 28.300 158.050 H 24.400 C 24.100 158.050 24.400 158.350 24.400 158.050 V 154.975 Z" stroke="rgb(0,0,255)" stroke-width="0.60" />
  <path d="M 24.400 170.725 V 167.650 C 24.400 167.350 24.100 167.650 24.400 167.650 H 28.300 C 28.600 167.650 28.300 167.350 28.300 167.650 V 173.800 C 28.300 174.100 28.600 173.800 28.300 173.800 H 24.400 C 24.100 173.800 24.400 174.100 24.400 173.800 V 170.725 Z" stroke="rgb(0,0,255)" stroke-width="0.60" />
</g>
<g id="p-6" style="fill:none;stroke-linecap:round;stroke-linejoin:round;">
  <path d="M 17.600 100.750 C 17.600 100.980 17.534 101.205 17.410 101.399 C 17.285 101.592 17.108 101.746 16.898 101.842 C 16.689 101.937 16.457 101.971 16.229 101.938 C 16.002 101.905 15.788 101.808 15.614 101.657 C 15.440 101.506 15.313 101.309 15.249 101.088 C 15.184 100.867 15.184 100.633 15.249 100.412 C 15.313 100.191 15.440 99.994 15.614 99.843 C 15.788 99.692 16.002 99.595 16.229 99.562 C 16.457 99.529 16.689 99.563 16.898 99.658 C 17.108 99.754 17.285 99.908 17.410 100.101 C 17.534 100.295 17.600 100.520 17.600 100.750 Z" stroke="rgb(0,0,255)" stroke-width="0.60" />
  <text transform="matrix( 1.000 0.000 0.000 1.000 39.400 72.050 )" style="font-family: sans-serif ; font-weight: normal; font-style: normal; fill: rgb(255,0,0)" font-size="4px" text-anchor="middle" dominant-baseline="hanging">Top</text><path d="M 10.400 107.050 H 68.400 C 68.566 107.050 68.700 106.916 68.700 106.750 V 40.750 C 68.700 40.584 68.566 40.450 68.400 40.450 H 10.400 C 10.234 40.450 10.100 40.584 10.100 40.750 V 106.750 C 10.100 106.916 10.234 107.050 10.400 107.050" stroke="rgb(0,0,0)" stroke-width="0.60" />
  <path d="M 62.400 99.550 C 62.630 99.550 62.855 99.616 63.049 99.740 C 63.242 99.865 63.396 100.042 63.492 100.252 C 63.587 100.461 63.621 100.693 63.588 100.921 C 63.555 101.148 63.458 101.362 63.307 101.536 C 63.156 101.710 62.959 101.837 62.738 101.901 C 62.517 101.966 62.283 101.966 62.062 101.901 C 61.841 101.837 61.644 101.710 61.493 101.536 C 61.342 101.362 61.245 101.148 61.212 100.921 C 61.179 100.693 61.213 100.461 61.308 100.252 C 61.404 100.042 61.558 99.865 61.751 99.740 C 61.945 99.616 62.170 99.550 62.400 99.550 Z" stroke="rgb(0,0,255)" stroke-width="0.60" />
  <path d="M 61.200 46.750 C 61.200 46.520 61.266 46.295 61.390 46.101 C 61.515 45.908 61.692 45.754 61.902 45.658 C 62.111 45.563 62.343 45.529 62.571 45.562 C 62.798 45.595 63.012 45.692 63.186 45.843 C 63.360 45.994 63.487 46.191 63.551 46.412 C 63.616 46.633 63.616 46.867 63.551 47.088 C 63.487 47.309 63.360 47.506 63.186 47.657 C 63.012 47.808 62.798 47.905 62.571 47.938 C 62.343 47.971 62.111 47.937 61.902 47.842 C 61.692 47.746 61.515 47.592 61.390 47.399 C 61.266 47.205 61.200 46.980 61.200 46.750 Z" stroke="rgb(0,0,255)" stroke-width="0.60" />
  <path d="M 16.400 47.950 C 16.170 47.950 15.945 47.884 15.751 47.760 C 15.558 47.635 15.404 47.458 15.308 47.248 C 15.213 47.039 15.179 46.807 15.212 46.579 C 15.245 46.352 15.342 46.138 15.493 45.964 C 15.644 45.790 15.841 45.663 16.062 45.599 C 16.283 45.534 16.517 45.534 16.738 45.599 C 16.959 45.663 17.156 45.790 17.307 45.964 C 17.458 46.138 17.555 46.352 17.588 46.579 C 17.621 46.807 17.587 47.039 17.492 47.248 C 17.396 47.458 17.242 47.635 17.049 47.760 C 16.855 47.884 16.630 47.950 16.400 47.950 Z" stroke="rgb(0,0,255)" stroke-width="0.60" />
</g>
<g id="p-7" style="fill:none;stroke-linecap:round;stroke-linejoin:round;">
  <path d="M 22.961 33.700 H 28.286 C 28.586 33.700 28.286 33.400 28.286 33.700 V 37.900 C 28.286 38.066 28.420 38.200 28.586 38.200 H 35.336 C 35.502 38.200 35.636 38.066 35.636 37.900 V 33.700 C 35.636 33.400 35.336 33.700 35.636 33.700 H 40.961 C 41.127 33.700 41.261 33.566 41.261 33.400 V 28.075 C 41.261 27.775 40.961 28.075 41.261 28.075 H 45.461 C 45.627 28.075 45.761 27.941 45.761 27.775 V 21.025 C 45.761 20.859 45.627 20.725 45.461 20.725 H 41.261 C 40.961 20.725 41.261 21.025 41.261 20.725 V 15.400 C 41.261 15.234 41.127 15.100 40.961 15.100 C 40.881 15.100 40.805 15.132 40.749 15.188 L 22.749 33.188 C 22.693 33.244 22.661 33.320 22.661 33.400 C 22.661 33.566 22.795 33.700 22.961 33.700 Z" stroke="rgb(0,0,0)" stroke-width="0.60" />
  <path d="M 34.961 26.200 C 35.191 26.200 35.416 26.266 35.610 26.390 C 35.803 26.515 35.957 26.692 36.053 26.902 C 36.148 27.111 36.182 27.343 36.149 27.571 C 36.116 27.798 36.019 28.012 35.868 28.186 C 35.717 28.360 35.520 28.487 35.299 28.551 C 35.078 28.616 34.844 28.616 34.623 28.551 C 34.402 28.487 34.205 28.360 34.054 28.186 C 33.903 28.012 33.806 27.798 33.773 27.571 C 33.740 27.343 33.774 27.111 33.869 26.902 C 33.965 26.692 34.119 26.515 34.312 26.390 C 34.506 26.266 34.731 26.200 34.961 26.200 Z" stroke="rgb(0,0,255)" stroke-width="0.60" />
  <path d="M 32.900 14.500 H 27.575 C 27.275 14.500 27.575 14.800 27.575 14.500 V 10.300 C 27.575 10.134 27.441 10.000 27.275 10.000 H 20.525 C 20.359 10.000 20.225 10.134 20.225 10.300 V 14.500 C 20.225 14.800 20.525 14.500 20.225 14.500 H 14.900 C 14.734 14.500 14.600 14.634 14.600 14.800 V 20.125 C 14.600 20.425 14.900 20.125 14.600 20.125 H 10.400 C 10.234 20.125 10.100 20.259 10.100 20.425 V 27.175 C 10.100 27.341 10.234 27.475 10.400 27.475 H 14.600 C 14.900 27.475 14.600 27.175 14.600 27.475 V 32.800 C 14.600 32.966 14.734 33.100 14.900 33.100 C 14.980 33.100 15.056 33.068 15.112 33.012 L 33.112 15.012 C 33.168 14.956 33.200 14.880 33.200 14.800 C 33.200 14.634 33.066 14.500 32.900 14.500 Z" stroke="rgb(0,0,0)" stroke-width="0.60" />
  <path d="M 20.900 22.000 C 20.670 22.000 20.445 21.934 20.251 21.810 C 20.058 21.685 19.904 21.508 19.808 21.298 C 19.713 21.089 19.679 20.857 19.712 20.629 C 19.745 20.402 19.842 20.188 19.993 20.014 C 20.144 19.840 20.341 19.713 20.562 19.649 C 20.783 19.584 21.017 19.584 21.238 19.649 C 21.459 19.713 21.656 19.840 21.807 20.014 C 21.958 20.188 22.055 20.402 22.088 20.629 C 22.121 20.857 22.087 21.089 21.992 21.298 C 21.896 21.508 21.742 21.685 21.549 21.810 C 21.355 21.934 21.130 22.000 20.900 22.000 Z" stroke="rgb(0,0,255)" stroke-width="0.60" />
  <path d="M 60.872 33.700 H 66.197 C 66.497 33.700 66.197 33.400 66.197 33.700 V 37.900 C 66.197 38.066 66.331 38.200 66.497 38.200 H 73.247 C 73.413 38.200 73.547 38.066 73.547 37.900 V 33.700 C 73.547 33.400 73.247 33.700 73.547 33.700 H 78.872 C 79.038 33.700 79.172 33.566 79.172 33.400 V 28.075 C 79.172 27.775 78.872 28.075 79.172 28.075 H 83.372 C 83.538 28.075 83.672 27.941 83.672 27.775 V 21.025 C 83.672 20.859 83.538 20.725 83.372 20.725 H 79.172 C 78.872 20.725 79.172 21.025 79.172 20.725 V 15.400 C 79.172 15.234 79.038 15.100 78.872 15.100 C 78.792 15.100 78.716 15.132 78.660 15.188 L 60.660 33.188 C 60.604 33.244 60.572 33.320 60.572 33.400 C 60.572 33.566 60.706 33.700 60.872 33.700 Z" stroke="rgb(0,0,0)" stroke-width="0.60" />
  <path d="M 72.872 26.200 C 73.102 26.200 73.327 26.266 73.521 26.390 C 73.714 26.515 73.868 26.692 73.964 26.902 C 74.059 27.111 74.093 27.343 74.060 27.571 C 74.027 27.798 73.930 28.012 73.779 28.186 C 73.628 28.360 73.431 28.487 73.210 28.551 C 72.989 28.616 72.755 28.616 72.534 28.551 C 72.313 28.487 72.116 28.360 71.965 28.186 C 71.814 28.012 71.717 27.798 71.684 27.571 C 71.652 27.343 71.685 27.111 71.780 26.902 C 71.876 26.692 72.030 26.515 72.223 26.390 C 72.417 26.266 72.642 26.200 72.872 26.200 Z" stroke="rgb(0,0,255)" stroke-width="0.60" />
  <path d="M 70.811 14.500 H 65.486 C 65.186 14.500 65.486 14.800 65.486 14.500 V 10.300 C 65.486 10.134 65.352 10.000 65.186 10.000 H 58.436 C 58.270 10.000 58.136 10.134 58.136 10.300 V 14.500 C 58.136 14.800 58.436 14.500 58.136 14.500 H 52.811 C 52.645 14.500 52.511 14.634 52.511 14.800 V 20.125 C 52.511 20.425 52.811 20.125 52.511 20.125 H 48.311 C 48.145 20.125 48.011 20.259 48.011 20.425 V 27.175 C 48.011 27.341 48.145 27.475 48.311 27.475 H 52.511 C 52.811 27.475 52.511 27.175 52.511 27.475 V 32.800 C 52.511 32.966 52.645 33.100 52.811 33.100 C 52.891 33.100 52.967 33.068 53.023 33.012 L 71.023 15.012 C 71.079 14.956 71.111 14.880 71.111 14.800 C 71.111 14.634 70.977 14.500 70.811 14.500 Z" stroke="rgb(0,0,0)" stroke-width="0.60" />
  <path d="M 58.811 22.000 C 58.581 22.000 58.356 21.934 58.162 21.810 C 57.969 21.685 57.815 21.508 57.719 21.298 C 57.624 21.089 57.590 20.857 57.623 20.629 C 57.656 20.402 57.753 20.188 57.904 20.014 C 58.055 19.840 58.252 19.713 58.473 19.649 C 58.694 19.584 58.928 19.584 59.149 19.649 C 59.370 19.713 59.567 19.840 59.718 20.014 C 59.869 20.188 59.966 20.402 59.999 20.629 C 60.032 20.857 59.998 21.089 59.903 21.298 C 59.807 21.508 59.653 21.685 59.460 21.810 C 59.266 21.934 59.041 22.000 58.811 22.000 Z" stroke="rgb(0,0,255)" stroke-width="0.60" />
</g>
</svg>